<svg width="157" height="60"
            viewBox="0 0 157 60" fill="none" xmlns="http://www.w3.org/2000/svg">
            <path
                d="M0.920166 15.411C0.920166 15.184 1.10388 15 1.33049 15H8.83035C9.05698 15 9.24064 15.184 9.24064 15.411V44.5891C9.24064 44.816 9.05698 45 8.83035 45H1.33049C1.10388 45 0.920166 44.816 0.920166 44.5891V15.411Z"
                fill="black"></path>
            <path
                d="M23.1082 15.411C23.1082 15.184 23.2918 15 23.5185 15H31.0183C31.2449 15 31.4286 15.184 31.4286 15.411V44.5891C31.4286 44.816 31.2449 45 31.0183 45H23.5185C23.2918 45 23.1082 44.816 23.1082 44.5891V15.411Z"
                fill="black"></path>
            <path
                d="M12.0142 27.3554C12.0142 27.1284 12.1979 26.9444 12.4246 26.9444H19.9244C20.151 26.9444 20.3347 27.1284 20.3347 27.3554V44.589C20.3347 44.816 20.151 44.9999 19.9244 44.9999H12.4246C12.1979 44.9999 12.0142 44.816 12.0142 44.589V27.3554Z"
                fill="black"></path>
            <path
                d="M69.4422 23.3797L64.7846 37.617H61.2456L58.1134 27.9763L54.8795 37.617H51.3608L46.6829 23.3797H50.0998L53.3134 33.3864L56.6693 23.3797H59.7202L62.9744 33.4678L66.2897 23.3797H69.4422Z"
                fill="black"></path>
            <path
                d="M76.9809 37.861C75.5027 37.861 74.1675 37.5424 72.9741 36.9051C71.7944 36.2678 70.8654 35.3932 70.1876 34.2814C69.523 33.1559 69.191 31.8949 69.191 30.4983C69.191 29.1017 69.523 27.8475 70.1876 26.7356C70.8654 25.6102 71.7944 24.7288 72.9741 24.0915C74.1675 23.4543 75.5027 23.1356 76.9809 23.1356C78.459 23.1356 79.7876 23.4543 80.9673 24.0915C82.1469 24.7288 83.0759 25.6102 83.7537 26.7356C84.4315 27.8475 84.7707 29.1017 84.7707 30.4983C84.7707 31.8949 84.4315 33.1559 83.7537 34.2814C83.0759 35.3932 82.1469 36.2678 80.9673 36.9051C79.7876 37.5424 78.459 37.861 76.9809 37.861ZM76.9809 35.0542C77.8214 35.0542 78.581 34.8644 79.2588 34.4847C79.9366 34.0915 80.4654 33.5492 80.8453 32.8576C81.2383 32.1661 81.4351 31.3796 81.4351 30.4983C81.4351 29.617 81.2383 28.8305 80.8453 28.139C80.4654 27.4475 79.9366 26.9119 79.2588 26.5322C78.581 26.139 77.8214 25.9424 76.9809 25.9424C76.1403 25.9424 75.3807 26.139 74.7029 26.5322C74.0251 26.9119 73.4892 27.4475 73.0961 28.139C72.7163 28.8305 72.5266 29.617 72.5266 30.4983C72.5266 31.3796 72.7163 32.1661 73.0961 32.8576C73.4892 33.5492 74.0251 34.0915 74.7029 34.4847C75.3807 34.8644 76.1403 35.0542 76.9809 35.0542Z"
                fill="black"></path>
            <path
                d="M93.1249 37.861C91.6468 37.861 90.3115 37.5424 89.1181 36.9051C87.9385 36.2678 87.0095 35.3932 86.3317 34.2814C85.6671 33.1559 85.3351 31.8949 85.3351 30.4983C85.3351 29.1017 85.6671 27.8475 86.3317 26.7356C87.0095 25.6102 87.9385 24.7288 89.1181 24.0915C90.3115 23.4543 91.6468 23.1356 93.1249 23.1356C94.6031 23.1356 95.9317 23.4543 97.1114 24.0915C98.291 24.7288 99.22 25.6102 99.8978 26.7356C100.576 27.8475 100.915 29.1017 100.915 30.4983C100.915 31.8949 100.576 33.1559 99.8978 34.2814C99.22 35.3932 98.291 36.2678 97.1114 36.9051C95.9317 37.5424 94.6031 37.861 93.1249 37.861ZM93.1249 35.0542C93.9654 35.0542 94.7251 34.8644 95.4029 34.4847C96.0807 34.0915 96.6095 33.5492 96.9893 32.8576C97.3824 32.1661 97.5791 31.3796 97.5791 30.4983C97.5791 29.617 97.3824 28.8305 96.9893 28.139C96.6095 27.4475 96.0807 26.9119 95.4029 26.5322C94.7251 26.139 93.9654 25.9424 93.1249 25.9424C92.2844 25.9424 91.5247 26.139 90.847 26.5322C90.1692 26.9119 89.6332 27.4475 89.2402 28.139C88.8603 28.8305 88.6707 29.617 88.6707 30.4983C88.6707 31.3796 88.8603 32.1661 89.2402 32.8576C89.6332 33.5492 90.1692 34.0915 90.847 34.4847C91.5247 34.8644 92.2844 35.0542 93.1249 35.0542Z"
                fill="black"></path>
            <path
                d="M111.445 37.617L108.7 33.6508H105.669V37.617H102.374V23.3797H108.537C109.798 23.3797 110.89 23.5898 111.811 24.0102C112.747 24.4305 113.465 25.0271 113.967 25.8C114.469 26.5729 114.72 27.4881 114.72 28.5458C114.72 29.6034 114.462 30.5186 113.947 31.2915C113.445 32.0508 112.727 32.6339 111.791 33.0407L114.984 37.617H111.445ZM111.384 28.5458C111.384 27.7458 111.126 27.1356 110.611 26.7153C110.096 26.2814 109.344 26.0644 108.354 26.0644H105.669V31.0271H108.354C109.344 31.0271 110.096 30.8102 110.611 30.3763C111.126 29.9424 111.384 29.3322 111.384 28.5458Z"
                fill="black"></path>
            <path d="M119.064 26.0644H114.508V23.3797H126.915V26.0644H122.359V37.617H119.064V26.0644Z" fill="black">
            </path>
            <path
                d="M134.367 37.861C132.889 37.861 131.553 37.5424 130.36 36.9051C129.18 36.2678 128.252 35.3932 127.574 34.2814C126.91 33.1559 126.577 31.8949 126.577 30.4983C126.577 29.1017 126.91 27.8475 127.574 26.7356C128.252 25.6102 129.18 24.7288 130.36 24.0915C131.553 23.4543 132.889 23.1356 134.367 23.1356C135.845 23.1356 137.174 23.4543 138.353 24.0915C139.533 24.7288 140.462 25.6102 141.14 26.7356C141.818 27.8475 142.157 29.1017 142.157 30.4983C142.157 31.8949 141.818 33.1559 141.14 34.2814C140.462 35.3932 139.533 36.2678 138.353 36.9051C137.174 37.5424 135.845 37.861 134.367 37.861ZM134.367 35.0542C135.208 35.0542 135.967 34.8644 136.645 34.4847C137.323 34.0915 137.852 33.5492 138.231 32.8576C138.625 32.1661 138.821 31.3796 138.821 30.4983C138.821 29.617 138.625 28.8305 138.231 28.139C137.852 27.4475 137.323 26.9119 136.645 26.5322C135.967 26.139 135.208 25.9424 134.367 25.9424C133.526 25.9424 132.767 26.139 132.089 26.5322C131.411 26.9119 130.876 27.4475 130.482 28.139C130.103 28.8305 129.913 29.617 129.913 30.4983C129.913 31.3796 130.103 32.1661 130.482 32.8576C130.876 33.5492 131.411 34.0915 132.089 34.4847C132.767 34.8644 133.526 35.0542 134.367 35.0542Z"
                fill="black"></path>
            <path
                d="M156.674 23.3797V37.617H153.968L146.87 28.9729V37.617H143.616V23.3797H146.341L153.419 32.0237V23.3797H156.674Z"
                fill="black"></path>
        </svg>