<svg width="52" height="60"
            viewBox="0 0 52 60" fill="none" xmlns="http://www.w3.org/2000/svg">
            <path fill-rule="evenodd" clip-rule="evenodd"
                d="M23.0635 11.1206C22.5953 14.4869 22.237 17.266 22.2675 17.2963C22.2979 17.3267 22.6941 17.2745 23.1479 17.1803C23.6018 17.086 24.5544 16.9955 25.2651 16.9793C26.7356 16.9455 26.6023 17.0881 26.874 15.2586C27.0544 14.0442 27.2284 13.7821 27.5728 14.2064C27.6567 14.3098 27.8754 14.9354 28.0589 15.5968C28.2423 16.2581 28.4482 16.9049 28.5163 17.0342C28.5844 17.1634 28.9955 17.3512 29.4299 17.4514C29.8641 17.5517 30.8599 17.9371 31.6426 18.3079C32.4251 18.6786 33.0915 18.9557 33.1236 18.9237C33.2372 18.8102 31.9866 14.1239 31.8144 14.0175C31.701 13.9474 31.8163 13.7991 32.1408 13.5975C32.8952 13.1292 33.7246 12.2136 34.0056 11.539C34.366 10.6742 34.3477 9.01009 33.9684 8.15649C33.6218 7.37653 32.6771 6.46596 31.8569 6.12145C31.2908 5.88352 25.4518 5 24.4459 5H23.9147L23.0635 11.1206ZM14.573 7.68512C13.6458 8.31641 12.8849 8.87962 12.8821 8.93674C12.8794 8.99386 13.7564 10.3415 14.8311 11.9313C16.8149 14.8661 17.0017 15.2868 16.6303 15.9808C16.2669 16.6602 15.0187 16.9317 14.4375 16.4577C14.2622 16.3148 13.295 14.9805 12.288 13.4924C11.2811 12.0044 10.3943 10.7648 10.3176 10.7379C10.2159 10.7021 7.43036 12.5093 6.72632 13.0677C6.69159 13.0953 6.79921 13.2698 6.96561 13.4555C7.132 13.6411 8.06346 14.9767 9.03581 16.4235C11.0842 19.4716 11.5885 20.0425 12.6283 20.4898C13.2638 20.7632 13.593 20.8062 14.6308 20.7518C15.7157 20.6948 16.0331 20.607 17.1441 20.0566C18.6269 19.3217 19.9308 18.1257 20.6174 16.8708C21.0112 16.151 21.0677 15.8969 21.0683 14.8452C21.0688 13.8954 20.9993 13.5102 20.7375 13.0124C20.3276 12.2327 16.4378 6.49813 16.3342 6.52082C16.2929 6.52999 15.5004 7.05382 14.573 7.68512ZM29.4093 9.11516C29.8175 9.30169 29.9382 9.63628 29.7984 10.1932C29.6665 10.7191 29.2167 10.8969 28.3066 10.7833L27.5193 10.6848L27.8022 8.79229L28.4187 8.8682C28.7578 8.90998 29.2035 9.02106 29.4093 9.11516ZM37.7633 15.0331C35.5056 17.2446 33.6498 19.1338 33.6391 19.2317C33.6284 19.3294 33.7547 19.4522 33.9196 19.5045C34.0845 19.557 34.8117 20.1687 35.5354 20.8642L36.8514 22.1286L39.8873 19.1045L41.2889 20.6198C42.0599 21.4533 42.7382 22.1352 42.7965 22.1352C42.9486 22.1352 45.0432 20.1762 45.0432 20.034C45.0432 19.9685 44.383 19.2299 43.5763 18.3927L42.1093 16.8703L42.4837 16.4961L42.858 16.1217L46.397 19.6515L48.5729 17.4756L45.3438 14.244C43.5679 12.4666 42.0593 11.0124 41.9915 11.0124C41.9237 11.0124 40.0209 12.8216 37.7633 15.0331ZM46.9789 22.3231C45.7005 23.4184 44.2844 24.6306 43.8319 25.0169C43.0292 25.702 42.9623 25.7276 41.0838 26.0685C39.1723 26.4154 39.159 26.4207 39.2447 26.7942C39.6848 28.7141 39.7725 29.228 39.7771 29.9137C39.7833 30.8485 39.6327 30.8199 42.0645 30.3467L43.8204 30.0049L47.7763 31.3797C49.9518 32.1357 51.7564 32.736 51.7865 32.7136C51.8166 32.6912 51.6577 31.6959 51.4334 30.502L51.0256 28.3309L49.0491 27.7709C47.9619 27.4628 47.0578 27.1985 47.04 27.1835C47.0223 27.1683 47.7536 26.5887 48.6652 25.8953C50.0022 24.8785 50.3093 24.5747 50.2538 24.3245C50.2159 24.1537 50.0294 23.1856 49.8391 22.1728C49.6488 21.16 49.4504 20.3315 49.3981 20.3315C49.3458 20.3315 48.2571 21.2278 46.9789 22.3231ZM1.84353 21.8722C1.70615 22.6369 1.56246 23.4654 1.52398 23.7134C1.45709 24.1451 1.55284 24.2349 3.76884 25.8178C5.04195 26.7271 6.0633 27.4925 6.0385 27.5185C6.01385 27.5445 4.7947 27.9304 3.32949 28.376C1.86428 28.8217 0.643918 29.2077 0.617614 29.234C0.508039 29.3437 0.0802603 32.2057 0.126104 32.5234C0.174805 32.8603 0.326166 32.8909 6.1123 33.7284C9.37716 34.201 12.0591 34.576 12.0719 34.5617C12.0848 34.5474 12.0031 34.0622 11.8905 33.4835C11.7779 32.9048 11.6832 32.1114 11.6802 31.7203C11.6751 31.072 11.6381 31 11.2613 30.9048C11.0339 30.8476 10.1409 30.6228 9.27676 30.4058L7.70543 30.0111L8.70423 29.5866C9.79712 29.1222 9.81396 29.1007 9.96247 27.9806L10.0648 27.2087L8.44299 25.7232L9.11938 25.8C9.4914 25.8421 10.4045 25.9216 11.1486 25.9768L12.5013 26.0768L12.8406 25.1871C13.0271 24.6977 13.4761 23.8463 13.8382 23.295L14.4965 22.2927L14.025 22.211C13.6411 22.1444 2.19015 20.4818 2.11529 20.4818C2.10312 20.4818 1.98077 21.1074 1.84353 21.8722ZM44.8929 36.5803C44.8929 36.9678 43.6064 39.4436 42.6791 40.8402C41.4268 42.7268 38.8527 45.3309 37.0768 46.5078C34.6581 48.1108 32.1756 49.1579 29.4111 49.7412C27.6361 50.1158 23.6699 50.1166 21.9144 49.7427C18.9999 49.1221 16.7038 48.174 14.4298 46.6521C13.1983 45.8279 10.9942 43.959 11.1134 43.84C11.1421 43.8112 11.7913 43.8948 12.556 44.0256C13.3207 44.1565 13.9844 44.2255 14.0309 44.1791C14.0773 44.1326 14.0046 43.9838 13.869 43.8482C13.7336 43.7128 13.154 42.9455 12.5813 42.1433L11.5398 40.6847L7.92578 40.1016C5.9381 39.781 4.28665 39.5473 4.25584 39.5825C4.18369 39.6647 3.10267 46.3255 3.10523 46.673C3.10613 46.8174 3.62815 47.6629 4.26501 48.5518C4.90202 49.4406 5.44313 50.1961 5.46748 50.2305C5.58081 50.3901 5.6734 50.0122 5.99687 48.0718L6.34408 45.9882L7.14703 46.915C7.58849 47.4247 8.55031 48.3456 9.28442 48.9614C12.7838 51.8976 16.3244 53.6372 20.6778 54.5597C22.3596 54.9159 22.9092 54.9618 25.5782 54.9676C28.1243 54.9732 28.8434 54.9219 30.2761 54.633C32.6648 54.1514 34.4463 53.541 36.7011 52.4319C41.2034 50.2173 44.7103 47.0008 47.4759 42.549C48.1821 41.4125 49.776 38.2199 49.6712 38.1518C49.5604 38.0798 45.071 36.4145 44.9876 36.4145C44.9354 36.4145 44.8929 36.4891 44.8929 36.5803Z"
                fill="black"></path>
            <path fill-rule="evenodd" clip-rule="evenodd"
                d="M23.0653 11.1206C22.5962 14.4869 22.2371 17.266 22.2675 17.2963C22.2979 17.3267 22.6941 17.2745 23.1479 17.1803C23.6018 17.086 24.5544 16.9955 25.2651 16.9793C26.7356 16.9455 26.6023 17.0881 26.874 15.2586C27.0544 14.0442 27.2284 13.7821 27.5728 14.2064C27.6567 14.3098 27.8754 14.9354 28.0589 15.5968C28.2423 16.2581 28.4482 16.9049 28.5163 17.0342C28.5844 17.1634 28.9955 17.3512 29.4299 17.4514C29.8641 17.5517 30.8599 17.9371 31.6426 18.3079C32.4251 18.6786 33.0915 18.9557 33.1236 18.9237C33.2372 18.8102 31.9866 14.1239 31.8144 14.0175C31.701 13.9474 31.8163 13.7991 32.1408 13.5975C32.8952 13.1292 33.7246 12.2136 34.0056 11.539C34.3426 10.7304 34.3388 9.02602 33.9981 8.19286C33.6 7.21931 32.4736 6.2898 31.3308 5.99204C30.2913 5.72103 25.2886 5 24.4486 5H23.9182L23.0653 11.1206ZM14.573 7.68512C13.6458 8.31641 12.8849 8.87962 12.8821 8.93674C12.8794 8.99386 13.7564 10.3415 14.8311 11.9313C16.8149 14.8661 17.0017 15.2868 16.6303 15.9808C16.3136 16.5729 15.1594 16.9103 14.5561 16.5875C14.4157 16.5123 13.4259 15.1595 12.3564 13.5813C11.2868 12.003 10.3518 10.7117 10.2784 10.7117C10.1803 10.7117 7.22805 12.67 6.72632 13.0677C6.69159 13.0953 6.79921 13.2698 6.96561 13.4555C7.132 13.6411 8.06346 14.9767 9.03581 16.4235C11.0842 19.4716 11.5885 20.0425 12.6283 20.4898C13.2638 20.7632 13.593 20.8062 14.6308 20.7518C15.7157 20.6948 16.0331 20.607 17.1441 20.0566C18.6269 19.3217 19.9308 18.1257 20.6174 16.8708C21.0112 16.151 21.0677 15.8969 21.0683 14.8452C21.0688 13.887 21 13.5115 20.7295 12.9969C20.3188 12.2154 16.4403 6.50294 16.3342 6.52308C16.2929 6.5309 15.5004 7.05382 14.573 7.68512ZM29.4093 9.11516C29.8175 9.30169 29.9382 9.63628 29.7984 10.1932C29.6665 10.7191 29.2167 10.8969 28.3066 10.7833L27.5193 10.6848L27.8022 8.79229L28.4187 8.8682C28.7578 8.90998 29.2035 9.02106 29.4093 9.11516ZM37.7633 15.0331C35.5056 17.2446 33.6498 19.1338 33.6391 19.2317C33.6284 19.3294 33.7547 19.4522 33.9196 19.5045C34.0845 19.557 34.8117 20.1687 35.5354 20.8642L36.8514 22.1286L39.8706 19.1212L41.3443 20.6381C42.8042 22.1409 42.821 22.1526 43.1383 21.8821C43.9085 21.2257 45.0432 20.1218 45.0432 20.0291C45.0432 19.9733 44.3829 19.2401 43.5757 18.3996L42.1083 16.8714L42.4837 16.4961L42.858 16.1217L46.397 19.6515L48.5729 17.4756L45.3438 14.244C43.5679 12.4666 42.0593 11.0124 41.9915 11.0124C41.9237 11.0124 40.0209 12.8216 37.7633 15.0331ZM46.1591 23.0264L43.014 25.7211L41.3467 26.0326C40.4296 26.2038 39.5587 26.3439 39.4114 26.3439C39.1968 26.3439 39.1622 26.4259 39.2372 26.7572C39.2888 26.9845 39.4302 27.6102 39.5514 28.1476C39.6727 28.6849 39.7743 29.4797 39.7771 29.9137C39.7833 30.8485 39.6322 30.8201 42.0678 30.346L43.8272 30.0037L47.7796 31.3783C49.9533 32.1344 51.7564 32.7357 51.7865 32.7136C51.8166 32.6912 51.6577 31.6959 51.4334 30.502L51.0256 28.3309L49.0491 27.7709C47.9619 27.4628 47.0578 27.1985 47.04 27.1835C47.0223 27.1683 47.7536 26.5887 48.6652 25.8953C50.0022 24.8785 50.3093 24.5747 50.2538 24.3245C50.2159 24.1537 50.0294 23.1856 49.8391 22.1728C49.6488 21.16 49.4504 20.3315 49.3981 20.3315C49.3461 20.3315 47.8889 21.5442 46.1591 23.0264ZM2.05488 20.5891C2.05488 20.6665 1.91675 21.4968 1.74795 22.4343C1.56397 23.4558 1.49753 24.1741 1.58201 24.2268C2.13635 24.5725 6.07413 27.4808 6.0385 27.5185C6.01385 27.5445 4.7947 27.9304 3.32949 28.376C1.86428 28.8217 0.645734 29.2062 0.621684 29.2305C0.51737 29.3364 0.0841801 32.2351 0.12777 32.5361C0.174215 32.8557 0.405991 32.9018 6.11322 33.7269C9.37868 34.1988 12.0605 34.5739 12.0728 34.5603C12.0851 34.5468 12.0031 34.0622 11.8905 33.4835C11.7779 32.9048 11.6832 32.1114 11.6802 31.7203C11.6751 31.072 11.6381 31 11.2613 30.9048C11.0339 30.8476 10.1409 30.6228 9.27676 30.4058L7.70543 30.0111L8.70965 29.5844C9.76768 29.1346 9.79338 29.1007 9.95767 27.9397L10.0614 27.2056L8.44299 25.7232L9.11938 25.8C9.4914 25.8421 10.4045 25.9216 11.1486 25.9768L12.5013 26.0768L12.8406 25.1871C13.0271 24.6977 13.4761 23.8463 13.8382 23.295L14.4965 22.2927L14.025 22.211C13.7657 22.1657 11.1861 21.7901 8.2927 21.3766C5.39925 20.9631 2.81213 20.5851 2.54338 20.5365C2.27463 20.4881 2.05488 20.5117 2.05488 20.5891ZM44.8929 36.6104C44.8929 36.9994 43.6464 39.3779 42.6718 40.8487C41.4278 42.726 38.852 45.3313 37.0768 46.5078C34.6562 48.112 32.169 49.1607 29.4111 49.74C27.853 50.0672 23.8549 50.114 22.2714 49.8235C19.5187 49.3184 16.7268 48.1893 14.4298 46.6521C13.1916 45.8234 10.9945 43.9588 11.1147 43.8386C11.1442 43.8091 11.7623 43.8888 12.4883 44.0155C13.2143 44.1422 13.8616 44.2255 13.9269 44.2007C13.992 44.1757 13.4814 43.3776 12.7922 42.4269L11.5389 40.6983L8.18733 40.1404C6.34379 39.8336 4.69611 39.5799 4.52566 39.5767C4.23736 39.5715 4.17679 39.8105 3.66003 42.9906C3.35445 44.8712 3.10494 46.5252 3.10569 46.6661C3.10644 46.8068 3.58532 47.5822 4.16972 48.3892C4.75428 49.1962 5.29028 49.9598 5.36092 50.086C5.43157 50.2123 5.52671 50.2783 5.57241 50.2326C5.6181 50.187 5.80584 49.227 5.98981 48.0994L6.32425 46.0492L7.53394 47.2944C11.2294 51.0985 15.5102 53.4647 20.6778 54.5597C22.3596 54.9159 22.9092 54.9618 25.5782 54.9676C28.1243 54.9732 28.8434 54.9219 30.2761 54.633C32.6648 54.1514 34.4463 53.541 36.7011 52.4319C41.2034 50.2173 44.7103 47.0008 47.4759 42.549C48.1821 41.4125 49.776 38.2199 49.6712 38.1518C49.5604 38.0798 45.071 36.4145 44.9876 36.4145C44.9354 36.4145 44.8929 36.5026 44.8929 36.6104Z"
                fill="black"></path>
            <path fill-rule="evenodd" clip-rule="evenodd"
                d="M23.6397 6.99159C23.4922 8.08704 23.1097 10.8403 22.7895 13.1099C22.4695 15.3796 22.2335 17.2623 22.2653 17.2941C22.2968 17.3256 22.6941 17.2745 23.1479 17.1803C23.6018 17.086 24.5544 16.9955 25.2651 16.9793C26.2686 16.9562 26.5707 16.8992 26.618 16.7241C26.6516 16.6001 26.7647 15.9405 26.8697 15.2586C26.9746 14.5766 27.1327 14.0196 27.2211 14.0208C27.5599 14.0257 27.71 14.2781 27.98 15.2962C28.3655 16.7499 28.6241 17.3253 28.8918 17.3253C29.3056 17.3253 30.9717 17.9374 32.0177 18.4738C32.5834 18.7638 33.0767 18.9706 33.1139 18.9333C33.234 18.8132 31.9958 14.1296 31.8144 14.0175C31.701 13.9474 31.8163 13.7991 32.1408 13.5975C32.8952 13.1292 33.7246 12.2136 34.0056 11.539C34.3426 10.7304 34.3388 9.02602 33.9981 8.19286C33.5988 7.21615 32.4732 6.2889 31.3308 5.99565C30.2515 5.71848 25.2955 5 24.4632 5H23.9078L23.6397 6.99159ZM14.6808 7.64183C13.8128 8.25298 13.0518 8.75411 12.9898 8.75532C12.7312 8.76073 12.9556 9.15769 14.4962 11.4197C16.6694 14.6104 16.7851 14.8089 16.7851 15.3431C16.7851 16.0142 16.2407 16.5745 15.4914 16.6751C15.152 16.7206 14.7409 16.6864 14.5777 16.599C14.3011 16.451 13.2048 14.9202 11.2494 11.9518C10.8003 11.2698 10.3679 10.7117 10.2888 10.7117C10.1831 10.7117 7.2563 12.6474 6.72632 13.0677C6.69159 13.0953 6.79921 13.2698 6.96561 13.4555C7.132 13.6411 8.06346 14.9767 9.03581 16.4235C11.0842 19.4716 11.5885 20.0425 12.6283 20.4898C13.2638 20.7632 13.593 20.8062 14.6308 20.7518C15.711 20.6951 16.0345 20.6063 17.1179 20.0692C18.5768 19.3461 19.8178 18.2126 20.5638 16.9219C21.0234 16.1266 21.0686 15.9392 21.0661 14.8452C21.0626 13.4451 20.8648 12.9849 19.3177 10.7792C18.7928 10.031 17.9237 8.76373 17.3864 7.96304C16.849 7.16249 16.3756 6.51271 16.3342 6.51902C16.2929 6.52533 15.5489 7.03067 14.6808 7.64183ZM29.4111 9.11501C29.6964 9.24487 29.798 9.41923 29.833 9.83949C29.8999 10.642 29.4061 10.9447 28.3209 10.7664L27.5307 10.6366L27.7798 8.78929L28.4075 8.86669C28.7529 8.90923 29.2044 9.02106 29.4111 9.11501ZM37.8851 14.958C35.6914 17.1281 33.8344 18.9261 33.7582 18.9536C33.5348 19.0345 33.5994 19.4296 33.8362 19.4296C33.9552 19.4296 34.6823 20.0369 35.452 20.779L36.8514 22.1286L39.8718 19.12L42.8326 22.1575L43.7391 21.2821C44.2377 20.8006 44.7351 20.327 44.8443 20.2294C44.9538 20.132 45.0432 20.0252 45.0432 19.9921C45.0432 19.9589 44.3784 19.2476 43.5658 18.4115L42.0886 16.8912L42.858 16.1217L46.397 19.6515L48.5729 17.4756L45.3438 14.244C43.5679 12.4666 42.0605 11.0124 41.994 11.0124C41.9278 11.0124 40.0787 12.788 37.8851 14.958ZM48.4913 21.0285C48.0416 21.4118 47.3016 22.0476 46.8469 22.4412C46.3922 22.835 45.3438 23.7342 44.5171 24.4394L43.014 25.7211L41.3467 26.0326C40.4296 26.2038 39.5672 26.3439 39.4302 26.3439C39.2933 26.3439 39.1812 26.364 39.1812 26.3885C39.1812 26.413 39.3128 27.0387 39.4737 27.7789C39.6346 28.519 39.7819 29.4797 39.8012 29.9137C39.8422 30.8414 39.6827 30.8101 42.0393 30.3514C44.042 29.9616 43.5068 29.863 48.0494 31.4584C52.0581 32.8665 51.8796 32.8312 51.7512 32.1903C51.6948 31.9095 51.5068 30.9259 51.333 30.0042L51.0174 28.3287L49.0449 27.7697C47.9599 27.4623 47.0558 27.1966 47.0359 27.1791C47.0157 27.1617 47.7471 26.5824 48.6611 25.8917C50.0051 24.8764 50.3096 24.5759 50.2538 24.3245C50.2159 24.1537 50.0294 23.1856 49.8391 22.1728C49.6488 21.16 49.4518 20.3315 49.4011 20.3315C49.3505 20.3315 48.941 20.6452 48.4913 21.0285ZM2.05488 20.587C2.05488 20.6656 1.91675 21.4968 1.74795 22.4343C1.56397 23.4558 1.49753 24.1741 1.58201 24.2268C2.13635 24.5725 6.07413 27.4808 6.0385 27.5185C6.01385 27.5445 4.7947 27.9304 3.32949 28.376C1.86428 28.8217 0.643778 29.208 0.617023 29.2346C0.520224 29.3315 0.0808714 32.3669 0.128219 32.6125C0.174965 32.8555 2.36331 33.231 9.11939 34.155C9.73942 34.2397 10.6525 34.3691 11.1486 34.4425C11.6446 34.5158 12.0605 34.5668 12.0728 34.5557C12.0851 34.5447 12.0031 34.0622 11.8905 33.4835C11.7779 32.9048 11.6832 32.1114 11.6802 31.7203C11.6751 31.072 11.6381 31 11.2613 30.9048C11.0339 30.8476 10.1409 30.6228 9.27676 30.4058L7.70543 30.0111L8.70965 29.5844C9.76617 29.1352 9.79368 29.0992 9.95601 27.9505L10.0581 27.2275L8.44299 25.7232L9.11938 25.8C9.4914 25.8421 10.4045 25.9216 11.1486 25.9768L12.5013 26.0768L12.8406 25.1871C13.0271 24.6977 13.4749 23.8481 13.8355 23.299L14.4913 22.3007L14.0975 22.2215C13.881 22.1779 12.723 22.0073 11.5243 21.8423C10.3256 21.6774 8.40422 21.4023 7.25451 21.2309C6.1048 21.0596 4.68438 20.8574 4.09803 20.7818C3.51167 20.7062 2.81213 20.5994 2.54338 20.5443C2.26486 20.4872 2.05488 20.5056 2.05488 20.587ZM44.8929 36.5892C44.8929 36.7045 44.6508 37.3042 44.3548 37.9218C40.4068 46.1613 31.9573 50.9909 23.3177 49.9461C20.0258 49.5479 17.1671 48.4834 14.3755 46.6163C13.0627 45.7381 10.9937 43.9596 11.1283 43.8249C11.163 43.7903 11.7472 43.8675 12.4266 43.9963C13.106 44.1251 13.7543 44.2306 13.8672 44.2306C13.9808 44.2306 13.5068 43.4388 12.8057 42.4579L11.5386 40.6851L7.92279 40.1043C5.93405 39.7849 4.2808 39.551 4.24894 39.5849C4.19573 39.6409 3.98124 40.9394 3.30635 45.2882L3.06059 46.8718L3.98169 48.1141C4.48823 48.7973 5.02062 49.5559 5.16462 49.7997C5.30861 50.0435 5.47546 50.243 5.53513 50.243C5.59495 50.243 5.69145 49.9217 5.74962 49.529C5.80764 49.1362 5.96667 48.18 6.10285 47.4038L6.3504 45.9927L7.14929 46.9038C7.58865 47.405 8.48524 48.2736 9.14164 48.8341C12.6945 51.8673 16.4862 53.7195 20.9994 54.6261C23.458 55.1199 27.8226 55.1254 30.2464 54.6377C38.5231 52.9723 45.2625 47.6177 48.9666 39.7639C49.3777 38.8924 49.6945 38.1684 49.6708 38.1551C49.5704 38.0986 45.3958 36.5294 45.1559 36.4578C44.9938 36.4096 44.8929 36.4598 44.8929 36.5892Z"
                fill="black"></path>
            <path fill-rule="evenodd" clip-rule="evenodd"
                d="M34.2447 9.80988C34.2447 10.0166 34.2788 10.1012 34.3205 9.99777C34.3622 9.89451 34.3622 9.72541 34.3205 9.62199C34.2788 9.51873 34.2447 9.60321 34.2447 9.80988ZM40.6728 12.1772L40.3085 12.5906L40.7218 12.2262C40.9491 12.0257 41.1352 11.8398 41.1352 11.8129C41.1352 11.6949 41.0134 11.791 40.6728 12.1772ZM6.71444 13.1078C6.71444 13.1857 6.78132 13.2906 6.86309 13.3411C6.94816 13.3937 6.97342 13.3334 6.92216 13.1996C6.82221 12.9393 6.71444 12.8917 6.71444 13.1078ZM42.6382 17.5324C42.6382 17.5636 42.7567 17.682 42.9013 17.7955C43.1397 17.9823 43.1449 17.9771 42.9581 17.7387C42.7616 17.4883 42.6382 17.4087 42.6382 17.5324Z"
                fill="black"></path>
            <path fill-rule="evenodd" clip-rule="evenodd"
                d="M34.2447 9.80988C34.2447 10.0166 34.2788 10.1012 34.3205 9.99777C34.3622 9.89451 34.3622 9.72541 34.3205 9.62199C34.2788 9.51873 34.2447 9.60321 34.2447 9.80988ZM40.8153 12.0269C40.6285 12.2653 40.6337 12.2706 40.8721 12.0838C41.1225 11.8873 41.202 11.7639 41.0783 11.7639C41.0472 11.7639 40.9288 11.8822 40.8153 12.0269Z"
                fill="black"></path>
            <path fill-rule="evenodd" clip-rule="evenodd"
                d="M34.2447 9.80988C34.2447 10.0166 34.2788 10.1012 34.3205 9.99777C34.3622 9.89451 34.3622 9.72541 34.3205 9.62199C34.2788 9.51873 34.2447 9.60321 34.2447 9.80988ZM40.8153 12.0269C40.6285 12.2653 40.6337 12.2706 40.8721 12.0838C41.1225 11.8873 41.202 11.7639 41.0783 11.7639C41.0472 11.7639 40.9288 11.8822 40.8153 12.0269Z"
                fill="black"></path>
            <path fill-rule="evenodd" clip-rule="evenodd"
                d="M34.2447 9.80988C34.2447 10.0166 34.2788 10.1012 34.3205 9.99777C34.3622 9.89451 34.3622 9.72541 34.3205 9.62199C34.2788 9.51873 34.2447 9.60321 34.2447 9.80988ZM40.8153 12.0269C40.6285 12.2653 40.6337 12.2706 40.8721 12.0838C41.1225 11.8873 41.202 11.7639 41.0783 11.7639C41.0472 11.7639 40.9288 11.8822 40.8153 12.0269Z"
                fill="black"></path>
            <path fill-rule="evenodd" clip-rule="evenodd"
                d="M34.2447 9.80988C34.2447 10.0166 34.2788 10.1012 34.3205 9.99777C34.3622 9.89451 34.3622 9.72541 34.3205 9.62199C34.2788 9.51873 34.2447 9.60321 34.2447 9.80988Z"
                fill="black"></path>
        </svg>