<svg width="272" height="60"
            viewBox="0 0 272 60" fill="none" xmlns="http://www.w3.org/2000/svg">
            <path
                d="M8.27071 18.8595L0.03125 41.325H5.81878L7.11515 37.1252H14.5389L15.8499 41.325H21.6665L13.3639 18.8595H8.27071ZM8.41152 32.9447L10.8198 25.152L13.2426 32.9447H8.41152Z"
                fill="black"></path>
            <path
                d="M29.1971 37.1883C28.9689 36.9407 28.8572 36.5037 28.8572 35.8774V28.2399H31.6053V24.6276H28.8572V20.4763H23.6572V24.6276H21.5257V28.2399H23.6572V36.528C23.6572 38.2467 24.0845 39.5285 24.939 40.3685C25.7935 41.2133 27.1142 41.6358 28.9058 41.6358C29.9254 41.6358 30.9013 41.4852 31.8384 41.1891V37.4699C31.4888 37.533 31.0567 37.5621 30.542 37.5621C29.872 37.5621 29.4253 37.4408 29.202 37.1931L29.1971 37.1883Z"
                fill="black"></path>
            <path
                d="M41.1752 24.3217C39.5098 24.3217 38.0678 24.681 36.8539 25.3947C35.6401 26.1085 34.7176 27.1184 34.0815 28.4293C33.4504 29.7354 33.1348 31.2454 33.1348 32.9496V33.3817C33.1348 35.8288 33.9262 37.8195 35.509 39.344C37.0918 40.8735 39.1651 41.6358 41.7287 41.6358C43.0979 41.6358 44.3748 41.3687 45.5644 40.8395C46.7539 40.3103 47.6716 39.5965 48.3173 38.7031L45.9431 35.8968C45.0157 37.0475 43.7291 37.6253 42.0831 37.6253C41.0829 37.6253 40.2721 37.3582 39.6457 36.8241C39.0194 36.2901 38.6116 35.552 38.4271 34.615H48.764V32.5952C48.764 29.9927 48.0843 27.9632 46.7248 26.5066C45.3653 25.05 43.5154 24.3217 41.1703 24.3217H41.1752ZM43.6708 31.3571H38.4222C38.7087 29.3421 39.6166 28.3322 41.1363 28.3322C41.9569 28.3322 42.5929 28.5604 43.0347 29.0168C43.4766 29.4732 43.6902 30.119 43.6659 30.9541V31.3571H43.6708Z"
                fill="black"></path>
            <path d="M56.3432 17.6214H51.1285V41.325H56.3432V17.6214Z" fill="black"></path>
            <path d="M65.0293 24.6276H59.8147V41.325H65.0293V24.6276Z" fill="black"></path>
            <path
                d="M64.4758 18.5002C63.9417 18.0292 63.2474 17.7913 62.3929 17.7913C61.5383 17.7913 60.844 18.0292 60.3099 18.5002C59.7759 18.976 59.5088 19.5781 59.5088 20.3209C59.5088 21.0638 59.7759 21.6707 60.3099 22.1417C60.844 22.6175 61.5383 22.8506 62.3929 22.8506C63.2474 22.8506 63.9417 22.6126 64.4758 22.1417C65.0099 21.6707 65.2769 21.0638 65.2769 20.3209C65.2769 19.5781 65.0099 18.9712 64.4758 18.5002Z"
                fill="black"></path>
            <path
                d="M75.7547 24.3217C74.0893 24.3217 72.6473 24.681 71.4335 25.3947C70.2196 26.1085 69.2971 27.1184 68.6611 28.4293C68.0299 29.7354 67.7143 31.2454 67.7143 32.9496V33.3817C67.7143 35.8288 68.5057 37.8195 70.0885 39.344C71.6714 40.8735 73.7446 41.6358 76.3082 41.6358C77.6774 41.6358 78.9543 41.3687 80.1439 40.8395C81.3334 40.3103 82.2511 39.5965 82.8969 38.7031L80.5226 35.8968C79.5952 37.0475 78.3086 37.6253 76.6626 37.6253C75.6624 37.6253 74.8516 37.3582 74.2253 36.8241C73.5989 36.2901 73.1911 35.552 73.0066 34.615H83.3435V32.5952C83.3435 29.9927 82.6638 27.9632 81.3043 26.5066C79.9448 25.05 78.0949 24.3217 75.7498 24.3217H75.7547ZM78.2552 31.3571H73.0066C73.293 29.3421 74.201 28.3322 75.7207 28.3322C76.5413 28.3322 77.1773 28.5604 77.6191 29.0168C78.061 29.4732 78.2746 30.119 78.2503 30.9541V31.3571H78.2552Z"
                fill="black"></path>
            <path
                d="M90.5246 26.7736L90.3546 24.6276H85.4799V41.325H90.6799V30.755C91.1412 29.7257 92.1899 29.211 93.8262 29.211L95.5401 29.3324L95.6323 24.5014C95.2196 24.38 94.739 24.3169 94.1806 24.3169C92.6172 24.3169 91.3985 25.1325 90.5246 26.7688V26.7736Z"
                fill="black"></path>
            <path
                d="M102.498 28.2011C102.867 27.9001 103.328 27.7447 103.872 27.7447C105.28 27.7447 105.984 28.4147 105.984 29.75H111.198C111.198 28.1234 110.528 26.8125 109.193 25.8171C107.858 24.8218 106.086 24.3217 103.886 24.3217C101.837 24.3217 100.182 24.817 98.9194 25.8123C97.6521 26.8076 97.021 28.07 97.021 29.5994C97.021 30.4637 97.2443 31.2308 97.6861 31.9009C98.128 32.5709 98.7737 33.139 99.6137 33.6051C100.459 34.0712 101.527 34.4499 102.823 34.7412C104.119 35.0277 104.998 35.3093 105.459 35.5763C105.921 35.8434 106.154 36.1978 106.154 36.6396C106.154 37.0815 105.974 37.4796 105.62 37.7661C105.265 38.0525 104.731 38.1982 104.022 38.1982C103.25 38.1982 102.619 38.0185 102.124 37.6641C101.629 37.3097 101.371 36.7465 101.352 35.9745H96.4917C96.4917 36.9504 96.8073 37.8826 97.4337 38.7663C98.06 39.6499 98.9339 40.3491 100.056 40.8638C101.177 41.3784 102.454 41.6358 103.882 41.6358C106.032 41.6358 107.785 41.1551 109.135 40.1986C110.49 39.2421 111.164 38.004 111.164 36.4794C111.164 34.246 109.907 32.6971 107.402 31.8329C106.649 31.5755 105.78 31.3522 104.785 31.1677C103.789 30.9832 103.071 30.7453 102.614 30.4588C102.163 30.1724 101.935 29.7936 101.935 29.3324C101.935 28.8711 102.119 28.5021 102.488 28.1963L102.498 28.2011Z"
                fill="black"></path>
            <path
                d="M124.803 34.6441C124.774 36.3289 124.327 37.6107 123.429 38.5575C122.545 39.4897 121.429 39.9412 120.016 39.9412C118.384 39.9412 117.166 39.5383 116.398 38.7468C115.622 37.9457 115.228 36.7319 115.228 35.1393V34.28H112.674V35.1393C112.674 37.4553 113.32 39.2761 114.592 40.5579C115.864 41.8445 117.69 42.4951 120.016 42.4951C122.21 42.4951 124.007 41.7474 125.357 40.2811C126.682 38.8342 127.357 36.8921 127.357 34.5082V18.0001H124.803V34.649V34.6441Z"
                fill="black"></path>
            <path
                d="M137.854 23.4623C136.412 23.4623 135.062 23.875 133.844 24.6859C132.64 25.4918 131.683 26.6183 130.998 28.036C130.328 29.4344 129.989 30.9881 129.989 32.6534V33.3477C129.989 35.018 130.343 36.5668 131.037 37.9457C131.741 39.344 132.732 40.4608 133.984 41.2668C135.247 42.0776 136.65 42.4903 138.16 42.4903C140.898 42.4903 142.996 41.4561 144.409 39.4169L144.889 38.7177L142.942 37.3339L142.438 37.9797C141.918 38.6449 141.316 39.145 140.656 39.4557C139.99 39.7713 139.15 39.9315 138.16 39.9315C137.17 39.9315 136.237 39.6548 135.368 39.0867C134.499 38.5186 133.805 37.7175 133.305 36.7076C132.795 35.6783 132.538 34.5373 132.538 33.3235V33.2749H145.055V31.5367C145.055 29.1673 144.385 27.2155 143.064 25.7346C141.714 24.2246 139.961 23.4575 137.854 23.4575V23.4623ZM132.732 30.7307C132.999 29.4683 133.533 28.4245 134.349 27.5553C135.32 26.5163 136.465 26.0162 137.859 26.0162C138.738 26.0162 139.505 26.2347 140.209 26.6911C140.923 27.1475 141.466 27.7787 141.879 28.6187C142.204 29.279 142.404 29.9879 142.476 30.7356H132.737L132.732 30.7307Z"
                fill="black"></path>
            <path
                d="M160.257 37.4553V29.4586C160.223 27.5748 159.567 26.0793 158.319 25.016C157.105 23.9818 155.474 23.4623 153.474 23.4623C151.473 23.4623 149.9 24.0013 148.555 25.0694C147.152 26.1813 146.438 27.5748 146.438 29.2013V30.0316L148.992 30.1287V29.2353C148.992 28.3565 149.381 27.633 150.182 27.0164C151.056 26.3464 152.129 26.0211 153.469 26.0211C154.882 26.0211 155.96 26.3367 156.673 26.963C157.363 27.5699 157.698 28.4245 157.698 29.5752V31.1531H154.43C151.978 31.1774 149.963 31.6969 148.444 32.7068C146.812 33.7944 145.987 35.2704 145.987 37.1009C145.987 38.6983 146.56 40.0189 147.686 41.024C148.783 42.0048 150.23 42.5 151.983 42.5C153.556 42.5 154.989 42.1698 156.251 41.5241C156.829 41.2279 157.353 40.8735 157.819 40.4656C157.873 40.8832 157.945 41.2473 158.043 41.5678L158.222 42.1893H160.684V41.0094L160.611 40.8443C160.475 40.5385 160.252 39.6888 160.252 37.4553H160.257ZM157.707 33.6973V36.6154C157.212 37.6495 156.513 38.441 155.576 39.0236C154.595 39.6354 153.386 39.9412 151.993 39.9412C150.954 39.9412 150.128 39.6645 149.473 39.0867C148.851 38.5429 148.55 37.9069 148.55 37.1397C148.55 36.2658 148.944 35.5472 149.75 34.9403C150.857 34.11 152.527 33.6925 154.712 33.6925H157.712L157.707 33.6973Z"
                fill="black"></path>
            <path
                d="M171.526 23.4623C170.064 23.4623 168.714 23.8944 167.51 24.749C167.132 25.016 166.782 25.3171 166.462 25.6472V23.7731H163.908V42.1893H166.462V30.7453C166.797 29.347 167.428 28.1914 168.336 27.3077C169.234 26.4386 170.258 26.0162 171.482 26.0162C172.793 26.0162 173.696 26.3367 174.25 26.997C174.832 27.6962 175.133 28.8469 175.143 30.4151V42.1893H177.697V30.4297C177.687 28.1817 177.172 26.4532 176.172 25.2831C175.138 24.0741 173.575 23.4623 171.531 23.4623H171.526Z"
                fill="black"></path>
            <path
                d="M197.735 39.4654L183.45 18.7867L183.412 18.7332H182.377V41.4513H183.47V20.6705L197.754 41.3978L197.793 41.4513H198.813V18.7332H197.735V39.4654Z"
                fill="black"></path>
            <path
                d="M214.291 25.2491C213.165 24.5499 211.878 24.1955 210.46 24.1955C209.043 24.1955 207.737 24.5596 206.605 25.2782C205.474 25.9968 204.586 27.0116 203.969 28.2982C203.352 29.58 203.037 31.0463 203.037 32.6486V33.3914C203.046 34.9791 203.367 36.426 203.988 37.6981C204.615 38.975 205.503 39.9801 206.634 40.689C207.766 41.3978 209.062 41.7571 210.49 41.7571C211.917 41.7571 213.213 41.393 214.345 40.6744C215.476 39.9558 216.36 38.9411 216.976 37.6593C217.588 36.3823 217.899 34.916 217.899 33.2992V32.5563C217.889 30.9589 217.564 29.5023 216.937 28.2302C216.306 26.9484 215.418 25.9482 214.291 25.2491ZM216.821 32.6534V33.1341C216.821 35.3481 216.224 37.1786 215.054 38.5818C213.883 39.9752 212.349 40.6841 210.494 40.6841C209.261 40.6841 208.149 40.3637 207.188 39.7325C206.227 39.1013 205.469 38.203 204.93 37.0718C204.391 35.9356 204.115 34.6684 204.115 33.304V32.8088C204.115 30.6482 204.712 28.8323 205.892 27.4097C207.067 25.9968 208.601 25.2782 210.456 25.2782C211.669 25.2782 212.772 25.5987 213.728 26.2396C214.689 26.8756 215.452 27.7787 215.991 28.9148C216.534 30.0558 216.811 31.3134 216.811 32.6583L216.821 32.6534Z"
                fill="black"></path>
            <path
                d="M232.887 36.3483C232.625 37.7612 232.003 38.8488 231.037 39.5771C230.066 40.3103 228.784 40.6793 227.221 40.6793C225.764 40.6793 224.643 40.2326 223.89 39.3586C223.133 38.4749 222.735 37.1494 222.715 35.4161V24.5062H221.637V35.387C221.657 37.4456 222.137 39.0382 223.065 40.116C223.997 41.2036 225.405 41.7571 227.255 41.7571C228.721 41.7571 229.95 41.4804 230.911 40.9317C231.736 40.4608 232.397 39.8393 232.887 39.077V41.4464H233.98V24.5062H232.887V36.3483Z"
                fill="black"></path>
            <path
                d="M244.03 39.6596L238.141 24.5839L238.111 24.5062H236.951L243.53 41.4513H244.516L251.104 24.5062H249.949L244.03 39.6596Z"
                fill="black"></path>
            <path
                d="M259.708 24.1955C258.412 24.1955 257.203 24.5645 256.105 25.2976C255.013 26.0259 254.139 27.0553 253.517 28.3565C252.896 29.6528 252.58 31.0997 252.58 32.6534V33.3477C252.58 34.9014 252.906 36.3386 253.551 37.6156C254.197 38.8925 255.1 39.917 256.241 40.6501C257.382 41.3833 258.654 41.7571 260.019 41.7571C262.5 41.7571 264.398 40.8298 265.66 39.0042L265.728 38.9022L264.947 38.3487L264.874 38.441C264.282 39.1984 263.592 39.7665 262.825 40.1306C262.058 40.4948 261.111 40.6793 260.014 40.6793C258.916 40.6793 257.795 40.354 256.819 39.7131C255.838 39.0721 255.061 38.1739 254.498 37.0426C253.94 35.9113 253.653 34.6587 253.653 33.3283V32.5418H266.17V31.5416C266.17 29.3615 265.563 27.5748 264.364 26.2298C263.165 24.8801 261.597 24.2003 259.703 24.2003L259.708 24.1955ZM253.716 31.4639C253.925 29.6868 254.581 28.2011 255.659 27.0504C256.761 25.8706 258.12 25.2782 259.703 25.2782C260.713 25.2782 261.64 25.5453 262.451 26.0696C263.267 26.594 263.917 27.3417 264.384 28.2885C264.85 29.2401 265.088 30.284 265.088 31.391V31.4687H253.712L253.716 31.4639Z"
                fill="black"></path>
            <path d="M271.094 17.5H270.016V41.4513H271.094V17.5Z" fill="black"></path>
        </svg>