<svg width="126" height="32"
            viewBox="0 0 126 32" fill="none" xmlns="http://www.w3.org/2000/svg">
            <path
                d="M3.62511 11.7073L0.560974 14.4365L10.8271 23.4147L21.0933 14.4365L18.0292 11.7073C18.0292 11.7073 11.7532 17.5768 10.8271 18.4155C9.90109 17.5768 3.62511 11.7073 3.62511 11.7073ZM65.2483 11.7073C59.428 11.7073 55.794 12.6001 55.794 12.6001V22.4454C55.794 22.4454 59.4867 23.3381 65.2483 23.3381C70.9691 23.3381 74.6764 22.4454 74.6764 22.4454V19.1041C74.6764 19.1041 70.6779 19.8693 65.1959 19.8693C62.5351 19.8693 60.7752 19.5551 59.8272 19.4612C59.8251 18.6562 59.8303 16.3984 59.8272 15.5843C60.8894 15.4822 62.6839 15.1762 65.2483 15.1762C70.5846 15.1956 74.6764 15.9669 74.6764 15.9669V12.6001C74.6764 12.6001 71.0267 11.7073 65.2483 11.7073ZM23.8432 11.8859V23.1086H27.9811V11.8859H23.8432ZM47.2301 11.8859V18.8746C47.2301 18.8746 44.2404 16.7055 39.8448 14.4875C36.0002 12.547 32.6166 11.9114 32.6166 11.9114V23.1086H36.6235V17.1146C37.5841 17.4952 38.6191 17.9247 39.8448 18.543C44.2404 20.762 47.2301 23.1086 47.2301 23.1086H51.2371V11.8859H47.2301ZM79.1548 11.8859V23.1086H83.2927V11.8859H79.1548Z"
                fill="black"></path>
            <path
                d="M105.592 0C104.702 0 103.988 0.732618 103.988 1.61301V6.34797C103.988 7.82257 102.848 9.09528 102.359 9.6C101.87 10.1078 100.552 11.1839 98.4418 11.187H92.6586V20.6049H102.175V14.8813C102.179 12.7938 103.265 11.4888 103.778 11.0049C104.288 10.521 105.574 9.39187 107.064 9.39187H111.848C112.739 9.39187 113.478 8.68527 113.478 7.80488V1.61301C113.478 0.731577 112.739 0 111.848 0H105.592ZM119.945 10.7447C116.816 10.7447 114.319 13.2756 114.319 16.2862C114.319 16.8356 114.582 17.8721 114.582 18.3154C114.582 20.685 112.639 22.6081 110.245 22.6081H105.592C104.702 22.6081 103.988 23.3147 103.988 24.1951V30.413C103.988 31.2944 104.702 32 105.592 32H111.848C112.739 32 113.478 31.2934 113.478 30.413C113.478 28.0778 113.478 25.8081 113.478 25.8081C113.478 23.4386 115.421 21.5154 117.816 21.5154C118.264 21.5154 119.311 21.7496 119.866 21.7496C122.908 21.7496 125.439 19.2791 125.439 16.1821C125.439 14.668 124.845 13.3193 123.862 12.3317C122.878 11.3452 121.475 10.7447 119.945 10.7447Z"
                fill="#404040"></path>
        </svg>