<svg width="149" height="60"
            viewBox="0 0 149 60" fill="none" xmlns="http://www.w3.org/2000/svg">
            <path
                d="M147.336 27.4354H143.843C143.773 30.0187 143.679 32.6142 143.901 35.1975C144.014 36.5333 145.466 37.0488 146.68 36.1399C147.54 35.4964 148.129 34.5021 148.833 33.6695C148.729 35.4506 148.022 37.0183 146.472 38.1406C145.292 38.9946 143.972 39.1929 142.62 38.5432C141.364 37.9424 141.035 36.7987 141.016 35.5391C140.989 33.6634 141.004 31.7846 141.001 29.9089C141.001 29.1678 141.001 28.3138 141.001 27.4324H138.534V24.5258H140.998V21.0916H143.843V24.5258H147.336V27.4354Z"
                fill="black"></path>
            <path
                d="M84.245 24.6051L87.2157 24.5716C88.3472 27.591 89.497 30.6561 90.7841 34.0873C92.0254 30.7232 93.16 27.652 94.3159 24.5289H97.3139C95.1729 30.1865 93.0715 35.7404 90.964 41.3034C90.8207 41.6816 90.4577 41.9347 90.0521 41.9347H85.3186V39.8333C85.3186 39.8333 86.9778 39.815 88.094 39.8089C88.5912 39.8059 89.006 39.4277 89.0578 38.9336C89.1707 37.857 89.1097 37.1555 88.7742 36.2954C87.4993 33.0259 86.2366 29.7534 84.9709 26.4808C84.7361 25.8739 84.5012 25.2639 84.2481 24.6051H84.245Z"
                fill="black"></path>
            <path
                d="M23.8018 46.226C24.7198 44.4845 25.8757 40.5897 25.8757 40.5897C24.5124 42.0933 23.1491 43.5939 21.5449 45.3659C20.7946 39.9248 19.0012 29.0336 19.0592 28.9726C19.0592 28.9726 17.2384 40.1993 16.5278 45.006C14.8839 44.1978 12.6147 41.5016 12.6147 41.5016C12.6147 41.5016 13.7798 44.8535 14.4569 46.3693C14.9906 47.5618 14.3745 47.5435 13.5358 47.4734C7.31091 45.0914 2.63844 41.1082 1.16228 34.4777C-1.24716 23.6383 4.78558 14.6227 14.5148 12.5C11.4923 16.4862 11.4466 19.9692 14.3806 22.6745C16.9395 25.0352 21.1392 25.0565 23.7195 22.7203C26.5315 20.1766 26.5498 16.1995 23.7622 12.625C30.5543 13.5431 37.1269 20.9513 37.6667 28.3016C38.2676 36.4357 34.0953 43.3407 26.5345 46.6682C24.6436 47.5008 22.9417 47.8546 23.8018 46.226Z"
                fill="black"></path>
            <path
                d="M19.108 21.5034C18.4157 19.5972 17.1255 18.5785 14.9632 17.9227C17.2414 17.325 18.3974 16.0654 19.1049 13.9243C19.8735 15.9495 20.8556 17.2823 23.1827 17.7672C21.1972 18.7066 19.7332 19.6307 19.111 21.5034H19.108Z"
                fill="black"></path>
            <path
                d="M57.845 20.9117C52.956 20.9757 49.0795 24.8461 49.0673 29.6741C49.0551 34.6363 52.9895 38.5524 57.9578 38.5219C63.0176 38.4914 66.8483 34.6729 66.8331 29.6741C66.8148 24.7546 62.8072 20.8446 57.845 20.9117ZM63.8442 29.9059C63.7435 33.1662 61.0352 35.7861 57.845 35.7099C54.5175 35.6306 52.0135 32.8765 52.1447 29.4362C52.2697 26.1331 54.972 23.5925 58.2079 23.7328C61.4103 23.8731 63.9448 26.6455 63.8442 29.9028V29.9059Z"
                fill="black"></path>
            <path d="M79.1151 38.47H76.5227V27.4476H70.7156V38.4517H68.0286V24.7546H79.1151V38.47Z" fill="black"></path>
            <path d="M114.284 38.3999V24.5289H116.965V35.7983H122.787V24.5289H125.501V38.3999H114.284Z" fill="black">
            </path>
            <path d="M83.1806 38.4639H80.6004V21.0337H83.1806V38.4639Z" fill="black"></path>
            <path
                d="M112.808 27.6489C112.31 23.925 109.77 21.1648 106.317 20.8934C103.713 20.686 101.078 20.8537 98.3753 20.8537V38.3633C100.794 38.3633 102.99 38.4548 105.174 38.345C110.77 38.0674 112.557 34.194 112.878 30.7903C112.975 29.7534 112.945 28.6829 112.808 27.652V27.6489ZM109.093 33.093C107.629 36.2375 104.579 35.8746 101.505 35.7404V23.2022C104.094 23.1686 106.79 22.8057 108.571 25.1632C110.41 27.5971 110.31 30.4701 109.09 33.093H109.093Z"
                fill="black"></path>
            <path
                d="M128.969 34.0019C129.039 34.7613 129.231 35.3439 129.552 35.7495C130.137 36.4845 131.156 36.8505 132.601 36.8505C133.465 36.8505 134.221 36.6675 134.877 36.2985C135.532 35.9294 135.859 35.3622 135.859 34.5936C135.859 34.0111 135.596 33.5688 135.075 33.2638C134.739 33.0778 134.081 32.8643 133.093 32.6172L131.25 32.1598C130.076 31.8731 129.207 31.5528 128.649 31.196C127.655 30.5799 127.154 29.7259 127.154 28.6371C127.154 27.3531 127.624 26.3161 128.56 25.5201C129.497 24.7271 130.756 24.3306 132.339 24.3306C134.41 24.3306 135.905 24.9315 136.82 26.1301C137.393 26.8895 137.67 27.7099 137.655 28.5883H135.502C135.459 28.0759 135.273 27.6093 134.944 27.1914C134.407 26.5967 133.48 26.2978 132.156 26.2978C131.275 26.2978 130.607 26.4625 130.152 26.7889C129.698 27.1182 129.472 27.5513 129.472 28.0881C129.472 28.6768 129.771 29.1495 130.366 29.5033C130.711 29.7137 131.217 29.8998 131.888 30.0584L133.425 30.4244C135.093 30.8208 136.213 31.2051 136.78 31.5772C137.667 32.1598 138.11 33.0778 138.11 34.3252C138.11 35.5726 137.646 36.576 136.719 37.4544C135.792 38.3328 134.38 38.772 132.479 38.772C130.436 38.772 128.99 38.3145 128.139 37.3965C127.289 36.4815 126.834 35.3469 126.773 33.9958H128.963L128.969 34.0019Z"
                fill="black"></path>
        </svg>