<svg width="120" height="60"
            viewBox="0 0 120 60" fill="none" xmlns="http://www.w3.org/2000/svg">
            <path
                d="M5.09379 34.6032C5.25252 34.9206 5.41123 35.2381 5.56996 35.5555C5.72869 35.5555 5.80805 35.5555 5.96678 35.5555C7.63344 35.5555 9.30012 36.1905 10.4906 37.4603C10.4906 37.4603 10.4906 37.4603 10.57 37.5397C10.6493 37.1428 10.8081 36.8254 10.9668 36.5079C9.61758 35.2381 7.79219 34.5238 5.88743 34.5238C5.64934 34.5238 5.33188 34.5238 5.09379 34.6032ZM4.37948 32.3809C4.45885 32.6984 4.53823 33.0159 4.61759 33.3333C5.01442 33.254 5.49061 33.2539 5.88743 33.2539C7.95092 33.2539 10.0144 33.9683 11.6017 35.3175C11.7604 35 11.9985 34.7619 12.1573 34.5238C10.4112 33.0952 8.18902 32.2222 5.88743 32.2222C5.41124 32.2222 4.85567 32.3016 4.37948 32.3809ZM6.36361 36.746C6.68107 37.1428 6.99853 37.5397 7.31599 37.9365C8.34774 38.254 9.22076 38.9682 9.77631 39.9206C9.85568 40 9.93503 40 10.0144 40.0794C10.0938 39.6825 10.1731 39.2063 10.2525 38.8095C9.22076 37.619 7.79217 36.8254 6.36361 36.746ZM5.88743 30C5.33188 30 4.69695 30.0794 4.1414 30.1587C4.1414 30.4762 4.1414 30.7937 4.22077 31.1111C4.77632 31.0318 5.33186 30.9524 5.96678 30.9524C8.50646 30.9524 11.0462 31.8254 13.0303 33.4921C13.2684 33.254 13.5065 33.0159 13.7446 32.7778C11.5223 31.0317 8.74457 30 5.88743 30Z"
                fill="black"></path>
            <path
                d="M17.4747 41.6667C17.7922 41.5873 18.1096 41.5873 18.5065 41.5079C18.5858 39.6032 20.2525 38.1746 22.1573 38.3333C22.7128 38.3333 23.3477 38.5714 23.8239 38.8889C24.062 38.6508 24.3001 38.4127 24.5382 38.1746C22.5541 36.746 19.7763 37.2222 18.3477 39.127C17.7128 39.8413 17.4747 40.7143 17.4747 41.6667ZM14.6969 41.6667C15.0144 41.6667 15.3319 41.746 15.7287 41.746C15.7287 41.746 15.7287 41.746 15.7287 41.6667C15.7287 38.254 18.5064 35.5555 21.8398 35.5555C23.189 35.5555 24.4588 35.9524 25.5699 36.8254C25.7287 36.5873 25.9668 36.2698 26.1255 35.9524C22.9509 33.6508 18.5065 34.2857 16.1255 37.4603C15.1731 38.7302 14.6969 40.1587 14.6969 41.6667ZM21.8398 29.6825C15.808 29.6825 10.7287 34.127 9.93503 40.0794C10.2525 40.2381 10.57 40.3968 10.8874 40.5555C11.443 34.5238 16.9192 30.1587 22.9509 30.7143C24.5382 30.873 26.1255 31.3492 27.4747 32.2222C27.5541 31.9048 27.6334 31.5079 27.6334 31.1905C25.8874 30.1587 23.9033 29.6825 21.8398 29.6825ZM12.1573 41.1111C12.4747 41.1905 12.7922 41.3492 13.1096 41.4286C13.3477 36.5873 17.316 32.8571 22.1573 33.0159C23.8239 33.0952 25.4112 33.5714 26.8398 34.5238C26.9985 34.2064 27.0779 33.8889 27.1572 33.5714C22.6334 30.6349 16.6811 31.9047 13.7446 36.4285C12.7922 37.8571 12.2366 39.4444 12.1573 41.1111Z"
                fill="black"></path>
            <path
                d="M15.9668 15C7.63345 15 0.966797 21.6667 0.966797 30C0.966797 38.3333 7.63345 45 15.9668 45C24.3001 45 30.9667 38.3333 30.9667 30C30.9667 21.6667 24.2207 15 15.9668 15ZM25.1731 39.2063C22.9509 41.4285 20.0938 42.7778 16.9985 43.0159L15.9668 44.8413L14.935 43.0159C8.58584 42.5397 3.50648 37.4603 2.95092 31.0317L1.12554 30L2.95092 28.9683C3.42711 22.6191 8.50647 17.5397 14.935 16.9841L15.9668 15.1587L16.9985 16.9841C23.3477 17.4603 28.4271 22.5397 28.9826 28.9683L30.808 30L28.9826 31.0317C28.6652 34.127 27.3953 36.9841 25.1731 39.2063Z"
                fill="black"></path>
            <path
                d="M42.0778 21.5079H44.4588L51.2048 37.1428H48.0302L46.6017 33.5714H39.7763L38.3477 37.1428H35.2525L42.0778 21.5079ZM45.4906 31.1905L43.1096 24.8413L40.6493 31.1905H45.4906Z"
                fill="black"></path>
            <path
                d="M66.7604 36.0317C64.7762 37.0635 62.554 37.619 60.2524 37.5397C59.1413 37.5397 58.0302 37.3809 56.9191 36.9841C55.0143 36.1905 53.427 34.6826 52.6334 32.6984C52.2366 31.6667 51.9985 30.4762 51.9985 29.3651C51.9985 28.1746 52.1572 27.0635 52.6334 25.9524C53.0302 25 53.5858 24.0476 54.3794 23.3333C55.0937 22.619 56.0461 22.0635 56.9985 21.6667C58.0302 21.2699 59.1413 21.1111 60.2524 21.1111C61.3636 21.1111 62.554 21.2698 63.5858 21.5079C64.6175 21.8254 65.5699 22.3016 66.3635 23.0159L64.3 25.0794C63.7445 24.6032 63.1889 24.2064 62.4747 23.9683C61.7604 23.7302 60.9667 23.5715 60.1731 23.5715C59.3794 23.5715 58.6651 23.7302 57.9508 23.9683C57.3159 24.2064 56.7604 24.6826 56.2842 25.1588C55.808 25.7143 55.4112 26.2698 55.1731 26.9047C54.935 27.619 54.7762 28.3334 54.7762 29.127C54.7762 29.9207 54.935 30.7143 55.1731 31.4286C55.4112 32.1428 55.808 32.6984 56.2842 33.2539C56.7604 33.8095 57.3159 34.2063 57.9508 34.4444C58.6651 34.7619 59.3794 34.9206 60.1731 34.9206C60.808 34.9206 61.5223 34.8413 62.1572 34.6826C62.7127 34.6032 63.2683 34.3651 63.8239 34.0476V30.3968H60.6493V28.0159H66.6016L66.7604 36.0317Z"
                fill="black"></path>
            <path d="M69.935 21.5079H72.7127V37.1428H69.935V21.5079Z" fill="black"></path>
            <path
                d="M86.9191 25.1588C86.4429 24.6032 85.8873 24.2063 85.2524 23.8889C84.6969 23.6508 84.2207 23.5715 83.6651 23.5715C82.8715 23.5715 82.1572 23.7302 81.4429 23.9683C80.808 24.2064 80.2524 24.6826 79.7762 25.1588C79.3 25.7143 78.9032 26.2698 78.6651 26.9047C78.427 27.619 78.2683 28.3334 78.2683 29.127C78.2683 29.9207 78.427 30.7143 78.6651 31.4286C78.9032 32.1428 79.3 32.6984 79.7762 33.2539C80.2524 33.8095 80.808 34.2063 81.4429 34.4444C82.1572 34.7619 82.8715 34.9206 83.6651 34.9206C84.3 34.9206 84.9349 34.7619 85.4905 34.4444C86.1254 34.127 86.681 33.5714 87.1572 33.0159L89.4587 34.6826C88.8238 35.6349 87.9508 36.3492 86.8397 36.8254C85.808 37.3016 84.6968 37.4603 83.5857 37.4603C82.4746 37.4603 81.3635 37.3016 80.2524 36.9048C78.2683 36.1905 76.681 34.6032 75.9667 32.6984C75.5699 31.6667 75.3318 30.4762 75.3318 29.3651C75.3318 28.1746 75.4905 27.0635 75.9667 25.9524C76.3635 25 76.9191 24.0476 77.7127 23.3333C78.427 22.619 79.3794 22.0635 80.3318 21.6667C81.3635 21.2699 82.4746 21.1111 83.5857 21.1111C84.6175 21.1111 85.5698 21.2699 86.5222 21.6667C87.554 22.0635 88.3476 22.7778 89.0619 23.5715L86.9191 25.1588Z"
                fill="black"></path>
            <path
                d="M97.7127 21.5079H100.094L106.84 37.1428H103.665L102.237 33.5714H95.4905L94.0619 37.1428H90.9667L97.7127 21.5079ZM101.205 31.1905L98.8238 24.8413L96.3635 31.1905H101.205Z"
                fill="black"></path>
            <path
                d="M108.983 21.5079H114.221C114.935 21.5079 115.649 21.5873 116.363 21.746C116.998 21.9048 117.633 22.1429 118.189 22.4603C118.744 22.7778 119.141 23.254 119.459 23.8889C119.776 24.5238 119.935 25.3175 119.935 26.0318C119.935 26.8254 119.776 27.6984 119.459 28.4127C119.141 28.9683 118.665 29.4444 118.11 29.8413C117.475 30.1587 116.84 30.3968 116.125 30.4762C115.332 30.6349 114.538 30.6349 113.744 30.6349H111.76V37.1428H108.983V21.5079ZM113.506 28.254C113.903 28.254 114.3 28.254 114.776 28.1746C115.173 28.1746 115.57 28.0953 115.967 27.9365C116.284 27.7778 116.602 27.5397 116.84 27.3016C117.078 26.9047 117.236 26.5079 117.157 26.0318C117.157 25.6349 117.078 25.2381 116.84 24.8413C116.602 24.5238 116.363 24.3651 116.046 24.2064C115.729 24.0476 115.332 23.9683 114.935 23.8889C114.538 23.8095 114.141 23.8095 113.824 23.8095H111.84V28.254H113.506Z"
                fill="black"></path>
        </svg>