<svg width="124" height="40"
            viewBox="0 0 124 40" fill="none" xmlns="http://www.w3.org/2000/svg">
            <path fill-rule="evenodd" clip-rule="evenodd"
                d="M103.421 20.4211C103.868 20.4211 105.026 21.579 105.026 22.4737C105.026 22.5526 105 22.6053 104.921 22.6053H101.868C103.632 23.3947 104.526 24.8684 104.526 26.5263C104.526 29.3421 102.211 31.4474 99 31.4474C98 31.4474 97.1579 31.3421 96.4474 31.1053C96.2895 31.3421 96.2105 31.579 96.2105 31.8684C96.2105 32.4474 96.7368 32.7632 97.6842 32.7895H102C104.053 32.7895 105.184 33.5526 105.184 34.9474C105.184 37.6842 99.5789 40 96.5 40C94.7105 40 93.3947 39.2368 93.3947 38.0526C93.3947 37.3421 93.8684 36.5263 94.8158 35.8158C93.8421 35.3947 93.3158 34.6842 93.3158 33.7105C93.3158 32.5263 94.3684 31.4211 95.9737 30.9737C94 30.1579 93.2631 28.5263 93.2631 26.9211C93.2631 24.1316 95.6579 22.1053 98.8947 22.1053C99.7632 22.1053 100.526 22.2105 101.184 22.3947C101.895 21.4474 102.605 20.8421 103.158 20.5263C103.289 20.4474 103.368 20.4211 103.421 20.4211ZM95.0526 35.8684C95.9474 37.9211 98.0263 38.3684 99.6579 38.3684C101.105 38.3684 102.105 37.8421 102.105 37.1053C102.105 36.5 101.632 36.1579 100.579 36.1579H97C96.2368 36.1579 95.5789 36.0526 95.0526 35.8684ZM66.5526 18.7368C66.6842 18.7368 66.6842 18.8684 66.6316 18.9474C66.1316 19.4737 65.7368 20.0526 65.7105 21.1316V31.1316C65.7105 35.4474 63.6053 37.4211 59.0526 37.4211C58.8158 37.4211 58.6053 37.3947 58.5 37.3684C58.3158 37.3158 58.2895 37.1579 58.4474 37.0526C60.2632 36.2632 61.3158 34.579 61.3684 32.3947V21.2632C61.3684 20.1053 60.9474 19.4737 60.4474 18.9211C60.3947 18.8684 60.3684 18.7368 60.4737 18.7105H66.5526V18.7368ZM118.368 22.0526C121.158 22.0526 123.132 23.4737 123.132 25.4737C123.132 27.7105 120.658 29.2632 116.921 29.2632C116.605 29.2632 116.342 29.2368 116.105 29.2105C116.632 30.7895 117.842 31.8158 119.737 31.8158C122.132 31.8158 123.289 30.2105 123.553 29.7105C123.658 29.5 123.842 29.579 123.816 29.7895C123.632 31.2105 121.895 34.8158 117.632 34.8158C114.105 34.8158 111.658 32.3684 111.658 28.5789C111.684 24.6579 114.316 22.0526 118.368 22.0526ZM78.7368 22.0526C78.8158 22.0526 78.8684 22.079 78.8684 22.1579V22.1842V31.3684C78.8684 32.3421 79.2105 33.3684 79.6316 34.1842C79.6579 34.2632 79.6316 34.3421 79.5789 34.3421H79.5526H74.8947C74.8158 34.3421 74.7632 34.3158 74.7632 34.2368V34.2105V31.9737C74.0263 33.7632 72.6842 34.7895 71 34.7895C69 34.7895 67.8684 33.3158 67.8421 30.7105V25.8421C67.8421 24.4211 67.4737 23.8421 67.1842 23.5526C67.1316 23.5 67.1316 23.3947 67.2105 23.3684H67.2368L71.5263 22.1842C71.7632 22.1053 71.8421 22.1053 71.9211 22.1053C72 22.1053 72.0526 22.1316 72.0526 22.2105V30.4737C72.0526 31.6842 72.4737 32.3158 73.2632 32.3158C74.1842 32.3158 74.7105 31.4737 74.7368 29.8158V25.8684C74.7368 24.4474 74.3684 23.8684 74.0789 23.5789C74.0263 23.5263 74.0263 23.4211 74.1053 23.3947H74.1316L78.421 22.2105C78.5789 22.079 78.6579 22.0526 78.7368 22.0526ZM52.5789 22.0526C55.3421 22.0526 57.3421 23.4737 57.3421 25.4737C57.3421 27.7105 54.8684 29.2632 51.1316 29.2632C50.8158 29.2632 50.5526 29.2368 50.3158 29.2105C50.8421 30.7895 52.0526 31.8158 53.9474 31.8158C56.3421 31.8158 57.5 30.2105 57.7632 29.7105C57.8684 29.5 58.0526 29.579 58.0263 29.7895C57.8421 31.2105 56.1053 34.8158 51.8421 34.8158C48.3158 34.8158 45.8947 32.3684 45.8947 28.5789C45.8947 24.6579 48.5 22.0526 52.5789 22.0526ZM5.89474 19.5263C5.97368 19.5263 6.02632 19.579 6.02632 19.6579C6.02632 19.8421 5.94737 20.8947 5.92105 22.3684V22.5H9.05263C9.13158 22.5 9.21053 22.5263 9.21053 22.6053V22.6316L8.76316 23.5263C8.71052 23.6053 8.71053 23.6579 8.65789 23.6579H8.63158H5.94737V31.2368C5.94737 32.2105 6.47368 32.7632 7.39474 32.7632C8.10526 32.7632 8.71052 32.4211 9.26316 31.7632C8.76316 30.7895 8.55263 29.6842 8.55263 28.5789C8.55263 24.7895 11.2895 22.0263 15 22.0263C19.2895 22.0263 21.4474 24.8158 21.4474 28.079C21.4474 31.9474 18.7895 34.7632 15.1316 34.7632C12.3158 34.7632 10.5789 33.7368 9.60526 32.2632C8.78947 33.8421 7.26316 34.7105 5.36842 34.7105C3.13158 34.7105 1.8421 33.5526 1.78947 31.5V23.6316H0.131579C0.0526316 23.6316 0 23.579 0 23.5263C0 23.4474 0.052632 23.3684 0.236842 23.2368L0.289473 23.2105L5.55263 19.6842C5.71053 19.5789 5.81579 19.5263 5.89474 19.5263ZM29.5789 19.5263C29.6579 19.5263 29.7105 19.579 29.7105 19.6579C29.7105 19.8421 29.6316 20.8947 29.6316 22.3684V22.5H32.5263C32.6053 22.5 32.6579 22.5263 32.6316 22.6053V22.6316L32.2368 23.5526C32.2105 23.6053 32.1842 23.6579 32.1053 23.6579H32.0789H29.6316V31.2368C29.6316 32.3684 30.1316 32.8684 31.0789 32.8684C31.6579 32.8684 32.0789 32.7368 32.3158 32.4474C32.3947 32.3684 32.4211 32.3421 32.4737 32.3421C32.5789 32.3421 32.5789 32.4474 32.5526 32.579C32.0263 34 30.6842 34.7368 28.8158 34.7368C26.6053 34.7368 25.4737 33.579 25.4211 31.5263V31.4211V23.6579H23.7632C23.6842 23.6579 23.6316 23.6053 23.6316 23.5526C23.6316 23.4737 23.6842 23.3947 23.8684 23.2632L23.9211 23.2368L29.1842 19.7105C29.3947 19.579 29.5 19.5263 29.5789 19.5263ZM37.8158 17.7895C37.8947 17.7895 37.9474 17.8421 37.9474 17.9211C37.9474 18.0526 37.8684 18.5789 37.8684 19.4211V24.7105C38.6316 23 39.921 22.0526 41.5789 22.0526C43.5789 22.0526 44.7105 23.5263 44.7368 26.1579V31.3684C44.7368 32.3421 45.0789 33.3684 45.5 34.1842C45.5263 34.2632 45.5 34.3421 45.4474 34.3421H45.4211H39.8947C39.8158 34.3421 39.7632 34.2632 39.8158 34.1842C40.2632 33.3158 40.5263 32.5 40.5526 31.5526V31.3684V26.4211C40.5526 25.2105 40.1316 24.579 39.3421 24.579C38.421 24.579 37.8947 25.4211 37.8684 27.079V31.3684C37.8684 32.3421 38.2105 33.3684 38.6316 34.1842C38.6579 34.2632 38.6316 34.3421 38.5789 34.3421H38.5526H33.0526C32.9737 34.3421 32.921 34.2632 32.9737 34.1842C33.421 33.3158 33.6842 32.5 33.7105 31.5526V31.3684V22.7105C33.7105 21.6053 33.3421 20.7105 32.7368 19.9474L32.6579 19.8421L32.4211 19.5526C32.3684 19.5 32.3684 19.3947 32.4474 19.3684H32.4737L37.4737 17.9211C37.6842 17.8158 37.7632 17.7895 37.8158 17.7895ZM88.8684 22.0526C90.8421 22.0526 91.9737 23.5263 92.0263 26.1579V26.2895V31.3684C92.0263 32.3421 92.3684 33.3684 92.7895 34.1842C92.8158 34.2632 92.7895 34.3421 92.7368 34.3421H92.7105H87.2105C87.1316 34.3421 87.0789 34.2632 87.1316 34.1842C87.5789 33.3158 87.8421 32.5 87.8684 31.5526V31.3684V26.4211C87.8684 25.2105 87.4474 24.579 86.6579 24.579C85.7368 24.579 85.2105 25.4211 85.1842 27.079V27.2105V31.3684C85.1842 32.3421 85.4737 33.3947 85.9474 34.1842C85.9737 34.2632 85.9474 34.3421 85.8947 34.3421H85.8684H80.3684C80.2632 34.3421 80.2368 34.2632 80.2632 34.1842C80.7632 33.3158 81 32.4737 81.0263 31.5263V31.3421V25.8158C81.0263 24.3684 80.6316 23.8421 80.3684 23.5263C80.3158 23.4737 80.3158 23.3684 80.3947 23.3421H80.421L84.7105 22.1579C84.9474 22.079 85.0263 22.079 85.1053 22.079C85.1842 22.079 85.2368 22.1316 85.2368 22.2105C85.2368 22.6579 85.1842 23.7368 85.1579 24.8947C85.8158 23.0789 87.1579 22.0526 88.8684 22.0526ZM110.342 17.7895C110.421 17.7895 110.474 17.8421 110.474 17.9211C110.474 18.0526 110.395 18.5789 110.395 19.4211V31.3421C110.395 32.3158 110.737 33.3421 111.158 34.1579C111.184 34.2368 111.158 34.3158 111.105 34.3158H111.079H105.579C105.5 34.3158 105.447 34.2368 105.5 34.1579C105.947 33.2895 106.211 32.4737 106.237 31.5263V31.3421V22.6842C106.237 21.579 105.868 20.6842 105.263 19.9211L105.184 19.8158L104.947 19.5263C104.895 19.4737 104.895 19.3684 104.974 19.3421H105L110 17.8947C110.184 17.8158 110.289 17.7895 110.342 17.7895ZM14.7632 22.7632H14.7105C13.4474 22.8421 13.0263 24.8158 13.2105 28.5C13.4211 32.2105 14.0263 34.1842 15.3158 34.1053C16.5789 34.0263 17.0263 32.0263 16.8421 28.3421C16.6579 24.7632 16.0526 22.8158 14.8421 22.7632H14.7632V22.7632ZM98.7105 22.7632H98.6579C97.6842 22.8158 97.2368 24.1842 97.3947 26.7895C97.5526 29.5263 98.2105 30.7632 99.1579 30.7368C100.211 30.6842 100.579 29.2105 100.421 26.6842C100.263 24.1842 99.7105 22.8158 98.7632 22.7632H98.7105ZM118.026 22.7632C116.447 22.7632 115.789 25.2632 115.789 27.2368C115.789 27.7895 115.868 28.3158 115.974 28.7895C117.947 28.3421 119.053 26.9737 119.053 24.7368C119.079 23.3947 118.684 22.7632 118.026 22.7632ZM52.2368 22.7632C50.6579 22.7632 50 25.2632 50 27.2368C50 27.7895 50.0789 28.3158 50.1842 28.7895C52.1579 28.3421 53.2895 26.9737 53.2895 24.7368C53.2632 23.3947 52.8684 22.7632 52.2368 22.7632ZM33.2895 2.1579C34.1579 3.60527 34.9737 5.84211 33.8684 9.81579C33.2632 12 31.8158 16.2895 26.9474 17.0263C26 17.1579 25.6842 16.8158 25.3421 16.3421C24.6842 15.4211 23.8684 13.4474 24.2105 10.9211C24.3684 9.73684 24.6316 8.97369 24.9737 7.94737L24.7895 8.26316C23.2895 11.0526 21.6842 14.2368 20.1316 16.5526L19.9474 16.8158C19.7632 17.079 19.5789 17.1316 19.4737 17.0526C19.3684 17 19.3947 16.8158 19.4474 16.5526C21.2632 9.18421 16.3684 3.21053 14.8684 1.42106C14.7368 1.28948 14.7105 1 15.0526 0.973687H15.1053H20.9737C21.1842 0.973687 21.1842 1.02632 21.2895 1.07895C21.6316 1.26316 23.6842 5.68421 22.8158 9.84211C24.7632 6.28948 26.4474 3.89474 26.4737 3.81579C26.6053 3.63158 26.7105 3.60527 26.8421 3.6579C27.0263 3.73684 27 3.89474 26.9737 3.97369C26.2895 7.26316 26.7895 10.7632 27.8421 12.5526C28.8421 14.2368 30.8684 14.7105 31.6053 13C33.421 8.81579 28.8684 3.76316 27.9737 2.81579C27.5526 2.36842 27.6842 2.02632 27.7895 1.89474C29.7632 0.026319 32.3947 0.684214 33.2895 2.1579ZM71 4.26316C75.2895 4.26316 77.4474 7.05264 77.4474 10.3158C77.4474 14.1842 74.7895 17 71.1316 17C67.3947 17 65.5526 15.1842 64.8947 12.9737C64.2632 14.6316 62.5263 17 59.1053 17C55.5526 17 53.1579 14.5 53.1579 10.7632C53.1579 6.60527 56.0263 4.26316 59.3684 4.26316C61.3421 4.26316 62.9474 5.13158 64.1053 7.1579C64.3947 7.68421 64.3684 8.10526 63.921 8.28947L63.8684 8.31579L60.5526 9.28947C60.3947 9.34211 60.2895 9.28948 60.3684 8.97369C60.8158 6.76316 60.4474 5 59.3158 5C57.921 5 57.2895 7.55263 57.2895 9.42105C57.2895 12.1053 58.6053 14.0526 61.1842 14.0526C63.1053 14.0526 64.2368 12.9737 64.7368 12.3158C64.6579 11.8421 64.6053 11.3684 64.6053 10.8684C64.5526 7.05263 67.2895 4.26316 71 4.26316ZM41.3158 4.26316C44.1053 4.26316 46.0789 5.68421 46.0789 7.68421C46.0789 9.92106 43.6053 11.4737 39.8684 11.4737C39.5526 11.4737 39.2895 11.4474 39.0526 11.4211C39.5789 13 40.7895 14 42.6842 14C45.0789 14 46.2368 12.3947 46.5 11.8947C46.6053 11.6842 46.7895 11.7632 46.7632 11.9737C46.5789 13.3947 44.8421 17 40.5789 17C37.0526 17 34.6053 14.5526 34.6053 10.7632C34.6316 6.86842 37.2368 4.26316 41.3158 4.26316ZM104.026 4.26316C106.789 4.26316 108.789 5.68421 108.789 7.68421C108.789 9.92106 106.316 11.4737 102.579 11.4737C102.316 11.4737 102.026 11.4474 101.763 11.4211C102.289 13 103.5 14 105.395 14C107.789 14 108.947 12.3947 109.211 11.8947C109.316 11.6842 109.5 11.7632 109.474 11.9737C109.289 13.3947 107.553 17 103.289 17C99.7632 17 97.3421 14.5526 97.3421 10.7632C97.3421 6.86842 99.9474 4.26316 104.026 4.26316ZM93.1053 4.26316C94.9737 4.26316 96.0789 5.73684 96.1316 8.23684V13.5789C96.1316 14.5526 96.3684 15.6053 96.7895 16.3947C96.8158 16.4737 96.7895 16.5526 96.7368 16.5526H96.7105H91.3947C91.3158 16.5526 91.2632 16.4737 91.3158 16.3947C91.7368 15.5526 91.9474 14.7105 91.9737 13.7632V13.5789V8.5C91.9737 7.42105 91.5526 6.78947 90.8947 6.78947C90.1053 6.78947 89.5789 7.63158 89.5526 9.1579V13.5789C89.5526 14.5526 89.8421 15.5789 90.2105 16.3947C90.2368 16.4737 90.2105 16.5526 90.1579 16.5526H90.1316H84.8158C84.7368 16.5526 84.6842 16.4737 84.7368 16.3947C85.1316 15.5263 85.3684 14.7105 85.3947 13.7632V13.5789V8.5C85.3947 7.42105 84.9737 6.78947 84.3158 6.78947C83.5263 6.78947 83 7.63158 82.9737 9.1579V9.28947V13.5789C82.9737 14.5526 83.2368 15.6053 83.6316 16.3947C83.6842 16.4737 83.6316 16.5526 83.5789 16.5526H83.5526H78.1316C78.0263 16.5526 78 16.4737 78.0263 16.3947C78.5263 15.5263 78.7632 14.6842 78.7895 13.7368V13.5526V8.02632C78.7895 6.60526 78.3947 6.05263 78.1316 5.73684C78.0789 5.68421 78.0789 5.57895 78.1579 5.55263H78.1842L82.4737 4.36842C82.7105 4.28948 82.7895 4.28947 82.8684 4.28947C82.9474 4.28947 83 4.34211 83 4.42105C83 4.86842 82.9474 5.94737 82.921 7.10526C83.6579 5.31579 85 4.28947 86.5526 4.28947C88.0526 4.28947 89.1053 5.26316 89.4474 7L89.4737 7.13158H89.5263C90.1842 5.28948 91.5263 4.26316 93.1053 4.26316ZM51.7895 0C51.8684 0 51.9211 0.0526316 51.9211 0.131579C51.9211 0.263158 51.8421 0.789477 51.8421 1.63158V13.5526C51.8421 14.5263 52.1842 15.5526 52.6053 16.3684C52.6579 16.4474 52.6053 16.5263 52.5526 16.5263H52.5263H47C46.9211 16.5263 46.8684 16.4474 46.921 16.3684C47.3684 15.5 47.6316 14.6842 47.6842 13.7368V4.89474C47.6842 3.78948 47.3158 2.89474 46.7105 2.13158L46.6316 2.02632L46.3947 1.73684C46.3421 1.68421 46.3421 1.57895 46.421 1.55263H46.4474L51.4474 0.105266C51.6316 0.0263182 51.7368 0 51.7895 0ZM70.7632 4.97369H70.7105C69.4474 5.05263 69.0263 7.02632 69.2105 10.7105C69.421 14.4211 70.0263 16.3684 71.3158 16.3158C72.5789 16.2368 73.0263 14.2368 72.8421 10.5526C72.6316 6.97369 72.0526 5.02632 70.8421 4.97369H70.7632ZM40.9737 4.97369C39.3947 4.97369 38.7368 7.47369 38.7368 9.44737C38.7368 10 38.8158 10.5263 38.921 11C40.8947 10.5789 42.0263 9.18421 42.0263 6.94737C42.0263 5.60527 41.6053 4.97369 40.9737 4.97369ZM103.684 4.97369C102.105 4.97369 101.447 7.47369 101.447 9.44737C101.447 10 101.526 10.5263 101.632 11C103.605 10.5789 104.711 9.18421 104.711 6.94737C104.737 5.60527 104.316 4.97369 103.684 4.97369Z"
                fill="black"></path>
        </svg>