<svg width="157" height="60"
            viewBox="0 0 157 60" fill="none" xmlns="http://www.w3.org/2000/svg">
            <path
                d="M23.2709 19.8456L22.2009 24.0056C20.6609 22.2256 13.9609 20.9256 13.7309 24.1356C13.5909 26.1056 17.0709 27.8156 18.4109 28.9956C21.4409 31.6556 22.8309 35.2956 20.0009 38.7756C16.7409 42.7856 9.94094 42.1256 5.96094 39.5356L7.03094 35.1856C8.85094 37.0856 14.3609 38.7656 16.1009 36.2756C17.9909 33.5856 13.6009 31.5556 12.0209 30.1856C5.75094 24.7856 9.68094 17.4256 17.5909 18.0356C19.5709 18.1856 21.4709 19.0456 23.2509 19.8556L23.2709 19.8456Z"
                fill="black"></path>
            <path
                d="M28.8809 36.1756C28.6109 36.5656 29.8509 37.1257 30.1209 37.2257C33.1009 38.3257 35.6209 36.7056 38.0509 35.1756L37.1409 39.9456C32.9509 42.8156 26.9609 41.9757 24.2109 37.5457C21.7909 33.6457 23.0509 27.4356 27.1809 25.1956C31.8309 22.6756 38.0609 24.9456 38.7609 30.3856L28.8809 36.1756ZM33.8609 29.3956C31.1909 26.1256 26.3809 29.2357 27.2809 33.1856L33.8609 29.3956Z"
                fill="black"></path>
            <path
                d="M151.511 29.1957H149.911C149.751 26.0357 146.931 24.9657 144.071 25.4557C141.211 25.9457 140.161 29.9257 143.271 31.1457C145.901 32.1757 150.981 32.2057 151.911 35.4657C154.241 43.6657 138.261 44.0257 139.341 35.7757H140.941C140.151 40.6157 148.261 41.9157 150.121 38.4757C153.321 32.5457 140.911 34.5157 139.991 30.0457C138.361 22.1357 151.531 21.8857 151.511 29.1957Z"
                fill="black"></path>
            <path
                d="M99.2709 33.3856L108.721 24.2556C110.641 24.2156 109.911 24.2456 110.641 24.2156L103.691 31.4556L111.041 41.3556H108.871L102.361 32.5856L99.2709 35.4756V41.3556H97.6709V24.2056L98.9409 24.2356H99.2709V33.3756V33.3856Z"
                fill="black"></path>
            <path
                d="M124.191 24.2156V25.6056H114.621V31.7856H123.591V33.1856H114.621V39.9656H124.391V41.3556H113.021V24.2156H124.191Z"
                fill="black"></path>
            <path d="M139.161 25.6056H133.361V25.9056V41.3556H131.761V25.6056H126.181V24.2056H139.161V25.6056Z"
                fill="black"></path>
            <path
                d="M74.1412 25.6056H68.3612V41.3556H66.7612V25.6056H61.1812V24.2056H73.8412C74.2912 24.5256 74.1212 25.1156 74.1412 25.6056Z"
                fill="black"></path>
            <path d="M78.1308 24.2156V41.3556H76.5308V24.5056L76.8608 24.2456L78.1308 24.2156Z" fill="black"></path>
            <path
                d="M87.621 39.9056C84.101 39.5156 82.351 35.9756 82.341 32.4456C82.341 28.9156 84.101 25.3756 87.621 24.9856C91.131 24.5956 93.411 26.9656 93.691 30.3356H95.281C94.921 26.1056 92.021 23.1556 87.601 23.5656C83.121 23.9856 80.781 28.2156 80.751 32.4456C80.781 36.6756 83.121 40.9056 87.601 41.3256C92.011 41.7356 94.911 38.7856 95.281 34.5456H93.691C93.411 37.9256 91.131 40.2956 87.621 39.9056Z"
                fill="black"></path>
            <path
                d="M45.5708 36.2799C45.3008 36.6699 46.5408 37.2299 46.8108 37.3299C49.7908 38.4299 52.3108 36.8099 54.7408 35.2799L53.8308 40.0499C49.6408 42.9199 43.6508 42.0799 40.9008 37.6499C38.4808 33.7499 39.7408 27.5399 43.8708 25.2999C48.5208 22.7799 54.7508 25.0499 55.4508 30.4899L45.5708 36.2799ZM50.5508 29.4999C47.8808 26.2299 43.0708 29.3399 43.9708 33.2899L50.5508 29.4999Z"
                fill="black"></path>
        </svg>