<svg width="157" height="60"
            viewBox="0 0 157 60" fill="none" xmlns="http://www.w3.org/2000/svg">
            <path
                d="M156.647 41.3316C156.647 41.7826 156.643 42.2335 156.647 42.6877C156.647 42.8029 156.617 42.8326 156.502 42.8326C154.441 42.8293 152.384 42.8293 150.323 42.8326C150.202 42.8326 150.182 42.7931 150.182 42.6844C150.182 39.3863 150.182 36.0849 150.182 32.7867C150.182 32.6583 150.221 32.6353 150.34 32.6353C152.394 32.6386 154.445 32.6386 156.498 32.6353C156.63 32.6353 156.65 32.6814 156.647 32.7933C156.64 33.1883 156.637 33.5833 156.647 33.9783C156.653 34.1297 156.597 34.1461 156.469 34.1461C155.007 34.1428 153.543 34.1461 152.081 34.1395C151.926 34.1395 151.884 34.1725 151.887 34.3305C151.897 35.127 151.897 35.9236 151.887 36.7201C151.887 36.8748 151.933 36.9012 152.075 36.9012C153.276 36.8946 154.474 36.9012 155.676 36.8946C155.659 37.3949 155.666 37.8952 155.666 38.3955C155.6 38.4317 155.531 38.4153 155.465 38.4153C154.346 38.4153 153.227 38.4153 152.107 38.4153C152.042 38.4153 151.969 38.3955 151.907 38.435C151.903 38.9222 151.894 39.406 151.894 39.8932C151.894 40.3606 151.9 40.828 151.907 41.2954C151.973 41.3316 152.042 41.3152 152.107 41.3152C153.552 41.3152 154.997 41.3152 156.442 41.3152C156.508 41.3152 156.643 41.3349 156.643 41.3349L156.647 41.3316Z"
                fill="black"></path>
            <path
                d="M107.247 34.0276C107.497 33.7841 107.711 33.5109 107.958 33.2673C108.139 33.0895 108.294 32.8888 108.481 32.7143C108.54 32.6583 108.596 32.632 108.679 32.632C110.018 32.632 111.361 32.632 112.701 32.632C112.793 32.632 112.849 32.6715 112.905 32.7341C113.31 33.1685 113.718 33.5997 114.123 34.0309C114.136 34.8209 114.123 35.6076 114.129 36.3976C114.129 36.47 114.133 36.5325 114.027 36.5325C113.501 36.5292 112.974 36.5325 112.447 36.5292C112.438 36.5292 112.428 36.5161 112.418 36.5095C112.418 35.7623 112.418 35.0184 112.424 34.2712C112.424 34.156 112.382 34.1428 112.283 34.1428C111.223 34.1428 110.16 34.1461 109.1 34.1428C108.988 34.1428 108.952 34.1659 108.952 34.2877C108.955 36.5819 108.955 38.8794 108.952 41.1736C108.952 41.2954 108.981 41.3316 109.107 41.3316C110.16 41.325 111.216 41.3283 112.27 41.3316C112.378 41.3316 112.421 41.3119 112.421 41.1901C112.415 40.4363 112.415 39.6858 112.415 38.9321C112.451 38.8959 112.497 38.909 112.54 38.909C113.017 38.909 113.494 38.909 113.971 38.909C114.054 38.909 114.129 38.8959 114.129 39.0275C114.123 39.8175 114.129 40.6075 114.129 41.3974C114.129 41.4172 114.12 41.4336 114.113 41.4501C113.708 41.8813 113.307 42.3125 112.905 42.747C112.846 42.8128 112.783 42.8391 112.694 42.8391C111.358 42.8391 110.025 42.8391 108.689 42.8391C108.583 42.8391 108.514 42.8029 108.445 42.7305C108.05 42.3026 107.652 41.878 107.253 41.4501C107.237 41.4007 107.244 41.3514 107.244 41.302C107.244 38.9288 107.244 36.5588 107.244 34.1856C107.244 34.1363 107.237 34.0869 107.253 34.0375L107.247 34.0276Z"
                fill="black"></path>
            <path
                d="M55.069 41.2921C55.0723 40.7095 55.0788 40.1269 55.0821 39.5476C55.0821 39.3402 55.0821 39.1329 55.0788 38.9288C55.115 38.8926 55.1611 38.9057 55.2039 38.9057C55.6812 38.9057 56.1585 38.9057 56.6358 38.9057C56.718 38.9057 56.7937 38.8926 56.7937 39.0242C56.7872 39.8142 56.7937 40.6042 56.7937 41.3942C56.7937 41.4139 56.7839 41.4304 56.7773 41.4468C56.3988 41.8451 56.0169 42.2368 55.6516 42.6417C55.5397 42.7667 55.4409 42.8359 55.2632 42.8359C53.9729 42.826 52.6793 42.8293 51.389 42.8359C51.2639 42.8359 51.1718 42.7997 51.0928 42.7141C50.7965 42.3882 50.4772 42.0821 50.2007 41.7398C50.1152 41.6344 50.0098 41.5456 49.9111 41.4501C49.8946 41.4007 49.9012 41.3514 49.9012 41.302C49.9012 38.9288 49.9012 36.5588 49.9012 34.1856C49.9012 34.1363 49.8946 34.0869 49.9111 34.0375C50.3324 33.5833 50.7537 33.129 51.1751 32.6748C51.2178 32.6287 51.2672 32.6485 51.3133 32.6485C52.6628 32.6485 54.0124 32.6485 55.3619 32.6452C55.4771 32.6452 55.5331 32.7044 55.5956 32.7703C55.9939 33.1949 56.3922 33.6162 56.7905 34.0408C56.8069 34.8374 56.7905 35.6306 56.797 36.4272C56.797 36.4996 56.7806 36.5457 56.695 36.5424C56.1684 36.5391 55.6417 36.5424 55.115 36.5391C55.1052 36.5391 55.0953 36.5259 55.0854 36.5194C55.0854 35.7755 55.0854 35.0283 55.092 34.2844C55.092 34.1725 55.0558 34.1527 54.9538 34.1527C53.8807 34.156 52.811 34.156 51.7379 34.1527C51.6359 34.1527 51.6161 34.1823 51.6161 34.2778C51.6161 36.6016 51.6161 38.9255 51.6161 41.2493C51.6161 41.2691 51.6227 41.2855 51.626 41.3053C51.6589 41.3316 51.6984 41.325 51.7346 41.325C52.811 41.325 53.8906 41.325 54.9669 41.325C55.0031 41.325 55.0426 41.3316 55.0756 41.3053L55.069 41.2921Z"
                fill="black"></path>
            <path
                d="M102.017 41.3316C102.017 41.7694 102.01 42.2105 102.02 42.6482C102.023 42.7964 101.984 42.8326 101.835 42.8326C99.7881 42.826 97.7408 42.8293 95.6967 42.8293C95.6605 42.8293 95.621 42.8293 95.5848 42.8326C95.5354 42.7799 95.5585 42.7141 95.5585 42.6515C95.5585 39.3731 95.5585 36.0947 95.5585 32.8196C95.5585 32.7571 95.542 32.6946 95.5782 32.6353C97.6684 32.6353 99.7585 32.6353 101.849 32.632C101.99 32.632 102.026 32.6649 102.023 32.8065C102.013 33.1949 102.013 33.5833 102.023 33.9717C102.026 34.1132 101.99 34.1461 101.849 34.1461C100.387 34.1396 98.9224 34.1461 97.461 34.1395C97.3063 34.1395 97.2668 34.1725 97.2668 34.3305C97.2767 35.1336 97.2701 35.9367 97.2701 36.7399C97.2701 36.8288 97.2503 36.9045 97.3952 36.9012C98.6065 36.8946 99.8177 36.8946 101.029 36.8946C101.085 36.9802 101.052 37.0756 101.052 37.1678C101.055 37.5167 101.046 37.8689 101.059 38.2178C101.062 38.3692 101.026 38.4186 100.864 38.4186C99.7355 38.412 98.6097 38.4153 97.4807 38.4186C97.4149 38.4186 97.3425 38.3988 97.28 38.4383C97.2635 39.3929 97.2635 40.3441 97.28 41.2987C97.3458 41.3349 97.4149 41.3184 97.484 41.3184C98.929 41.3184 100.371 41.3184 101.816 41.3184C101.885 41.3184 101.954 41.2987 102.02 41.3382L102.017 41.3316Z"
                fill="black"></path>
            <path
                d="M101.796 27.2898C99.7124 27.2898 97.6289 27.2898 95.5453 27.2931C95.3741 27.2931 95.3445 27.247 95.3445 27.089C95.3511 23.8304 95.3478 20.5684 95.3445 17.3098C95.3445 17.1485 95.3741 17.0926 95.5519 17.0926C97.5597 17.0991 99.5676 17.0958 101.575 17.0958C101.645 17.0958 101.743 17.0958 101.812 17.0926C101.812 17.0926 101.799 18.1524 101.812 18.4388C101.812 18.5046 101.812 18.6198 101.812 18.6198C101.75 18.6198 101.707 18.6198 101.631 18.6198C100.183 18.6133 98.7315 18.6166 97.2832 18.6198C97.2141 18.6198 97.145 18.6001 97.0792 18.6396C97.0495 18.6791 97.0594 18.7252 97.0594 18.768C97.0594 19.5843 97.0594 20.4006 97.0594 21.2202C97.0594 21.263 97.0463 21.309 97.0825 21.3453H97.0857C97.1483 21.3913 97.2207 21.3716 97.2865 21.3716C98.4057 21.3716 99.5248 21.3716 100.644 21.3716C100.71 21.3716 100.782 21.3485 100.845 21.3946V22.8495C100.782 22.8956 100.713 22.8725 100.644 22.8725C99.5248 22.8725 98.4057 22.8725 97.2865 22.8725C97.2207 22.8725 97.1483 22.8495 97.0857 22.8923H97.0825C97.0528 22.9285 97.0594 22.9647 97.0594 23.0042C97.0594 23.8995 97.0594 24.7915 97.0594 25.6868C97.0594 25.7164 97.0594 25.7494 97.0792 25.7757C97.1285 25.779 97.1779 25.7889 97.2273 25.7889C98.748 25.7889 100.272 25.7889 101.793 25.7889C101.816 26.2925 101.816 26.7928 101.793 27.2964L101.796 27.2898Z"
                fill="black"></path>
            <path
                d="M68.2615 27.2898H61.8233C61.787 27.224 61.8035 27.1549 61.8035 27.0857C61.8035 23.8205 61.8035 20.5553 61.8035 17.2901C61.8035 17.2242 61.7772 17.1518 61.8298 17.0926C63.9726 17.0926 66.1155 17.0926 68.255 17.0926C68.3109 17.1781 68.278 17.2736 68.278 17.3658C68.2813 17.718 68.2714 18.0669 68.2846 18.4191C68.2912 18.5738 68.2451 18.6198 68.0904 18.6166C66.6553 18.61 65.2201 18.6133 63.7817 18.6133C63.7389 18.6133 63.6929 18.6166 63.6501 18.6133C63.5579 18.6034 63.5316 18.6495 63.5316 18.735C63.5316 19.5876 63.5316 20.4401 63.5316 21.2893C63.5316 21.309 63.5414 21.3255 63.5513 21.342C63.6172 21.3782 63.6863 21.3617 63.7554 21.3617C64.8647 21.3617 65.9739 21.3617 67.0832 21.3617C67.228 21.3617 67.3004 21.4308 67.3004 21.5691C67.3004 21.9312 67.3004 22.2965 67.3004 22.6586C67.3004 22.7968 67.228 22.866 67.0832 22.866C65.9739 22.866 64.8647 22.866 63.7554 22.866C63.6896 22.866 63.6172 22.8462 63.5513 22.8857C63.5217 22.9252 63.5316 22.9713 63.5316 23.0141C63.5316 23.8929 63.5316 24.7685 63.5316 25.6473C63.5316 25.6901 63.5217 25.7362 63.5513 25.7757C63.7521 25.7757 63.9529 25.7856 64.1537 25.7856C65.523 25.7856 66.8923 25.7856 68.2583 25.7856C68.3043 26.0752 68.2747 26.3682 68.2747 26.6578C68.2747 26.8685 68.301 27.0792 68.2583 27.2898H68.2615Z"
                fill="black"></path>
            <path
                d="M142.065 41.1407C142.17 40.8741 142.2 40.5877 142.259 40.3112C142.45 39.4554 142.638 38.5963 142.822 37.7372C142.967 37.0625 143.089 36.3811 143.243 35.7063C143.47 34.7254 143.681 33.7413 143.882 32.7538C143.895 32.6814 143.925 32.632 144.014 32.632C144.567 32.632 145.116 32.632 145.679 32.632C145.501 33.3957 145.327 34.1461 145.146 34.8933C144.797 36.3548 144.448 37.8129 144.099 39.2711C143.829 40.3935 143.563 41.5159 143.299 42.6417C143.266 42.7799 143.21 42.8293 143.062 42.8293C142.253 42.8227 141.443 42.826 140.633 42.826C140.284 42.826 140.294 42.826 140.228 42.4902C140.12 41.9438 140.001 41.4007 139.883 40.8576C139.748 40.2355 139.609 39.6101 139.471 38.988C139.346 38.4285 139.214 37.8722 139.089 37.3159C138.925 36.5852 138.77 35.8512 138.606 35.1204C138.48 34.5576 138.352 33.998 138.224 33.4384C138.171 33.2047 138.115 32.9743 138.059 32.7406C138.039 32.6583 138.072 32.6287 138.151 32.632C138.658 32.632 139.168 32.632 139.675 32.632C139.754 32.632 139.761 32.6748 139.774 32.7341C139.922 33.4286 140.074 34.1231 140.222 34.8209C140.403 35.6734 140.58 36.5259 140.761 37.3752C140.995 38.4745 141.232 39.5739 141.469 40.67C141.502 40.828 141.548 40.9794 141.591 41.1341C141.752 41.167 141.91 41.167 142.072 41.1341L142.065 41.1407Z"
                fill="black"></path>
            <path
                d="M72.8664 17.0926C75.1574 17.0926 77.4483 17.0991 79.7425 17.0926C79.9367 17.0926 79.9927 17.1386 79.9861 17.3328C79.9696 17.7509 79.9795 18.1722 79.9795 18.5935C79.9137 18.6297 79.8446 18.6133 79.7754 18.6133C79.0085 18.6133 78.2449 18.6133 77.4779 18.6133C77.4121 18.6133 77.3397 18.5935 77.2738 18.633C77.2738 18.7021 77.264 18.7713 77.264 18.8371C77.264 21.5855 77.264 24.3373 77.264 27.0857C77.264 27.2404 77.2409 27.2964 77.0665 27.2931C76.5662 27.2799 76.0626 27.2898 75.5622 27.2898C75.5326 27.2174 75.5491 27.1417 75.5491 27.066C75.5491 24.3274 75.5491 21.5921 75.5491 18.8535C75.5491 18.7811 75.5688 18.7021 75.5293 18.633C75.4635 18.5968 75.3944 18.6133 75.3252 18.6133C74.555 18.6133 73.7815 18.61 73.0113 18.6133C72.8697 18.6133 72.8302 18.5771 72.8335 18.4355C72.8434 18.0405 72.8335 17.6455 72.8368 17.2506C72.8368 17.1979 72.8138 17.1353 72.8632 17.0893L72.8664 17.0926Z"
                fill="black"></path>
            <path
                d="M83.6792 17.0926H90.7824C90.8318 17.1452 90.8087 17.2111 90.8087 17.2703C90.8087 17.6455 90.8087 18.0208 90.8087 18.396C90.8087 18.5387 90.7396 18.6111 90.6014 18.6133C89.8312 18.6133 89.0609 18.6133 88.2907 18.6133C88.2249 18.6133 88.1525 18.5935 88.0899 18.633C88.0899 18.7021 88.08 18.7713 88.08 18.8371C88.08 21.5855 88.08 24.3373 88.08 27.0857C88.08 27.2404 88.057 27.2964 87.8825 27.2931C87.3822 27.2799 86.8786 27.2898 86.3783 27.2898C86.3487 27.2174 86.3651 27.1417 86.3651 27.066C86.3651 24.3274 86.3651 21.5921 86.3651 18.8535C86.3651 18.7811 86.3849 18.7021 86.3454 18.633C86.2796 18.5968 86.2104 18.6133 86.1413 18.6133C85.3711 18.6133 84.5976 18.61 83.8273 18.6133C83.6858 18.6133 83.6463 18.5771 83.6496 18.4355C83.6595 18.0405 83.6496 17.6455 83.6529 17.2506C83.6529 17.1979 83.6299 17.1353 83.6792 17.0893V17.0926Z"
                fill="black"></path>
            <path
                d="M126.051 34.1395C125.202 34.1395 124.356 34.1428 123.51 34.1363C123.366 34.1363 123.339 34.1725 123.339 34.3107C123.343 37.0822 123.339 39.857 123.346 42.6285C123.346 42.7931 123.31 42.8359 123.142 42.8326C122.645 42.8194 122.151 42.8326 121.654 42.8326C121.601 42.7667 121.628 42.6877 121.628 42.6153C121.628 39.8669 121.628 37.1184 121.628 34.37C121.628 34.2975 121.647 34.2185 121.608 34.1494C120.778 34.1494 119.952 34.1396 119.123 34.1428C118.968 34.1428 118.922 34.1099 118.929 33.9519C118.942 33.5701 118.938 33.1883 118.929 32.8032C118.925 32.6649 118.958 32.6287 119.1 32.6287C121.417 32.6353 123.734 32.632 126.048 32.632C126.091 32.9348 126.061 33.241 126.065 33.5438C126.065 33.7413 126.091 33.9421 126.048 34.1363L126.051 34.1395Z"
                fill="black"></path>
            <path
                d="M79.9334 42.8326C78.6168 42.8326 77.3002 42.8293 75.9836 42.8293C75.3516 42.8293 74.7163 42.826 74.0843 42.8293C73.9527 42.8293 73.9165 42.7964 73.9165 42.6614C73.9197 39.3731 73.9197 36.0816 73.9165 32.79C73.9165 32.6551 73.9527 32.6254 74.0843 32.6254C74.5912 32.632 75.1014 32.6287 75.6083 32.6287C75.6478 32.7011 75.6281 32.7768 75.6281 32.8493C75.6281 35.5944 75.6281 38.3396 75.6281 41.0847C75.6281 41.2296 75.7027 41.302 75.8519 41.302C77.1553 41.302 78.4621 41.302 79.7656 41.2987C79.9235 41.2987 79.9663 41.3415 79.9631 41.4962C79.9532 41.8846 79.9631 42.273 79.9598 42.6614C79.9598 42.7174 79.9795 42.7733 79.9367 42.8227L79.9334 42.8326Z"
                fill="black"></path>
            <path
                d="M84.7589 32.6353C85.3151 32.6353 85.8681 32.6353 86.4244 32.6353C86.454 32.7077 86.4376 32.7834 86.4376 32.8591C86.4376 35.5977 86.4376 38.333 86.4376 41.0716C86.4376 41.144 86.4178 41.223 86.4573 41.2921C86.5231 41.3283 86.5923 41.3119 86.6614 41.3119C87.9681 41.3119 89.2716 41.3152 90.5783 41.3119C90.733 41.3119 90.7791 41.3514 90.7758 41.5094C90.766 41.8978 90.7758 42.2862 90.7725 42.6746C90.7725 42.7305 90.7923 42.7865 90.7495 42.8359H84.772C84.7292 42.7799 84.749 42.7141 84.749 42.6548C84.749 39.3764 84.749 36.1013 84.749 32.8229C84.749 32.7604 84.7358 32.6978 84.7621 32.6386L84.7589 32.6353Z"
                fill="black"></path>
            <path
                d="M132.789 42.8326C132.276 42.8326 131.759 42.826 131.246 42.8326C131.127 42.8326 131.101 42.7996 131.101 42.6877C131.101 39.383 131.104 36.075 131.101 32.7703C131.101 32.6419 131.15 32.6353 131.252 32.6353C131.766 32.6386 132.282 32.6353 132.796 32.6353C132.832 32.7011 132.816 32.7703 132.816 32.8394C132.816 36.1046 132.816 39.3698 132.816 42.6351C132.816 42.7009 132.842 42.7733 132.789 42.8326Z"
                fill="black"></path>
            <path
                d="M56.5666 22.8495C56.3658 22.6454 56.1749 22.4282 55.9709 22.2241C55.8787 22.1352 55.8919 22.0826 55.9774 21.997C56.1815 21.7929 56.3691 21.579 56.5699 21.3716C56.6325 21.309 56.6522 21.2432 56.6522 21.1576C56.6522 20.3183 56.6522 19.4789 56.6522 18.6396C56.6522 18.554 56.6325 18.4882 56.5699 18.4223C56.1914 18.0241 55.8162 17.6225 55.4442 17.2143C55.3619 17.1222 55.2763 17.0926 55.1513 17.0926C53.4067 17.0926 51.6622 17.0926 49.9177 17.0926C49.865 17.1518 49.8913 17.2242 49.8913 17.2901C49.8913 20.5553 49.8913 23.8205 49.8913 27.0857C49.8913 27.1516 49.8716 27.224 49.9111 27.2898C51.6622 27.2898 53.4133 27.2898 55.1611 27.2931C55.2796 27.2931 55.3586 27.2536 55.4343 27.1713C55.8129 26.7632 56.1914 26.3583 56.5732 25.9534C56.6325 25.8909 56.6456 25.8317 56.6456 25.7527C56.6456 24.8574 56.6456 23.9588 56.6456 23.0634C56.6456 22.9746 56.6193 22.912 56.56 22.8495H56.5666ZM54.7958 25.7889C54.2889 25.779 53.7787 25.7856 53.2718 25.7856C52.7649 25.7856 52.2678 25.7823 51.7675 25.7856C51.6425 25.7856 51.5964 25.7658 51.5997 25.6276C51.6062 24.7619 51.6062 23.8995 51.5997 23.0338C51.5997 22.912 51.6161 22.8627 51.7577 22.8627C52.7682 22.8692 53.7754 22.8692 54.7859 22.8627C54.934 22.8627 54.9603 22.9087 54.9571 23.0437C54.9505 23.9028 54.9505 24.7586 54.9571 25.6177C54.9571 25.7461 54.9307 25.7889 54.7958 25.7856V25.7889ZM54.9604 21.2169C54.9604 21.3354 54.9241 21.365 54.8122 21.365C53.7886 21.3617 52.7649 21.3617 51.7412 21.365C51.6359 21.365 51.603 21.342 51.603 21.2301C51.6062 20.4006 51.6062 19.5744 51.603 18.7449C51.603 18.6297 51.6326 18.5968 51.7478 18.5968C52.2547 18.6034 52.7649 18.5968 53.2718 18.5968C53.782 18.5968 54.2889 18.6001 54.7958 18.5968C54.9143 18.5968 54.9571 18.6198 54.9571 18.7515C54.9505 19.5744 54.9505 20.394 54.9571 21.2169H54.9604Z"
                fill="black"></path>
            <path
                d="M35.5006 29.8144C29.747 24.0773 23.9999 18.3335 18.2496 12.5897C18.1311 12.4712 18.0137 12.4701 17.8974 12.5864C12.1602 18.3203 6.41969 24.0542 0.679207 29.7881C0.652874 29.8144 0.626542 29.8441 0.600209 29.8671C0.527795 29.9296 0.527795 29.979 0.600209 30.0481C0.764787 30.2028 0.916199 30.3707 1.07419 30.532C6.67972 36.1342 12.2885 41.7365 17.8941 47.3354C17.9303 47.3716 17.9632 47.4078 18.0027 47.4408C18.0257 47.4605 18.0521 47.477 18.0817 47.5C18.1311 47.4539 18.1771 47.4111 18.2199 47.3683C23.9769 41.6147 29.7338 35.8643 35.4973 30.114C35.6126 29.9988 35.629 29.9428 35.5039 29.8144H35.5006ZM34.816 30.1238C29.2796 35.6471 23.7498 41.1736 18.2199 46.7001C18.1771 46.7429 18.1508 46.8022 18.1146 46.8581C18.0554 46.8088 18.0356 46.7956 18.0192 46.7759C17.9862 46.7462 17.9566 46.7133 17.927 46.6837C12.3972 41.1637 6.87063 35.6405 1.33752 30.1206C1.21244 29.9955 1.19927 29.9395 1.33423 29.8079C6.86734 24.2879 12.3939 18.768 17.9171 13.2414C18.0554 13.1032 18.1146 13.1164 18.243 13.2447C23.7629 18.7647 29.2862 24.2846 34.8127 29.798C34.9444 29.9264 34.9542 29.9889 34.8127 30.1238H34.816Z"
                fill="black"></path>
            <path
                d="M111.947 23.1029C111.901 23.0207 111.908 22.9943 111.98 22.9351C112.54 22.4874 113.096 22.0332 113.652 21.5822C113.754 21.5 113.807 21.4111 113.807 21.2663C113.797 20.4137 113.8 19.5612 113.807 18.7087C113.807 18.5803 113.774 18.4816 113.688 18.3927C113.313 17.9912 112.938 17.5896 112.563 17.1847C112.503 17.1222 112.441 17.0926 112.352 17.0926C110.631 17.0926 108.912 17.0926 107.191 17.0926C107.069 17.0926 107.03 17.1189 107.033 17.2473C107.036 20.5454 107.036 23.8468 107.033 27.145C107.033 27.2602 107.062 27.2931 107.178 27.2898C107.691 27.2832 108.221 27.2898 108.735 27.2898C108.735 27.2898 108.738 27.1516 108.741 27.0857C108.741 25.9534 108.741 24.8211 108.741 23.6888C108.741 23.5473 108.748 23.3103 108.748 23.2478C108.81 23.2478 109.044 23.2412 109.189 23.2478C109.531 23.2544 110.219 23.2642 110.219 23.2642C110.552 23.8929 110.881 24.5216 111.213 25.1503C111.536 25.7625 111.848 26.3813 112.178 26.9903C112.237 27.0989 112.26 27.2832 112.415 27.2865C113.04 27.2997 113.662 27.2931 114.284 27.2931C114.291 27.2701 114.297 27.2602 114.294 27.2569C113.514 25.8744 112.734 24.4887 111.95 23.1062L111.947 23.1029ZM110.4 21.7205C109.893 21.7205 109.383 21.7205 108.876 21.7205C108.764 21.7205 108.728 21.6975 108.728 21.5757C108.735 20.6343 108.735 19.6962 108.728 18.7548C108.728 18.633 108.758 18.5968 108.883 18.5968C109.906 18.6034 110.927 18.6001 111.95 18.5968C112.069 18.5968 112.099 18.633 112.099 18.7449C112.095 19.6929 112.095 20.6376 112.099 21.5855C112.099 21.6942 112.069 21.7205 111.964 21.7205C111.444 21.7139 110.923 21.7205 110.4 21.7205Z"
                fill="black"></path>
            <path
                d="M68.6927 41.2592C68.6927 38.9057 68.6927 36.5523 68.6927 34.1988C68.6927 34.1428 68.6993 34.0869 68.6829 34.0309C68.2846 33.6063 67.8863 33.1883 67.4946 32.7604C67.4123 32.6715 67.3267 32.6353 67.205 32.6353C65.9081 32.6386 64.6112 32.6353 63.3143 32.6353C63.1794 32.6353 63.0839 32.6616 62.972 32.7768C62.5737 33.185 62.2018 33.6162 61.8068 34.0276C61.7969 34.0638 61.8002 34.1033 61.8002 34.1395C61.8002 36.5292 61.8002 38.9189 61.8002 41.3086C61.8002 41.3514 61.7969 41.3974 61.8101 41.4402C61.8924 41.5225 61.9845 41.6015 62.0602 41.6904C62.3565 42.0426 62.6659 42.3783 62.9918 42.7009C63.0905 42.7996 63.1893 42.826 63.3209 42.826C64.6079 42.826 65.8916 42.8194 67.1786 42.826C67.3432 42.826 67.4387 42.7602 67.5407 42.6482C67.9159 42.2401 68.2978 41.8385 68.6763 41.4337C68.7092 41.3744 68.6927 41.3119 68.6927 41.2493V41.2592ZM66.81 41.325C65.7665 41.3184 64.7264 41.3184 63.683 41.325C63.5382 41.325 63.5085 41.2855 63.5085 41.1473C63.5151 40.0051 63.5118 38.8629 63.5118 37.7241C63.5118 36.5852 63.5118 35.4397 63.5085 34.3008C63.5085 34.1692 63.5414 34.1363 63.6731 34.1363C64.7231 34.1428 65.7698 34.1428 66.8198 34.1363C66.9515 34.1363 66.9844 34.1692 66.9844 34.3008C66.9811 36.5852 66.9811 38.8662 66.9844 41.1506C66.9844 41.2888 66.9548 41.3283 66.81 41.3283V41.325Z"
                fill="black"></path>
            <path
                d="M19.5036 29.9823C19.5036 29.0113 19.5036 28.037 19.5036 27.066C19.5036 26.9113 19.5399 26.7994 19.6551 26.6875C19.9612 26.3846 20.2574 26.0654 20.5504 25.7494C20.6063 25.6868 20.6623 25.6671 20.7446 25.6671C21.8867 25.6671 23.0289 25.6671 24.1711 25.6671C24.26 25.6671 24.3225 25.6868 24.385 25.7559C24.6944 26.0917 25.0104 26.4241 25.3264 26.7533C25.3955 26.8257 25.4318 26.8948 25.4285 26.9969C25.4252 27.5926 25.4219 28.1884 25.4285 28.7842C25.4285 28.9093 25.4087 28.9553 25.2705 28.9521C24.8821 28.9422 24.4937 28.9422 24.102 28.9521C23.9802 28.9521 23.944 28.9257 23.9473 28.8006C23.9538 28.2411 23.9473 27.6848 23.9538 27.1252C23.9538 26.987 23.9341 26.931 23.7728 26.931C22.894 26.9409 22.0151 26.9376 21.1363 26.931C20.998 26.931 20.9783 26.9771 20.9783 27.0989C20.9816 29.0047 20.9816 30.9105 20.9783 32.8196C20.9783 32.9513 20.998 33.0007 21.1461 32.9974C22.0184 32.9875 22.8907 32.9908 23.7629 32.9974C23.9045 32.9974 23.9571 32.9678 23.9538 32.8131C23.944 32.2436 23.9538 31.6709 23.9473 31.1014C23.9473 30.9764 23.9835 30.9434 24.1053 30.9467C24.5002 30.9533 24.8952 30.9533 25.2902 30.9467C25.3955 30.9467 25.4285 30.9731 25.4285 31.0817C25.4219 31.7104 25.4252 32.3358 25.4285 32.9645C25.4285 33.0468 25.3988 33.106 25.3462 33.162C25.0203 33.501 24.6944 33.84 24.3752 34.1856C24.3093 34.258 24.2369 34.2778 24.1447 34.2778C23.0223 34.2778 21.8966 34.2778 20.7742 34.2778C20.6689 34.2778 20.5997 34.2449 20.5306 34.1692C20.2212 33.84 19.9151 33.5109 19.5991 33.185C19.5267 33.1093 19.5036 33.0369 19.5036 32.9348C19.5036 31.9507 19.5036 30.9665 19.5036 29.9823Z"
                fill="black"></path>
            <path
                d="M16.2582 30.2851C16.1495 30.2061 16.0705 30.0843 15.9685 29.9922C15.8994 29.9296 15.906 29.8901 15.9685 29.8276C16.1331 29.663 16.2878 29.4886 16.4524 29.3273C16.5314 29.2516 16.561 29.1693 16.561 29.0607C16.5577 28.3694 16.5577 27.6815 16.561 26.9903C16.561 26.8784 16.5248 26.8027 16.4491 26.727C16.1397 26.4077 15.8303 26.0884 15.5274 25.7625C15.4484 25.6769 15.3662 25.6473 15.2477 25.6473C13.8027 25.6506 12.361 25.6506 10.916 25.6473C10.7678 25.6473 10.7316 25.6868 10.7316 25.8317C10.7382 27.2042 10.7349 28.5801 10.7349 29.9527C10.7349 31.3253 10.7349 32.711 10.7349 34.0935C10.7349 34.2218 10.7481 34.2745 10.9028 34.2745C12.3511 34.2745 13.8027 34.2745 15.251 34.2844C15.3694 34.2844 15.4484 34.2482 15.5274 34.1626C15.8204 33.8466 16.1166 33.5306 16.4227 33.2245C16.5248 33.1225 16.561 33.0171 16.5577 32.8789C16.5511 32.2634 16.5412 31.6478 16.561 31.0356C16.5709 30.7262 16.5215 30.476 16.2582 30.2851ZM15.0864 32.8558C15.0864 32.9612 15.0567 32.9941 14.9481 32.9941C14.0693 32.9908 13.1937 32.9908 12.3149 32.9941C12.2227 32.9941 12.1997 32.9678 12.1997 32.8789C12.203 32.135 12.203 31.3878 12.1997 30.6439C12.1997 30.5287 12.2523 30.5287 12.3346 30.5287C12.7724 30.5287 13.2135 30.5287 13.6513 30.5287C14.089 30.5287 14.5169 30.5287 14.9481 30.5287C15.0502 30.5287 15.0864 30.5485 15.0864 30.6604C15.0798 31.3944 15.0831 32.1251 15.0864 32.8591V32.8558ZM14.935 29.2549C14.5005 29.2483 14.0693 29.2549 13.6348 29.2549C13.2003 29.2549 12.7691 29.2549 12.3346 29.2549C12.2326 29.2549 12.1964 29.2351 12.1964 29.1232C12.203 28.432 12.1997 27.744 12.1964 27.0528C12.1964 26.9508 12.226 26.9277 12.3215 26.9277C13.1937 26.9277 14.066 26.931 14.9383 26.9277C15.0633 26.9277 15.0798 26.9738 15.0798 27.0824C15.0765 27.7605 15.0732 28.4353 15.0798 29.1133C15.0798 29.2384 15.037 29.2549 14.9284 29.2549H14.935Z"
                fill="black"></path>
        </svg>