<svg width="165" height="60"
            viewBox="0 0 165 60" fill="none" xmlns="http://www.w3.org/2000/svg">
            <path fill-rule="evenodd" clip-rule="evenodd"
                d="M30.6023 30C30.6023 38.2843 23.7981 45 15.4047 45C7.01127 45 0.207031 38.2843 0.207031 30C0.207031 21.7157 7.01127 15 15.4047 15C23.7981 15 30.6023 21.7157 30.6023 30ZM20.4445 37.3334L15.2377 19.3334L10.031 37.3334H20.4445Z"
                fill="black"></path>
            <path
                d="M15.239 40.6667C17.4527 40.6667 19.2472 39.3236 19.2472 37.6667C19.2472 36.0098 17.4527 34.6667 15.239 34.6667C13.0254 34.6667 11.2309 36.0098 11.2309 37.6667C11.2309 39.3236 13.0254 40.6667 15.239 40.6667Z"
                fill="black"></path>
            <path
                d="M15.2394 39.6668C15.9773 39.6668 16.5754 39.0698 16.5754 38.3334C16.5754 37.597 15.9773 37.0001 15.2394 37.0001C14.5015 37.0001 13.9033 37.597 13.9033 38.3334C13.9033 39.0698 14.5015 39.6668 15.2394 39.6668Z"
                fill="black"></path>
            <path
                d="M51.1951 38.2144L50.9979 36.2215C50.8226 36.5168 50.5889 36.8046 50.2967 37.0851C50.0191 37.3509 49.6831 37.5944 49.2887 37.8158C48.8943 38.0373 48.4414 38.2144 47.9301 38.3473C47.4188 38.4801 46.8564 38.5465 46.2428 38.5465C45.2348 38.5465 44.2633 38.3621 43.3284 37.993C42.4081 37.6239 41.5973 37.0925 40.8961 36.3987C40.1948 35.6901 39.6324 34.8339 39.2088 33.8302C38.7997 32.8116 38.5952 31.6527 38.5952 30.3537C38.5952 29.0694 38.8143 27.9179 39.2526 26.8994C39.6909 25.8808 40.2679 25.0246 40.9837 24.3308C41.7141 23.637 42.5468 23.1056 43.4818 22.7366C44.4313 22.3675 45.4101 22.183 46.4181 22.183C47.353 22.183 48.2076 22.3158 48.982 22.5815C49.7561 22.8325 50.4355 23.1794 51.0198 23.6223C51.6187 24.0504 52.1155 24.5523 52.5099 25.128C52.9189 25.7037 53.2257 26.3163 53.4302 26.9658L50.9541 27.9179C50.8226 27.4751 50.6254 27.0544 50.3625 26.6558C50.114 26.2573 49.8 25.9103 49.4202 25.6151C49.0403 25.3199 48.5948 25.0837 48.0835 24.9066C47.5868 24.7294 47.0317 24.6409 46.4181 24.6409C45.7899 24.6409 45.1691 24.7589 44.5555 24.9951C43.942 25.2165 43.3868 25.5635 42.8902 26.0358C42.4081 26.5082 42.0136 27.1061 41.7068 27.8294C41.4146 28.538 41.2686 29.3794 41.2686 30.3537C41.2686 31.3132 41.4073 32.1546 41.685 32.878C41.9771 33.5865 42.3569 34.1844 42.8244 34.6715C43.3065 35.1439 43.8543 35.5056 44.4679 35.7565C45.0814 35.9927 45.7242 36.1108 46.3962 36.1108C47.185 36.1108 47.8497 35.9927 48.3903 35.7565C48.9454 35.5056 49.3983 35.203 49.7489 34.8487C50.0995 34.4944 50.3625 34.118 50.5377 33.7194C50.713 33.3061 50.8152 32.9296 50.8445 32.5901H45.7169V30.2651H53.3207V38.2144H51.1951ZM61.4375 29.9773C61.1454 29.933 60.8678 29.9108 60.6046 29.9108C59.6115 29.9108 58.881 30.1839 58.4135 30.7301C57.9606 31.2763 57.7342 32.0587 57.7342 33.0773V38.2144H55.1923V27.4309H57.6685V29.158C57.9168 28.5675 58.3186 28.1099 58.8737 27.7851C59.4288 27.4603 60.057 27.298 60.7582 27.298C60.919 27.298 61.0575 27.3053 61.1743 27.3201C61.2912 27.3349 61.3791 27.3496 61.4375 27.3644V29.9773ZM67.0462 36.2437C67.4407 36.2437 67.8134 36.1699 68.1639 36.0222C68.5289 35.8746 68.8505 35.6606 69.1281 35.3801C69.4058 35.0849 69.6244 34.7232 69.7852 34.2951C69.946 33.8671 70.0267 33.3725 70.0267 32.8116C70.0267 32.2507 69.946 31.7635 69.7852 31.3501C69.6244 30.922 69.4058 30.5677 69.1281 30.2873C68.8505 29.9921 68.5289 29.778 68.1639 29.6451C67.8134 29.4975 67.4407 29.4237 67.0462 29.4237C66.6517 29.4237 66.2717 29.4975 65.9067 29.6451C65.5562 29.778 65.2419 29.9921 64.9642 30.2873C64.7017 30.5677 64.4824 30.922 64.3072 31.3501C64.1464 31.7635 64.0663 32.2507 64.0663 32.8116C64.0663 33.3725 64.1464 33.8671 64.3072 34.2951C64.4824 34.7232 64.7017 35.0849 64.9642 35.3801C65.2419 35.6606 65.5562 35.8746 65.9067 36.0222C66.2717 36.1699 66.6517 36.2437 67.0462 36.2437ZM67.0462 27.0987C67.8496 27.0987 68.5873 27.2463 69.2594 27.5415C69.9315 27.8221 70.5157 28.2206 71.0125 28.7372C71.5088 29.2392 71.896 29.8371 72.1743 30.5308C72.4513 31.2246 72.5904 31.9849 72.5904 32.8116C72.5904 33.6382 72.4513 34.4058 72.1743 35.1144C71.896 35.8082 71.5088 36.4135 71.0125 36.9301C70.5157 37.432 69.9315 37.8306 69.2594 38.1258C68.5873 38.4063 67.8496 38.5465 67.0462 38.5465C66.2572 38.5465 65.5195 38.4063 64.8329 38.1258C64.1608 37.8306 63.5767 37.432 63.0798 36.9301C62.598 36.4135 62.218 35.8082 61.9404 35.1144C61.6627 34.4058 61.5242 33.6382 61.5242 32.8116C61.5242 31.9849 61.6627 31.2246 61.9404 30.5308C62.218 29.8371 62.598 29.2392 63.0798 28.7372C63.5767 28.2206 64.1608 27.8221 64.8329 27.5415C65.5195 27.2463 66.2572 27.0987 67.0462 27.0987ZM82.372 27.4309L84.8918 34.893L87.0177 27.4309H89.6031L86.1848 38.2144H83.6427L80.9917 30.4644L78.4056 38.2144H75.798L72.3357 27.4309H75.053L77.2222 34.893L79.7426 27.4309H82.372ZM94.0302 27.4309H96.2434V29.7115H94.0302V34.7159C94.0302 35.1882 94.1398 35.5351 94.359 35.7565C94.5782 35.9632 94.9215 36.0666 95.3889 36.0666C95.5641 36.0666 95.7394 36.0592 95.9146 36.0444C96.0899 36.0149 96.2073 35.9927 96.2657 35.978V38.1037C96.1928 38.1332 96.0321 38.1775 95.7833 38.2366C95.5352 38.3103 95.1775 38.3473 94.7095 38.3473C93.7164 38.3473 92.9347 38.0668 92.365 37.5059C91.7953 36.9449 91.5104 36.1551 91.5104 35.1365V29.7115H89.5381V27.4309H90.0861C90.6558 27.4309 91.072 27.2685 91.3352 26.9437C91.5977 26.6189 91.7296 26.2204 91.7296 25.748V24.1315H94.0302V27.4309ZM100.002 38.2144H97.46V22.183H100.002V28.4715C100.368 27.9992 100.828 27.6596 101.382 27.453C101.938 27.2316 102.493 27.1208 103.048 27.1208C103.705 27.1208 104.275 27.2316 104.757 27.453C105.254 27.6744 105.663 27.9844 105.984 28.383C106.306 28.7667 106.547 29.217 106.707 29.7337C106.868 30.2503 106.948 30.8039 106.948 31.3944V38.2144H104.406V31.8373C104.406 31.173 104.239 30.6121 103.903 30.1544C103.582 29.682 103.019 29.4458 102.215 29.4458C101.514 29.4458 100.974 29.682 100.593 30.1544C100.229 30.6121 100.032 31.1878 100.002 31.8815V38.2144ZM118.087 32.0144H116.158V38.2144H113.507V22.5151H119.467C120.212 22.5151 120.884 22.6406 121.483 22.8915C122.096 23.1278 122.608 23.4673 123.017 23.9101C123.44 24.3382 123.762 24.8401 123.981 25.4158C124.215 25.9916 124.331 26.6116 124.331 27.2758C124.331 28.3978 124.017 29.3572 123.389 30.1544C122.776 30.9516 121.921 31.483 120.826 31.7487L124.331 38.2144H121.351L118.087 32.0144ZM118.985 29.6673C119.803 29.6673 120.453 29.4532 120.935 29.0251C121.417 28.5823 121.658 27.9992 121.658 27.2758C121.658 26.5378 121.417 25.9546 120.935 25.5266C120.453 25.0837 119.803 24.8622 118.985 24.8622H116.158V29.6673H118.985ZM130.148 36.2437C130.543 36.2437 130.916 36.1699 131.266 36.0222C131.632 35.8746 131.952 35.6606 132.23 35.3801C132.508 35.0849 132.727 34.7232 132.887 34.2951C133.048 33.8671 133.129 33.3725 133.129 32.8116C133.129 32.2507 133.048 31.7635 132.887 31.3501C132.727 30.922 132.508 30.5677 132.23 30.2873C131.952 29.9921 131.632 29.778 131.266 29.6451C130.916 29.4975 130.543 29.4237 130.148 29.4237C129.754 29.4237 129.375 29.4975 129.009 29.6451C128.658 29.778 128.345 29.9921 128.066 30.2873C127.804 30.5677 127.585 30.922 127.409 31.3501C127.249 31.7635 127.169 32.2507 127.169 32.8116C127.169 33.3725 127.249 33.8671 127.409 34.2951C127.585 34.7232 127.804 35.0849 128.066 35.3801C128.345 35.6606 128.658 35.8746 129.009 36.0222C129.375 36.1699 129.754 36.2437 130.148 36.2437ZM130.148 27.0987C130.952 27.0987 131.69 27.2463 132.362 27.5415C133.034 27.8221 133.618 28.2206 134.115 28.7372C134.612 29.2392 134.998 29.8371 135.276 30.5308C135.554 31.2246 135.693 31.9849 135.693 32.8116C135.693 33.6382 135.554 34.4058 135.276 35.1144C134.998 35.8082 134.612 36.4135 134.115 36.9301C133.618 37.432 133.034 37.8306 132.362 38.1258C131.69 38.4063 130.952 38.5465 130.148 38.5465C129.359 38.5465 128.622 38.4063 127.935 38.1258C127.263 37.8306 126.679 37.432 126.182 36.9301C125.7 36.4135 125.321 35.8082 125.043 35.1144C124.765 34.4058 124.626 33.6382 124.626 32.8116C124.626 31.9849 124.765 31.2246 125.043 30.5308C125.321 29.8371 125.7 29.2392 126.182 28.7372C126.679 28.2206 127.263 27.8221 127.935 27.5415C128.622 27.2463 129.359 27.0987 130.148 27.0987ZM141.743 36.2437C142.137 36.2437 142.509 36.1699 142.86 36.0222C143.225 35.8746 143.547 35.6606 143.824 35.3801C144.102 35.0849 144.321 34.7232 144.482 34.2951C144.643 33.8671 144.723 33.3725 144.723 32.8116C144.723 32.2507 144.643 31.7635 144.482 31.3501C144.321 30.922 144.102 30.5677 143.824 30.2873C143.547 29.9921 143.225 29.778 142.86 29.6451C142.509 29.4975 142.137 29.4237 141.743 29.4237C141.348 29.4237 140.968 29.4975 140.603 29.6451C140.252 29.778 139.938 29.9921 139.661 30.2873C139.398 30.5677 139.178 30.922 139.003 31.3501C138.843 31.7635 138.762 32.2507 138.762 32.8116C138.762 33.3725 138.843 33.8671 139.003 34.2951C139.178 34.7232 139.398 35.0849 139.661 35.3801C139.938 35.6606 140.252 35.8746 140.603 36.0222C140.968 36.1699 141.348 36.2437 141.743 36.2437ZM141.743 27.0987C142.546 27.0987 143.284 27.2463 143.956 27.5415C144.628 27.8221 145.212 28.2206 145.709 28.7372C146.205 29.2392 146.593 29.8371 146.87 30.5308C147.148 31.2246 147.286 31.9849 147.286 32.8116C147.286 33.6382 147.148 34.4058 146.87 35.1144C146.593 35.8082 146.205 36.4135 145.709 36.9301C145.212 37.432 144.628 37.8306 143.956 38.1258C143.284 38.4063 142.546 38.5465 141.743 38.5465C140.954 38.5465 140.216 38.4063 139.53 38.1258C138.858 37.8306 138.273 37.432 137.776 36.9301C137.294 36.4135 136.915 35.8082 136.637 35.1144C136.36 34.4058 136.22 33.6382 136.22 32.8116C136.22 31.9849 136.36 31.2246 136.637 30.5308C136.915 29.8371 137.294 29.2392 137.776 28.7372C138.273 28.2206 138.858 27.8221 139.53 27.5415C140.216 27.2463 140.954 27.0987 141.743 27.0987ZM148.647 38.2144V27.4309H151.079V28.8037C151.386 28.2575 151.839 27.8442 152.438 27.5637C153.038 27.2685 153.636 27.1208 154.235 27.1208C154.936 27.1208 155.571 27.2832 156.141 27.608C156.711 27.9179 157.142 28.3903 157.434 29.0251C157.858 28.3166 158.362 27.8221 158.946 27.5415C159.546 27.261 160.195 27.1208 160.896 27.1208C161.379 27.1208 161.847 27.2021 162.299 27.3644C162.752 27.5268 163.154 27.7777 163.504 28.1173C163.855 28.4421 164.132 28.8627 164.337 29.3794C164.556 29.8961 164.665 30.5087 164.665 31.2173V38.2144H162.211V31.638C162.211 31.0032 162.044 30.4792 161.707 30.0658C161.387 29.6378 160.868 29.4237 160.151 29.4237C159.48 29.4237 158.939 29.6599 158.53 30.1323C158.136 30.5899 157.938 31.1508 157.938 31.8151V38.2144H155.44V31.638C155.44 31.018 155.28 30.4939 154.958 30.0658C154.637 29.6378 154.111 29.4237 153.38 29.4237C152.694 29.4237 152.153 29.6525 151.759 30.1101C151.364 30.553 151.167 31.1213 151.167 31.8151V38.2144H148.647Z"
                fill="black"></path>
        </svg>