<svg width="114" height="60"
            viewBox="0 0 114 60" fill="none" xmlns="http://www.w3.org/2000/svg">
            <path fill-rule="evenodd" clip-rule="evenodd"
                d="M35.7694 30C35.7694 39.665 27.926 47.5 18.2507 47.5C8.57533 47.5 0.731934 39.665 0.731934 30C0.731934 20.335 8.57533 12.5 18.2507 12.5C27.926 12.5 35.7694 20.335 35.7694 30ZM8.76133 34.6417C8.87363 34.6417 8.94849 34.5481 8.96721 34.4545C8.96721 34.4545 8.96721 34.4358 9.00464 34.4732C9.11694 33.1818 10.2025 32.1524 11.5314 32.1524C12.8603 32.1524 13.9458 33.1818 14.0581 34.4732C14.0581 34.5855 14.1517 34.6791 14.264 34.6791H21.8629C21.9752 34.6791 22.0688 34.5855 22.0688 34.4732C22.1811 33.1818 23.2667 32.1524 24.5956 32.1524C25.9244 32.1524 27.01 33.1818 27.1223 34.4732C27.1223 34.5855 27.2159 34.6791 27.3282 34.6791H28.8068C29.0501 34.6791 29.2373 34.4732 29.2373 34.2486V32.9759C29.2373 32.7326 29.0501 32.5454 28.8255 32.5454H27.9833C27.8522 32.5454 27.7212 32.4893 27.6464 32.377C27.5936 32.3243 27.5528 32.2715 27.5171 32.2255C27.4895 32.1898 27.465 32.1582 27.4405 32.1337C26.7292 31.3476 25.7185 30.8609 24.5956 30.8609H8.33085C8.21855 30.8609 8.12496 30.9545 8.12496 31.0668V33.7994C8.01266 33.7994 7.91908 33.893 7.91908 34.0053V34.4358C7.91908 34.5481 8.01266 34.6417 8.12496 34.6417H8.76133ZM28.6009 31.6845C28.7132 31.6845 28.8068 31.5909 28.8068 31.4786V28.9519C28.8068 28.5214 28.7132 28.0909 28.5448 27.6978C27.6276 25.5642 26.6731 24.2353 25.6437 23.6738C23.9779 22.7567 22.2373 22.4011 17.764 22.4011C15.256 22.4011 12.5795 22.6069 9.75331 23C8.81748 23.131 8.12496 23.9171 8.12496 24.8716V29.7754C8.12496 29.8877 8.21855 29.9813 8.33085 29.9813H24.5956C25.8308 29.9813 26.9538 30.4679 27.7774 31.254C27.8642 31.3234 27.9671 31.4412 28.0861 31.5774C28.0954 31.5881 28.1048 31.5988 28.1143 31.6096C28.1517 31.6658 28.2079 31.6845 28.264 31.6845H28.6009ZM9.17309 24.9278C9.17309 24.8155 9.26667 24.7219 9.37897 24.7219V24.7406H12.5421C12.6544 24.7406 12.748 24.8342 12.748 24.9465V28.0909C12.748 28.2032 12.6544 28.2968 12.5421 28.2968H9.37897C9.26667 28.2968 9.17309 28.2032 9.17309 28.0909V24.9278ZM18.0448 24.9278C18.0448 24.8155 18.1383 24.7219 18.2506 24.7219V24.7406H21.4137C21.526 24.7406 21.6196 24.8342 21.6196 24.9465V28.0909C21.6196 28.2032 21.526 28.2968 21.4137 28.2968H18.2506C18.1383 28.2968 18.0448 28.2032 18.0448 28.0909V24.9278ZM13.6089 24.9278C13.6089 24.8155 13.7025 24.7219 13.8148 24.7219V24.7406H16.9779C17.0902 24.7406 17.1838 24.8342 17.1838 24.9465V28.0909C17.1838 28.2032 17.0902 28.2968 16.9779 28.2968H13.8148C13.7025 28.2968 13.6089 28.2032 13.6089 28.0909V24.9278ZM22.4806 24.9278C22.4806 24.8155 22.5742 24.7219 22.6865 24.7219V24.7032H24.4833C25.4752 24.7032 26.3549 25.246 26.8041 26.1069C26.8228 26.1444 26.8462 26.1818 26.8696 26.2192C26.893 26.2567 26.9164 26.2941 26.9351 26.3315C27.2346 26.8369 27.5153 27.3984 27.7399 27.9973C27.7961 28.1096 27.7399 28.2406 27.6276 28.2781C27.6089 28.2968 27.5715 28.2968 27.5528 28.2968H22.6865C22.5742 28.2968 22.4806 28.2032 22.4806 28.0909V24.9278ZM9.80946 34.6417C9.80946 35.5775 10.5581 36.3262 11.4939 36.3262C12.4298 36.3262 13.1784 35.5775 13.1784 34.6417C13.1784 33.7059 12.4298 32.9572 11.4939 32.9572C10.5581 32.9572 9.80946 33.7059 9.80946 34.6417ZM12.3362 34.6417C12.3362 35.1096 11.9619 35.4839 11.4939 35.4839C11.026 35.4839 10.6517 35.1096 10.6517 34.6417C10.6517 34.1738 11.026 33.7994 11.4939 33.7994C11.9619 33.7994 12.3362 34.1738 12.3362 34.6417ZM22.9111 34.6417C22.9111 35.5775 23.6597 36.3262 24.5956 36.3262C25.5127 36.3262 26.28 35.5775 26.28 34.6417C26.28 33.7059 25.5314 32.9572 24.5956 32.9572C23.6597 32.9572 22.9111 33.7059 22.9111 34.6417ZM25.4378 34.6417C25.4378 35.1096 25.0635 35.4839 24.5956 35.4839C24.1276 35.4839 23.7533 35.1096 23.7533 34.6417C23.7533 34.1738 24.1276 33.7994 24.5956 33.7994C25.0635 33.7994 25.4378 34.1738 25.4378 34.6417Z"
                fill="black"></path>
            <path
                d="M46.756 29.3449H51.3416C50.9485 28.4652 50.0688 27.8663 49.0394 27.8663C48.0287 27.8663 47.149 28.484 46.756 29.3449ZM53.6811 31.2727C53.625 31.3663 53.5314 31.4225 53.4191 31.4225H46.7373C47.1303 32.3021 48.01 32.9011 49.0394 32.9011C49.5261 32.9011 49.994 32.7701 50.3683 32.5267C50.4619 32.4706 50.5555 32.3957 50.6865 32.2834C50.7988 32.1898 50.9298 32.1524 51.0608 32.1898L52.8015 32.5455C52.9699 32.5829 53.0635 32.7326 53.0261 32.9011C53.0261 32.9385 53.0073 32.9759 52.9886 32.9947C52.9699 33.0134 52.9512 33.0508 52.9325 33.0695C52.502 33.7059 51.9218 34.2299 51.248 34.5856C50.5742 34.9412 49.8255 35.1471 49.0207 35.1471C46.4004 35.1471 44.2854 33.0321 44.2854 30.4118C44.2854 27.7914 46.4004 25.6765 49.0207 25.6765C51.641 25.6765 53.756 27.7914 53.756 30.4118C53.756 30.7112 53.7186 31.0107 53.6811 31.2914V31.2727ZM41.0474 34.5107V22.1952C41.0474 22.0455 41.141 21.9332 41.2908 21.8957L42.9004 21.5588C43.0688 21.5214 43.2373 21.6337 43.256 21.8021C43.256 21.8209 43.256 21.8396 43.256 21.8583V34.492C43.256 34.6604 43.125 34.7914 42.9565 34.7914H41.3469C41.1972 34.8289 41.0474 34.6979 41.0474 34.5107ZM63.133 34.8289H61.3549C61.2239 34.8289 61.1116 34.754 61.0555 34.623L58.2293 26.3503C58.1731 26.1818 58.2667 26.0134 58.4164 25.9572C58.4539 25.9385 58.4913 25.9385 58.51 25.9385H60.0822C60.2132 25.9385 60.3255 26.0134 60.3817 26.1444L62.1036 31.1604C62.1223 31.2353 62.2159 31.2914 62.2908 31.254C62.3282 31.2353 62.3656 31.1979 62.3843 31.1604L64.1063 26.1444C64.1437 26.0134 64.2747 25.9385 64.4057 25.9385H66.1838C66.3148 25.9385 66.4271 26.0134 66.4833 26.1444L68.2052 31.1604C68.2239 31.2353 68.3175 31.2914 68.3924 31.254C68.4298 31.2353 68.4672 31.1979 68.4859 31.1604L70.2079 26.1444C70.2453 26.0134 70.3763 25.9385 70.5073 25.9385H72.0795C72.248 25.9385 72.379 26.0695 72.379 26.238C72.379 26.2754 72.379 26.3128 72.3603 26.3315L69.5341 34.6043C69.4966 34.7353 69.3656 34.8102 69.2346 34.8102H67.4565C67.3255 34.8102 67.2132 34.7353 67.1571 34.6043L65.4352 29.5882C65.4164 29.5134 65.3228 29.4572 65.248 29.4946C65.2105 29.5134 65.1731 29.5508 65.1544 29.5882L63.4325 34.6043C63.3763 34.7353 63.264 34.8289 63.133 34.8289ZM79.8469 34.3048C79.0795 34.8289 78.1624 35.1283 77.1892 35.1283C74.5688 35.1283 72.4539 33.0134 72.4539 30.393C72.4539 27.7727 74.5688 25.6578 77.1892 25.6578C78.1811 25.6578 79.0983 25.9572 79.8469 26.4813V26.2567C79.8469 26.0882 79.9779 25.9572 80.1464 25.9572H81.7747C81.9432 25.9572 82.0742 26.0882 82.0742 26.2567V34.5481C82.0742 34.7166 81.9432 34.8476 81.7747 34.8476H80.1464C79.9779 34.8476 79.8469 34.7166 79.8469 34.5481V34.3048ZM77.3389 32.9011C78.7239 32.9011 79.8656 31.7781 79.8656 30.393C79.8656 29.008 78.7426 27.885 77.3389 27.885C75.9539 27.885 74.8121 29.008 74.8121 30.393C74.8121 31.7781 75.9539 32.9011 77.3389 32.9011ZM90.5154 26.4626V26.238C90.5154 26.0695 90.6464 25.9385 90.8148 25.9385H92.4432C92.6116 25.9385 92.7426 26.0695 92.7426 26.238V34.5294C92.7052 37.1497 90.5715 39.2647 87.9325 39.2647C87.24 39.2647 86.5849 39.115 86.0047 38.8529C85.8549 38.7781 85.649 38.6658 85.387 38.516C85.2186 38.4037 85.125 38.1979 85.1999 37.992L85.7239 36.4759C85.7801 36.3262 85.9485 36.2326 86.0983 36.2888C86.1357 36.3075 86.1731 36.3262 86.2105 36.3449C86.3977 36.5321 86.5662 36.6444 86.7159 36.7193C87.0715 36.9064 87.502 37.0187 87.9325 37.0187C89.3362 37.0187 90.4779 35.8957 90.5154 34.5107V34.3048C89.748 34.8289 88.8309 35.1283 87.8576 35.1283C85.2373 35.1283 83.1223 33.0134 83.1223 30.393C83.1223 27.7727 85.2373 25.6578 87.8576 25.6578C88.8496 25.639 89.7667 25.9572 90.5154 26.4626ZM88.0073 32.9011C89.3924 32.9011 90.5341 31.7781 90.5341 30.393C90.5341 29.008 89.4111 27.885 88.0073 27.885C86.6036 27.885 85.4806 29.008 85.4806 30.393C85.4806 31.7781 86.6036 32.9011 88.0073 32.9011ZM98.5073 35.1283C95.887 35.1283 93.772 33.0134 93.772 30.393C93.772 27.7727 95.887 25.6578 98.5073 25.6578C101.128 25.6578 103.243 27.7727 103.243 30.393C103.261 32.9947 101.128 35.1283 98.5073 35.1283ZM98.5073 32.9011C99.8924 32.9011 101.034 31.7781 101.034 30.393C101.034 29.008 99.9111 27.885 98.5073 27.885C97.1223 27.885 95.9806 29.008 95.9806 30.393C95.9806 31.7781 97.1223 32.9011 98.5073 32.9011ZM113.031 29.9439V34.5294C113.031 34.6979 112.9 34.8289 112.732 34.8289H110.954C110.785 34.8289 110.654 34.6979 110.654 34.5294V30.0936C110.654 30.0374 110.654 30 110.654 29.9439C110.654 28.8021 109.719 27.8663 108.577 27.8663C107.435 27.8663 106.499 28.8021 106.499 29.9439C106.499 30 106.499 30.0374 106.499 30.0936V34.5294C106.499 34.6979 106.368 34.8289 106.2 34.8289H104.572C104.403 34.8289 104.272 34.6979 104.272 34.5294V26.238C104.272 26.0695 104.403 25.9385 104.572 25.9385H106.2C106.368 25.9385 106.499 26.0695 106.499 26.238V26.2567C107.154 25.8636 107.903 25.639 108.727 25.639C111.104 25.639 113.031 27.5668 113.031 29.9439Z"
                fill="black"></path>
        </svg>