<svg width="160" height="60"
            viewBox="0 0 160 60" fill="none" xmlns="http://www.w3.org/2000/svg">
            <path d="M8.72998 39.5251L18.33 20.4751L28.07 39.5251H23.68L18.47 29.5551L13.34 39.5251H8.72998Z"
                fill="black"></path>
            <path d="M51.1198 30.8249V20.7049H55.4398V39.7449L43.2398 29.1849V39.3049H39.0698V20.2549L51.1198 30.8249Z"
                fill="black"></path>
            <path
                d="M84.7717 25.6018H79.6417C79.5617 25.6018 78.5917 24.9218 78.2317 24.7818C72.1717 22.5118 67.7817 30.3818 72.5817 34.3018C75.5917 36.7618 80.0017 35.6018 81.3617 31.9918H76.5217L76.3017 31.7718V27.9818H85.6017L85.8217 28.3518C86.8417 35.4818 80.5517 41.3218 73.4717 39.3618C65.3117 37.1018 63.9017 26.0618 71.1017 21.6718C75.9317 18.7318 82.3517 20.5218 84.7817 25.6018H84.7717Z"
                fill="black"></path>
            <path
                d="M107.941 20.7V24.49L107.721 24.7199H101.101V27.99H107.941V32.0099H101.101V35.2799H107.941V39.2999H96.9307V20.7H107.941Z"
                fill="black"></path>
            <path d="M123.251 20.7V35.2799H129.951V39.2999H118.941V20.7H123.251Z" fill="black"></path>
            <path d="M145.261 20.7V35.2799H151.961V39.2999H140.951V20.7H145.261Z" fill="black"></path>
        </svg>