<svg width="130" height="28"
            viewBox="0 0 130 28" fill="none" xmlns="http://www.w3.org/2000/svg">
            <path
                d="M119.719 15.2592C119.719 17.5663 119.523 17.6328 118.503 17.7406L117.701 17.8277C117.546 17.9814 117.569 18.3712 117.744 18.4584C118.719 18.414 120.045 18.3934 121.001 18.3934H123.476C126.017 18.3934 127.884 18.414 128.837 18.4584C129.142 17.8705 129.619 16.2178 129.75 15.302C129.619 15.0833 129.251 15.0199 129.055 15.1704C128.294 16.9356 127.819 17.5663 125.059 17.5219C123.236 17.5219 122.867 17.3476 122.605 17.045C122.283 16.6742 122.239 15.8898 122.239 14.7791V12.0156C122.239 11.4721 122.259 11.4277 122.758 11.4277H123.801C125.69 11.4277 126.06 11.4721 126.213 12.3848L126.363 13.2563C126.539 13.3862 126.946 13.3862 127.057 13.2357C127.035 12.5385 126.992 11.7748 126.992 10.9508C126.992 10.1427 127.035 9.35833 127.057 8.77046C126.946 8.59774 126.539 8.59774 126.363 8.75144L126.213 9.48984C126.06 10.4279 125.69 10.4485 123.801 10.4485H122.758C122.259 10.4485 122.239 10.4279 122.239 9.86062V6.17972C122.239 4.94061 122.239 4.89624 123.171 4.89624H124.626C125.213 4.89624 125.862 4.94061 126.363 5.09272C127.057 5.26702 127.383 5.81052 127.73 7.07341C127.904 7.20492 128.336 7.16214 128.424 6.98626C128.294 6.05137 128.165 4.33214 128.078 3.96136C127.797 4.00414 126.539 4.02633 125.146 4.02633H121.001C120.045 4.02633 119.026 4.00413 118.199 3.96136C118.025 4.04692 118.003 4.43989 118.155 4.59201L118.503 4.63479C119.523 4.78691 119.719 4.85346 119.719 7.16214V15.2592V15.2592ZM114.904 9.49016C114.904 7.77093 114.904 5.8774 115.209 5.20238C115.361 4.85378 115.729 4.76505 116.139 4.70166L116.643 4.59233C116.815 4.43863 116.771 4.07101 116.598 3.96168C115.818 4.00288 115.252 4.02506 114.318 4.02506C113.471 4.02506 112.667 4.00289 111.823 3.96168C111.605 4.02506 111.582 4.43863 111.778 4.59233L112.278 4.6573C112.821 4.74286 113.167 4.87438 113.362 5.20238C113.754 5.85521 113.776 7.85649 113.776 9.49016V13.7352C113.776 14.0822 113.776 14.1931 113.711 14.2581C113.493 14.1265 111.473 11.8179 110.563 10.818L108.39 8.46813C107.63 7.641 105.264 4.89656 104.896 3.96168C104.373 4.00288 103.854 4.02506 103.398 4.02506C102.854 4.02506 101.661 4.04723 100.836 3.96168C100.619 4.02506 100.597 4.4624 100.747 4.59233L101.073 4.6573C101.38 4.72385 101.986 4.89656 102.227 5.09146C102.963 5.7237 102.941 6.0723 102.941 7.77093V12.9302C102.941 14.6494 102.941 16.5446 102.66 17.218C102.508 17.5666 102.118 17.6537 101.704 17.7171L101.226 17.828C101.052 17.9802 101.095 18.3494 101.269 18.4587C102.027 18.4143 102.617 18.3921 103.529 18.3921C104.354 18.3921 105.202 18.4143 106.004 18.4587C106.22 18.3921 106.242 17.9802 106.046 17.828L105.568 17.7631C105.027 17.6759 104.657 17.5444 104.461 17.218C104.093 16.5652 104.071 14.5623 104.071 12.9302V8.68521C104.071 7.53008 104.071 7.2924 104.136 7.2924C104.504 7.61881 105.202 8.44595 106.611 10.0352L111.691 15.8474C113.254 17.6331 113.885 18.3715 114.231 18.8295C114.493 18.8516 114.797 18.7645 114.969 18.5252C114.904 18.0229 114.904 15.3466 114.904 14.6922V9.49016ZM93.9998 13.0606C94.6067 13.0606 94.6731 13.0606 94.8896 13.6469L95.9105 16.6084C96.1934 17.5449 96.1286 17.6764 95.3447 17.762L94.869 17.8269C94.7379 17.9584 94.76 18.3498 94.9338 18.4592C95.694 18.4386 96.6485 18.3926 97.5825 18.3926C98.7093 18.3926 99.5137 18.4148 100.405 18.4592C100.555 18.3498 100.555 17.9806 100.383 17.8269L100.057 17.762C98.9511 17.5671 98.8405 17.4134 98.3411 15.9556L95.2151 6.83652C94.869 5.85569 94.5862 4.83207 94.2401 3.85282C94.15 3.74349 94.0425 3.67852 93.8687 3.67852C93.826 3.67852 93.1101 4.57062 92.3499 4.72274C92.4147 5.09194 92.2188 5.61325 91.9359 6.31204L88.9616 14.062C88.5081 15.2362 88.1588 16.1521 87.898 16.7162C87.5741 17.434 87.3354 17.632 86.7049 17.7176L86.0537 17.8269C85.902 18.0234 85.9226 18.3498 86.0759 18.4592C86.8345 18.4148 87.5093 18.3926 88.2236 18.3926C89.1149 18.4148 89.8324 18.4148 90.5246 18.4592C90.7 18.372 90.7238 17.9806 90.5689 17.8269L89.9399 17.7176C89.1355 17.6098 89.0486 17.5449 89.4847 16.2598L90.3729 13.6469C90.5689 13.0606 90.5467 13.0606 91.1125 13.0606H93.9999H93.9998ZM91.4602 12.0798C90.9387 12.0798 90.8739 12.0798 91.1125 11.4507L92.026 8.90119C92.4147 7.87915 92.5886 7.33565 92.6739 7.18195H92.7197C92.8256 7.33565 92.96 7.74764 93.3266 8.90119L94.2401 11.5157C94.4139 12.037 94.3238 12.0798 93.7169 12.0798H91.4602ZM80.0243 15.2592C80.0243 17.5663 79.8299 17.6328 78.8074 17.7184L77.8987 17.8277C77.7423 17.9371 77.766 18.3712 77.9414 18.4584C79.3274 18.414 80.3483 18.3934 81.306 18.3934C82.2605 18.3934 83.2372 18.414 84.4968 18.4584C84.6706 18.3712 84.6927 17.9814 84.5394 17.8277L83.7587 17.7406C82.7394 17.6328 82.5434 17.5663 82.5434 15.2592V5.8549C82.5434 4.94062 82.5655 4.89625 83.1282 4.89625H84.3656C86.6903 4.89625 87.1028 5.3114 87.3841 7.00845C87.5801 7.16215 87.9499 7.11778 88.0589 6.94348C87.9925 6.24628 88.1664 4.37493 88.3845 3.48125C88.3386 3.41628 88.2312 3.3735 88.1016 3.3735C88.0162 3.3735 87.9246 3.41628 87.8392 3.45906C87.5801 3.96136 87.2545 4.02633 86.1909 4.02633H77.3314C75.8569 4.02633 75.5503 4.00414 75.4444 3.45906C75.4002 3.39568 75.3148 3.3735 75.2247 3.3735C75.1173 3.3735 75.0303 3.39567 74.9861 3.45906C74.8344 4.22123 74.5088 5.57126 74.139 6.747C74.2259 6.96408 74.6811 7.03063 74.8344 6.89911C75.6404 5.1371 76.2251 4.89625 78.2227 4.89625H79.4364C80.0022 4.89625 80.0243 4.94062 80.0243 5.8549V15.2592ZM71.1554 7.16199C71.1554 4.8533 71.3514 4.78675 72.3707 4.65682L72.8496 4.59185C73.0029 4.43974 72.9792 4.04836 72.8053 3.96121C71.8508 4.00399 70.8726 4.02617 69.9164 4.02617C68.9176 4.02617 67.9441 4.004 66.988 3.96121C66.811 4.04836 66.792 4.43974 66.9422 4.59185L67.4226 4.65682C68.4419 4.78675 68.6363 4.8533 68.6363 7.16199V15.259C68.6363 17.5661 68.4419 17.6327 67.4226 17.7626L66.9422 17.8276C66.792 17.9813 66.811 18.3711 66.988 18.4582C67.9441 18.4154 68.9635 18.3932 69.9164 18.3932C70.8726 18.3932 71.8508 18.4154 72.8053 18.4582C72.9792 18.3711 73.0029 17.9813 72.8496 17.8276L72.3707 17.7626C71.3514 17.6327 71.1554 17.5661 71.1554 15.259V7.16199ZM64.9975 4.28667C64.8 4.24389 64.6498 4.2217 64.3891 4.15516C63.3697 3.89529 61.8716 3.67979 60.6325 3.67979C58.4406 3.67979 56.2454 4.30885 54.6398 5.52737C53.0326 6.76807 51.9042 8.75034 51.9042 11.2967C51.9042 14.1489 53.2269 16.1311 54.9875 17.2815C56.5505 18.3051 58.3963 18.7425 60.5441 18.7425C61.9569 18.7425 63.4551 18.3717 63.9324 18.218C64.171 18.153 64.4318 18.0675 64.6925 18.0231C64.9975 17.6095 65.5823 16.1723 65.7356 14.7146C65.6265 14.5181 65.2773 14.4325 65.0829 14.6274C64.476 16.044 63.2797 17.871 60.5441 17.871C57.7452 17.871 54.8579 15.6051 54.8579 10.9703C54.8579 6.50662 57.6377 4.54812 60.3923 4.54812C63.2607 4.54812 64.2358 6.3545 64.6072 7.72672C64.7573 7.88042 65.1477 7.85665 65.2978 7.68394C65.0829 6.07245 65.0402 4.78739 64.9975 4.28667ZM49.935 4.28667C49.7406 4.24389 49.5873 4.2217 49.3266 4.15516C48.3072 3.89529 46.8091 3.67979 45.5716 3.67979C43.3797 3.67979 41.1861 4.30885 39.5804 5.52737C37.9716 6.76807 36.8432 8.75034 36.8432 11.2967C36.8432 14.1489 38.1676 16.1311 39.9265 17.2815C41.4895 18.3051 43.3354 18.7425 45.4863 18.7425C46.896 18.7425 48.3942 18.3717 48.8714 18.218C49.1117 18.153 49.3708 18.0675 49.6332 18.0231C49.935 17.6095 50.5198 16.1723 50.6731 14.7146C50.564 14.5181 50.2179 14.4325 50.0204 14.6274C49.4151 16.044 48.2203 17.871 45.4863 17.871C42.6827 17.871 39.797 15.6051 39.797 10.9703C39.797 6.50662 42.5752 4.54812 45.333 4.54812C48.1982 4.54812 49.1764 6.3545 49.5447 7.72672C49.6948 7.88042 50.0867 7.85665 50.24 7.68394C50.0204 6.07245 49.9809 4.78739 49.935 4.28667ZM25.609 18.8292C30.848 18.8292 35.0265 14.8282 35.0265 9.33297C35.0265 4.54448 31.8799 0 25.609 0C20.0193 0 15.9482 4.1626 15.9482 9.60393C15.9482 14.5018 19.5862 18.8292 25.609 18.8292ZM25.9615 17.9846C20.6182 17.9846 18.6633 12.7603 18.6633 8.7356C18.6633 2.77612 22.3282 0.844561 25.1491 0.844561C30.3328 0.844561 32.313 5.68535 32.313 10.176C32.313 15.5365 29.2186 17.9846 25.9615 17.9846ZM11.5605 3.15467C10.5838 3.15467 10.3231 3.80909 10.3231 4.17829C10.3231 4.65682 10.6692 4.91827 10.9963 4.96106C11.5162 5.02761 12.1689 5.37621 12.1689 6.09242C12.1689 7.05107 11.3424 7.68489 10.4084 8.07469C10.3436 8.25057 10.3879 8.51044 10.5633 8.64195C12.0599 8.27117 13.536 7.05107 13.536 5.3968C13.536 4.20206 12.6241 3.15467 11.5605 3.15467ZM4.75559 7.16199C4.75559 4.89609 4.95156 4.83112 5.97089 4.679L6.44975 4.59185C6.622 4.48252 6.60146 4.04836 6.40708 3.96121C5.45253 4.00399 4.4727 4.02617 3.51974 4.02617C2.51937 4.02617 1.54112 4.004 0.456986 3.96121C0.2626 4.04836 0.2626 4.48252 0.414316 4.59185L1.02118 4.679C2.04209 4.83112 2.23806 4.89609 2.23806 7.16199V15.259C2.23806 17.5217 2.04209 17.5867 1.02118 17.7182L0.368484 17.8276C0.172517 17.9369 0.242054 18.3711 0.414316 18.4582C1.32619 18.4154 2.41032 18.3932 3.51974 18.3932H5.77809C8.20712 18.3932 10.0751 18.4154 10.987 18.4582C11.2462 17.8703 11.7266 16.2177 11.8989 15.3018C11.7914 15.1275 11.4437 15.0625 11.2272 15.1703C10.2252 17.414 9.87915 17.5217 7.46908 17.5217C5.73384 17.5217 5.38458 17.349 5.12539 17.0448C4.80142 16.674 4.75559 15.8897 4.75559 14.8027V7.16199ZM102.127 26.7278C102.127 27.5502 102.055 27.5724 101.692 27.6104L101.406 27.6405C101.354 27.696 101.359 27.837 101.422 27.8671C101.768 27.8512 102.24 27.8417 102.58 27.8417H103.462C104.366 27.8417 105.031 27.8512 105.371 27.8671C105.479 27.6579 105.649 27.0685 105.695 26.7421C105.649 26.666 105.516 26.6438 105.449 26.6961C105.18 27.3236 105.006 27.5502 104.026 27.5327C103.378 27.5327 103.245 27.471 103.154 27.3632C103.037 27.2301 103.019 26.9512 103.019 26.5567V25.5727C103.019 25.3794 103.029 25.3651 103.208 25.3651H103.577C104.249 25.3651 104.379 25.3794 104.436 25.7058L104.491 26.0148C104.551 26.0623 104.698 26.0623 104.736 26.0068C104.728 25.7581 104.712 25.4871 104.712 25.1924C104.712 24.9056 104.728 24.6283 104.736 24.4175C104.698 24.3557 104.551 24.3557 104.491 24.4096L104.436 24.6742C104.379 25.007 104.249 25.0149 103.577 25.0149H103.208C103.029 25.0149 103.019 25.007 103.019 24.8058V23.4953C103.019 23.0532 103.019 23.039 103.355 23.039H103.871C104.08 23.039 104.312 23.0533 104.491 23.1103C104.736 23.1721 104.853 23.3654 104.976 23.8154C105.038 23.8598 105.194 23.8439 105.223 23.7821C105.18 23.4494 105.131 22.8377 105.101 22.7062C105.001 22.7221 104.551 22.73 104.056 22.73H102.58C102.24 22.73 101.878 22.7221 101.583 22.7062C101.521 22.7363 101.513 22.8758 101.567 22.9312L101.692 22.9471C102.055 23.001 102.127 23.0247 102.127 23.8439V26.7278V26.7278ZM97.9863 22.8236C97.9152 22.8078 97.8599 22.7999 97.7682 22.7761C97.4079 22.6826 96.8706 22.605 96.4312 22.605C95.6521 22.605 94.8714 22.8284 94.2962 23.2641C93.7272 23.7062 93.3258 24.4098 93.3258 25.3161C93.3258 26.3318 93.7968 27.0369 94.4226 27.4473C94.9789 27.8118 95.6347 27.9671 96.3996 27.9671C96.9022 27.9671 97.4348 27.8356 97.607 27.7833C97.6924 27.7563 97.784 27.7262 97.8757 27.7104C97.9863 27.5646 98.1949 27.0528 98.2487 26.5346C98.2092 26.4633 98.0859 26.4332 98.0163 26.503C97.7982 27.0068 97.3747 27.6581 96.3996 27.6581C95.4024 27.6581 94.3768 26.8516 94.3768 25.202C94.3768 23.6127 95.3661 22.9155 96.3459 22.9155C97.3668 22.9155 97.7129 23.5573 97.8472 24.0469C97.8994 24.0992 98.0385 24.0929 98.0922 24.0311C98.0163 23.459 98.0005 23.0011 97.9863 22.8236V22.8236ZM89.3003 24.6749C89.3003 24.0617 89.3003 23.3866 89.4093 23.149C89.4646 23.0254 89.5942 22.9921 89.7444 22.9699L89.9182 22.9319C89.9814 22.8748 89.9656 22.7449 89.904 22.7069C89.6243 22.7211 89.4236 22.7306 89.0948 22.7306C88.7914 22.7306 88.5069 22.7211 88.2035 22.7069C88.1245 22.7306 88.1182 22.8748 88.1893 22.9319L88.3679 22.954C88.5591 22.9857 88.684 23.0317 88.7519 23.1489C88.8926 23.3803 88.8989 24.0933 88.8989 24.6749V26.1849C88.8989 26.3101 88.8989 26.3466 88.8752 26.3719C88.8009 26.3244 88.0818 25.5036 87.7578 25.1471L86.9835 24.3088C86.7116 24.0157 85.8709 23.038 85.7381 22.7069C85.5517 22.7211 85.3683 22.7306 85.2055 22.7306C85.0112 22.7306 84.5876 22.7354 84.2937 22.7069C84.2162 22.7306 84.2115 22.8843 84.2621 22.9319L84.3806 22.954C84.4865 22.9778 84.7046 23.038 84.7883 23.1093C85.0507 23.3327 85.0428 23.4579 85.0428 24.0616V25.8981C85.0428 26.5113 85.0428 27.1832 84.9432 27.4256C84.8895 27.5492 84.7504 27.5809 84.6034 27.5999L84.4343 27.6411C84.3711 27.695 84.3869 27.8281 84.4486 27.8677C84.7172 27.8519 84.929 27.8423 85.253 27.8423C85.5453 27.8423 85.8472 27.8518 86.1348 27.8677C86.2091 27.8424 86.2186 27.695 86.149 27.6411L85.9799 27.6173C85.7856 27.5872 85.6528 27.5397 85.5849 27.4256C85.4537 27.1911 85.4458 26.4781 85.4458 25.8981V24.3864C85.4458 23.9776 85.4458 23.8921 85.4663 23.8921C85.6006 24.0093 85.8472 24.3025 86.3482 24.8682L88.1561 26.936C88.714 27.5714 88.94 27.836 89.0601 27.9992C89.1549 28.0056 89.2639 27.9739 89.3256 27.8883C89.3003 27.7108 89.3003 26.7585 89.3003 26.5256V24.6748L89.3003 24.6749ZM77.7265 26.7278C77.7265 27.5502 77.6585 27.5724 77.295 27.6104L77.009 27.6405C76.9552 27.696 76.9616 27.837 77.0232 27.8671C77.3725 27.8513 77.8418 27.8417 78.1832 27.8417H79.065C79.969 27.8417 80.6328 27.8512 80.9726 27.8671C81.0816 27.6579 81.2507 27.0685 81.2981 26.7421C81.2507 26.666 81.1195 26.6438 81.05 26.6961C80.7782 27.3236 80.6106 27.5502 79.6277 27.5328C78.9797 27.5328 78.8454 27.471 78.7569 27.3632C78.6384 27.2301 78.6241 26.9512 78.6241 26.5567V25.5727C78.6241 25.3794 78.6304 25.3651 78.8106 25.3651H79.1804C79.8537 25.3651 79.9848 25.3794 80.037 25.7058L80.0923 26.0148C80.1555 26.0623 80.3009 26.0623 80.3388 26.0068C80.3309 25.7581 80.3151 25.4871 80.3151 25.1924C80.3151 24.9056 80.3309 24.6283 80.3388 24.4175C80.3009 24.3557 80.1555 24.3558 80.0923 24.4096L80.037 24.6742C79.9848 25.007 79.8537 25.0149 79.1804 25.0149H78.8106C78.6304 25.0149 78.6241 25.007 78.6241 24.8058V23.4953C78.6241 23.0533 78.6241 23.039 78.9576 23.039H79.4744C79.683 23.039 79.9137 23.0533 80.0923 23.1103C80.3388 23.1721 80.4542 23.3654 80.579 23.8154C80.6407 23.8598 80.7955 23.8439 80.8256 23.7822C80.7782 23.4494 80.7339 22.8378 80.7023 22.7062C80.6012 22.7221 80.1555 22.73 79.6577 22.73H78.1832C77.8418 22.73 77.4799 22.7221 77.186 22.7062C77.1228 22.7363 77.118 22.8758 77.1702 22.9312L77.295 22.9471C77.6585 23.001 77.7265 23.0247 77.7265 23.8439V26.7278L77.7265 26.7278ZM72.8466 24.9609C73.1927 24.1781 73.4155 23.6584 73.6352 23.2876C73.7648 23.0626 73.9339 23.0071 74.1125 22.9707L74.3084 22.9311C74.3448 22.8693 74.3511 22.7441 74.2895 22.7061C74.0745 22.7219 73.8201 22.7298 73.5404 22.7298C73.2938 22.7298 73.0315 22.7219 72.7138 22.7061C72.6522 22.7441 72.6459 22.8693 72.698 22.9311L72.924 22.985C73.1547 23.0388 73.1769 23.1006 73.0552 23.4112C72.6459 24.4649 72.1797 25.5345 71.764 26.5106C71.6866 26.3315 71.478 25.8752 71.3373 25.5266L70.781 24.1464C70.4634 23.3557 70.4049 23.1862 70.4049 23.1149C70.4049 23.0531 70.4634 23.0166 70.6341 22.9786L70.8284 22.9311C70.8996 22.8756 70.8885 22.752 70.8205 22.7061C70.4112 22.7219 70.1489 22.7298 69.7996 22.7298C69.4978 22.7298 69.1675 22.7219 68.864 22.7061C68.7882 22.7298 68.7882 22.8693 68.8435 22.9232L69.0284 22.9612C69.3382 23.0246 69.4061 23.1323 69.6226 23.6505L70.9754 26.9146C71.1145 27.2379 71.2393 27.6182 71.331 27.9271C71.3689 27.9509 71.4211 27.9668 71.478 27.9668C71.5301 27.9668 71.5934 27.9509 71.6076 27.9271C71.7403 27.5326 72.1038 26.6262 72.4136 25.9227L72.8466 24.9609ZM63.2533 22.6055C61.6334 22.6055 60.486 23.7749 60.486 25.3562C60.486 26.7348 61.4896 27.9676 63.2391 27.9676C64.7989 27.9676 65.9604 26.8283 65.9604 25.3024C65.9604 23.8921 65.0407 22.6055 63.2533 22.6055ZM63.1553 22.916C64.3832 22.916 64.9095 24.2708 64.9095 25.4418C64.9095 26.9994 64.1952 27.657 63.3165 27.657C61.9953 27.657 61.5386 26.2008 61.5386 25.1296C61.5386 23.4801 62.3809 22.916 63.1553 22.916ZM53.4515 26.7278C53.4515 27.5502 53.382 27.5724 53.0185 27.6167L52.8494 27.6405C52.7783 27.696 52.802 27.837 52.8652 27.8671C53.2208 27.8512 53.5669 27.8418 53.9082 27.8418C54.248 27.8418 54.5957 27.8513 54.9355 27.8671C54.9971 27.837 55.005 27.696 54.9513 27.6405L54.7806 27.6167C54.4187 27.5724 54.3492 27.5502 54.3492 26.7278V25.7359C54.3492 25.5727 54.3539 25.5632 54.5878 25.5632C54.8422 25.5632 54.9276 25.598 55.0667 25.8294C55.2531 26.132 55.4696 26.5567 55.6767 26.8815C56.1492 27.6009 56.5506 27.9035 57.2934 27.9035C57.5636 27.9035 57.709 27.8814 57.8007 27.8576C57.826 27.8196 57.826 27.7356 57.7881 27.7023C57.6932 27.696 57.4688 27.65 57.2539 27.463C56.892 27.162 56.5032 26.5028 55.8853 25.4586C55.8553 25.4111 55.8379 25.3477 55.8853 25.3255C56.2646 25.1702 56.8114 24.8121 56.8114 24.099C56.8114 23.5429 56.5285 23.1784 56.1318 22.9709C55.7936 22.7839 55.2674 22.7062 54.6653 22.7062C54.0284 22.7062 53.3725 22.73 52.8889 22.776C52.8257 22.814 52.8257 22.9376 52.8826 22.993L53.0801 23.0168C53.4452 23.0533 53.4515 23.1483 53.4515 23.8915V26.7278L53.4515 26.7278ZM54.3492 23.3955C54.3492 23.039 54.3539 23.0168 54.7585 23.0168C55.4301 23.0168 55.8236 23.5492 55.8236 24.1624C55.8236 24.8992 55.4775 25.2716 54.7174 25.2716C54.3492 25.2716 54.3492 25.2542 54.3492 25.007V23.3955ZM46.0655 26.7278C46.0655 27.5502 45.9944 27.5724 45.6309 27.6262L45.5092 27.6405C45.4539 27.696 45.4618 27.837 45.5218 27.8671C45.8316 27.8513 46.1808 27.8418 46.5206 27.8418C46.862 27.8418 47.2081 27.8513 47.6648 27.8671C47.7201 27.837 47.7249 27.696 47.6806 27.6405L47.393 27.6104C47.0311 27.5724 46.9631 27.5502 46.9631 26.7278V23.3401C46.9631 23.039 46.9695 23.0168 47.3551 23.0168C48.0583 23.0168 48.4598 23.5667 48.4598 24.1941C48.4598 24.8295 48.2053 25.3414 47.5005 25.4808C47.4625 25.5267 47.472 25.6266 47.5258 25.6757C47.5858 25.682 47.6474 25.682 47.7201 25.682C48.3302 25.682 49.4491 25.3556 49.4491 24.1783C49.4491 23.6649 49.1931 23.2561 48.7916 23.0168C48.444 22.814 47.9114 22.7063 47.1765 22.7063C46.4748 22.7063 46.0102 22.7142 45.4697 22.776C45.4081 22.8077 45.4081 22.9376 45.4618 22.9931L45.7336 23.0247C46.056 23.0691 46.0655 23.1864 46.0655 23.8915V26.7278L46.0655 26.7278ZM36.6331 24.6749C36.6331 24.0617 36.6331 23.3866 36.7421 23.149C36.7974 23.0254 36.9254 22.9921 37.074 22.9699L37.2526 22.9319C37.3126 22.8748 37.2984 22.7449 37.2352 22.7069C36.9586 22.7211 36.7563 22.7306 36.4244 22.7306C36.1242 22.7306 35.8381 22.7211 35.5363 22.7069C35.4588 22.7306 35.4509 22.8748 35.5189 22.9319L35.6975 22.954C35.8918 22.9857 36.0167 23.0317 36.0847 23.1489C36.2237 23.3803 36.2316 24.0933 36.2316 24.6749V26.1849C36.2316 26.3101 36.2316 26.3466 36.2063 26.3719C36.1305 26.3244 35.4114 25.5036 35.0874 25.1471L34.3162 24.3088C34.0444 24.0157 33.2021 23.038 33.0709 22.7069C32.8876 22.7211 32.7027 22.7306 32.5383 22.7306C32.3439 22.7306 31.9204 22.7354 31.6248 22.7069C31.549 22.7306 31.5427 22.8843 31.5964 22.9319L31.7133 22.954C31.8208 22.9778 32.0357 23.038 32.1211 23.1093C32.3834 23.3327 32.3755 23.4579 32.3755 24.0616V25.8981C32.3755 26.5113 32.3755 27.1832 32.276 27.4256C32.2206 27.5492 32.0832 27.5809 31.9346 27.5999L31.7639 27.6411C31.7039 27.695 31.7181 27.8281 31.7813 27.8677C32.0516 27.8519 32.2602 27.8423 32.5857 27.8423C32.8797 27.8423 33.1799 27.8518 33.466 27.8677C33.5418 27.8424 33.5513 27.695 33.4818 27.6411L33.3111 27.6173C33.1183 27.5872 32.9871 27.5397 32.9176 27.4256C32.7848 27.1911 32.7769 26.4781 32.7769 25.8981V24.3864C32.7769 23.9776 32.7769 23.8921 32.7991 23.8921C32.9318 24.0093 33.1799 24.3025 33.6825 24.8682L35.4904 26.936C36.0467 27.5714 36.2711 27.836 36.3928 27.9992C36.4877 28.0056 36.5967 27.9739 36.6552 27.8883C36.6331 27.7108 36.6331 26.7585 36.6331 26.5256V24.6748L36.6331 24.6749ZM25.0605 26.7278C25.0605 27.5502 24.991 27.5724 24.6275 27.6104L24.3398 27.6405C24.2861 27.696 24.294 27.837 24.3572 27.8671C24.7049 27.8513 25.1759 27.8417 25.5156 27.8417H26.3975C27.303 27.8417 27.9668 27.8512 28.305 27.8671C28.4156 27.6579 28.5847 27.0685 28.6306 26.7421C28.5847 26.666 28.452 26.6438 28.3824 26.6961C28.1122 27.3236 27.9431 27.5502 26.9617 27.5328C26.3122 27.5328 26.1794 27.471 26.0877 27.3632C25.9708 27.2301 25.9581 26.9512 25.9581 26.5567V25.5727C25.9581 25.3794 25.9645 25.3651 26.1431 25.3651H26.5129C27.1861 25.3651 27.3173 25.3794 27.3726 25.7058L27.4247 26.0148C27.4879 26.0623 27.6318 26.0623 27.6713 26.0068C27.6634 25.7581 27.6492 25.4871 27.6492 25.1924C27.6492 24.9056 27.6634 24.6283 27.6713 24.4175C27.6318 24.3557 27.4879 24.3558 27.4247 24.4096L27.3726 24.6742C27.3173 25.007 27.1861 25.0149 26.5129 25.0149H26.1431C25.9645 25.0149 25.9581 25.007 25.9581 24.8058V23.4953C25.9581 23.0533 25.9581 23.039 26.29 23.039H26.8068C27.0138 23.039 27.2477 23.0533 27.4247 23.1103C27.6713 23.1721 27.7882 23.3654 27.9099 23.8154C27.9731 23.8598 28.1296 23.8439 28.158 23.7822C28.1122 23.4494 28.0664 22.8378 28.0348 22.7062C27.9352 22.7221 27.4879 22.73 26.9933 22.73H25.5156C25.1759 22.73 24.8124 22.7221 24.5184 22.7062C24.4568 22.7363 24.4489 22.8758 24.5042 22.9312L24.6275 22.9471C24.9909 23.001 25.0605 23.0247 25.0605 23.8439V26.7278L25.0605 26.7278Z"
                fill="black"></path>
        </svg>