<svg width="186" height="60"
            viewBox="0 0 186 60" fill="none" xmlns="http://www.w3.org/2000/svg">
            <path
                d="M51.9345 21.5144H57.1728C61.435 21.5144 65.2072 22.7006 65.2072 27.1028C65.2072 31.155 62.2711 32.7611 57.0328 32.7611H55.8467V39.0494H52.0044V21.5144H51.9345ZM57.1728 29.6889C60.315 29.6889 61.295 28.9889 61.295 27.3128C61.295 25.3567 59.9689 24.8667 57.0328 24.8667H55.7067V29.6889H57.1728Z"
                fill="black"></path>
            <path
                d="M71.0095 20.5344V28.2189H71.0794C71.9194 27.5189 73.2456 26.8228 74.7117 26.8228C75.9678 26.8228 77.0878 27.2428 77.8539 28.0089C78.5539 28.7789 78.9 29.825 78.9 31.5711V39.1156H75.1978V32.2672C75.1978 31.3572 75.0578 30.9411 74.7778 30.5911C74.4278 30.2411 74.0078 30.1011 73.5217 30.1011C72.5417 30.1011 71.7056 30.5911 71.0056 31.0811V39.1156H67.3033V20.5344H71.0095Z"
                fill="black"></path>
            <path
                d="M87.7783 26.8928C91.5506 26.8928 94.4167 29.6189 94.4167 33.1111C94.4167 36.6033 91.5506 39.3294 87.7783 39.3294C84.0061 39.3294 81.14 36.6033 81.14 33.1111C81.14 29.6189 83.9361 26.8928 87.7783 26.8928ZM87.7783 36.1833C89.4544 36.1833 90.7144 34.8572 90.7144 33.1072C90.7144 31.3572 89.4583 30.0311 87.7783 30.0311C86.0983 30.0311 84.8422 31.3572 84.8422 33.1072C84.7722 34.8533 86.0983 36.1833 87.7783 36.1833Z"
                fill="black"></path>
            <path
                d="M97.6289 34.6472V30.245H95.6728V27.1689H97.6289V24.0267L101.331 23.3967V27.1689H104.473V30.245H101.331V34.2272C101.331 35.4133 101.611 36.2533 102.727 36.2533C103.357 36.2533 103.983 36.0433 104.473 35.7633V38.6994C103.913 39.0494 102.797 39.3294 101.747 39.3294C100.561 39.3294 99.3711 38.9094 98.6711 38.1433C97.9711 37.5133 97.625 36.5372 97.625 34.6511L97.6289 34.6472Z"
                fill="black"></path>
            <path
                d="M112.442 26.8928C116.214 26.8928 119.08 29.6189 119.08 33.1111C119.08 36.6033 116.214 39.3294 112.442 39.3294C108.669 39.3294 105.803 36.6033 105.803 33.1111C105.733 29.6189 108.599 26.8928 112.442 26.8928ZM112.442 36.1833C114.118 36.1833 115.378 34.8572 115.378 33.1072C115.378 31.3572 114.122 30.0311 112.442 30.0311C110.762 30.0311 109.506 31.3572 109.506 33.1072C109.436 34.8533 110.762 36.1833 112.442 36.1833Z"
                fill="black"></path>
            <path
                d="M121.452 21.5144H126.971C130.953 21.5144 134.515 22.6306 134.515 26.8228C134.515 29.0589 133.259 30.945 130.953 31.715L135.915 39.1194H131.513L127.111 32.1311H125.364V39.1194H121.522L121.452 21.5144ZM127.181 29.2689C129.347 29.2689 130.603 28.7089 130.603 27.1028C130.603 25.4967 129.557 24.9367 126.691 24.9367H125.224V29.3389H127.181V29.2689Z"
                fill="black"></path>
            <path
                d="M142.623 26.8928C146.396 26.8928 149.262 29.6189 149.262 33.1111C149.262 36.6033 146.396 39.3294 142.623 39.3294C138.851 39.3294 135.985 36.6033 135.985 33.1111C135.985 29.6189 138.851 26.8928 142.623 26.8928ZM142.623 36.1833C144.299 36.1833 145.559 34.8572 145.559 33.1072C145.559 31.3572 144.303 30.0311 142.623 30.0311C140.943 30.0311 139.687 31.3572 139.687 33.1072C139.687 34.8572 140.943 36.1833 142.623 36.1833Z"
                fill="black"></path>
            <path
                d="M157.506 26.8928C161.278 26.8928 164.144 29.6189 164.144 33.1111C164.144 36.6033 161.278 39.3294 157.506 39.3294C153.734 39.3294 150.868 36.6033 150.868 33.1111C150.868 29.6189 153.664 26.8928 157.506 26.8928ZM157.506 36.1833C159.182 36.1833 160.442 34.8572 160.442 33.1072C160.442 31.3572 159.186 30.0311 157.506 30.0311C155.826 30.0311 154.57 31.3572 154.57 33.1072C154.5 34.8533 155.826 36.1833 157.506 36.1833Z"
                fill="black"></path>
            <path
                d="M181.819 32.2011C181.819 31.2911 181.679 30.875 181.399 30.595C181.049 30.245 180.629 30.105 180.143 30.105C179.303 30.105 178.397 30.525 177.767 31.085V39.1194H174.065V32.2011C174.065 31.4311 173.925 30.945 173.645 30.595C173.295 30.245 172.875 30.105 172.389 30.105C171.549 30.105 170.643 30.595 170.083 31.085V39.1194H166.381V27.1728H170.013V28.2189H170.083C170.993 27.4489 172.249 26.8928 173.645 26.8928C174.901 26.8928 176.441 27.3828 177.137 28.5689C178.393 27.4528 179.863 26.8928 181.329 26.8928C182.656 26.8928 183.706 27.3828 184.406 28.0789C185.176 28.8489 185.522 29.895 185.522 31.5711V39.1156H181.819V32.1972V32.2011Z"
                fill="black"></path>
            <path
                d="M27.0145 34.9583C30.8606 32.9944 33.4895 29.0006 33.4895 24.3767C33.4895 17.8083 28.1811 12.5 21.6128 12.5H4.6339C2.40167 12.5 0.566119 14.2656 0.449452 16.4706C0.344452 17.5944 0.70223 18.765 1.56167 19.6983L9.26167 28.0128H4.6339C2.32779 28.0089 0.441674 29.8989 0.441674 32.2011V43.1717C0.441674 45.4778 2.32779 47.3639 4.6339 47.3639C6.94001 47.3639 8.82612 45.5478 8.82612 43.1717V36.2533H16.8956L26.085 46.1739C26.925 47.0839 28.0411 47.5 29.1611 47.5C30.1411 47.5 31.1872 47.15 31.9572 46.3839C33.6333 44.8478 33.7033 42.1917 32.1672 40.5156L27.0183 34.9544L27.0145 34.9583ZM13.9789 20.8844H21.6128C23.5689 20.8844 25.175 22.4906 25.175 24.4467C25.175 26.4028 23.5689 28.0089 21.6128 28.0089H20.5822L13.9828 20.8806L13.9789 20.8844Z"
                fill="black"></path>
        </svg>