<svg width="110" height="60"
            viewBox="0 0 110 60" fill="none" xmlns="http://www.w3.org/2000/svg">
            <path
                d="M70.2892 15.4802C69.0723 17.3219 69.0387 19.964 69.4842 22.0468C69.9548 24.2603 71.2826 25.9931 73.6408 26.3481C75.925 26.6829 77.9806 25.5779 78.8261 23.4448C79.6362 21.4089 79.7253 18.864 79.0093 16.7912C78.4838 15.1858 77.1462 13.9762 75.4914 13.61C73.5988 13.2082 71.3835 13.8109 70.2892 15.4735M76.2981 27.0412C76.2981 27.274 76.6965 27.5184 76.8477 27.6423C77.1335 27.8834 77.4294 28.1111 77.7285 28.3321C78.3814 28.8127 79.0697 29.2437 79.7876 29.6213C80.3706 29.959 81.0012 30.2078 81.6582 30.3597C82.144 30.4584 82.6465 30.4534 83.1323 30.5421C83.4836 30.6091 83.9206 30.7096 83.8651 31.1566C83.8029 31.6757 82.9441 31.6087 82.5793 31.6087C81.1405 31.6087 79.6682 31.4413 78.337 30.867C76.9587 30.2843 75.7385 29.3367 74.5888 28.3924L73.7484 27.7093C73.4819 27.4719 73.1573 27.3091 72.8071 27.2371C72.1052 27.0634 71.4276 26.8035 70.7901 26.4636C68.4589 25.2062 66.9326 22.899 66.8486 20.252C66.7646 17.6049 68.0017 15.0482 70.2758 13.6368C73.7993 11.4467 78.438 12.5164 80.6367 16.0262C81.3362 17.143 81.728 18.4239 81.7726 19.7396C81.8398 22.4386 80.5842 24.9517 78.1706 26.2827C77.5738 26.603 76.9436 26.8573 76.2914 27.0412"
                fill="black"></path>
            <path
                d="M39.4733 12.9035C42.2097 12.9303 44.9444 12.9035 47.6791 12.9537C48.3195 12.9621 48.9615 13.024 49.6019 13.0006C50.0809 12.9788 50.4591 12.7578 50.9179 12.7126C51.7853 12.6239 51.6373 14.0052 51.6491 14.5426C51.6693 15.1454 52.0038 16.1097 51.6744 16.6505C51.5495 16.8355 51.2978 16.8846 51.1121 16.7603C51.0688 16.7312 51.0312 16.6939 51.002 16.6505C50.8138 16.3743 50.8087 15.9808 50.7818 15.646C50.7079 14.8172 50.4978 14.0604 49.5196 13.98C48.9682 13.9348 48.4152 14.0286 47.8606 14.0286C47.2504 14.0286 46.642 14.0286 46.0369 14.0286C46.0638 17.3605 46.005 20.6889 46.0369 24.0174C46.0369 24.6721 45.9529 25.4188 46.1092 26.0584C46.2067 26.4653 46.7227 26.4502 47.0572 26.4619C47.3917 26.4737 47.8623 26.4234 48.1732 26.6193C48.5918 26.8822 48.2859 27.3677 47.8757 27.3895C47.2723 27.4196 46.6387 27.274 46.0268 27.2505C45.257 27.2204 44.4889 27.2505 43.7174 27.2856C43.2132 27.3091 42.6181 27.4263 42.1206 27.3208C41.9428 27.2953 41.7967 27.1681 41.7475 26.996C41.6634 26.631 41.9021 26.4753 42.2417 26.4435C42.7005 26.4016 43.4182 26.6578 43.7981 26.2761C44.1174 25.9412 44.0855 25.31 44.0821 24.8864C44.072 23.5369 44.0367 22.1858 44.0367 20.8363C44.0367 18.7836 44.1174 16.7209 43.9931 14.6715C43.9796 14.4606 43.9628 14.2479 43.9443 14.0336C43.6922 14.0336 43.4401 14.0336 43.1896 14.0253C42.7224 14.0102 42.2669 14.0102 41.8047 13.9901C41.1978 13.965 39.9406 13.6552 39.6095 14.3568C39.2985 15.0064 39.4246 15.8084 39.1826 16.4848C38.9405 17.1612 38.3068 16.7845 38.2665 16.2219C38.2044 15.4702 38.4044 14.69 38.475 13.9432C38.5287 13.3455 38.6716 12.4062 39.4733 12.9035Z"
                fill="black"></path>
            <path
                d="M56.4983 14.0353C56.4831 14.4237 56.9252 14.8339 57.1201 15.137C57.4445 15.6493 57.7623 16.1566 58.0782 16.6673C58.7203 17.697 59.3623 18.73 60.0464 19.7262C60.9104 18.4454 61.7121 17.1227 62.5289 15.8084C62.8013 15.3664 64.1678 13.8762 62.9744 13.7691C62.7172 13.7507 62.2802 13.8143 62.1206 13.5531C61.6852 12.8231 62.9223 12.8834 63.2972 12.9219C64.0118 12.9791 64.7303 12.9701 65.4435 12.8951C65.7881 12.865 66.5579 12.6724 66.7125 13.1312C67.01 13.9918 65.8855 13.6937 65.4973 13.8394C64.9527 14.0403 64.6569 14.7703 64.3829 15.2324C63.6131 16.5618 62.7391 17.8393 61.9105 19.1335C61.5524 19.7028 61.0851 20.2754 60.8196 20.8966C60.5288 21.5831 60.6364 22.5056 60.6516 23.2406C60.6684 24.0309 60.7104 24.8244 60.7255 25.6164C60.7255 25.9848 60.7524 26.1957 61.1575 26.2861C61.4911 26.3369 61.8296 26.3486 62.1659 26.3213C62.5222 26.3213 63.0164 26.3681 63.0484 26.8236C63.087 27.4196 62.492 27.4782 62.0398 27.438C60.8297 27.3275 59.7137 27.2019 58.4951 27.3125C57.9656 27.3577 56.1251 27.6657 56.3218 26.6428C56.4058 26.199 56.9739 26.1756 57.3303 26.1722C57.5891 26.1722 57.8479 26.1722 58.1118 26.184C58.2934 26.184 58.3488 26.2342 58.4261 26.05C58.5045 25.8546 58.5566 25.6497 58.5808 25.4406C58.6749 24.7709 58.5808 24.0676 58.5808 23.3829C58.5808 22.6981 58.6681 21.943 58.5001 21.2532C58.3538 20.6471 57.8933 20.108 57.5471 19.5923C57.1101 18.941 56.6932 18.2696 56.263 17.6133C55.8646 16.9988 55.4612 16.3961 55.0646 15.7715C54.7283 15.2693 54.4779 14.6983 54.0998 14.2178C53.7636 13.7976 53.4274 13.8076 52.9484 13.6737C52.7163 13.6147 52.5761 13.3795 52.6352 13.1483C52.6746 12.9952 52.7946 12.8756 52.9484 12.8365C53.5484 12.659 54.293 12.9001 54.8931 12.9587C55.7234 13.0374 56.4932 12.7913 57.3084 12.7578C57.5874 12.7478 57.969 12.7796 58.1286 13.0525C58.2436 13.2469 58.1787 13.4973 57.9836 13.6119C57.9649 13.6228 57.9454 13.6323 57.9252 13.6402C57.4681 13.8076 56.8495 13.5916 56.4983 14.0219"
                fill="black"></path>
            <path
                d="M22.7695 12.8583C23.1056 12.8449 23.6284 12.8583 23.6335 13.3154C23.6335 13.8176 23.1292 13.8026 22.7493 13.7892C22.4334 13.7758 21.8837 13.7071 21.6921 14.0386C21.4619 14.4338 21.5106 15.0432 21.5123 15.4785C21.5123 18.4923 21.5408 21.506 21.5408 24.5198C21.5408 24.9567 21.3593 25.9898 21.7207 26.3297C21.9342 26.5323 22.4182 26.4619 22.6821 26.472C22.946 26.482 23.3746 26.4569 23.5409 26.6896C23.8503 27.1132 23.2199 27.438 22.8821 27.4179C21.477 27.3174 20.092 27.1199 18.6801 27.2505C18.3809 27.279 17.5708 27.4179 17.5758 26.9274C17.5758 26.5372 18.1943 26.5155 18.4683 26.4904C18.7422 26.4653 19.1104 26.477 19.3541 26.323C19.5978 26.1689 19.6028 25.7671 19.6213 25.5293C19.6852 24.6721 19.586 23.8031 19.586 22.9459C19.586 20.6019 19.5491 18.2579 19.6398 15.9139C19.665 15.3027 19.8583 14.1826 19.1238 13.9365C18.8515 13.8444 16.9909 13.8076 17.643 13.1128C18.0565 12.6724 19.2533 12.9755 19.7693 13.0207C20.7777 13.1077 21.7661 12.8985 22.7745 12.8532"
                fill="black"></path>
            <path
                d="M95.2307 13.9432C94.8758 13.6753 93.3954 13.98 93.424 13.3539C93.4544 12.7528 94.056 12.8884 94.4744 12.9353C95.1127 13.0281 95.76 13.055 96.4036 13.0157C96.8578 12.9704 98.7978 12.4916 98.6851 13.4125C98.5841 14.263 97.1019 13.4476 96.7791 14.0554C96.5467 14.4957 96.6307 15.1387 96.6361 15.6175C96.6361 16.3693 96.6361 17.1244 96.6361 17.8711C96.6361 19.378 96.7201 20.8848 96.6951 22.3917C96.6817 23.6491 96.611 24.9333 95.6357 25.8524C94.8427 26.6008 93.7369 27.0513 92.6811 27.2706C90.4541 27.7344 87.3478 27.6054 85.5745 26.0015C84.6349 25.151 84.5374 23.7429 84.519 22.5625C84.4921 21.0205 84.5358 19.4751 84.5408 17.928C84.5408 17.1579 84.5408 16.391 84.5274 15.6158C84.519 15.2157 84.5139 14.8088 84.5005 14.4087C84.4887 14.0939 84.5374 13.8712 84.1862 13.8059C83.7761 13.7239 83.3457 13.8344 82.939 13.754C82.6415 13.6921 82.4953 13.2819 82.771 13.0943C83.3054 12.7109 84.2467 12.9269 84.8534 12.952C85.6047 12.9755 86.3578 13.0023 87.1074 12.952C87.5225 12.9185 88.6739 12.5887 88.6554 13.3539C88.6336 14.191 86.9276 13.3807 86.704 14.1257C86.5527 14.6196 86.6469 15.2073 86.6671 15.7113C86.699 16.4781 86.6334 17.2516 86.62 18.0184C86.5796 19.604 86.5493 21.1996 86.5695 22.7869C86.5829 23.8148 86.7511 24.7089 87.5915 25.3736C88.9109 26.4201 90.8993 26.5992 92.5032 26.246C93.2881 26.0785 94.0748 25.7436 94.6523 25.1744C95.3872 24.4477 95.4792 23.5218 95.4542 22.5357C95.4176 21.0489 95.414 19.5655 95.414 18.077C95.414 17.337 95.397 16.592 95.414 15.8502C95.431 15.2157 95.4793 14.5443 95.2245 13.9382"
                fill="black"></path>
            <path
                d="M102.925 14.2161C102.811 15.8385 102.908 17.4726 102.875 19.095C103.607 19.1748 104.343 19.2061 105.079 19.1888C105.462 19.1888 105.845 19.1888 106.231 19.1888C106.618 19.1888 106.808 19.1118 106.958 18.7283C107.107 18.3449 107.045 17.5664 107.415 17.3119C108.087 16.8498 108.099 17.9063 108.074 18.2495C108.028 18.9192 108.064 19.6023 108.074 20.272C108.074 20.5935 108.272 22.3649 107.874 22.4268C106.998 22.5558 107.151 21.1393 106.924 20.637C106.744 20.2419 105.608 20.344 105.243 20.3474C104.474 20.3474 103.704 20.4093 102.937 20.3641C102.841 21.9196 102.893 23.475 102.88 25.0254C102.88 25.5193 102.924 25.8625 103.441 25.9613C103.968 26.043 104.501 26.0738 105.033 26.0534C105.986 26.0534 107.297 26.4016 108.178 25.973C109.107 25.5193 108.561 23.9639 109.215 23.3276C109.594 22.9576 109.909 23.4214 109.946 23.7646C109.995 24.2284 109.89 24.6939 109.856 25.1576C109.802 25.7604 109.856 26.5138 109.634 27.0881C109.485 27.4614 108.78 27.3543 108.469 27.3426C107.098 27.289 105.741 27.1852 104.366 27.1953C102.725 27.1953 101.063 27.3979 99.428 27.341C99.0919 27.3292 98.4911 27.0212 98.9238 26.6461C99.2206 26.3782 99.774 26.4284 100.147 26.3916C100.356 26.3915 100.554 26.301 100.69 26.1438C100.895 25.9328 100.818 25.4942 100.823 25.1894C100.84 24.3958 100.843 23.6006 100.849 22.8052C100.86 21.1946 100.849 19.5806 100.849 17.9649C100.849 17.2014 100.849 16.4346 100.849 15.6694C100.849 15.2458 101.071 14.3685 100.681 14.0571C100.244 13.7222 99.0794 14.1759 98.846 13.6067C98.6011 12.9956 99.3708 12.9788 99.7606 12.9972C100.601 13.0307 101.43 12.9972 102.257 12.9972C103.895 12.9972 105.534 12.9972 107.173 13.0424C107.486 13.0627 107.799 13.0441 108.108 12.9872C108.328 12.9353 108.506 12.7779 108.725 12.9403C109.118 13.2333 109.061 14.0186 109.08 14.4472C109.101 14.8758 109.61 16.9184 108.81 16.8749C107.969 16.8297 108.094 14.9344 107.73 14.4656C107.316 13.9348 106.225 14.1759 105.652 14.2111C104.749 14.268 103.857 14.0989 102.954 14.2195"
                fill="black"></path>
            <path
                d="M4.74619 14.0788C4.74619 17.183 4.84704 20.2972 4.73778 23.398C4.72098 23.8751 4.69408 24.3506 4.6924 24.8312C4.6924 25.166 4.62685 25.7236 4.83695 26.0031C5.121 26.3983 6.08075 26.2744 6.49591 26.2844C7.25563 26.3012 8.00863 26.3112 8.77172 26.2744C9.97852 26.2141 11.0577 26.0065 11.935 25.1291C12.8124 24.2519 13.2797 23.0932 13.5335 21.9313C14.0763 19.4332 13.6359 16.5183 11.4274 14.9243C10.5433 14.2965 9.49111 14.0638 8.42548 13.9918C7.81365 13.9482 7.1968 13.9482 6.57658 13.9482C6.25723 13.9482 4.85712 13.7808 4.73946 14.0788M0.784522 13.538C0.771076 13.2049 0.760991 12.9554 1.15262 12.937C1.53492 12.9233 1.91769 12.9322 2.29893 12.9638C3.10017 13.0271 3.90455 13.041 4.70753 13.0056C6.15302 12.9252 7.60692 12.8382 9.0541 12.9336C11.8644 13.1228 14.5554 14.5912 15.6547 17.2868C16.7001 19.8417 15.8227 23.043 14.0881 25.0907C13.2662 26.0651 12.1904 26.8671 10.9315 27.1433C9.58691 27.438 8.17503 27.4196 6.81022 27.3526C5.83871 27.3141 4.87729 27.2588 3.90746 27.2639C3.41667 27.2639 2.91915 27.2907 2.42835 27.3041C2.00142 27.3174 1.2417 27.4715 0.876966 27.1701C0.618122 26.9525 0.796288 26.5774 1.07362 26.4887C1.45516 26.3698 1.87201 26.4318 2.25019 26.3413C2.94436 26.1739 2.7746 24.9802 2.76956 24.4612C2.73594 22.0619 2.63509 19.6559 2.71241 17.2617C2.74266 16.3341 2.90738 15.3546 2.75611 14.4271C2.55945 13.1965 1.42323 14.1625 0.784522 13.538Z"
                fill="black"></path>
            <path
                d="M32.9652 19.5471C34.0461 18.7819 34.4881 17.1729 33.9737 15.9674C33.7082 15.3496 33.2409 14.6782 32.5955 14.3986C31.9887 14.1307 31.2508 14.0822 30.597 14.0638C30.4458 14.0638 30.2978 14.0638 30.1466 14.0638C29.9146 14.0638 29.8692 14.0068 29.8591 14.2647C29.8373 14.71 29.8238 15.1521 29.8188 15.6041C29.807 16.52 29.8188 17.4458 29.8289 18.355C29.8289 18.8104 29.8289 19.2691 29.8289 19.7229C29.8289 20.0176 29.9382 19.9288 30.1953 19.9456C30.4525 19.9623 30.6693 19.9857 30.9063 19.9924C31.6089 20.0142 32.3736 19.9723 32.9652 19.5538M29.8692 20.8631C29.7852 22.3867 29.802 23.9153 29.8255 25.4356C29.8339 25.8541 29.8087 26.3849 30.3297 26.4402C30.7483 26.492 31.1702 26.41 31.5887 26.4602C31.9249 26.5071 32.2257 26.7365 32.0829 27.1116C31.8997 27.6021 30.8777 27.3359 30.5046 27.3041C29.8322 27.2455 29.16 27.1785 28.4876 27.1835C27.775 27.1835 27.0673 27.3711 26.3631 27.3509C26 27.3393 25.5226 27.0161 25.8924 26.6394C26.1513 26.3715 26.679 26.425 27.0152 26.4083C27.19 26.4066 27.3636 26.3807 27.5312 26.3314C27.7985 26.2409 27.7481 25.9127 27.7666 25.675C27.8422 24.8379 27.7884 24.0007 27.7884 23.1636V18.2746C27.7884 17.1193 27.8758 15.9423 27.8203 14.7887C27.8086 14.5309 27.8203 14.1475 27.6404 13.9348C27.4354 13.677 26.9026 13.7791 26.6185 13.7875C26.2824 13.7875 25.8706 13.7373 25.9277 13.3053C25.9764 12.9135 26.5429 12.9704 26.8236 12.9805C27.9599 13.0625 29.0792 13.0558 30.2205 13.0391C31.3971 13.0224 32.6442 13.0123 33.7721 13.4074C35.9907 14.1843 37.0412 16.756 35.789 18.7819C34.5368 20.8078 32.0509 21.0422 29.8692 20.8564"
                fill="black"></path>
            <path
                d="M48.3043 43.8294H49.8977C49.6557 43.1429 49.4069 42.4615 49.1245 41.7968C48.8607 42.4782 48.5597 43.1362 48.3043 43.8294ZM49.7598 39.9434C50.2793 41.2174 50.7549 42.515 51.2508 43.7942C51.4861 44.4014 51.7286 45.0069 51.9786 45.6109C52.1046 45.9038 52.2324 46.2018 52.3668 46.4949C52.5013 46.7879 52.7501 46.7075 53.0391 46.7896C53.2459 46.8498 53.3383 47.203 53.1467 47.3286C52.9551 47.4543 52.6794 47.3772 52.4845 47.3504C51.9365 47.3082 51.3859 47.3139 50.839 47.3672C50.5852 47.3672 50.044 47.4073 50.0692 47.0172C50.0927 46.6555 50.7953 46.7493 51.034 46.7158C50.938 46.2218 50.768 45.7448 50.5297 45.301C50.4087 45.0558 50.3037 44.803 50.2153 44.5443H48.4673C48.0437 44.5443 48.0185 44.6146 47.8438 44.993C47.6 45.5154 47.4337 46.0679 47.1715 46.5786C47.4253 46.7075 48.2034 46.6121 48.0286 47.1193C47.9144 47.4543 47.2101 47.3135 46.9613 47.3052C46.6756 47.2918 45.8906 47.4977 45.6907 47.2332C45.5996 47.0719 45.6452 46.8682 45.7965 46.7611C45.8873 46.7287 45.9814 46.7068 46.0772 46.6958C46.2823 46.6606 46.294 46.5284 46.3831 46.3441C46.9983 45.1186 47.4824 43.8327 47.9849 42.5603C48.2354 41.9207 48.4892 41.2828 48.7732 40.6516C48.9951 40.1593 49.1279 39.6219 49.7649 39.9367"
                fill="black"></path>
            <path
                d="M65.736 40.4406C65.625 40.752 65.0217 40.5712 64.7779 40.6683C64.7578 41.2878 64.7409 41.9106 64.7325 42.5318C64.714 43.8712 64.7241 45.2107 64.7763 46.54C64.7897 47.0223 65.5225 46.54 65.7074 46.9402C65.8923 47.3404 65.3712 47.4174 65.0922 47.3973C64.6463 47.3407 64.197 47.316 63.7475 47.3236C63.4736 47.3626 63.1975 47.3849 62.9206 47.3906C62.5542 47.3822 62.5323 47.1914 62.5458 46.8581C62.6735 46.6606 62.9626 46.6723 63.161 46.6907C63.2618 46.7025 63.3593 46.7141 63.4584 46.7293C63.4926 46.5464 63.5172 46.3621 63.5324 46.1767C63.5963 45.4517 63.556 44.7201 63.5509 44.0002C63.5509 43.3304 63.5509 42.6607 63.5509 41.9909C63.5509 41.5507 63.7862 40.7487 63.2147 40.6767C62.9962 40.6465 62.5912 40.6767 62.5424 40.3836C62.4483 39.8094 63.4988 40.0672 63.7913 40.0823C64.2686 40.1175 65.7679 39.6001 65.7394 40.454"
                fill="black"></path>
            <path
                d="M71.6558 39.9902C71.844 40.1744 71.7986 40.4925 71.7902 40.7386C71.8042 41.0433 71.8366 41.3469 71.8877 41.6477C71.9364 42.2521 71.2607 42.0898 71.1801 41.6243C71.1146 41.261 71.128 40.8341 70.7313 40.6583C70.2271 40.4289 69.4623 40.4774 69.0236 40.8122C68.5563 41.1723 68.3294 41.8437 68.7412 42.3375C69.1244 42.8013 69.8001 42.9504 70.3447 43.1362C71.5213 43.5297 72.5415 44.4405 72.2558 45.795C72.007 46.967 70.8877 47.4575 69.7749 47.4977C69.1676 47.5145 68.5612 47.4393 67.9765 47.2751C67.7714 47.2165 67.3865 47.1947 67.3814 46.967C67.3646 46.7425 67.3361 46.5189 67.2958 46.2973C67.2437 45.9708 67.1058 45.4467 67.3142 45.1487C67.6201 44.7067 67.9159 45.425 67.9647 45.651C68.1227 46.4095 68.6488 46.7611 69.4354 46.823C70.222 46.8849 71.1767 46.5501 71.1767 45.6292C71.165 44.3818 69.4522 44.1659 68.5765 43.7456C67.6028 43.303 67.1738 42.1577 67.6182 41.1879C67.6531 41.1115 67.6931 41.0375 67.7378 40.9663C68.6034 39.5064 70.2775 40.0857 71.6558 39.9869"
                fill="black"></path>
            <path
                d="M57.9067 43.3355C58.6127 42.8331 58.5253 41.3363 57.8194 40.8993C57.5841 40.7676 57.3158 40.7055 57.0462 40.7202C56.8882 40.7202 56.7352 40.7202 56.5806 40.7202C56.2209 40.7202 56.2158 40.68 56.1923 41.0551C56.1386 41.8771 56.2058 42.6942 56.1755 43.5096C56.7234 43.4761 57.4294 43.6653 57.9067 43.3421M58.453 43.8444C58.6799 44.4756 59.201 44.9746 59.5237 45.5539C59.8464 46.1331 60.0279 46.6589 60.7288 46.7392C60.9709 46.7661 61.1928 46.8498 61.1323 47.1461C61.0582 47.5296 60.7255 47.481 60.3758 47.481C59.7389 47.481 59.1371 47.3135 58.7674 46.7711C58.3975 46.2286 58.1152 45.6276 57.774 45.0717C57.6059 44.7771 57.421 44.4824 57.2243 44.1977H56.6243C56.2747 44.1977 56.2209 44.1425 56.1974 44.5007C56.153 45.1639 56.1598 45.8295 56.2175 46.4915C56.2612 46.9737 57.0664 46.5685 57.2529 46.9586C57.5202 47.5078 56.5638 47.4023 56.3168 47.3789C55.6444 47.3052 54.9721 47.4324 54.3098 47.3789C53.8173 47.332 53.8694 46.7677 54.3367 46.7276C54.4745 46.7175 54.6091 46.7276 54.7451 46.7276C55.0141 46.7276 54.9133 46.5702 54.9284 46.3441C54.9469 45.8888 54.9586 45.43 54.962 44.9763C54.962 44.1743 54.962 43.3673 54.9536 42.5652C54.9536 42.1601 54.9536 41.7599 54.9536 41.3581C54.9536 40.9562 55.0595 40.6884 54.5788 40.6767C54.4107 40.6683 54.1115 40.7085 54.0022 40.5377C53.9754 40.3535 53.9804 40.1158 54.1787 40.0254C54.5973 39.8395 55.2779 40.1024 55.7267 40.0806C56.942 40.0254 58.6328 39.7457 59.4329 40.9362C60.0632 41.8838 59.5808 43.4878 58.4632 43.836"
                fill="black"></path>
            <path
                d="M44.025 42.0697C43.9849 41.4917 43.5846 41.0011 43.0249 40.8441C42.6995 40.7406 42.3549 40.7108 42.0165 40.757V42.9236C42.0165 43.1613 41.9004 43.5079 42.1761 43.5364C42.5018 43.5828 42.8341 43.5471 43.1425 43.4325C43.7032 43.2191 44.0586 42.6662 44.0183 42.0697M40.0566 40.0337C41.6349 40.0906 45.2335 39.503 45.2772 41.9592C45.299 43.2367 44.3073 44.0286 43.1123 44.1491C42.8253 44.1788 42.5361 44.1832 42.2484 44.1626C41.9727 44.1408 42.0517 44.2212 42.0349 44.4606C42.0249 44.628 42.0165 44.7954 42.0097 44.9628C42.0097 45.2978 41.8567 46.6589 42.2215 46.736C42.4669 46.7896 42.9779 46.6372 43.124 46.9134C43.4888 47.5949 42.1777 47.3588 41.9088 47.3337C41.5811 47.3013 41.2513 47.2924 40.9222 47.3069C40.6432 47.3236 40.3138 47.4743 40.033 47.3772C39.8667 47.3248 39.7746 47.1478 39.8272 46.9821C39.8441 46.9287 39.8753 46.8806 39.9171 46.8431C40.065 46.7175 40.3003 46.7293 40.4818 46.7141C40.818 46.6941 40.7895 46.6456 40.8029 46.3157C40.813 45.9457 40.8248 45.5757 40.8298 45.2023C40.8432 44.4322 40.8466 43.6669 40.8416 42.9002C40.8365 42.1333 40.813 41.4084 40.7895 40.6666C40.571 40.5578 40.3037 40.6532 40.0768 40.5913C39.823 40.521 39.828 40.1275 40.0566 40.0304"
                fill="black"></path>
        </svg>