<svg width="111" height="60"
            viewBox="0 0 111 60" fill="none" xmlns="http://www.w3.org/2000/svg">
            <path
                d="M0.591184 17.668C1.00809 17.2045 1.54762 17.0157 2.14601 16.8881C3.52671 16.5889 4.87308 16.1622 6.19002 15.6497C7.69089 15.0685 8.19363 15.4191 8.19363 17.0304C8.19363 20.221 8.19118 23.4115 8.19854 26.6021C8.19854 26.8179 8.18137 27.2029 8.31625 27.2299C8.52225 27.2741 8.6179 26.9651 8.73806 26.7958C11.0556 23.5317 15.107 23.1835 17.6648 24.2797C19.7346 25.165 20.7745 26.8473 21.1619 28.9907C21.314 29.8295 21.3777 30.678 21.3777 31.5339C21.3777 33.7999 21.3802 36.0659 21.3949 38.3319C21.3998 39.0014 21.4857 39.666 21.5788 40.3307C21.7186 41.3165 22.241 42.0302 23.0429 42.5746C23.2367 42.707 23.4353 42.8346 23.6217 42.9768C23.916 43.2 24.0877 43.4869 23.9969 43.8719C23.9111 44.2373 23.6364 44.4016 23.2955 44.4654C23.0822 44.5046 22.8664 44.5316 22.6505 44.5316C20.1834 44.5365 17.7163 44.5341 15.2492 44.5316C15.0873 44.5316 14.9206 44.5341 14.7612 44.5022C14.3958 44.4262 14.0647 44.2937 13.9543 43.8768C13.844 43.4575 14.0647 43.1877 14.3516 42.94C14.3933 42.9057 14.435 42.8689 14.4816 42.8444C16.0119 42.0571 16.4656 40.7108 16.5171 39.102C16.6054 36.3479 16.652 33.5914 16.5073 30.8399C16.4239 29.2728 15.6784 28.0539 14.0794 27.5929C12.3455 27.0926 10.6092 27.7032 9.57188 29.0913C8.74787 30.1924 8.45849 31.475 8.35058 32.8042C8.1593 35.1561 8.1078 37.5079 8.3138 39.8622C8.4217 41.0958 8.91464 42.0841 10.0354 42.7021C10.1605 42.7708 10.2806 42.8591 10.3861 42.9572C10.646 43.1951 10.8766 43.4452 10.776 43.8474C10.673 44.2643 10.3566 44.4188 9.98634 44.4948C9.80976 44.5316 9.62583 44.5341 9.44681 44.5341C7.03364 44.5341 4.62048 44.5341 2.20732 44.5341C2.19015 44.5341 2.17053 44.5341 2.15336 44.5341C1.61629 44.5218 1.04243 44.5169 0.846234 43.894C0.652494 43.2735 1.14052 42.9572 1.5746 42.7046C2.75666 42.0155 3.22752 40.9683 3.32316 39.6489C3.47521 37.5643 3.4139 35.4823 3.42126 33.3977C3.43352 29.6995 3.42371 26.0013 3.41145 22.303C3.41145 21.7611 3.35014 21.2191 3.30354 20.6771C3.22997 19.8089 2.7493 19.2449 1.94491 18.9482C1.43236 18.7593 0.95414 18.5239 0.593637 18.0996C0.512707 17.9696 0.483279 17.8029 0.593637 17.6655L0.591184 17.668Z"
                fill="black"></path>
            <path
                d="M98.6039 44.5463C97.7848 44.3084 96.9878 44.0338 96.2422 43.6095C95.3594 43.1068 94.9032 42.3073 94.6678 41.3656C94.4691 40.571 94.3931 39.7568 94.4397 38.9377C94.474 38.3442 94.5868 37.7654 95.2343 37.5128C95.8057 37.2897 96.3281 37.4761 96.8455 38.099C97.6891 39.1143 98.4077 40.235 99.4279 41.1007C100.902 42.3514 102.55 42.7463 104.384 42.067C105.851 41.525 106.552 40.1443 106.027 38.8788C105.615 37.8905 104.737 37.4466 103.793 37.1229C102.287 36.6104 100.733 36.2498 99.2709 35.6049C98.1723 35.1193 97.1079 34.5724 96.306 33.6503C94.7119 31.8208 94.7438 28.9196 96.3697 26.7713C97.6573 25.0694 99.4426 24.2184 101.49 23.8922C103.259 23.6126 105.024 23.6764 106.77 24.1497C109.556 24.905 110 27.1097 109.473 29.4444C109.38 29.8613 109.147 30.2169 108.664 30.2979C108.114 30.3911 107.653 30.2096 107.307 29.7902C107.055 29.4837 106.851 29.1379 106.638 28.8019C105.838 27.5463 104.786 26.6119 103.293 26.3127C102.221 26.0994 101.191 26.2661 100.328 26.9969C99.2072 27.9485 99.2366 29.4641 100.392 30.3665C101.493 31.2273 102.847 31.4873 104.132 31.9066C105.336 32.299 106.545 32.6693 107.651 33.3045C109.338 34.2708 110.422 35.6539 110.648 37.6306C110.648 37.6428 110.653 37.6673 110.657 37.7041C110.76 38.5012 110.729 39.3154 110.525 40.0928C110.412 40.5244 110.248 40.9388 109.983 41.3214C108.465 43.5065 106.353 44.669 103.72 44.9142C102.462 45.0123 101.26 45.1472 98.6039 44.5439V44.5463Z"
                fill="black"></path>
            <path
                d="M64.4934 15.0562C65.6436 15.554 66.4578 16.4344 67.1788 17.4154C67.6423 18.0457 67.6202 18.698 67.1665 19.3258C66.6123 20.0959 65.9477 20.7605 65.1482 21.2804C64.5425 21.6752 63.9318 21.6924 63.3163 21.2927C62.4996 20.7605 61.8228 20.091 61.2955 19.2743C60.8884 18.6465 60.8933 18.0187 61.3249 17.3982C62.014 16.4099 62.8209 15.554 63.949 15.0562C64.1305 14.9753 64.3218 14.9875 64.4934 15.0562Z"
                fill="black"></path>
            <path
                d="M54.0437 27.7179C54.0437 31.1979 54.0388 34.6779 54.0486 38.1578C54.0486 38.7734 54.1149 39.3865 54.1688 39.9996C54.2694 41.1179 54.8089 41.9762 55.7384 42.6016C55.9762 42.7634 56.2141 42.9425 56.403 43.1558C56.8591 43.6684 56.6727 44.2594 56.0081 44.4507C55.8021 44.5095 55.5789 44.5316 55.3656 44.5341C52.8617 44.539 50.3602 44.539 47.8563 44.5341C47.6945 44.5341 47.5253 44.5341 47.3708 44.4973C47.0323 44.4163 46.7086 44.3134 46.6056 43.9063C46.5075 43.5163 46.6767 43.2416 46.9367 42.994C47.0274 42.9081 47.1255 42.8149 47.2359 42.761C48.6043 42.089 49.0874 40.9045 49.1414 39.4748C49.1757 38.5698 49.2297 37.6649 49.2321 36.76C49.2419 32.12 49.2395 27.4801 49.2321 22.8401C49.2321 22.2074 49.1684 21.5747 49.1438 20.942C49.1071 19.988 48.6117 19.3577 47.7729 18.9629C47.4958 18.8329 47.2064 18.7176 46.9465 18.5558C46.3481 18.183 46.3555 17.5895 46.9612 17.229C47.1598 17.1113 47.3879 17.0206 47.6135 16.9764C49.2199 16.6723 50.7624 16.1573 52.2927 15.5982C52.4791 15.5295 52.6704 15.4731 52.8641 15.4314C53.4576 15.299 53.8574 15.5467 53.9873 16.1451C54.0339 16.3535 54.0339 16.5767 54.0339 16.7925C54.0364 20.4343 54.0339 24.0786 54.0339 27.7204C54.0364 27.7204 54.0388 27.7204 54.0413 27.7204L54.0437 27.7179Z"
                fill="black"></path>
            <path
                d="M66.6785 32.2328C66.7374 34.3075 66.6074 36.8433 66.7594 39.3816C66.8453 40.8187 67.321 41.9811 68.5938 42.7487C68.79 42.8664 68.9666 43.0406 69.1088 43.2245C69.4718 43.688 69.2952 44.2373 68.7459 44.4384C68.5031 44.5267 68.2505 44.5414 67.9955 44.5414C65.5112 44.5414 63.0269 44.5414 60.5426 44.5414C60.5254 44.5414 60.5058 44.5414 60.4887 44.5414C59.9933 44.5194 59.4586 44.5218 59.2772 43.9381C59.0908 43.3324 59.5077 42.9719 59.9663 42.7266C61.1091 42.1111 61.683 41.1522 61.7565 39.8819C61.9625 36.3529 61.9307 32.8214 61.7933 29.2899C61.7541 28.2771 61.2121 27.6517 60.3268 27.2692C60.0448 27.1465 59.7554 27.0386 59.5077 26.8522C59.027 26.4844 59.0295 26.0013 59.52 25.6432C59.7407 25.4814 59.9957 25.371 60.263 25.3219C61.8743 25.035 63.4119 24.5078 64.9447 23.9535C65.0967 23.8971 65.2512 23.8432 65.4082 23.8039C66.1782 23.6126 66.6564 23.9609 66.6736 24.7603C66.6932 25.7217 66.681 26.6806 66.681 27.6419C66.681 29.0202 66.681 30.396 66.681 32.2353L66.6785 32.2328Z"
                fill="black"></path>
            <path
                d="M83.3352 23.7867C78.7762 23.2938 74.3079 25.7266 72.4564 29.9227C71.522 32.044 71.3822 34.2536 71.6692 36.5221C72.1842 40.571 75.024 43.7272 78.992 44.6689C82.9625 45.3679 84.6399 44.6493 85.3854 44.3796C89.3436 42.9523 92.0094 39.1118 92.1761 34.5945C92.387 28.8804 88.8213 24.3778 83.3352 23.7867ZM86.1261 39.9554C84.5222 43.1043 80.667 43.3765 78.6511 40.4753C77.5402 38.8764 77.0522 37.0444 76.8118 35.1438C76.5985 33.4468 76.574 31.7423 77.0326 30.0747C77.4544 28.542 78.2073 27.2348 79.7327 26.531C81.5205 25.707 83.6786 26.2122 84.8582 27.794C86.2658 29.6823 86.8373 31.8699 87.0187 34.18C87.0506 34.5749 87.0236 34.9771 87.0236 35.3743C87.08 36.9684 86.8569 38.5159 86.1236 39.953L86.1261 39.9554Z"
                fill="black"></path>
            <path
                d="M42.9687 39.5876C42.4463 39.877 41.9264 40.1712 41.3918 40.4361C39.4004 41.4195 37.3257 41.7678 35.1823 41.0467C32.3106 40.0805 30.9838 36.9439 31.0402 34.5111C31.0476 34.1506 31.2536 34.0451 31.5675 34.0451C32.3302 34.0451 33.0904 34.05 33.8531 34.0451C36.6636 34.0206 39.4765 34.1261 42.2869 33.9936C43.9742 33.9127 44.6903 33.15 44.6535 31.4677C44.5922 28.7063 43.3243 26.5629 41.0387 25.0767C37.7107 22.9112 33.0119 23.3846 29.9415 26.1558C26.7387 29.0496 25.5664 32.7061 26.2114 36.9071C26.8785 41.2478 29.7061 44.0338 33.9708 44.8038C34.1646 44.8382 35.4006 44.9461 35.5502 44.924C35.6777 44.924 35.8077 44.924 35.9352 44.924C36.0578 44.9412 36.8598 44.8799 36.948 44.87C38.3925 44.7401 39.7609 44.3428 41.0288 43.6463C42.3139 42.94 43.4812 42.089 44.1483 40.723C44.3273 40.3576 44.3347 39.975 44.0183 39.6685C43.6995 39.357 43.339 39.3889 42.9711 39.5925L42.9687 39.5876ZM35.2265 26.1999C37.387 25.8419 39.3612 27.1637 39.7364 29.2188C39.9669 30.4867 39.4593 31.2445 38.211 31.5167C37.8162 31.6025 37.4189 31.6075 37.0216 31.6099C36.2246 31.6148 35.4251 31.6099 34.6281 31.6099C33.6128 31.6099 32.5975 31.6001 31.5822 31.6148C31.2143 31.6197 31.0574 31.4946 31.0672 31.1121C31.1162 28.9294 33.1272 26.5457 35.2265 26.1975V26.1999Z"
                fill="black"></path>
        </svg>