<svg width="137" height="32"
            viewBox="0 0 137 32" fill="none" xmlns="http://www.w3.org/2000/svg">
            <path fill-rule="evenodd" clip-rule="evenodd"
                d="M53.1328 22.5336C55.0863 22.5336 56.4055 21.1715 56.4055 19.268C56.4055 17.3534 55.0751 15.9881 53.1328 15.9881C51.1903 15.9881 49.8601 17.3643 49.8601 19.268C49.8601 21.1715 51.1793 22.5336 53.1328 22.5336ZM53.1328 20.9831C52.2189 20.9831 51.6604 20.0949 51.6604 19.268C51.6604 18.4171 52.2189 17.5418 53.1328 17.5418C54.0466 17.5418 54.6026 18.4402 54.6026 19.268C54.6026 20.0949 54.0466 20.9831 53.1328 20.9831Z"
                fill="black"></path>
            <path fill-rule="evenodd" clip-rule="evenodd"
                d="M60.4059 22.5336C62.3592 22.5336 63.6783 21.1715 63.6783 19.268C63.6783 17.3534 62.3455 15.9881 60.4059 15.9881C58.4656 15.9881 57.1328 17.3643 57.1328 19.268C57.1328 21.1715 58.4519 22.5336 60.4059 22.5336ZM60.4059 20.9831C59.4921 20.9831 58.9329 20.0949 58.9329 19.268C58.9329 18.4171 59.4921 17.5418 60.4059 17.5418C61.319 17.5418 61.8775 18.4402 61.8775 19.268C61.8775 20.0949 61.319 20.9831 60.4059 20.9831Z"
                fill="black"></path>
            <path
                d="M77.4965 17.3775V17.1355H73.1204V18.673H75.2742C75.2348 19.8408 74.1959 20.8656 72.9578 20.8656C71.0463 20.8656 70.0877 19.0829 70.0877 17.4809C70.0877 15.8775 71.0324 14.0164 72.944 14.0164C73.9939 14.0164 74.8576 14.6854 75.2603 15.5572L77.0121 14.6582C76.23 13.1827 74.7212 12.3518 72.998 12.3518C69.968 12.3518 68.0419 14.7228 68.0419 17.4809C68.0419 20.1486 69.9139 22.5336 72.8782 22.5336C76.0279 22.5336 77.4965 20.1104 77.4965 17.3775Z"
                fill="black"></path>
            <path fill-rule="evenodd" clip-rule="evenodd"
                d="M81.4962 22.5336C83.4494 22.5336 84.7692 21.1715 84.7692 19.268C84.7692 17.3534 83.4364 15.9881 81.4962 15.9881C79.5566 15.9881 78.2237 17.3643 78.2237 19.268C78.2237 21.1715 79.543 22.5336 81.4962 22.5336ZM81.4962 20.9831C80.5857 20.9831 80.0265 20.0949 80.0265 19.268C80.0265 18.4171 80.5824 17.5418 81.4962 17.5418C82.4098 17.5418 82.9684 18.4402 82.9684 19.268C82.9684 20.0949 82.4073 20.9831 81.4962 20.9831Z"
                fill="black"></path>
            <path fill-rule="evenodd" clip-rule="evenodd"
                d="M88.7691 22.5336C90.7225 22.5336 92.0419 21.1715 92.0419 19.268C92.0419 17.3534 90.7115 15.9881 88.7691 15.9881C86.8262 15.9881 85.4965 17.3643 85.4965 19.268C85.4965 21.1715 86.8157 22.5336 88.7691 22.5336ZM88.7691 20.9831C87.8554 20.9831 87.2967 20.0949 87.2967 19.268C87.2967 18.4171 87.8585 17.5418 88.7691 17.5418C89.6803 17.5418 90.2383 18.4402 90.2383 19.268C90.2383 20.0949 89.6823 20.9831 88.7691 20.9831Z"
                fill="black"></path>
            <path fill-rule="evenodd" clip-rule="evenodd"
                d="M97.4562 21.7011H97.4845V22.3204H99.3146V10.8972H97.4845V16.3122H97.4562C97.052 15.787 96.3697 15.4902 95.7009 15.4902C93.8566 15.4902 92.7692 17.1877 92.7692 18.9793C92.7692 20.771 93.8425 22.5336 95.7284 22.5336C96.3973 22.5336 97.0761 22.2374 97.4562 21.7011ZM96.1477 17.1621C97.0909 17.1621 97.6676 18.1178 97.6676 19.005C97.6676 19.8949 97.0909 20.8651 96.1477 20.8651C95.2043 20.8651 94.6269 19.8921 94.6269 19.005C94.6269 18.1178 95.2043 17.1621 96.1477 17.1621Z"
                fill="black"></path>
            <path d="M46.7304 22.5335H48.6264V14.0789H50.5871V12.3517H44.7689V14.0789H46.7304V22.5335Z" fill="black">
            </path>
            <path d="M107.538 22.5335H105.64V14.0789H103.678V12.3517H109.496V14.0789H107.538V22.5335Z" fill="black">
            </path>
            <path fill-rule="evenodd" clip-rule="evenodd"
                d="M112.042 22.5336C113.995 22.5336 115.315 21.1715 115.315 19.268C115.315 17.3534 113.982 15.9881 112.042 15.9881C110.101 15.9881 108.769 17.3643 108.769 19.268C108.769 21.1715 110.088 22.5336 112.042 22.5336ZM112.042 20.9831C111.128 20.9831 110.572 20.0949 110.572 19.268C110.572 18.4171 111.128 17.5418 112.042 17.5418C112.955 17.5418 113.514 18.4402 113.514 19.268C113.514 20.0949 112.955 20.9831 112.042 20.9831Z"
                fill="black"></path>
            <path
                d="M129.133 17.3775V17.1355H124.756V18.673H126.914C126.871 19.8408 125.835 20.8656 124.594 20.8656C122.682 20.8656 121.727 19.0829 121.727 17.4809C121.727 15.8775 122.668 14.0164 124.583 14.0164C125.632 14.0164 126.494 14.6854 126.899 15.5572L128.648 14.6582C127.868 13.1827 126.36 12.3518 124.637 12.3518C121.604 12.3518 119.678 14.7228 119.678 17.4809C119.678 20.1486 121.553 22.5336 124.514 22.5336C127.666 22.5336 129.133 20.1104 129.133 17.3775Z"
                fill="black"></path>
            <path fill-rule="evenodd" clip-rule="evenodd"
                d="M133.132 22.5336C135.086 22.5336 136.406 21.1715 136.406 19.268C136.406 17.3534 135.073 15.9881 133.132 15.9881C131.193 15.9881 129.86 17.3643 129.86 19.268C129.86 21.1715 131.179 22.5336 133.132 22.5336ZM133.132 20.9831C132.219 20.9831 131.66 20.0949 131.66 19.268C131.66 18.4171 132.219 17.5418 133.132 17.5418C134.046 17.5418 134.605 18.4402 134.605 19.268C134.605 20.0949 134.046 20.9831 133.132 20.9831Z"
                fill="black"></path>
            <path
                d="M18.8207 12.9503C24.4882 6.51411 32.1688 3.96518 35.9769 7.25628C39.7846 10.5469 38.278 18.4321 32.6105 24.8682C26.9441 31.3038 19.2629 33.8528 15.4548 30.5622C11.6467 27.271 13.1542 19.3859 18.8207 12.9503Z"
                fill="#636363"></path>
            <path
                d="M19.8973 0C25.1192 0 29.3518 7.16375 29.3518 16C29.3518 24.8367 25.1192 32 19.8973 32C14.6758 32 10.4427 24.8367 10.4427 16C10.4427 7.16375 14.6758 0 19.8973 0Z"
                fill="#404040"></path>
            <path
                d="M2.36385 7.25619C6.17193 3.96508 13.8531 6.51454 19.5196 12.9502C25.1866 19.3864 26.6936 27.271 22.886 30.5622C19.078 33.8528 11.3968 31.3038 5.72978 24.8682C0.0627944 18.4321 -1.44424 10.5474 2.36385 7.25619Z"
                fill="black"></path>
        </svg>