<svg width="76" height="44"
            viewBox="0 0 76 44" fill="none" xmlns="http://www.w3.org/2000/svg">
            <path opacity="0.7"
                d="M45.3436 0C33.4803 0 23.8632 9.84972 23.8632 21.9999C23.8632 34.1503 33.4803 44 45.3436 44C57.2068 44 66.8239 34.1503 66.8239 21.9999C66.8239 9.84972 57.2068 0 45.3436 0Z"
                fill="url(#paint0_linear)"></path>
            <path
                d="M69.7539 21.9999C69.7539 20.2798 71.1153 18.8854 72.7947 18.8854C74.4742 18.8854 75.8356 20.2798 75.8356 21.9999C75.8356 23.7199 74.4742 25.1143 72.7947 25.1143C71.1153 25.1143 69.7539 23.7199 69.7539 21.9999ZM1.97209 21.7931V18.9249H0.164368V26.011H1.97209V23.1428H4.8644V26.011H6.67192V18.9249H4.8644V21.7931H1.97209ZM11.2748 21.7931V20.6121H14.5286V18.9249H9.46709V26.011H14.5286V24.3237H11.2748V23.1428H13.444V21.7931H11.2748ZM19.8545 21.7931V20.6121H23.1082V18.9249H18.0467V26.011H23.1082V24.3237H19.8545V23.1428H22.0236V21.7931H19.8545ZM30.061 20.6121V26.0109H28.2533V20.6121H26.0841V18.9248H32.2302V20.6121H30.061ZM41.1593 19.8967C40.4147 19.1734 39.3875 18.7561 38.2912 18.7561C36.0949 18.7561 34.3143 20.4181 34.3143 22.4679C34.3143 24.5178 36.0949 26.1798 38.2912 26.1798C39.3779 26.1798 40.397 25.7697 41.1402 25.0576L39.8452 23.8805C39.439 24.2698 38.8851 24.4925 38.2912 24.4925C37.0932 24.4925 36.122 23.586 36.122 22.4679C36.122 21.3498 37.0932 20.4433 38.2912 20.4433C38.8905 20.4433 39.4488 20.67 39.8559 21.0656L41.1593 19.8967ZM44.8704 21.7931V18.9249H43.0627V26.011H44.8704V23.1428H47.7627V26.011H49.5702V18.9249H47.7627V21.7931H44.8704Z"
                fill="black"></path>
            <defs>
                <linearGradient id="paint0_linear" x1="23.8632" y1="22" x2="66.8239" y2="22"
                    gradientUnits="userSpaceOnUse">
                    <stop stop-color="#E6E9ED"></stop>
                    <stop offset="1" stop-color="#8C9399"></stop>
                </linearGradient>
            </defs>
        </svg>