<svg width="157" height="60"
            viewBox="0 0 157 60" fill="none" xmlns="http://www.w3.org/2000/svg">
            <path
                d="M34.9711 12.3999L36.6311 12.7399C40.0511 13.7599 42.4111 16.7499 42.6311 20.3299C43.0211 26.6399 42.3311 33.3499 42.6311 39.6999C42.4411 43.2999 39.8911 46.4799 36.3811 47.3499C35.8911 47.4699 35.3911 47.5099 34.9011 47.6199H14.6011C14.1711 47.5099 13.7111 47.5099 13.2711 47.4299C10.2811 46.8599 7.72111 44.4099 6.96111 41.4899L6.64111 39.7399V20.1499C6.95111 16.1699 10.2011 12.7599 14.2111 12.4199H34.9711V12.3999ZM31.5711 22.0299C31.8711 21.7199 32.6111 21.1499 32.7311 20.7999C32.9011 20.2999 32.4111 19.8899 31.9811 19.7099C31.2711 19.4099 30.6511 19.4699 30.0011 19.8699L25.2211 24.6199C24.9911 25.0099 25.1611 25.1399 25.3011 25.4999C23.1811 25.1799 21.9711 21.3499 19.5811 22.4799C18.9411 22.7799 18.6111 23.2499 19.0911 23.8699C19.6811 24.6199 21.7311 26.6699 22.4911 27.2599C23.7611 28.2599 25.2411 28.2299 26.4611 27.1799C28.1711 25.7099 30.0011 23.6799 31.5711 22.0299ZM19.0211 30.7899C18.0211 31.9899 15.9111 33.0499 16.7711 34.9299C17.0111 35.4499 17.4811 35.9499 18.0411 35.5399C18.6611 35.0899 21.1711 32.5399 21.6611 31.8999C22.5111 30.7899 22.4811 29.2599 21.5511 28.1999L15.2611 21.9199C14.7611 21.4899 14.2511 22.0399 14.0411 22.4899C13.5711 23.4699 13.8811 24.2199 14.5311 24.9999C15.7611 26.4899 17.5111 27.7799 18.8311 29.2099C19.4811 29.6999 19.5011 29.4399 19.9911 28.9399C19.8711 29.6099 19.4611 30.2699 19.0311 30.7899H19.0211ZM29.2711 31.0499C29.4511 30.1399 30.0511 29.3999 30.6711 28.7499C31.4911 27.8799 32.8211 27.0899 32.6911 25.7199C32.6311 25.0999 32.0011 23.9099 31.2511 24.4199C29.5211 26.5899 25.1411 28.7399 27.8211 31.9099C29.5911 34.0099 32.0411 35.8799 33.8711 37.9599C34.4511 38.5299 35.0111 37.9799 35.2711 37.3999C35.6411 36.5799 35.4211 35.8199 34.8911 35.1499C33.6411 33.5799 31.6611 32.1199 30.2811 30.6299C29.7411 30.2899 29.6211 30.7599 29.2711 31.0499ZM26.4411 36.1499C27.1311 36.7899 27.5011 37.5999 28.6111 37.6899C29.3611 37.7499 30.9011 37.1699 30.2911 36.2399C28.1311 34.4799 25.8711 30.0799 22.7211 32.8799C21.0211 34.3899 19.0711 36.4299 17.4911 38.1099C16.9311 38.6999 15.9911 39.3499 16.9511 40.0599C17.6411 40.5599 18.6711 40.5499 19.3611 40.0599L24.0411 35.3699C24.3011 34.9799 24.1811 34.8499 23.9711 34.4799C24.1611 34.3499 24.8811 34.8499 25.0711 34.9799C25.5611 35.3099 26.0111 35.7499 26.4411 36.1499Z"
                fill="black"></path>
            <path
                d="M50.0408 21.76C52.5508 21.86 55.1608 21.63 57.6508 21.76C60.3408 21.9 62.5708 23.01 63.0508 25.88C63.4908 28.48 62.3808 30.96 59.7908 31.79L63.6908 38.86H60.2608L56.9008 32.15H52.9208V38.86H50.0308V21.76H50.0408ZM52.9208 29.41H58.1908C60.3108 29.41 60.9408 25.8 59.1108 24.82C58.9908 24.76 58.2708 24.5 58.1908 24.5H52.9208V29.42V29.41Z"
                fill="black"></path>
            <path
                d="M133.411 36.8301C133.211 36.9801 133.071 37.2901 132.911 37.4601C130.611 39.7701 126.261 38.7201 124.691 36.0001C121.351 30.2401 127.131 23.0701 133.031 27.3501L133.651 28.0901V26.3701H136.301V39.0501C136.301 40.9401 134.601 43.0201 132.891 43.6801C129.631 44.9301 125.201 43.6301 124.671 39.8001H127.441C127.721 40.3701 127.941 40.8901 128.521 41.2201C129.961 42.0601 132.331 41.8001 133.131 40.1801C133.171 40.0901 133.411 39.4901 133.411 39.4501V36.8301ZM129.411 28.6501C125.431 29.1901 125.531 36.8101 130.771 36.1001C134.761 35.5601 134.631 27.9401 129.411 28.6501Z"
                fill="black"></path>
            <path
                d="M76.8911 33.4701H67.4511C67.5811 35.5901 69.1411 36.8301 71.2411 36.6701C72.4511 36.5801 73.3111 35.8901 73.8911 34.8701H76.6611C76.1411 37.0301 73.9911 38.8601 71.7711 39.0701C66.9811 39.5301 64.2611 36.2501 64.6411 31.6301C65.1211 25.7701 73.1711 23.9401 76.0811 29.0901C76.3811 29.6201 76.9011 30.9701 76.9011 31.5501V33.4601L76.8911 33.4701ZM74.0811 31.3701C73.8611 28.0001 69.0911 27.3201 67.7411 30.3001C67.6311 30.5501 67.3611 31.1701 67.5611 31.3701H74.0811Z"
                fill="black"></path>
            <path
                d="M96.3111 26.0801C100.891 26.0401 103.781 30.2701 102.571 34.6001C101.921 36.9201 99.7611 38.8901 97.3111 39.0901C87.5911 39.8801 87.6311 26.1501 96.3211 26.0801H96.3111ZM95.6811 28.6501C91.7211 29.1901 91.7511 36.1801 95.8211 36.5901C101.451 37.1601 101.351 27.8801 95.6811 28.6501Z"
                fill="black"></path>
            <path
                d="M144.781 26.0799C152.731 26.0099 153.491 37.4499 146.501 38.9699C136.651 41.1099 135.431 26.1599 144.781 26.0799ZM144.161 28.6499C140.201 29.1899 140.231 36.1799 144.301 36.5899C149.931 37.1599 149.841 27.8799 144.161 28.6499Z"
                fill="black"></path>
            <path
                d="M113.581 26.3701V34.3701C113.581 34.6201 113.881 35.4001 114.031 35.6301C114.811 36.8401 117.241 36.9501 118.181 35.9301C118.531 35.5501 118.881 34.5701 118.881 34.0601V26.3701H121.691V34.5301C121.691 36.9301 119.601 38.9101 117.281 39.1001C113.211 39.4301 110.911 37.9701 110.681 33.7601C110.551 31.3401 110.781 28.8101 110.681 26.3801H113.571L113.581 26.3701Z"
                fill="black"></path>
            <path
                d="M79.9311 26.3701L83.3311 35.4301L86.8411 26.3701H89.6911L84.6911 38.8501L82.0811 38.8601L76.8911 26.3701H79.9311Z"
                fill="black"></path>
            <path d="M107.881 20.8301H104.991V38.8601H107.881V20.8301Z" fill="black"></path>
        </svg>