<svg width="108" height="60"
            viewBox="0 0 108 60" fill="none" xmlns="http://www.w3.org/2000/svg">
            <path
                d="M103.195 34.9309L107.863 22.5808H103.636L101.091 30.2697L98.3858 22.5808H94.1385L99.0873 35.1699L98.7469 35.9865C98.3059 36.8232 97.5445 37.6996 96.3021 37.7196H96.1822C95.4807 37.7196 94.8799 37.62 94.339 37.4606H94.2791L93.858 41.1656H93.9179C94.6194 41.2652 95.3409 41.325 96.0416 41.305C97.745 41.2851 99.1672 40.7871 100.27 39.8908C101.191 39.1537 102.012 37.8989 102.754 36.126L102.794 36.0065C102.934 35.6678 103.074 35.3093 103.195 34.9309Z"
                fill="black"></path>
            <path
                d="M92.916 35.8456H89.1098V34.4115C88.7287 34.9692 87.7667 36.2838 85.0622 36.2838C81.0146 36.2838 78.3903 33.1764 78.3903 29.1925C78.3903 24.7107 81.6162 22.1411 85.0023 22.1411C87.3664 22.1411 88.4882 23.2964 88.9092 23.7147V18.6552L92.8961 18.1771L92.916 35.8456ZM82.3976 29.1726C82.3976 31.2044 83.8597 32.559 85.7437 32.559C86.7049 32.559 87.5869 32.1805 88.2077 31.563C88.8293 30.9455 89.1897 30.089 89.1497 29.093C89.1497 28.1369 88.7686 27.3202 88.1678 26.7425C87.5669 26.1449 86.7248 25.8063 85.7837 25.8063C83.4794 25.8063 82.3976 27.599 82.3976 29.1328V29.1726Z"
                fill="black"></path>
            <path
                d="M76.9277 35.8465H72.9405V34.4123C72.2192 35.7071 70.5562 36.3046 68.9934 36.3046C64.7659 36.3046 62.2814 33.018 62.2814 29.2134C62.2814 24.8709 65.427 22.142 68.9934 22.142C71.1773 22.142 72.3995 23.1977 72.9405 24.0143V22.6001L76.9277 22.122V35.8465ZM66.2886 29.2731C66.2886 30.4882 67.2102 32.5996 69.5945 32.5996C71.0171 32.5996 71.8786 31.9224 72.3795 31.1256C72.7201 30.6077 72.8804 30.03 72.9405 29.4325C72.9805 28.8349 72.8604 28.2373 72.5999 27.6795C72.1591 26.7633 71.2575 25.8469 69.5744 25.8469C67.2904 25.8469 66.2886 27.7593 66.2886 29.2532V29.2731Z"
                fill="black"></path>
            <path
                d="M62.1412 32.6597C61.4199 32.4207 60.899 31.9427 60.5584 31.365C60.0174 30.3889 59.9974 29.373 59.9974 28.397V18.1584L56.0102 18.6365V28.3771C56.0102 30.9865 56.2707 32.6796 58.0939 34.3927C59.5766 35.9066 61.8206 36.2651 63.2432 36.2651H65.5673C65.4271 36.2054 65.2868 36.1456 65.1466 36.066C64.806 35.8867 64.4854 35.6875 64.1849 35.4484C63.2832 34.7513 62.582 33.7752 62.1412 32.6597Z"
                fill="black"></path>
            <path
                d="M54.207 34.2327C54.207 36.2246 54.0667 37.4795 53.4055 38.6149C52.3637 40.2882 49.9394 41.7423 46.6534 41.7423C42.0252 41.7423 40.262 38.9735 40.0016 37.0811H44.6098C44.8903 37.7185 45.4313 38.0572 45.8921 38.2364C46.3729 38.3958 46.8338 38.3958 46.954 38.3958C48.4767 38.3958 50.1998 37.4596 50.1998 35.1689V34.3721C49.739 35.129 48.5969 36.2644 46.4932 36.2644C42.8667 36.2644 39.7612 33.5355 39.7612 29.2926C39.7612 24.7511 43.0269 22.1416 46.4932 22.1416C47.9758 22.1416 49.4585 22.6595 50.2198 23.8148V22.5798L54.207 22.1018V34.2327ZM43.7482 29.1731C43.7482 31.2647 45.291 32.5595 46.954 32.5595C47.9358 32.5595 48.7172 32.2208 49.2781 31.6431C49.8392 31.0655 50.1597 30.2886 50.2198 29.3524C50.2198 28.3764 49.9394 27.48 49.3783 26.8625C48.8574 26.2251 48.0359 25.8266 46.974 25.8266C45.271 25.8266 43.7482 27.1812 43.7482 29.1134V29.1731Z"
                fill="black"></path>
            <path
                d="M29.4427 16.5245C27.1186 14.2139 22.4502 14.6322 16.6799 17.1619C16.179 17.3811 15.598 17.3811 15.0971 17.1619C9.3267 14.6123 4.65838 14.2139 2.33422 16.5245C0.0100609 18.8352 0.430815 23.4764 2.97537 29.2131C3.19576 29.7111 3.19576 30.2888 2.97537 30.7868C0.410778 36.5236 0.0100609 41.1648 2.33422 43.4755C4.65838 45.7861 9.3267 45.3678 15.0971 42.838C15.598 42.6189 16.179 42.6189 16.6799 42.838C22.4502 45.3877 27.1186 45.7861 29.4427 43.4755C31.7669 41.1648 31.3462 36.5236 28.8016 30.7868C28.5812 30.2888 28.5812 29.7111 28.8016 29.2131C31.3662 23.4764 31.7669 18.8352 29.4427 16.5245Z"
                fill="black"></path>
        </svg>