<svg width="78" height="28"
            viewBox="0 0 78 28" fill="none" xmlns="http://www.w3.org/2000/svg">
            <path
                d="M8.69059 27.9886C6.37313 27.8956 4.4771 27.2551 2.99456 26.0654C2.71163 25.8381 2.03742 25.1567 1.81123 24.8693C1.21004 24.1057 0.801312 23.3625 0.528693 22.538C-0.310194 19.9999 0.121551 16.6693 1.76361 13.0141C3.16956 9.8847 5.339 6.781 9.12392 2.4824C9.68146 1.84987 11.3418 0 11.3525 0C11.3565 0 11.266 0.158332 11.1521 0.351135C10.168 2.01622 9.3259 3.97753 8.86717 5.67549C8.13027 8.39999 8.21916 10.7381 9.12749 12.5511C9.75408 13.8001 10.8283 14.882 12.0362 15.48C14.1509 16.5266 17.2469 16.6132 21.0279 15.7334C21.2882 15.6724 34.1874 12.2136 49.6929 8.04685C65.1984 3.87973 77.8869 0.472991 77.8889 0.475796C77.8932 0.479404 41.8651 16.052 23.1624 24.1309C20.2005 25.41 19.4084 25.7331 18.016 26.2269C14.4564 27.4896 11.268 28.092 8.69059 27.9886Z"
                fill="black"></path>
        </svg>