<svg width="119" height="60"
            viewBox="0 0 119 60" fill="none" xmlns="http://www.w3.org/2000/svg">
            <path
                d="M49.2823 21.7554C49.1759 22.2341 48.8568 22.7128 48.4312 22.9788C47.9525 23.2979 47.3674 23.4575 46.7291 23.4575C46.3036 23.4575 45.8249 23.3511 45.5057 23.0852C45.1866 22.8192 45.027 22.4469 45.0802 22.0745C45.027 21.7022 45.1866 21.3298 45.5057 21.1171C45.9312 20.9043 46.41 20.7979 46.8355 20.7979H49.2823V21.7554ZM46.3036 18.883C45.1866 18.8298 44.1227 19.149 43.2185 19.7873C42.4738 20.3724 42.1015 21.2767 42.1546 22.2341C42.1015 23.1915 42.4738 24.0958 43.1653 24.7341C43.91 25.4256 44.8674 25.7447 45.878 25.6915C46.5695 25.6915 47.261 25.5852 47.8993 25.3192C48.4312 25.1064 48.9632 24.7341 49.3355 24.2554V25.5852H52.3674V18.2979C52.4206 17.1809 51.9419 16.1171 51.144 15.3724C50.1866 14.6277 48.9632 14.2554 47.7397 14.3086C46.8887 14.3086 46.0908 14.415 45.2397 14.6277C44.3887 14.8937 43.5908 15.2128 42.7929 15.5852L43.7504 17.766C44.7078 17.1809 45.878 16.8086 46.9951 16.8086C47.5802 16.7554 48.2185 16.915 48.6972 17.2873C49.0695 17.6064 49.2823 18.1384 49.2823 18.6703V18.883H46.3036ZM60.2397 23.1384C59.9206 23.2979 59.6015 23.3511 59.2291 23.3511C58.5908 23.3511 57.8993 23.2447 57.3142 22.9788C56.6227 22.766 56.0376 22.3937 55.4525 21.9681L54.4419 24.0958C55.0802 24.6277 55.7717 25.0001 56.5695 25.266C57.4206 25.532 58.2717 25.6915 59.1227 25.6915C60.2397 25.7447 61.3568 25.4256 62.3142 24.7873C63.1121 24.2022 63.5908 23.2447 63.5376 22.1809C63.5908 21.5426 63.378 20.9043 63.0057 20.4256C62.6866 20.0001 62.2078 19.6277 61.7291 19.415C61.0908 19.149 60.4525 18.883 59.8142 18.7235C59.2823 18.5639 58.8036 18.4043 58.3249 18.1915C58.0589 18.0852 57.8461 17.8192 57.8461 17.5001C57.8461 17.2341 57.9525 17.0213 58.2185 16.8618C58.4844 16.7022 58.8036 16.649 59.1227 16.649C59.6546 16.649 60.1866 16.7554 60.6653 16.915C61.3036 17.1277 61.8887 17.3937 62.4206 17.7128L63.4844 15.532C62.8461 15.1064 62.1546 14.7873 61.4632 14.6277C60.7185 14.415 59.9738 14.3086 59.2291 14.3086C58.1121 14.2554 57.0483 14.5745 56.144 15.2128C55.3461 15.7979 54.8674 16.7554 54.9206 17.766C54.9206 18.4043 55.0802 18.9894 55.4525 19.5213C55.7717 19.9469 56.1972 20.3192 56.7291 20.532C57.3142 20.7979 57.9525 21.0107 58.5908 21.1703C59.1227 21.3298 59.6015 21.5426 60.0802 21.8086C60.3461 21.9681 60.5589 22.2341 60.5589 22.5532C60.6121 22.766 60.4525 23.032 60.2397 23.1384ZM50.6653 40.1064C50.7185 40.8511 50.4525 41.5426 50.027 42.1277C49.6015 42.6596 48.9632 42.9256 48.2717 42.9256C47.6866 42.9788 47.1546 42.7128 46.7823 42.3405C46.41 41.8618 46.1972 41.2767 46.2504 40.6915V34.6277H43.1121V41.649C43.0589 42.766 43.4312 43.883 44.1759 44.7873C44.9206 45.5852 45.9844 45.9575 47.0483 45.9575C48.5908 46.0639 50.027 45.2128 50.6653 43.883V45.8511H53.7504V34.6277H50.6653V40.1064ZM66.6759 39.2554C66.7823 38.5639 67.0483 37.9788 67.527 37.5001C68.0057 37.0745 68.5908 36.8086 69.2291 36.8618C69.8674 36.8086 70.5057 37.0745 70.9312 37.5001C71.3568 37.9788 71.6227 38.6171 71.6227 39.2554H66.6759ZM69.1759 34.4681C68.1653 34.4681 67.1546 34.6809 66.2504 35.1596C65.3993 35.6384 64.7078 36.3298 64.2823 37.1809C63.3249 39.0426 63.3249 41.2767 64.2823 43.1384C64.7078 43.9894 65.3993 44.6809 66.2504 45.1596C67.1546 45.6384 68.2185 45.9043 69.2291 45.8511C70.1334 45.8511 71.0376 45.6915 71.8887 45.3192C72.6866 45.0001 73.3249 44.4681 73.91 43.883L72.261 42.1809C71.8887 42.5532 71.4632 42.8724 70.9844 43.0852C70.5057 43.2979 70.027 43.4043 69.4951 43.4043C68.8568 43.4043 68.2185 43.1915 67.6866 42.8192C67.1546 42.3937 66.8355 41.8086 66.6759 41.1703H74.4951C74.4951 41.0107 74.4951 40.7447 74.4951 40.4256C74.4951 38.5639 74.0163 37.1277 73.1121 36.1171C72.2078 35.1064 70.878 34.5745 69.1227 34.5745L69.1759 34.4681ZM59.3887 36.5958V34.6277H56.2504V45.7447H59.3887V40.3724C59.3355 39.5745 59.6546 38.7767 60.2397 38.2447C60.878 37.7128 61.6759 37.3937 62.527 37.4469C62.6866 37.4469 62.8461 37.4469 63.0057 37.4469V34.4681C62.261 34.4681 61.5163 34.6277 60.878 35.0001C60.2397 35.4256 59.761 35.9575 59.3887 36.5958ZM39.3887 43.1915C38.7504 43.1915 38.378 42.766 38.378 41.9149V37.3405H41.3568V35.1064H38.4312V32.0213H35.3461V35.1064H33.7504V37.2873H35.2397V42.4469C35.1866 43.4043 35.5057 44.3086 36.1972 45.0001C36.8887 45.5852 37.7397 45.9043 38.644 45.9043C39.1759 45.9043 39.6546 45.8511 40.1334 45.6915C40.6121 45.5852 41.0376 45.3724 41.4632 45.1064L40.8249 42.766C40.3993 43.032 39.9206 43.1915 39.3887 43.1915ZM10.2398 42.5532C9.65464 42.8724 8.96316 43.032 8.32486 43.032C7.52699 43.032 6.7823 42.8192 6.09082 42.3937C5.45252 41.9681 4.9206 41.4362 4.54826 40.7447C4.17592 40.0001 3.96316 39.2022 3.96316 38.4043C3.96316 37.6064 4.17592 36.8086 4.54826 36.1171C4.9206 35.4256 5.45252 34.8937 6.09082 34.4681C6.72911 34.0426 7.52699 33.883 8.27167 33.883C8.96316 33.883 9.65464 34.0958 10.2398 34.4149C10.878 34.7341 11.4632 35.2128 11.9419 35.7979L13.8036 33.4575C13.1121 32.7128 12.2078 32.0745 11.2504 31.7022C10.2929 31.2767 9.2823 31.0639 8.21847 31.0639C6.88869 31.0639 5.5589 31.383 4.38869 32.0213C3.27167 32.6596 2.31422 33.5639 1.67592 34.6809C0.984432 35.8511 0.665283 37.1277 0.665283 38.4575C0.665283 39.7873 0.984432 41.1171 1.62273 42.2873C2.26103 43.4043 3.16528 44.3618 4.2823 45.0001C5.45252 45.6384 6.72911 46.0107 8.0589 45.9575C9.12273 45.9575 10.1866 45.6915 11.144 45.266C12.1546 44.7873 13.0589 44.149 13.8036 43.3511L11.9419 41.2767C11.4632 41.8086 10.878 42.2341 10.2398 42.5532ZM22.9525 40.1064C23.0057 40.8511 22.7398 41.5426 22.3142 42.1277C21.8887 42.6596 21.2504 42.9256 20.5589 42.9256C19.9738 42.9788 19.4419 42.7128 19.0695 42.3405C18.6972 41.8618 18.4844 41.2767 18.5376 40.6915V34.6277H15.3993V41.649C15.3461 42.766 15.7185 43.883 16.4632 44.7873C17.2078 45.5852 18.2717 46.0107 19.3355 45.9575C20.878 46.0639 22.3142 45.2128 22.9525 43.883V45.8511H26.0376V34.6277H22.9525V40.1064ZM28.644 45.7447H31.7291V30.3724H28.644V45.7447ZM71.1972 23.1384C70.878 23.2979 70.5589 23.3511 70.1866 23.3511C69.5483 23.3511 68.8568 23.2447 68.2717 22.9788C67.5802 22.766 66.9951 22.3937 66.41 21.9681L65.3993 24.0958C66.0376 24.6277 66.7291 25.0001 67.527 25.266C68.378 25.532 69.2291 25.6915 70.0802 25.6915C71.1972 25.7447 72.3142 25.4256 73.2717 24.7873C74.0695 24.2022 74.5483 23.2447 74.4951 22.1809C74.5483 21.5426 74.3355 20.9043 73.9632 20.4256C73.644 20.0001 73.1653 19.6277 72.6866 19.415C72.0483 19.149 71.41 18.883 70.7717 18.7235C70.2398 18.5639 69.761 18.4043 69.2291 18.1915C68.9632 18.0852 68.7504 17.8192 68.7504 17.5001C68.7504 17.2341 68.8568 17.0213 69.0695 16.8618C69.3355 16.7022 69.6546 16.649 69.9738 16.649C70.5057 16.649 71.0376 16.7554 71.5163 16.915C72.1546 17.1277 72.7398 17.3937 73.2717 17.7128L74.3355 15.532C73.6972 15.1064 73.0057 14.7873 72.3142 14.6277C71.5695 14.415 70.8249 14.3086 70.0802 14.3086C68.9632 14.2554 67.8993 14.5745 66.9951 15.2128C66.1972 15.7979 65.7185 16.7554 65.7717 17.766C65.7185 18.4043 65.9312 18.9894 66.3036 19.5213C66.6227 19.9469 67.0483 20.3192 67.5802 20.532C68.1653 20.7979 68.8036 21.0107 69.4419 21.1703C69.9738 21.3298 70.4525 21.5426 70.9844 21.7554C71.2504 21.9149 71.4632 22.1809 71.4632 22.5001C71.5695 22.766 71.41 23.032 71.1972 23.1384ZM32.527 22.1809C31.9951 21.5426 31.7291 20.7447 31.7823 19.9469C31.7291 19.149 31.9951 18.3511 32.527 17.766C33.5376 16.7022 35.1866 16.649 36.3036 17.6064C36.3568 17.6596 36.41 17.7128 36.4632 17.766C36.9951 18.4043 37.261 19.149 37.2078 19.9469C37.261 20.7447 36.9419 21.5426 36.4632 22.1809C35.9844 22.766 35.2398 23.0852 34.4951 23.032C33.6972 23.0852 33.0057 22.766 32.527 22.1809ZM37.9525 25.0001C38.6972 24.5213 39.3355 23.8298 39.7078 23.032C40.1334 22.1277 40.3461 21.1171 40.3461 20.1064C40.3461 19.0958 40.1334 18.032 39.7078 17.1277C39.3355 16.2767 38.6972 15.5852 37.8993 15.1064C37.1015 14.6277 36.1972 14.3618 35.2397 14.4149C34.5483 14.4149 33.8568 14.5745 33.2717 14.8405C32.6866 15.1596 32.1546 15.5852 31.7823 16.1171V14.4149H28.644V29.5745H31.7291V23.9362C32.1015 24.4681 32.6334 24.9469 33.2185 25.2128C33.8568 25.532 34.5483 25.6915 35.2397 25.6384C36.1972 25.6915 37.1546 25.4788 37.9525 25.0001Z"
                fill="black"></path>
            <path
                d="M94.1227 42.1809C93.9099 42.1277 93.7503 42.1809 93.6439 42.3936L91.3567 48.1383C91.3035 48.3511 91.3567 48.5106 91.5695 48.617C91.6227 48.617 91.6758 48.617 91.729 48.617C91.8886 48.617 91.995 48.5106 92.0482 48.4043L94.3354 42.6596C94.3886 42.3936 94.2822 42.1809 94.1227 42.1809ZM98.9099 15.3191C98.6971 15.3191 98.5376 15.4787 98.5376 15.6915V23.2447C98.5376 23.4574 98.6971 23.617 98.9099 23.617C99.1227 23.617 99.2822 23.4574 99.2822 23.2447V15.6915C99.2822 15.4787 99.1227 15.3191 98.9099 15.3191ZM98.112 36.383C97.8993 36.383 97.7397 36.4894 97.6865 36.7021L96.0907 49.5745C96.0907 49.7872 96.1971 49.9468 96.4099 50H96.4631C96.6227 50 96.7822 49.8404 96.8354 49.6809L98.4844 36.8085C98.4844 36.5957 98.3248 36.4362 98.112 36.383ZM96.3567 36.383C96.1439 36.3298 95.9844 36.383 95.878 36.5957L94.3354 40.5319C94.2822 40.7447 94.3354 40.9043 94.5482 41.0106C94.6014 41.0106 94.6546 41.0106 94.7078 41.0106C94.8673 41.0106 94.9737 40.9043 95.0269 40.7979L96.5695 36.8617C96.6758 36.6489 96.5695 36.4362 96.3567 36.383ZM94.3354 36.2234C94.1758 36.117 93.9631 36.1702 93.8567 36.3298L89.9205 41.7553C89.8141 41.9149 89.8141 42.1277 89.9737 42.2872C90.0269 42.3404 90.1333 42.3404 90.1865 42.3404C90.2929 42.3404 90.3992 42.2872 90.5056 42.1809L94.4418 36.7553C94.5482 36.6489 94.5482 36.383 94.3354 36.2234C94.3354 36.2766 94.3354 36.2766 94.3354 36.2234ZM88.8567 43.2447L87.1014 45.6383C86.995 45.7979 86.995 46.0106 87.1546 46.1702C87.2078 46.2234 87.3141 46.2234 87.3673 46.2234C87.4737 46.2234 87.5801 46.1702 87.6865 46.0638L89.4418 43.6702C89.5482 43.5106 89.5482 43.2979 89.3886 43.1383C89.1758 43.0319 88.9631 43.0851 88.8567 43.2447C88.8035 43.2447 88.8035 43.2447 88.8567 43.2447ZM80.1333 24.2553L83.2184 25.266C83.2716 25.266 83.2716 25.266 83.3248 25.266C83.4844 25.266 83.6439 25.1596 83.6439 25C83.6971 24.7872 83.5907 24.6277 83.4312 24.5213L80.3461 23.5106C80.1333 23.4574 79.9737 23.5638 79.8673 23.7234C79.8673 23.9894 79.9737 24.2021 80.1333 24.2553ZM85.6652 29.5213C85.878 29.5213 85.9844 29.3085 85.9844 29.0957C85.9844 28.9362 85.8248 28.7766 85.6652 28.7766L79.2822 28.3511C79.0695 28.3511 78.9099 28.5106 78.9099 28.6702C78.9099 28.883 79.0695 29.0426 79.229 29.0426L85.6652 29.5213ZM83.5376 36.8085L81.0375 37.9787C80.878 38.0851 80.7716 38.2979 80.878 38.4574C80.9312 38.5638 81.0907 38.6702 81.1971 38.6702C81.2503 38.6702 81.3035 38.6702 81.3567 38.617L83.8567 37.4468C84.0163 37.3404 84.1227 37.1277 84.0163 36.9681C83.9099 36.8085 83.6971 36.7553 83.5376 36.8085ZM92.8461 35C92.7397 34.8404 92.4737 34.7872 92.3141 34.9468L84.7609 41.2234C84.6014 41.3298 84.5482 41.5957 84.7078 41.7553C84.761 41.8617 84.8673 41.9149 84.9737 41.8617C85.0801 41.8617 85.1333 41.8085 85.1865 41.7553L92.7929 35.5319C92.9524 35.4255 93.0056 35.1596 92.8461 35ZM103.112 39.5213C103.059 39.3085 102.846 39.2553 102.633 39.3085C102.421 39.3617 102.367 39.5745 102.421 39.7872L104.389 44.734C104.442 44.9468 104.655 45 104.867 44.9468C105.08 44.8936 105.133 44.6808 105.08 44.4681L103.112 39.5213ZM116.995 38.0851L114.442 36.8617C114.282 36.7553 114.069 36.8617 113.963 37.0213C113.857 37.1809 113.963 37.3936 114.123 37.5L116.729 38.7766C116.782 38.7766 116.835 38.8298 116.889 38.8298C117.101 38.8298 117.261 38.6702 117.261 38.4574C117.261 38.2979 117.155 38.1915 116.995 38.0851ZM107.261 40.8511C107.155 40.6915 106.942 40.6383 106.782 40.7447C106.782 40.7447 106.782 40.7447 106.729 40.7447C106.569 40.8511 106.516 41.0638 106.623 41.2234C106.623 41.2234 106.623 41.2234 106.623 41.2766L109.335 45.0532C109.389 45.1596 109.495 45.2128 109.655 45.2128C109.708 45.2128 109.814 45.2128 109.867 45.1596C110.027 45.0532 110.08 44.8404 109.974 44.6277L107.261 40.8511ZM98.9099 10C98.6971 10 98.5376 10.1596 98.5376 10.3723V13.1383C98.5376 13.3511 98.6971 13.5106 98.9099 13.5106C99.1227 13.5106 99.2822 13.3511 99.2822 13.1383V10.3723C99.2822 10.1596 99.1227 10 98.9099 10ZM117.314 33.1383L105.772 30.9574C105.559 30.9574 105.399 31.0638 105.346 31.2766C105.346 31.4362 105.452 31.5957 105.612 31.6489L117.155 33.8298H117.208C117.421 33.8298 117.58 33.6702 117.58 33.4574C117.633 33.2979 117.474 33.1383 117.314 33.1383ZM118.538 28.4043L111.25 28.883C111.038 28.883 110.931 29.0957 110.931 29.3085C110.931 29.4681 111.091 29.6277 111.25 29.6277H111.304L118.591 29.1489C118.804 29.1489 118.963 28.9362 118.91 28.7766C118.857 28.5106 118.697 28.3511 118.538 28.4043C118.484 28.4043 118.484 28.4043 118.538 28.4043ZM105.506 34.9468C105.346 34.7872 105.133 34.7872 105.027 34.9468C105.027 34.9468 105.027 35 104.974 35C104.814 35.1596 104.867 35.3723 104.974 35.5319L112.846 41.9681C112.899 42.0213 113.006 42.0745 113.059 42.0745C113.165 42.0745 113.272 42.0213 113.325 41.9681C113.484 41.8085 113.431 41.5957 113.272 41.4362L105.506 34.9468ZM100.772 44.5213C100.559 44.5213 100.452 44.734 100.452 44.9468L100.931 48.6702C100.931 48.8298 101.091 48.9894 101.304 48.9894C101.516 48.9894 101.623 48.7766 101.623 48.5638L101.144 44.8404C101.144 44.6277 100.931 44.4681 100.772 44.5213ZM100.665 43.5106C100.878 43.5106 100.984 43.2979 100.984 43.0851L100.186 36.7021C100.186 36.4894 100.027 36.3298 99.8141 36.3298C99.6014 36.3298 99.4418 36.4894 99.4418 36.7021C99.4418 36.7553 99.4418 36.7553 99.4418 36.8085L100.24 43.1915C100.24 43.3511 100.399 43.5106 100.665 43.5106ZM102.421 37.8191L101.942 36.6489C101.835 36.4894 101.623 36.383 101.463 36.4894C101.304 36.5426 101.197 36.7553 101.25 36.9149L101.729 38.1383C101.782 38.2979 101.942 38.3511 102.048 38.3511C102.101 38.3511 102.155 38.3511 102.155 38.3511C102.421 38.2979 102.474 38.0851 102.421 37.8191ZM105.772 46.3298C105.718 46.1702 105.506 46.0638 105.293 46.117C105.08 46.1702 105.027 46.383 105.08 46.5957L105.772 48.3511C105.825 48.5106 105.931 48.5638 106.091 48.5638C106.144 48.5638 106.197 48.5638 106.25 48.5638C106.41 48.5106 106.516 48.2979 106.463 48.0851L105.772 46.3298ZM83.2184 20.4255L89.0695 24.1489C89.1227 24.2021 89.1758 24.2021 89.2822 24.2021C89.495 24.2021 89.6546 24.0426 89.6546 23.8298C89.6546 23.7234 89.6014 23.5638 89.495 23.5106L83.6439 19.7872C83.4844 19.6809 83.2184 19.7872 83.1652 19.9468C83.0588 20.1596 83.112 20.3191 83.2184 20.4255ZM110.931 17.6064C111.038 17.6064 111.144 17.5532 111.197 17.5L113.112 15.4255C113.272 15.266 113.272 15.0532 113.112 14.8936C112.952 14.734 112.74 14.734 112.58 14.8936L110.612 16.9681C110.452 17.1277 110.452 17.3404 110.612 17.5C110.718 17.5532 110.825 17.6064 110.931 17.6064ZM103.484 36.2766C103.325 36.383 103.272 36.5957 103.378 36.7553C103.378 36.7553 103.378 36.7553 103.378 36.8085L105.346 39.4681C105.399 39.5745 105.506 39.6277 105.665 39.6277C105.718 39.6277 105.825 39.5745 105.878 39.5745C106.038 39.4681 106.091 39.2553 105.984 39.0957C105.984 39.0957 105.984 39.0957 105.984 39.0426L104.016 36.383C103.91 36.1702 103.644 36.117 103.484 36.2766ZM105.559 17.8723C105.612 17.9255 105.665 17.9255 105.718 17.9255C105.878 17.9255 105.984 17.8723 106.038 17.7128L108.644 12.9787C108.75 12.8191 108.697 12.6064 108.484 12.5C108.325 12.3936 108.112 12.4468 108.006 12.6064L105.399 17.3404C105.346 17.5532 105.399 17.766 105.559 17.8723ZM105.399 23.0851C105.24 22.9255 105.027 22.9255 104.867 23.0851L104.335 23.6702C104.176 23.8298 104.176 24.0426 104.335 24.2021C104.389 24.2553 104.495 24.3085 104.601 24.3085C104.708 24.3085 104.814 24.2553 104.867 24.2021L105.399 23.617C105.559 23.4574 105.559 23.1915 105.399 23.0851ZM106.038 22.3936C106.091 22.4468 106.197 22.5 106.304 22.5C106.41 22.5 106.516 22.4468 106.569 22.3936L109.974 18.7766C110.133 18.6702 110.133 18.4043 110.027 18.2447C109.921 18.0851 109.655 18.0851 109.495 18.1915L109.442 18.2447L106.038 21.8617C105.878 22.0213 105.878 22.2872 106.038 22.3936C106.038 22.4468 105.984 22.3936 106.038 22.3936ZM113.963 25.1064C114.016 25.266 114.176 25.3723 114.282 25.3723C114.335 25.3723 114.335 25.3723 114.389 25.3723L116.942 24.5213C117.155 24.4681 117.208 24.2553 117.155 24.0426C117.101 23.883 116.889 23.7766 116.729 23.8298L114.176 24.6809C114.016 24.734 113.91 24.9468 113.963 25.1064ZM92.3673 25.4255L90.7716 24.4149C90.612 24.3085 90.3993 24.3617 90.2929 24.5213C90.1865 24.6809 90.2397 24.8936 90.3993 25.0532L91.995 26.0638C92.0482 26.117 92.1014 26.117 92.2078 26.117C92.4205 26.117 92.5801 25.9574 92.5801 25.7447C92.5801 25.5851 92.4737 25.4787 92.3673 25.4255ZM102.474 23.5106C102.527 23.5638 102.58 23.5638 102.633 23.5638C102.793 23.5638 102.899 23.5106 102.952 23.3511L105.133 19.4149C105.24 19.2553 105.186 19.0426 105.027 18.9362C104.867 18.8298 104.655 18.883 104.548 19.0957L102.367 23.0319C102.261 23.1915 102.314 23.4574 102.474 23.5106ZM105.559 33.5106L112.527 36.8085C112.58 36.8085 112.633 36.8617 112.686 36.8617C112.846 36.8617 112.952 36.7553 113.006 36.6489C113.112 36.4894 113.006 36.2766 112.846 36.1702L105.878 32.8723C105.718 32.766 105.506 32.8723 105.399 33.0319C105.293 33.1915 105.399 33.4043 105.559 33.5106ZM105.665 29.2021C105.452 29.2021 105.346 29.4149 105.346 29.6277C105.346 29.7872 105.506 29.9468 105.665 29.9468L109.655 29.6809C109.867 29.6809 110.027 29.5213 109.974 29.3085C109.974 29.0957 109.761 28.9362 109.601 28.9362L105.665 29.2021ZM112.74 25.4787C112.686 25.266 112.474 25.1596 112.261 25.266L105.559 27.4468C105.346 27.5 105.24 27.7128 105.346 27.9255C105.399 28.0851 105.559 28.1915 105.665 28.1915H105.772L112.474 26.0106C112.686 25.9043 112.793 25.6915 112.74 25.4787ZM105.346 25.9043C105.399 26.0106 105.506 26.0638 105.665 26.0638C105.718 26.0638 105.825 26.0638 105.878 26.0106L115.133 20.1596C115.293 20.0532 115.399 19.8404 115.293 19.6809C115.186 19.5213 114.974 19.4149 114.814 19.5213L114.761 19.5745L105.452 25.4255C105.293 25.5319 105.24 25.7447 105.346 25.9043ZM87.3141 29.6277L92.1546 29.9468C92.3673 29.9468 92.4737 29.734 92.4737 29.5213C92.4737 29.3617 92.3141 29.2021 92.1546 29.2021L87.3141 28.883C87.1014 28.883 86.9418 29.0426 86.9418 29.2021C86.9418 29.4681 87.0482 29.6277 87.3141 29.6277ZM92.5269 31.2234C92.4737 31.0106 92.3141 30.9043 92.1014 30.9574L81.0907 33.0319C80.878 33.0851 80.7716 33.2979 80.8248 33.4574C80.878 33.617 80.9844 33.7234 81.1439 33.7234H81.1971L92.2078 31.6489C92.4205 31.5957 92.5269 31.4362 92.5269 31.2234ZM89.0163 34.3085L85.0269 36.117C84.8673 36.2234 84.761 36.4362 84.8673 36.5957C84.9205 36.7021 85.0801 36.8085 85.1865 36.8085C85.2397 36.8085 85.2929 36.8085 85.3461 36.7553L89.2822 34.8936C89.4418 34.7872 89.5482 34.5745 89.4418 34.4149C89.3886 34.2553 89.1758 34.1489 89.0163 34.3085ZM92.2078 28.1915C92.3673 28.1915 92.5269 28.0851 92.5269 27.9255C92.5801 27.7128 92.4737 27.5 92.3141 27.4468L85.1865 25.1064C84.9737 25.0532 84.761 25.1064 84.7078 25.3191C84.6546 25.5319 84.7078 25.7447 84.9205 25.7979C84.9205 25.7979 84.9205 25.7979 84.9737 25.7979L92.1014 28.0851L92.2078 28.1915ZM90.6652 34.3085C90.7184 34.3085 90.7716 34.3085 90.8248 34.2553L92.3673 33.5106C92.5269 33.4043 92.6333 33.1915 92.5269 33.0319C92.4205 32.8723 92.2078 32.766 92.0482 32.8723L90.5056 33.617C90.3461 33.7234 90.2397 33.9362 90.3461 34.0957C90.3992 34.2021 90.5056 34.3085 90.6652 34.3085ZM100.612 23.617H100.718C100.878 23.617 101.038 23.5106 101.091 23.3511L103.857 12.5532C103.91 12.3404 103.804 12.1809 103.591 12.1277C103.378 12.0745 103.218 12.1809 103.165 12.3936L100.399 23.1915C100.293 23.3511 100.399 23.5106 100.612 23.617ZM93.0056 24.2021C93.0588 24.2553 93.1652 24.3085 93.2716 24.3085C93.378 24.3085 93.4312 24.2553 93.5375 24.2021C93.6971 24.0426 93.6971 23.8298 93.5375 23.6702L86.8354 16.5957C86.6758 16.4362 86.4631 16.4362 86.3035 16.5957C86.1439 16.7553 86.1439 16.9681 86.3035 17.1277L93.0056 24.2021ZM94.3354 21.5957C94.1758 21.7021 94.0695 21.9149 94.1758 22.0745L94.9205 23.4043C95.0269 23.5638 95.2397 23.617 95.3992 23.5638C95.5588 23.4574 95.612 23.2447 95.5588 23.0851L94.8141 21.7553C94.7078 21.5426 94.495 21.4894 94.3354 21.5957ZM96.8886 23.3511C96.9418 23.5106 97.0482 23.617 97.2609 23.617H97.3673C97.5801 23.5638 97.6865 23.3511 97.6333 23.1915L94.6014 11.6489C94.5482 11.4362 94.3354 11.3298 94.1758 11.383C93.9631 11.4362 93.8567 11.6489 93.8567 11.8085L96.8886 23.3511ZM89.9737 14.5213C90.0269 14.6277 90.1333 14.734 90.2929 14.734C90.3461 14.734 90.3993 14.734 90.4524 14.6809C90.612 14.5745 90.7184 14.3617 90.612 14.2021L89.5482 12.2872C89.4418 12.1277 89.229 12.0745 89.0695 12.1277C88.9099 12.234 88.8035 12.4468 88.9099 12.6064L89.9737 14.5213ZM93.2716 20.5319C93.3248 20.6383 93.4844 20.6915 93.5907 20.7447C93.6439 20.7447 93.6971 20.7447 93.7503 20.6915C93.9099 20.5851 94.0163 20.3723 93.9099 20.2128L91.3567 15.5319C91.2503 15.3723 91.0375 15.266 90.878 15.3723C90.7184 15.4787 90.612 15.6915 90.7184 15.8511L93.2716 20.5319Z"
                fill="black"></path>
        </svg>