<svg width="157" height="60"
            viewBox="0 0 157 60" fill="none" xmlns="http://www.w3.org/2000/svg">
            <path fill-rule="evenodd" clip-rule="evenodd"
                d="M36.4744 26.13C38.3344 34.1 33.2644 42.08 25.1744 43.92C24.0444 44.18 22.9044 44.3 21.7944 44.3C14.9344 44.3 8.72443 39.65 7.11443 32.79C5.25443 24.82 10.3244 16.84 18.4144 15L19.1844 18.27C12.9244 19.69 9.00443 25.86 10.4444 32.03C11.8844 38.2 18.1544 42.06 24.4144 40.64C30.6744 39.22 34.5944 33.05 33.1544 26.88L36.4744 26.13ZM17.6344 23.71C19.1844 22.63 21.0644 22.2 22.9444 22.51C24.8144 22.82 26.4544 23.83 27.5644 25.36C28.6644 26.89 29.0944 28.75 28.7844 30.59C28.4644 32.44 27.4444 34.05 25.8944 35.14C22.6944 37.38 18.2444 36.64 15.9644 33.49C15.4644 32.8 15.0944 32.03 14.8844 31.21L11.5844 32.06C11.9044 33.27 12.4444 34.4 13.1844 35.43C15.2344 38.27 18.4844 39.79 21.7744 39.79C23.8844 39.79 26.0144 39.17 27.8644 37.87C30.1544 36.27 31.6744 33.88 32.1444 31.14C32.6144 28.41 31.9744 25.66 30.3444 23.4C28.7144 21.14 26.2944 19.65 23.5144 19.18C20.7444 18.72 17.9544 19.35 15.6644 20.96L17.6444 23.7L17.6344 23.71ZM22.2344 26.99C22.1144 26.97 21.9844 26.96 21.8544 26.96C20.4544 26.96 19.3044 28.09 19.3044 29.47C19.3044 30.28 19.7044 31.01 20.3144 31.47L18.9644 34.61C17.1344 33.6 15.8944 31.68 15.8944 29.48C15.8944 26.24 18.5644 23.61 21.8544 23.61C22.4544 23.61 23.0344 23.7 23.5844 23.86L22.2344 27V26.99ZM63.3544 28.47C64.2844 25.35 67.2044 23.08 70.6744 23.08C74.8844 23.08 78.3044 26.44 78.3044 30.6C78.3044 34.76 74.8844 38.12 70.6744 38.12C67.9744 38.12 65.5944 36.73 64.2444 34.64C63.3544 36.8 61.4144 38.14 58.7344 38.14C56.0544 38.14 53.5144 36.23 53.0144 33.62C52.7744 32.35 52.8844 31.25 53.0844 30.2C53.2244 29.48 53.5044 28.65 54.3244 27.2C54.7344 26.47 55.4644 25.55 56.4744 24.77C58.1944 23.44 59.7044 23.08 59.7044 23.08H61.5244L61.6044 23.2C61.6044 23.2 60.6144 23.91 59.6444 24.93C58.6844 25.95 58.1644 26.89 58.1644 26.89C60.5344 26.35 62.3644 27.38 63.3644 28.47H63.3544ZM55.9844 32.28C55.9844 33.85 57.1744 34.98 58.8044 34.98C60.4344 34.98 61.6244 33.85 61.6244 32.28C61.6244 30.71 60.4444 29.58 58.8044 29.58C57.1644 29.58 55.9844 30.71 55.9844 32.28ZM65.9944 30.6C65.9944 33.15 68.0944 35.22 70.6744 35.22C73.2544 35.22 75.3544 33.15 75.3544 30.6C75.3544 28.05 73.2544 25.98 70.6744 25.98C68.0944 25.98 65.9944 28.05 65.9944 30.6ZM41.7144 23.08H52.2644L52.3444 23.2L48.9644 27.56C50.4444 27.92 51.5544 28.72 52.1744 29.91C51.7344 31.34 51.7244 33.21 52.3044 34.8C51.4544 36.86 49.4544 38.13 46.9844 38.13C43.7144 38.13 41.2144 35.69 41.3144 32.56H44.3644C44.4044 34.06 45.5044 35.06 46.9644 35.06C48.5644 35.06 49.5444 33.85 49.5444 32.54C49.5444 31.09 48.3144 29.86 46.4144 29.86H43.7544L43.6744 29.74L46.7444 25.8H41.7144V23.08ZM79.9244 23.18H82.5144V37.86H79.9244V23.18ZM91.7444 27.72C90.9644 27.25 90.0144 27.01 88.8944 27.01C87.8944 27.01 86.9844 27.25 86.1744 27.73C85.3644 28.21 84.7244 28.86 84.2544 29.69C83.7844 30.51 83.5544 31.46 83.5544 32.53C83.5544 33.6 83.7844 34.49 84.2444 35.34C84.7044 36.19 85.3544 36.85 86.1844 37.35C87.0144 37.84 87.9844 38.09 89.0944 38.09C90.2044 38.09 91.1444 37.85 91.9744 37.36C92.7944 36.87 93.3744 36.25 93.7044 35.5L91.6044 34.49C91.3644 34.89 91.0444 35.22 90.6244 35.47C90.2144 35.72 89.7044 35.85 89.1144 35.85C88.3344 35.85 87.6844 35.62 87.1544 35.15C86.6244 34.68 86.3244 34.06 86.2444 33.28H93.9944C94.0444 33.14 94.0844 32.97 94.1044 32.78C94.1244 32.59 94.1344 32.4 94.1344 32.21C94.1344 31.26 93.9344 30.4 93.5244 29.62C93.1144 28.84 92.5244 28.22 91.7444 27.74V27.72ZM86.3144 31.31C86.4544 30.61 86.7644 30.07 87.2344 29.68C87.7044 29.3 88.2544 29.11 88.9044 29.11C89.5944 29.11 90.1644 29.31 90.6144 29.72C91.0644 30.13 91.3244 30.66 91.3744 31.31H86.3144ZM100.354 27.01C101.754 27.01 102.914 27.47 103.814 28.39V27.24H106.114V37.87H103.814V36.71C102.914 37.63 101.754 38.1 100.354 38.1C98.8144 38.1 97.4944 37.55 96.4244 36.48C95.3744 35.4 94.8344 34.07 94.8344 32.55C94.8344 31.03 95.3744 29.71 96.4444 28.64C97.5144 27.56 98.8344 27.02 100.354 27.02V27.01ZM102.794 34.92C103.454 34.31 103.794 33.55 103.814 32.66V32.45C103.794 31.56 103.454 30.8 102.794 30.19C102.124 29.56 101.394 29.26 100.454 29.26C99.5144 29.26 98.7444 29.58 98.0744 30.23C97.4144 30.88 97.0944 31.63 97.0944 32.55C97.0944 33.47 97.4144 34.24 98.0744 34.89C98.7344 35.54 99.5544 35.86 100.454 35.86C101.354 35.86 102.124 35.56 102.794 34.93V34.92ZM111.004 27.47C110.504 27.7 110.114 28.13 109.834 28.74V27.24H107.404V37.87H109.994V31.94C109.994 31.13 110.224 30.51 110.674 30.06C111.124 29.61 111.724 29.39 112.444 29.39H113.374V27.13H112.744C112.084 27.13 111.504 27.25 111.004 27.48V27.47ZM119.584 27.01C120.374 27.01 121.074 27.18 121.694 27.52C122.304 27.86 122.784 28.33 123.124 28.94C123.464 29.55 123.634 30.24 123.634 31.03V37.88H121.044V31.64C121.044 30.94 120.844 30.38 120.444 29.97C120.044 29.56 119.524 29.36 118.874 29.36C118.224 29.36 117.704 29.57 117.304 29.98C116.904 30.4 116.704 30.95 116.704 31.64V37.88H114.114V27.25H116.544V28.55C116.834 28.04 117.244 27.66 117.784 27.4C118.324 27.14 118.924 27.01 119.594 27.01H119.584ZM126.214 23.53C125.504 23.53 124.904 24.13 124.904 24.84C124.904 25.49 125.554 26.13 126.214 26.13C126.934 26.13 127.544 25.54 127.544 24.84C127.544 24.11 126.964 23.53 126.214 23.53ZM125.084 27.24H127.384V37.87H125.084V27.24ZM136.614 27.51C136.004 27.17 135.294 27 134.504 27C133.834 27 133.234 27.13 132.694 27.39C132.154 27.65 131.744 28.03 131.454 28.54V27.24H129.024V37.87H131.614V31.63C131.614 30.94 131.814 30.39 132.214 29.97C132.614 29.55 133.144 29.35 133.784 29.35C134.424 29.35 134.954 29.55 135.354 29.96C135.754 30.37 135.954 30.92 135.954 31.63V37.87H138.544V31.02C138.544 30.23 138.374 29.53 138.034 28.93C137.694 28.32 137.214 27.86 136.604 27.52L136.614 27.51ZM147.834 28.47V27.24H150.294V37.31C150.294 38.23 150.074 39.06 149.624 39.79C149.174 40.52 148.554 41.09 147.764 41.51C146.974 41.93 146.064 42.13 145.034 42.13C143.824 42.13 142.754 41.85 141.844 41.28C140.934 40.71 140.304 39.96 139.954 39.03L142.364 38.13C142.524 38.62 142.834 39.02 143.304 39.33C143.774 39.63 144.354 39.79 145.034 39.79C145.814 39.79 146.454 39.57 146.954 39.14C147.454 38.71 147.704 38.1 147.704 37.32V36.17C146.934 37 145.904 37.42 144.594 37.42C143.594 37.42 142.694 37.19 141.904 36.74C141.114 36.29 140.494 35.66 140.044 34.87C139.594 34.08 139.374 33.2 139.374 32.2C139.374 31.2 139.594 30.31 140.044 29.53C140.494 28.75 141.104 28.13 141.884 27.69C142.664 27.24 143.544 27.02 144.534 27.02C145.914 27.02 147.014 27.51 147.834 28.48V28.47ZM144.904 35.05C145.724 35.05 146.394 34.78 146.914 34.25C147.434 33.72 147.694 33.04 147.694 32.21C147.694 31.38 147.434 30.69 146.914 30.15C146.394 29.61 145.724 29.34 144.904 29.34C144.364 29.34 143.874 29.46 143.444 29.71C143.004 29.96 142.674 30.3 142.424 30.73C142.174 31.16 142.054 31.66 142.054 32.2C142.054 33.02 142.314 33.7 142.854 34.24C143.384 34.78 144.084 35.05 144.904 35.05Z"
                fill="black"></path>
        </svg>