<svg width="157" height="60"
            viewBox="0 0 157 60" fill="none" xmlns="http://www.w3.org/2000/svg">
            <path
                d="M87.8835 24.0665H82.7335C82.2935 24.0665 81.9435 24.4165 81.9435 24.8565V26.7665C80.6935 24.8865 78.4235 23.6365 75.7535 23.6365C69.8035 23.6365 66.0035 28.2965 66.0035 34.1665C66.0035 40.0365 69.9635 44.7765 75.7935 44.7765C78.6535 44.7765 80.6535 43.5565 81.9435 41.5665V43.5465C81.9435 43.9865 82.2935 44.3365 82.7335 44.3365H87.8835C88.3235 44.3365 88.6735 43.9865 88.6735 43.5465V24.8565C88.6735 24.4165 88.3235 24.0665 87.8835 24.0665ZM77.3935 39.5065C74.5335 39.5065 72.7735 37.1565 72.7735 34.1765C72.7735 31.1965 74.4535 28.9665 77.3235 28.9665C80.1935 28.9665 82.1035 31.1165 82.1035 34.3665C82.1035 37.5765 80.0635 39.4965 77.4035 39.4965L77.3935 39.5065ZM123.863 24.0665H118.713C118.273 24.0665 117.923 24.4165 117.923 24.8565V26.7665C116.673 24.8865 114.403 23.6365 111.733 23.6365C105.783 23.6365 101.983 28.2965 101.983 34.1665C101.983 40.0365 105.943 44.7765 111.773 44.7765C114.633 44.7765 116.633 43.5565 117.923 41.5665V43.5465C117.923 43.9865 118.273 44.3365 118.713 44.3365H123.863C124.303 44.3365 124.653 43.9865 124.653 43.5465V24.8565C124.653 24.4165 124.303 24.0665 123.863 24.0665ZM113.373 39.5065C110.513 39.5065 108.753 37.1565 108.753 34.1765C108.753 31.1965 110.433 28.9665 113.303 28.9665C116.173 28.9665 118.083 31.1165 118.083 34.3665C118.083 37.6165 116.053 39.4965 113.383 39.4965L113.373 39.5065ZM100.553 39.4665H99.4935C98.6535 39.4365 98.2735 38.7965 98.2735 37.9265V37.5265V17.2165C98.2735 16.7765 97.9235 16.4265 97.4835 16.4265H92.4835C92.0435 16.4265 91.6935 16.7765 91.6935 17.2165V37.5665C91.6935 43.3865 95.4335 44.7465 98.9435 44.7465C99.4235 44.7465 99.8935 44.7165 100.633 44.6565C101.043 44.6265 101.363 44.2765 101.363 43.8665V40.2565C101.363 39.8165 101.013 39.4665 100.573 39.4665H100.563H100.553ZM140.423 23.6365C137.843 23.6365 135.843 24.5765 134.393 26.7265V24.8565C134.393 24.4165 134.043 24.0665 133.603 24.0665H128.453C128.013 24.0665 127.663 24.4165 127.663 24.8565V43.5565C127.663 43.9965 128.013 44.3465 128.453 44.3465H133.603C134.043 44.3465 134.393 43.9965 134.393 43.5565V33.3865C134.393 31.0765 135.213 29.0365 137.643 29.0365C140.073 29.0365 140.853 31.4265 140.853 33.3865V43.5565C140.853 43.9965 141.203 44.3465 141.643 44.3465H146.793C147.233 44.3465 147.583 43.9965 147.583 43.5565V32.9965C147.603 28.5665 146.343 23.6365 140.433 23.6365H140.423ZM44.5435 36.5465C42.8235 35.7765 40.5235 37.0865 38.5735 37.4065C36.3135 37.8265 33.9935 37.8265 31.7235 37.4065C29.7735 37.0865 27.4735 35.7765 25.7535 36.5465C24.8835 36.9465 24.6135 37.8965 24.9635 39.0465C25.2235 39.8365 25.6735 40.5565 26.2735 41.1365C27.5135 42.3065 28.9635 43.2365 30.5535 43.8565C33.4835 45.0965 36.7935 45.0965 39.7335 43.8565C41.3235 43.2365 42.7735 42.3065 44.0135 41.1365C44.6135 40.5665 45.0735 39.8465 45.3335 39.0565C45.6835 37.9065 45.4235 36.9365 44.5435 36.5465ZM61.2435 21.9565V21.8665C61.2435 21.7765 61.2335 21.6965 61.2235 21.6065V21.5865C61.2235 21.4865 61.2035 21.3865 61.1935 21.3065V21.2765C61.1835 21.1865 61.1635 21.1065 61.1535 21.0265V20.9965C61.1335 20.9065 61.1135 20.8265 61.0935 20.7365C60.5435 18.4065 58.7435 16.5365 56.3435 16.0965C53.1035 15.5065 50.0135 17.7565 49.4335 21.1365C49.4235 21.2165 49.4135 21.2965 49.4035 21.3665C49.2035 23.2065 50.4135 24.9165 52.1735 25.2465C52.8135 25.3665 53.4735 25.2865 54.0635 25.0265C54.5535 24.8165 55.1235 24.9165 55.5035 25.2865C55.9735 25.7465 56.5735 26.0565 57.2235 26.1765C59.0735 26.5165 60.8335 25.2365 61.1635 23.3065C61.2135 23.0165 61.2435 22.7165 61.2535 22.4265V22.1665C61.2535 22.0965 61.2535 22.0365 61.2535 21.9565H61.2435ZM35.1535 16.9065C28.6235 16.9065 24.5635 19.2065 24.5635 22.9165C24.5635 27.2365 28.7235 33.1365 35.1535 33.1365C41.5835 33.1365 45.7435 27.1765 45.7435 22.9165C45.7435 19.1565 41.7835 16.9065 35.1535 16.9065ZM20.8835 21.1365C20.3135 17.7565 17.2135 15.4965 13.9735 16.0965C11.5835 16.5365 9.78349 18.4165 9.23349 20.7265C9.21349 20.8265 9.19349 20.9065 9.17349 20.9965V21.0265C9.15349 21.1165 9.14349 21.1965 9.13349 21.2765V21.3065C9.12349 21.3965 9.10349 21.4965 9.09349 21.5865V21.6065C9.09349 21.6965 9.08349 21.7765 9.07349 21.8665V22.4065C9.07349 22.7065 9.11349 22.9965 9.16349 23.2865C9.49349 25.2165 11.2535 26.4965 13.1035 26.1565C13.7535 26.0365 14.3435 25.7265 14.8235 25.2665C15.2035 24.8965 15.7735 24.7965 16.2635 25.0065C16.8535 25.2665 17.5135 25.3365 18.1535 25.2265C19.9335 24.8965 21.1235 23.1965 20.9335 21.3465C20.9135 21.2765 20.8935 21.1965 20.8835 21.1265V21.1365Z"
                fill="black"></path>
        </svg>