<svg width="150" height="60"
            viewBox="0 0 150 60" fill="none" xmlns="http://www.w3.org/2000/svg">
            <path
                d="M9.93128 39.0191C8.02248 39.0191 6.37349 38.5896 4.9843 37.7306C3.59511 36.8716 2.52936 35.6045 1.78705 33.929C1.04474 32.2535 0.673584 30.1644 0.673584 27.6617C0.673584 25.1803 1.04474 23.0753 1.78705 21.3467C2.52936 19.6182 3.59511 18.3033 4.9843 17.4019C6.37349 16.5005 8.02248 16.0498 9.93128 16.0498C11.8401 16.0498 13.4413 16.474 14.7351 17.3223C16.0288 18.1707 17.0468 19.4114 17.7892 21.0445L14.9578 22.6352C14.5548 21.5535 13.9451 20.6893 13.1285 20.0424C12.312 19.3955 11.2462 19.0721 9.93128 19.0721C8.17094 19.0721 6.79236 19.6871 5.79554 20.9173C4.79873 22.1474 4.30031 23.8123 4.30031 25.912V29.316C4.30031 31.4157 4.79873 33.0541 5.79554 34.2311C6.79236 35.4082 8.17094 35.9969 9.93128 35.9969C11.2674 35.9969 12.3703 35.6469 13.2398 34.947C14.1095 34.2471 14.7563 33.3351 15.1805 32.211L17.9165 33.8654C17.1741 35.456 16.1348 36.7126 14.7987 37.6352C13.4626 38.5577 11.8401 39.0191 9.93128 39.0191Z"
                fill="black"></path>
            <path
                d="M21.6677 45V42.2959H24.4355L25.4535 39.3372L19.409 22.1262H22.6857L26.1216 32.1792L27.0441 35.5514H27.2032L28.2212 32.1792L31.6889 22.1262H34.8066L27.7759 42.0414C27.5214 42.7597 27.2297 43.3404 26.901 43.7751C26.5722 44.21 26.1427 44.5227 25.6126 44.7136C25.0824 44.9045 24.3825 45 23.5129 45H21.6677Z"
                fill="black"></path>
            <path
                d="M45.8783 39.0189C44.7754 39.0189 43.821 38.7485 43.015 38.2076C42.2091 37.6669 41.6046 36.9086 41.2016 35.933H41.0426V38.6371H37.7976V15.0952H41.0426V24.8301H41.2016C41.5622 23.8333 42.1561 23.0698 42.9832 22.5396C43.8104 22.0093 44.7754 21.7442 45.8783 21.7442C47.278 21.7442 48.4658 22.0889 49.4414 22.7782C50.417 23.4674 51.1699 24.4537 51.7001 25.7368C52.2303 27.02 52.4954 28.5629 52.4954 30.3656C52.4954 32.1684 52.2303 33.7166 51.7001 35.0104C51.1699 36.3041 50.417 37.2956 49.4414 37.985C48.4658 38.6742 47.278 39.0189 45.8783 39.0189ZM44.892 36.2194C46.1646 36.2194 47.172 35.811 47.9142 34.9945C48.6566 34.178 49.0278 33.1122 49.0278 31.7972V28.9659C49.0278 27.6297 48.6566 26.5586 47.9142 25.7527C47.172 24.9468 46.1646 24.5438 44.892 24.5438C44.1921 24.5438 43.5506 24.6657 42.9674 24.9096C42.3841 25.1535 41.9175 25.4929 41.5675 25.9277C41.2176 26.3625 41.0426 26.8768 41.0426 27.4706V33.1652C41.0426 33.8015 41.2176 34.3476 41.5675 34.8036C41.9175 35.2596 42.3841 35.6095 42.9674 35.8535C43.5506 36.0974 44.1921 36.2194 44.892 36.2194Z"
                fill="black"></path>
            <path
                d="M62.9621 39.0191C61.4139 39.0191 60.0724 38.6639 58.9376 37.9534C57.803 37.2429 56.9229 36.2407 56.2971 34.947C55.6715 33.6532 55.3586 32.1261 55.3586 30.3659C55.3586 28.6267 55.6663 27.1102 56.2813 25.8165C56.8964 24.5228 57.7659 23.5206 58.89 22.8101C60.014 22.0996 61.3503 21.7444 62.8985 21.7444C64.4891 21.7444 65.8253 22.1049 66.9069 22.826C67.9886 23.5472 68.8104 24.5281 69.3725 25.7688C69.9345 27.0095 70.2155 28.3934 70.2155 29.9205V31.193H58.7628V31.7974C58.7628 33.1124 59.1498 34.194 59.9239 35.0424C60.698 35.8907 61.8063 36.3149 63.2484 36.3149C64.2664 36.3149 65.136 36.0816 65.8571 35.615C66.5783 35.1485 67.172 34.5227 67.6386 33.738L69.6111 35.5832C69.0173 36.6012 68.1476 37.4284 67.0024 38.0646C65.8571 38.7009 64.5104 39.0191 62.9621 39.0191ZM58.7628 28.9979H66.7796V28.6797C66.7796 27.8101 66.6259 27.0466 66.3184 26.3891C66.0109 25.7317 65.5655 25.2227 64.9823 24.8621C64.399 24.5016 63.715 24.3213 62.9303 24.3213C62.1031 24.3213 61.3768 24.5122 60.751 24.8939C60.1254 25.2757 59.6376 25.8006 59.2876 26.4687C58.9376 27.1367 58.7628 27.9056 58.7628 28.7751V28.9979Z"
                fill="black"></path>
            <path
                d="M74.1306 38.6374V22.1262H77.3757V25.3393H77.5347C77.7044 24.7879 77.9801 24.2683 78.3619 23.7805C78.7437 23.2927 79.2473 22.895 79.873 22.5875C80.4987 22.2799 81.2463 22.1262 82.1158 22.1262H83.0703V25.2757H81.6704C80.7585 25.2757 79.9844 25.387 79.348 25.6097C78.7118 25.8324 78.224 26.1347 77.8847 26.5164C77.5453 26.8982 77.3757 27.3754 77.3757 27.948V38.6374H74.1306Z"
                fill="black"></path>
            <path
                d="M89.528 38.6371C88.4224 38.6371 87.5927 38.3402 87.0307 37.7464C86.4685 37.1525 86.1875 36.3571 86.1875 35.3604V15.0952H89.4325V35.933H91.7549V38.6371H89.528Z"
                fill="black"></path>
            <path
                d="M96.7793 18.9767C96.1007 18.9767 95.6075 18.8123 95.3 18.4836C94.9924 18.1548 94.8387 17.7359 94.8387 17.2269V16.7179C94.8387 16.2089 94.9924 15.7953 95.3 15.4772C95.6075 15.1591 96.1007 15 96.7793 15C97.458 15 97.9512 15.1591 98.2587 15.4772C98.5662 15.7953 98.7199 16.2089 98.7199 16.7179V17.2269C98.7199 17.7359 98.5662 18.1548 98.2587 18.4836C97.9512 18.8123 97.458 18.9767 96.7793 18.9767ZM95.1568 38.6374V22.1262H98.4018V38.6374H95.1568Z"
                fill="black"></path>
            <path
                d="M104.35 38.6371V24.8301H101.774V22.126H104.35V19.2628C104.35 17.969 104.69 16.951 105.368 16.2087C106.047 15.4664 107.065 15.0952 108.423 15.0952H111.095V17.7994H107.627V22.126H111.095V24.8301H107.627V38.6371H104.35Z"
                fill="black"></path>
            <path
                d="M118.54 38.6374C117.415 38.6374 116.556 38.3299 115.963 37.7147C115.369 37.0997 115.072 36.262 115.072 35.2015V24.8304H112.495V22.1262H113.895C114.489 22.1262 114.892 21.999 115.104 21.7445C115.316 21.49 115.422 21.087 115.422 20.5356V17.5769H118.349V22.1262H121.848V24.8304H118.349V35.9332H121.594V38.6374H118.54Z"
                fill="black"></path>
            <path
                d="M148.116 15H124.772C124.04 15 123.738 15.9212 124.333 16.3401L132.496 22.0869C132.872 22.3517 133.069 22.798 133.009 23.2483L132.347 28.192C132.26 28.855 133.042 29.2836 133.571 28.8617L148.75 16.7506C149.484 16.1651 149.061 15 148.116 15Z"
                fill="black"></path>
        </svg>