<svg width="160" height="60"
            viewBox="0 0 160 60" fill="none" xmlns="http://www.w3.org/2000/svg">
            <path
                d="M106.121 23.3814C108.435 23.3726 110.675 23.7782 112.859 24.5455C113.391 24.7336 113.509 24.9659 113.232 25.4656C112.921 26.03 112.644 26.6179 112.394 27.2118C112.209 27.6556 111.971 27.7409 111.516 27.5763C109.42 26.8031 107.253 26.4915 105.019 26.6767C104.363 26.7326 103.749 26.906 103.182 27.2294C102.694 27.5087 102.45 27.9378 102.503 28.5081C102.555 29.0755 102.967 29.2607 103.443 29.4018C104.534 29.7281 105.607 29.4194 106.683 29.3224C108.391 29.1666 110.09 28.9138 111.792 29.3724C113.367 29.7957 114.535 30.6776 114.934 32.315C115.384 34.1611 114.858 35.7602 113.45 37.0272C112.068 38.2678 110.348 38.7675 108.561 38.9615C105.516 39.2966 102.526 38.9615 99.6335 37.9062C98.3831 37.4496 98.047 36.6382 98.6252 35.4722C99.3072 34.0905 99.2895 34.1376 100.709 34.7078C103.455 35.8132 106.289 36.1718 109.208 35.5074C109.622 35.4134 110.007 35.2311 110.357 34.9842C110.81 34.6638 110.936 34.211 110.863 33.6907C110.795 33.2116 110.466 32.947 110.037 32.8265C109.273 32.6089 108.494 32.6912 107.717 32.7706C106.301 32.9147 104.895 33.1763 103.461 33.094C102.52 33.0411 101.6 32.8735 100.736 32.5002C98.0372 31.3361 97.4552 27.6997 99.6041 25.5656C101.08 24.1016 102.926 23.5578 104.922 23.3814C105.319 23.3461 105.724 23.3755 106.124 23.3755L106.121 23.3814Z"
                fill="black"></path>
            <path
                d="M96.638 28.176C96.638 31.4507 96.6203 34.7255 96.6527 38.0002C96.6586 38.6764 96.4586 38.9204 95.7825 38.8733L93.7777 38.8645C93.035 38.8645 92.6626 38.5019 92.6606 37.7768C92.6606 34.3463 92.6606 30.9157 92.6606 27.4851C92.6606 24.4338 92.6753 21.3824 92.6489 18.3311C92.643 17.7079 92.8047 17.4404 93.472 17.4845H95.8766C96.5233 17.4404 96.6527 17.7049 96.6497 18.2899C96.6262 21.5853 96.638 24.8836 96.638 28.1789V28.176Z"
                fill="black"></path>
            <path
                d="M116.331 31.1803C116.331 28.905 116.345 26.6326 116.322 24.3574C116.316 23.8165 116.469 23.5989 117.036 23.6283H119.444C120.108 23.5813 120.287 23.8547 120.284 24.472C120.267 27.1265 120.279 29.7781 120.279 32.4326C120.279 34.2845 120.264 36.1336 120.284 37.9856C120.29 38.6235 120.099 38.9262 119.4 38.8763L117.06 38.8704C116.516 38.891 116.319 38.6969 116.325 38.1384C116.348 35.819 116.334 33.4997 116.334 31.1803H116.331Z"
                fill="black"></path>
            <path
                d="M118.48 17.5785C118.721 17.6079 118.97 17.6138 119.203 17.6755C120.208 17.946 120.867 18.7632 120.843 19.6804C120.819 20.5858 120.123 21.3589 119.103 21.6088C117.424 22.0203 115.86 21.1561 115.793 19.7833C115.725 18.3752 116.872 17.4374 118.48 17.5815V17.5785Z"
                fill="black"></path>
            <path
                d="M26.2893 25.2686C24.4462 17.9578 17.5174 13.66 10.1889 15.3767C6.27035 16.2939 3.36598 18.628 1.47285 22.1967C1.20535 22.7023 1.12304 23.2256 1.49049 23.7048C1.86089 24.1898 2.36063 24.1633 2.9368 24.0722C4.77113 23.7812 6.57314 24.2515 7.49325 26.1535C7.76369 26.715 8.17818 26.9825 8.81903 26.9619C9.77735 26.9325 10.721 27.1236 11.6705 27.2323C12.1173 27.2852 12.3613 27.4499 12.1026 27.9819C10.6357 30.9833 9.18942 33.9906 7.74899 37.0037C7.53146 37.4623 7.33157 37.5328 6.90238 37.2183C5.16799 35.9425 3.89806 34.3198 3.10436 32.3238C2.47527 30.7481 2.2548 29.1049 2.27832 27.4175C2.28713 26.6944 1.89322 26.2858 1.2612 26.2564C0.602718 26.227 0.17059 26.6326 0.117677 27.3764C0.0882804 27.7762 0.0441857 29.5929 0.276418 30.9039C1.62571 38.4618 9.12769 42.6566 15.6978 41.4485C23.0851 40.0903 28.1296 32.5531 26.2923 25.2716L26.2893 25.2686ZM10.1213 21.7058C9.71856 22.1497 9.35404 22.6259 8.98071 23.0992C8.77493 23.3608 8.58091 23.5019 8.27225 23.2256C7.37272 22.4201 6.32915 21.9204 5.12683 21.7411C4.75056 21.6852 4.71822 21.5147 4.97691 21.2178C6.84946 19.0601 9.20118 17.8255 12.0321 17.4463C13.0786 17.3081 14.0927 17.3287 15.3098 17.5991C13.252 18.7632 11.5764 20.1037 10.1183 21.7058H10.1213ZM11.353 24.766C10.7798 24.6837 10.8621 24.522 11.1472 24.1722C12.814 22.1173 14.813 20.4829 17.197 19.3188C17.7232 19.0631 17.9172 19.1924 17.9995 19.7362C18.1671 20.8151 18.3376 21.8939 18.2523 22.9258C18.3317 24.5161 18.0818 26.0065 17.7791 27.494C17.6879 27.9349 17.5733 28.0554 17.2176 27.6792C15.6243 25.9859 13.6165 25.0981 11.3501 24.766H11.353ZM22.5854 34.1405C20.9539 36.7127 18.6257 38.3001 15.6831 39.0115C14.907 39.1996 14.1104 39.279 13.2491 39.3025C12.2202 39.2437 11.1443 39.1232 10.0978 38.794C9.6921 38.6675 9.63331 38.4794 9.81262 38.112C11.303 35.0547 12.7934 31.9975 14.2603 28.9285C14.4631 28.5052 14.6425 28.5346 14.9452 28.7962C15.7066 29.4576 16.3739 30.2014 16.956 31.0186C17.4292 31.683 17.9995 31.8799 18.8021 31.7035C20.1984 31.3949 21.8652 32.1298 22.6648 33.2909C22.897 33.629 22.7559 33.8642 22.5854 34.1346V34.1405ZM24.017 30.6394C23.9435 31.0098 23.8083 31.0245 23.5378 30.7922C22.6412 30.025 21.6212 29.5017 20.4453 29.3371C19.9573 29.2695 19.8721 29.0167 19.9779 28.5993C20.5159 26.4533 20.704 24.2721 20.6482 22.0644C20.6364 21.6411 20.6129 21.2237 20.5218 20.8092C20.4865 20.6505 20.4189 20.4241 20.5982 20.3183C20.8098 20.1978 20.9098 20.4329 21.0244 20.5446C22.5266 22.0409 23.5172 23.8253 23.9935 25.8889C24.1787 26.6885 24.261 27.5057 24.2874 28.3494C24.2522 29.1078 24.1669 29.878 24.017 30.6423V30.6394Z"
                fill="black"></path>
            <path
                d="M140.253 18.2488C140.256 17.6726 140.08 17.4521 139.486 17.4815C138.643 17.5256 137.793 17.5197 136.946 17.4815C136.411 17.458 136.259 17.6579 136.264 18.1753C136.288 20.0008 136.273 21.8293 136.273 23.6577C136.273 24.5631 136.276 24.5514 135.456 24.2457C132.402 23.1168 129.344 22.9551 126.281 24.2192C122.034 25.9712 120.29 31.486 122.798 35.3399C124.717 38.2883 127.639 39.1761 130.941 39.085C132.59 39.0409 134.201 38.6264 135.674 37.8297C136.159 37.5681 136.329 37.6769 136.273 38.2001C136.217 38.6969 136.435 38.8792 136.923 38.8645C137.702 38.841 138.484 38.8645 139.263 38.8586C140.23 38.8557 140.245 38.8439 140.245 37.9003C140.245 34.6461 140.245 31.3949 140.245 28.1407C140.245 24.8424 140.236 21.5441 140.253 18.2488ZM136.273 31.048C136.273 31.7388 136.264 32.4296 136.276 33.1204C136.282 33.4556 136.209 33.7378 135.926 33.9406C133.713 35.5251 131.317 36.1277 128.68 35.2105C126.896 34.5873 125.805 33.0352 125.811 31.2685C125.817 29.4194 126.937 27.8114 128.748 27.2235C131.243 26.4122 133.616 26.7796 135.847 28.1495C136.173 28.3494 136.288 28.6081 136.279 28.9785C136.261 29.6693 136.273 30.3601 136.273 31.0509V31.048Z"
                fill="black"></path>
            <path
                d="M47.1461 23.9958C44.1183 22.8964 41.1581 23.2021 38.2772 24.5602C37.8833 24.7454 37.5835 24.8483 37.6099 24.2339C37.6305 23.7665 37.4012 23.6224 36.9544 23.6342C36.1077 23.6577 35.2582 23.6812 34.4145 23.6283C33.7825 23.5901 33.6296 23.8312 33.6326 24.425C33.6561 27.6997 33.6443 30.9745 33.6443 34.2493C33.6443 37.524 33.6443 40.7988 33.6443 44.0736C33.6443 44.9819 33.6531 44.9907 34.585 44.9966C35.2523 45.0025 35.9226 44.9995 36.5899 44.9966C37.5923 44.9907 37.6128 44.9731 37.6158 44.0001C37.6187 42.151 37.6275 40.302 37.6128 38.453C37.6099 37.9709 37.7246 37.8797 38.1861 38.0767C40.7847 39.1849 43.4598 39.3848 46.2025 38.7058C49.6566 37.8474 52.023 35.0547 52.1788 31.4742C52.3199 28.2142 50.5914 25.2451 47.1491 23.9928L47.1461 23.9958ZM47.9575 31.8887C47.734 33.485 46.7669 34.5726 45.3 35.1341C42.8013 36.0895 40.4084 35.6779 38.1302 34.3698C37.7422 34.1464 37.5805 33.8407 37.6011 33.3821C37.6334 32.7148 37.6099 32.0475 37.6099 31.3772C37.6099 30.6864 37.6099 29.9956 37.6099 29.3048C37.6099 29.0314 37.6393 28.7698 37.8598 28.5728C39.7676 26.8825 43.7449 26.0771 46.1555 27.7233C47.6341 28.7345 48.2014 30.1573 47.9575 31.8858V31.8887Z"
                fill="black"></path>
            <path
                d="M146.544 32.7206C148.661 32.7118 150.78 32.7148 152.897 32.7148C154.658 32.7148 156.419 32.7148 158.179 32.7148C160.026 32.7148 160.052 32.7148 159.92 30.8657C159.752 28.5081 158.717 26.5738 156.792 25.2216C153.558 22.9551 149.998 22.7641 146.415 24.1251C142.317 25.6831 140.415 29.7281 141.756 33.6261C142.635 36.1835 144.581 37.621 147.044 38.4177C148.987 39.0468 150.986 39.1732 153.038 39.0262C154.775 38.9027 156.413 38.5088 158.021 37.9003C158.403 37.7563 158.559 37.5652 158.341 37.1477C158.03 36.5569 157.741 35.9543 157.489 35.3369C157.286 34.8372 157.042 34.6755 156.477 34.8607C154.311 35.5633 152.091 35.8514 149.825 35.4163C148.423 35.1459 147.12 34.6579 146.2 33.4761C146.056 33.288 145.895 33.0616 145.933 32.8412C145.971 32.6207 146.336 32.7206 146.547 32.7206H146.544ZM146.136 28.9079C147.109 27.5616 148.517 27.0089 150.092 26.8531C151.627 26.7032 153.111 26.9148 154.423 27.832C154.887 28.1583 155.246 28.5757 155.534 29.0608C155.775 29.4665 155.695 29.6693 155.181 29.6634C153.711 29.6517 152.241 29.6575 150.772 29.6575C149.346 29.6575 147.923 29.6605 146.497 29.6517C146.292 29.6517 146.009 29.6664 145.901 29.4988C145.78 29.3136 146.009 29.0814 146.136 28.9079Z"
                fill="black"></path>
            <path
                d="M89.1272 25.7684C87.1459 23.9781 84.7412 23.3108 81.9133 23.3755C80.0937 23.2667 78.2152 23.7371 76.4808 24.7395C71.8068 27.441 71.2953 33.5526 75.4608 36.9773C77.057 38.2883 78.9296 38.8645 80.9932 39.0262C83.2214 39.2026 85.3262 38.9086 87.3311 37.9121C92.0815 35.5486 93.0252 29.2871 89.1301 25.7713L89.1272 25.7684ZM87.4045 31.4566C87.287 33.2498 86.2522 34.4374 84.6383 35.14C83.8094 35.5016 82.9275 35.6044 82.3248 35.6074C80.9226 35.5927 79.8702 35.3722 78.9002 34.8078C76.1869 33.2263 76.0193 29.4518 78.6679 27.7703C80.858 26.3828 83.192 26.418 85.4291 27.6997C86.8313 28.5023 87.5104 29.8398 87.4045 31.4537V31.4566Z"
                fill="black"></path>
            <path
                d="M69.5991 25.7684C67.6178 23.9781 65.2132 23.3108 62.3852 23.3755C60.5656 23.2667 58.6872 23.7371 56.9528 24.7395C52.2787 27.441 51.7672 33.5526 55.9327 36.9773C57.5289 38.2883 59.4015 38.8645 61.4651 39.0262C63.6934 39.2026 65.7982 38.9086 67.803 37.9121C72.5535 35.5486 73.4971 29.2871 69.6021 25.7713L69.5991 25.7684ZM67.8765 31.4566C67.7589 33.2498 66.7241 34.4374 65.1103 35.14C64.2813 35.5016 63.3994 35.6044 62.7968 35.6074C61.3946 35.5927 60.3422 35.3722 59.3721 34.8078C56.6588 33.2263 56.4912 29.4518 59.1399 27.7703C61.3299 26.3828 63.664 26.418 65.901 27.6997C67.3033 28.5023 67.9823 29.8398 67.8765 31.4537V31.4566Z"
                fill="black"></path>
        </svg>