<svg width="118" height="60"
            viewBox="0 0 118 60" fill="none" xmlns="http://www.w3.org/2000/svg">
            <path
                d="M39.5189 37.4079V42.4741H41.8852V45H34.6614V42.5176H36.7407V41.552C36.7407 36.2856 36.7233 31.0193 36.7581 25.753C36.7639 24.9584 36.5232 24.6858 35.7547 24.7873C35.3893 24.8366 35.0094 24.796 34.5831 24.796V22.2876H39.4203C39.4464 22.6733 39.4725 23.0387 39.5044 23.5027C39.7798 23.3374 40.0002 23.2069 40.2177 23.0706C44.791 20.2054 50.2951 22.8125 51.0056 28.1542C51.2724 30.1609 51.0984 32.0894 50.2661 33.9309C48.587 37.6486 44.4169 39.1856 40.2351 37.6631C40.0379 37.5906 39.8378 37.5239 39.516 37.4079H39.5189ZM48.2738 29.984C48.2738 29.7144 48.2999 29.4418 48.2709 29.175C48.0389 27.1102 47.1863 25.4369 45.1477 24.6336C43.2685 23.8913 41.5372 24.3204 39.9973 25.5471C39.7421 25.7501 39.5131 26.1561 39.5073 26.4751C39.4667 28.9836 39.4696 31.4949 39.5073 34.0034C39.5102 34.2963 39.7189 34.6733 39.9538 34.8618C41.4212 36.0507 43.9703 36.2218 45.6087 35.2678C47.6387 34.0875 48.2216 32.1619 48.2767 29.984H48.2738Z"
                fill="black"></path>
            <path
                d="M58.5193 37.4253V42.4857H60.8625V44.9913H53.63V42.5379H55.7325C55.7325 42.1522 55.7325 41.8652 55.7325 41.5781C55.7325 36.3117 55.718 31.0454 55.7499 25.7791C55.7557 25.0135 55.5701 24.68 54.7726 24.7873C54.4043 24.8366 54.0215 24.796 53.5807 24.796V22.3021H58.4004C58.4352 22.6646 58.4729 23.0445 58.5019 23.3345C59.5894 22.9053 60.6189 22.3108 61.7238 22.0904C65.8678 21.2697 69.3304 23.7898 69.9741 27.9628C70.3482 30.3871 70.0872 32.7129 68.7678 34.8241C66.8219 37.9357 63.0433 39.0435 59.2559 37.6747C59.0355 37.5964 58.8122 37.5239 58.5251 37.4253H58.5193ZM58.4729 30.2218C58.4729 31.463 58.4468 32.7042 58.4903 33.9454C58.5019 34.2499 58.6614 34.6472 58.8905 34.827C60.8538 36.3697 64.6411 36.4422 66.3376 33.5887C67.1757 32.1793 67.4106 30.651 67.2395 29.0706C67.0191 27.0377 66.1201 25.405 64.1104 24.6249C62.2922 23.9174 60.6189 24.3262 59.0761 25.4398C58.6556 25.7443 58.4352 26.0981 58.4584 26.6607C58.5048 27.8468 58.4729 29.0358 58.4729 30.2218Z"
                fill="black"></path>
            <path
                d="M2.77647 17.4882H0.7146V15.0957C0.842197 15.058 0.940796 15 1.04229 15C4.41784 15.0319 7.80208 14.9681 11.1718 15.1334C14.4459 15.2929 16.7368 17.5346 16.9108 20.4432C17.1167 23.8768 15.0955 26.4838 11.5952 27.029C10.0089 27.2755 8.36467 27.1856 6.7465 27.2233C5.71412 27.2494 5.71122 27.2291 5.71122 28.2934C5.71122 30.6104 5.71122 32.9275 5.71122 35.349H7.95578V37.8661H0.729099V35.3896H2.77647V17.4882ZM5.71702 24.7989C7.42219 24.7989 9.02006 24.912 10.5947 24.7699C12.6624 24.5843 13.8456 23.2417 13.8804 21.3451C13.9181 19.1904 12.9582 17.9174 10.7803 17.6303C9.26656 17.4302 7.71218 17.523 6.17521 17.5288C6.02151 17.5288 5.74022 17.8391 5.73732 18.0101C5.70832 20.2431 5.71702 22.479 5.71702 24.7989Z"
                fill="black"></path>
            <path
                d="M75.832 30.3929C75.4435 33.6061 78.1955 36.274 81.3362 35.7782C82.7542 35.5549 84.1317 35.0706 85.6919 34.6617C85.921 35.0416 86.2748 35.6245 86.6518 36.2479C83.9751 38.1039 81.1245 38.826 78.007 38.0198C76.1974 37.5529 74.8171 36.4161 74.0312 34.7023C72.6015 31.579 72.5609 28.4094 74.1646 25.3528C75.3159 23.1605 77.2617 21.9831 79.7528 21.9251C80.8374 21.899 81.9741 22.0208 83.0094 22.3282C84.6276 22.8067 85.7006 23.9928 86.2806 25.5732C86.8432 27.1015 87.139 28.6762 86.9824 30.3958H75.8291L75.832 30.3929ZM84.0679 28.2296C83.8823 25.3412 82.4468 23.984 79.8485 24.1493C77.8301 24.2769 76.0611 25.5877 76.0234 28.2296H84.0679Z"
                fill="black"></path>
            <path
                d="M27.3101 28.8995C27.9944 25.9444 26.2574 23.9551 23.3545 24.3726C22.0872 24.5553 20.8519 24.9352 19.5063 25.2484C19.312 24.8366 19.0365 24.2566 18.7233 23.6013C20.5445 22.4703 22.5019 21.9019 24.6218 21.9541C25.3178 21.9715 26.0196 22.0991 26.7011 22.2586C28.5164 22.682 29.9374 24.2856 30.036 26.2779C30.1665 28.8908 30.1259 31.5123 30.1578 34.1281C30.1636 34.5022 30.1578 34.8792 30.1578 35.3345H31.7905V37.8516H27.4551C27.4145 37.4543 27.371 37.0628 27.3159 36.5321C27.0027 36.767 26.7794 36.9381 26.5503 37.1034C24.6131 38.5099 22.5222 38.7535 20.356 37.7704C18.703 37.0222 17.7663 35.7028 17.7228 33.8352C17.6764 31.9212 18.5029 30.5031 20.1936 29.6187C22.064 28.6414 24.0853 28.6095 26.1269 28.7922C26.5242 28.827 26.9215 28.8647 27.3072 28.9024L27.3101 28.8995ZM27.3797 30.7409C26.4749 30.7409 25.6339 30.68 24.8074 30.7583C23.8272 30.8511 22.8151 30.9439 21.8929 31.2542C20.8026 31.6196 20.2748 32.6085 20.3415 33.6612C20.4082 34.7574 21.0752 35.5868 22.2554 35.8884C24.0708 36.3523 25.6687 35.8333 27.0781 34.6646C27.2144 34.5515 27.3623 34.3601 27.3652 34.2006C27.3884 33.0754 27.3797 31.9502 27.3797 30.7409Z"
                fill="black"></path>
            <path
                d="M105.296 33.7105C106.255 33.7105 107.091 33.6931 107.926 33.725C108.088 33.7308 108.329 33.8903 108.393 34.0411C109.097 35.668 110.542 36.4393 112.366 36.0768C112.833 35.9841 113.311 35.813 113.714 35.5607C115.063 34.7226 115.103 33.0406 113.72 32.2663C112.624 31.6515 111.388 31.2861 110.225 30.7873C109.384 30.4277 108.512 30.1087 107.734 29.639C106.287 28.7661 105.765 27.4031 105.983 25.7559C106.238 23.8217 107.389 22.5631 109.216 22.131C111.681 21.5481 114.091 21.5568 116.063 23.61C116.365 23.9232 117.052 23.8623 117.632 23.9927V26.3475H114.749C114.024 24.2595 111.339 23.3432 109.445 24.5437C108.245 25.3064 108.3 27.0609 109.608 27.7221C110.542 28.1948 111.559 28.5022 112.54 28.885C113.294 29.1779 114.065 29.4331 114.796 29.7782C116.553 30.6046 117.493 31.9647 117.388 33.9541C117.287 35.8652 116.266 37.1469 114.543 37.8226C112.676 38.5563 110.75 38.6346 108.857 37.8661C108.439 37.695 107.987 37.4833 107.691 37.1614C107.137 36.564 106.609 36.0623 105.702 36.2276C105.597 36.2479 105.325 35.9435 105.313 35.7782C105.267 35.1373 105.293 34.4935 105.293 33.7134L105.296 33.7105Z"
                fill="black"></path>
            <path
                d="M98.6547 37.869H91.0278V35.4012H93.139C93.1622 35.0358 93.1912 34.7748 93.1912 34.5109C93.1999 31.5674 93.1796 28.6211 93.2231 25.6776C93.2347 24.9439 92.9969 24.7061 92.298 24.7902C91.9007 24.8366 91.4947 24.7989 91.0394 24.7989V22.2992H95.9055V24.1638C95.9577 24.2305 96.0099 24.2972 96.065 24.3639C97.5092 21.7192 99.8465 22.0179 102.213 22.2209V25.4137H99.487C99.4435 25.1527 99.4 24.8772 99.3536 24.6104C97.8195 24.4683 96.1984 25.9444 96.1201 27.6525C96.007 30.1841 96.0911 32.7216 96.0911 35.3461H98.6547V37.8719V37.869Z"
                fill="black"></path>
        </svg>