<svg width="172" height="60"
            viewBox="0 0 172 60" fill="none" xmlns="http://www.w3.org/2000/svg">
            <path fill-rule="evenodd" clip-rule="evenodd"
                d="M21.4265 15.1362C17.527 15.6434 13.7452 17.8451 11.3887 20.9802C10.6823 21.9198 10.1308 22.9043 10.2462 23.0196C10.2857 23.059 10.7484 23.2032 11.2745 23.3401L12.2311 23.5889L12.7388 22.5816C14.1616 19.7583 16.7902 17.3343 19.6136 16.2417C21.0032 15.7039 22.9866 15.2789 24.2223 15.2539C24.9465 15.2392 25.0525 15.2121 24.7182 15.1271C24.1652 14.9864 22.5436 14.9909 21.4265 15.1362ZM69.3527 35.3189L69.7247 36.0982C70.378 37.4673 71.6019 38.4308 73.1373 38.7849C73.9676 38.9765 75.6263 38.9672 76.4976 38.7661L77.2169 38.6002V37.5815C77.2169 37.0212 77.1759 36.2637 77.1258 35.898C77.0518 35.358 76.9919 35.2519 76.8069 35.3323C76.6817 35.3868 76.1967 35.4576 75.7291 35.4899C74.6575 35.5637 74.0067 35.2476 73.6036 34.4575C73.33 33.921 73.3188 33.5798 73.28 24.5145L73.2397 15.1271H69.2746L69.3527 35.3189ZM35.5175 19.5197C35.4676 19.6366 35.2908 20.1467 35.1245 20.6533C34.6537 22.0861 33.2525 24.8513 32.3242 26.1794C28.8133 31.2032 23.2942 34.9098 16.5884 36.7476C15.6169 37.014 14.7463 37.2318 14.6539 37.2318C14.5019 37.2318 13.2901 35.6995 13.2553 35.4633C13.2473 35.409 14.0697 35.1547 15.0829 34.898C18.0562 34.1448 19.9314 33.4457 22.527 32.1223C26.3904 30.1526 29.317 27.7112 30.8581 25.1723C31.7011 23.7836 31.8215 23.1643 31.0765 24.0497C30.492 24.7443 28.6789 26.1325 27.2943 26.9457C24.1546 28.7895 20.0275 30.1291 14.8703 30.9784C13.8962 31.1388 12.7484 31.2885 12.3198 31.3107L11.5404 31.3514L11.4696 30.7903C11.4054 30.2816 11.3524 30.2201 10.9028 30.1315C10.63 30.0778 9.97654 30.0084 9.45042 29.9773L8.49397 29.9209V30.7976C8.49397 32.6197 9.066 34.7654 10.0735 36.7222C10.8732 38.2754 11.4733 39.1125 12.6392 40.3015C13.7787 41.4636 13.5905 41.4334 16.0039 40.8401C23.3377 39.0371 29.3672 34.9627 32.805 29.4869C34.2689 27.1553 35.2262 24.3528 35.5613 21.4179C35.7238 19.9948 35.7029 19.0841 35.5175 19.5197ZM57.0268 21.6452C54.0332 22.1867 51.599 23.9422 50.4448 26.392C49.8415 27.6728 49.6564 28.624 49.673 30.3595C49.698 32.9662 50.4114 34.6757 52.2251 36.4753C55.4399 39.6647 61.7198 39.7914 64.7826 36.7285C65.1959 36.3153 65.6733 35.7294 65.8436 35.4263L66.1532 34.8755L63.0602 33.0965L62.3098 33.8614C61.1643 35.0288 60.451 35.3189 58.7255 35.3189C57.4604 35.3189 57.2219 35.2764 56.5004 34.9221C54.8023 34.0882 53.8152 32.4253 53.7923 30.3595C53.7668 28.0766 54.6374 26.5246 56.455 25.6127C57.3776 25.1497 57.5334 25.1167 58.7929 25.1167C60.0615 25.1167 60.1963 25.1459 61.0399 25.6033C61.5464 25.8779 62.1579 26.359 62.4436 26.7076C62.7219 27.0473 63.0217 27.3066 63.1097 27.2837C63.1975 27.2609 63.9188 26.8646 64.7124 26.403L66.1552 25.5638L65.841 25.0005C65.4039 24.2167 64.1954 23.0505 63.3353 22.5823C62.9381 22.3662 62.1847 22.0641 61.6611 21.9111C60.5684 21.5917 58.1041 21.4503 57.0268 21.6452ZM85.577 21.6449C82.0407 22.1181 79.4485 24.3654 78.5372 27.7483C78.2063 28.9767 78.2129 31.5814 78.5498 32.8279C78.9477 34.2997 79.5705 35.3662 80.6727 36.4642C82.3916 38.1763 84.1959 38.8471 87.0648 38.8408C89.6474 38.8349 91.5162 38.2241 93.2881 36.8067C94.3214 35.9802 94.3242 36.008 93.0654 34.7026L91.9413 33.537L91.5097 33.8611C89.9133 35.0603 88.7557 35.4518 87.0777 35.3604C85.7779 35.2897 84.9277 34.9734 84.112 34.2572C83.5371 33.7524 82.9454 32.8361 82.7464 32.1426L82.6212 31.7056H95.1076L95.0323 29.8281C94.9896 28.7656 94.8559 27.5838 94.7242 27.1054C93.8338 23.8702 91.6732 22.0338 88.3028 21.6477C86.9434 21.4918 86.7222 21.4917 85.577 21.6449ZM128.015 21.6555C126.51 21.908 125.168 22.5656 124.421 23.4159L123.977 23.9222V21.7868H120.009V38.7905H124.099L124.15 33.8665C124.206 28.5111 124.229 28.3433 125.073 27.1236C125.86 25.9865 127.617 25.2318 129.176 25.3611L129.928 25.4235V21.5035L129.326 21.52C128.995 21.5291 128.405 21.59 128.015 21.6555ZM139.209 21.595C135.438 22.2024 132.645 24.6488 131.844 28.0463C131.576 29.1826 131.574 31.0697 131.839 32.3199C132.526 35.5664 135.083 38.0276 138.501 38.7338C140 39.0437 142.349 38.9431 143.743 38.5092C146.507 37.6497 148.689 35.4174 149.424 32.6975C149.73 31.5649 149.77 29.1229 149.5 28.0215C148.792 25.1279 146.585 22.8494 143.602 21.9319C142.617 21.6291 140.165 21.4411 139.209 21.595ZM161.456 21.6052C160.166 21.7851 158.306 22.6481 157.699 23.3476C157.565 23.5024 157.415 23.6289 157.365 23.6289C157.316 23.6289 157.276 23.2144 157.276 22.7079V21.7868H153.308V44.8834H157.417V36.7826L158.067 37.3548C159.415 38.5411 160.977 39.0017 163.298 38.8979C164.467 38.8456 165.114 38.7382 165.886 38.4685C168.727 37.4761 170.661 35.2145 171.235 32.2128C172.216 27.0872 169.447 22.6171 164.734 21.7152C163.689 21.5152 162.408 21.4723 161.456 21.6052ZM98.4714 26.997C98.4714 31.8259 98.4928 32.2849 98.7641 33.2671C99.5991 36.2911 102.012 37.9322 105.633 37.9381C107.609 37.9414 109.27 37.3943 110.463 36.3468L110.987 35.8862L110.889 37.0595C110.659 39.824 109.474 41.1592 106.974 41.4732C104.759 41.7514 101.698 40.935 100.298 39.6932C100.093 39.5115 99.9739 39.6517 99.1432 41.0529L98.2168 42.6153L98.7555 43.0419C100.269 44.2405 102.489 44.8742 105.556 44.9827C109.03 45.1056 110.872 44.5858 112.586 42.9991C113.588 42.0706 114.22 40.9737 114.655 39.4017C114.95 38.3366 114.964 37.9808 115.016 30.0407L115.07 21.7868H110.941V25.7991C110.941 28.0882 110.874 30.1702 110.786 30.6466C110.351 33.0038 108.746 34.3267 106.336 34.3171C104.488 34.3097 103.255 33.4261 102.698 31.7106C102.594 31.3916 102.513 29.4984 102.475 26.4983L102.416 21.7868H98.4714V26.997ZM2.61355 24.3504C1.67835 25.2134 0.891938 25.9778 0.866007 26.0494C0.747549 26.3753 4.34905 27.5278 7.077 28.0371C8.64417 28.3296 9.28095 28.3681 12.6032 28.3716C16.775 28.3762 17.9627 28.2416 21.3175 27.3839C23.2471 26.8905 25.9227 25.9204 25.9227 25.7141C25.9227 25.6478 25.811 25.6258 25.6747 25.6654C24.1192 26.1155 18.5075 26.2601 16.0039 25.9145C12.6678 25.4538 8.99146 24.5175 5.94343 23.352C5.12513 23.039 4.42373 22.7827 4.38476 22.7823C4.3458 22.7818 3.54875 23.4875 2.61355 24.3504ZM36.6891 24.5145C36.6038 24.8458 36.4682 25.326 36.3877 25.5819C36.2862 25.9048 36.2889 26.4838 36.3967 27.4747C37.045 33.4339 33.2549 39.1263 27.4619 40.8932C25.6301 41.4521 22.9193 41.5534 21.2185 41.1265C20.9766 41.0658 20.2711 41.2272 19.1028 41.6105C18.1388 41.9268 16.9355 42.3026 16.429 42.4457L15.508 42.7057L16.7124 43.2995C23.1414 46.4697 30.9271 44.6464 35.2106 38.9673C36.3717 37.4282 37.3026 35.5384 37.7759 33.7602C38.1086 32.5099 38.1541 32.0682 38.1628 30.0053C38.1713 27.9909 38.127 27.4924 37.8423 26.4042C37.5167 25.1598 37.0524 23.9123 36.9146 23.9123C36.876 23.9123 36.7744 24.1832 36.6891 24.5145ZM88.3789 25.1204C89.8181 25.5478 90.9493 26.8604 91.1536 28.3403L91.227 28.8717H82.4825L82.6287 28.3403C83.0851 26.6805 84.1845 25.505 85.7187 25.0367C86.3206 24.8529 87.6156 24.8937 88.3789 25.1204ZM142.698 25.43C143.521 25.7974 144.434 26.6145 144.889 27.3919C145.371 28.2136 145.695 29.8498 145.574 30.845C145.349 32.6986 144.358 34.1821 142.851 34.9221C142.13 35.2764 141.891 35.3189 140.626 35.3189C139.411 35.3189 139.118 35.2713 138.572 34.9839C137.025 34.1714 136.188 33.0761 135.872 31.4506C135.322 28.627 136.662 26.041 139.072 25.2733C140.042 24.9644 141.828 25.0416 142.698 25.43ZM164.385 25.4333C166.421 26.3421 167.574 28.6909 167.184 31.1342C166.986 32.3722 166.634 33.1182 165.853 33.9529C165.009 34.8551 164.054 35.2731 162.642 35.3587C159.647 35.5401 157.417 33.352 157.417 30.2308C157.417 27.8139 158.708 25.9574 160.889 25.2359C161.717 24.962 163.563 25.0663 164.385 25.4333Z"
                fill="black"></path>
            <path fill-rule="evenodd" clip-rule="evenodd"
                d="M22.2102 15.0609C22.1687 15.1024 21.7594 15.1629 21.3009 15.1952C20.3399 15.2628 18.7879 15.6475 18.7223 15.8343C18.6978 15.9041 18.5863 15.9263 18.4743 15.8833C18.3626 15.8404 18.271 15.8738 18.271 15.9577C18.271 16.0415 18.1836 16.0764 18.0767 16.0355C17.9699 15.9945 17.7861 16.0572 17.6685 16.1749C17.5509 16.2925 17.4214 16.3557 17.3809 16.3152C17.2828 16.2172 15.8622 16.9415 15.8622 17.0896C15.8622 17.1532 15.7776 17.2053 15.674 17.2053C14.9263 17.2053 10.8577 21.0866 11.135 21.5353C11.1873 21.6198 11.1666 21.6498 11.0893 21.6019C10.9273 21.5019 10.2945 22.5483 10.4332 22.6869C10.4836 22.7375 10.4505 22.7787 10.3597 22.7787C10.2687 22.7787 10.1943 22.8463 10.1943 22.9288C10.1943 23.0112 10.2527 23.0428 10.324 22.9988C10.3952 22.9547 10.4749 22.9745 10.5011 23.043C10.5271 23.1113 10.9311 23.2626 11.3987 23.3792C12.117 23.5583 12.2666 23.561 12.3628 23.3964C12.4255 23.2892 12.4376 23.1383 12.3899 23.061C12.3421 22.9836 12.3743 22.9204 12.4614 22.9204C12.5486 22.9204 12.5805 22.8566 12.5323 22.7787C12.4841 22.7008 12.516 22.637 12.6031 22.637C12.6903 22.637 12.7222 22.5732 12.674 22.4953C12.6258 22.4174 12.6646 22.3536 12.7601 22.3536C12.8556 22.3536 12.8922 22.3121 12.8415 22.2614C12.7908 22.2106 12.8403 22.099 12.9519 22.0134C13.0632 21.9277 13.1738 21.7698 13.1976 21.6623C13.2214 21.5549 13.3877 21.3153 13.5673 21.1298C13.7468 20.9443 13.8485 20.7194 13.7933 20.6302C13.735 20.5358 13.7551 20.5063 13.8417 20.5597C13.9697 20.6388 14.1818 20.3606 14.2205 20.0628C14.2271 20.0109 14.2908 19.9153 14.3616 19.8503C14.4377 19.7807 14.4465 19.8195 14.3829 19.9448C14.3236 20.0617 14.4888 19.9136 14.7499 19.6158C15.011 19.3178 15.4477 18.882 15.7205 18.6473C15.9932 18.4126 16.1269 18.2676 16.0173 18.3252C15.8851 18.3947 15.8528 18.3743 15.921 18.264C15.9774 18.1727 16.0763 18.1308 16.1409 18.1707C16.2056 18.2107 16.454 18.0606 16.6929 17.8375C16.932 17.6141 17.1601 17.4641 17.1999 17.504C17.2399 17.5439 17.3126 17.472 17.3615 17.3445C17.4105 17.2168 17.5053 17.1463 17.5722 17.1876C17.6392 17.229 17.8184 17.1383 17.9706 16.9861C18.1228 16.834 18.2846 16.7465 18.3301 16.792C18.3756 16.8375 18.4127 16.7966 18.4127 16.701C18.4127 16.6055 18.4765 16.5667 18.5544 16.6149C18.6323 16.6631 18.6961 16.6312 18.6961 16.544C18.6961 16.4569 18.7599 16.425 18.8378 16.4732C18.9157 16.5214 18.9795 16.4953 18.9795 16.4151C18.9795 16.335 19.0669 16.3032 19.1738 16.3441C19.2806 16.3851 19.456 16.3353 19.5634 16.2334C19.6708 16.1314 19.8226 16.0461 19.9005 16.0437C20.2563 16.0328 20.9633 15.8014 20.9633 15.6959C20.9633 15.6314 21.0908 15.6121 21.2466 15.6528C21.4025 15.6936 21.53 15.6645 21.53 15.5883C21.53 15.5121 21.6894 15.4802 21.8843 15.5175C22.0791 15.5547 22.2385 15.5294 22.2385 15.4611C22.2385 15.3928 22.4139 15.3344 22.6282 15.3314C24.3015 15.3082 25.1166 15.2284 24.7182 15.1271C24.2213 15.0007 22.3206 14.9505 22.2102 15.0609ZM69.3527 35.3189L69.7247 36.0982C70.378 37.4673 71.6019 38.4308 73.1373 38.7849C73.9676 38.9765 75.6263 38.9672 76.4976 38.7661L77.2169 38.6002V37.5815C77.2169 37.0212 77.1759 36.2637 77.1258 35.898C77.0518 35.358 76.9919 35.2519 76.8069 35.3323C76.6817 35.3868 76.1967 35.4576 75.7291 35.4899C74.6575 35.5637 74.0067 35.2476 73.6036 34.4575C73.33 33.921 73.3188 33.5798 73.28 24.5145L73.2397 15.1271H69.2746L69.3527 35.3189ZM35.5152 19.5197C35.2351 20.2069 34.8624 21.4218 34.9154 21.4748C34.9497 21.5091 34.8814 21.6335 34.7638 21.7511C34.6461 21.8687 34.5847 22.0558 34.6272 22.1667C34.6762 22.2945 34.6445 22.3312 34.5405 22.2669C34.4321 22.2 34.4059 22.2425 34.4633 22.392C34.511 22.5167 34.5028 22.6387 34.4448 22.6632C34.3869 22.6877 34.0362 23.2718 33.6655 23.9609C33.295 24.6501 33.0749 25.1714 33.1767 25.1194C33.2784 25.0674 33.2467 25.1188 33.1061 25.2336C32.6759 25.5851 31.8828 26.7869 31.9745 26.9483C32.0221 27.032 32.0115 27.0558 31.951 27.0014C31.8321 26.8943 30.5047 28.4449 30.5632 28.6226C30.5828 28.6816 30.5483 28.7141 30.4867 28.6945C30.3406 28.6483 28.8167 30.1723 28.8628 30.3184C28.8823 30.38 28.8185 30.4143 28.7211 30.3949C28.6237 30.3753 28.5599 30.4391 28.5795 30.5366C28.5989 30.6339 28.563 30.6977 28.4995 30.6783C28.3167 30.6222 26.4884 32.0825 26.6009 32.1949C26.6565 32.2506 26.6371 32.2748 26.5579 32.2487C26.3779 32.1898 24.9308 33.106 24.9308 33.279C24.9308 33.3489 24.8829 33.3933 24.8245 33.3779C24.6017 33.3191 24.0803 33.5743 24.1599 33.7031C24.2058 33.7773 24.1895 33.8206 24.1237 33.7992C23.9207 33.7331 22.8084 34.2882 22.8874 34.416C22.9283 34.4821 22.8633 34.4986 22.743 34.4524C22.6143 34.4029 22.4885 34.4616 22.4375 34.5949C22.3896 34.7193 22.2978 34.7888 22.2334 34.749C22.0902 34.6604 21.1049 35.1151 21.1049 35.2698C21.1049 35.3309 20.9988 35.3401 20.8692 35.2904C20.7117 35.2299 20.6671 35.2544 20.7348 35.3641C20.7992 35.4681 20.7625 35.4998 20.6347 35.4508C20.5237 35.4083 20.3367 35.4696 20.2191 35.5874C20.1015 35.705 19.9756 35.7719 19.9396 35.7357C19.8464 35.6426 18.5544 36.1372 18.5544 36.266C18.5544 36.3246 18.4588 36.336 18.3419 36.2912C18.225 36.2463 18.1293 36.2782 18.1293 36.362C18.1293 36.4458 18.0337 36.4777 17.9168 36.4329C17.7999 36.388 17.7041 36.406 17.7039 36.4727C17.7037 36.5394 17.5057 36.6012 17.2638 36.61C17.022 36.6186 16.7831 36.6824 16.7328 36.7517C16.6826 36.8208 16.4183 36.8957 16.1456 36.9178C15.8728 36.94 15.6306 37.0128 15.6074 37.0799C15.5842 37.1469 15.4408 37.1691 15.2886 37.1293C15.1364 37.0895 15.012 37.1222 15.012 37.202C15.012 37.436 14.4493 37.221 14.2919 36.9267C14.2101 36.7739 14.0738 36.6993 13.9776 36.7545C13.8841 36.8082 13.8529 36.8019 13.9083 36.7405C13.9636 36.6792 13.8297 36.366 13.6105 36.0448C13.243 35.5062 13.158 34.9947 13.4675 35.186C13.6357 35.29 15.1537 34.9547 15.1537 34.8136C15.1537 34.7555 15.2812 34.7412 15.4371 34.7818C15.5929 34.8226 15.7206 34.8007 15.7208 34.7332C15.721 34.6656 15.9254 34.6029 16.175 34.5938C16.4247 34.5847 16.6518 34.5086 16.6798 34.4246C16.7078 34.3407 16.8222 34.3071 16.9341 34.3501C17.0459 34.393 17.1374 34.3538 17.1374 34.2629C17.1374 34.1721 17.2039 34.1388 17.2851 34.189C17.4561 34.2947 18.8378 33.8291 18.8378 33.6658C18.8378 33.6058 18.9252 33.5902 19.0321 33.6311C19.1389 33.6721 19.3149 33.6171 19.423 33.509C19.5311 33.4009 19.6914 33.3362 19.7791 33.3654C19.8668 33.3948 20.0262 33.331 20.1333 33.2237C20.2405 33.1166 20.4162 33.0582 20.5237 33.0941C20.6538 33.1374 20.6817 33.0983 20.6069 32.9773C20.5359 32.8626 20.5509 32.8302 20.6474 32.8899C20.8271 33.001 21.53 32.7101 21.53 32.5246C21.53 32.4546 21.5938 32.4368 21.6717 32.4849C21.7497 32.5331 21.8134 32.5012 21.8134 32.4141C21.8134 32.3269 21.8772 32.2951 21.9551 32.3432C22.0331 32.3914 22.0968 32.3595 22.0968 32.2724C22.0968 32.1852 22.1606 32.1534 22.2385 32.2015C22.3165 32.2497 22.3802 32.2178 22.3802 32.1307C22.3802 32.0435 22.444 32.0117 22.5219 32.0598C22.5999 32.108 22.6636 32.0761 22.6636 31.989C22.6636 31.9018 22.7274 31.87 22.8053 31.9181C22.8832 31.9663 22.947 31.9275 22.947 31.832C22.947 31.7365 22.987 31.6984 23.0359 31.7471C23.156 31.8674 23.9389 31.4524 23.9389 31.2685C23.9389 31.188 24.0004 31.1601 24.0755 31.2064C24.1504 31.2529 24.3311 31.1769 24.4769 31.0376C24.6226 30.8985 24.8277 30.7649 24.9326 30.7406C25.2282 30.6726 25.9226 30.1441 25.9226 29.9872C25.9226 29.91 25.9758 29.8795 26.0405 29.9197C26.1906 30.0123 28.1311 28.4671 28.0835 28.293C28.0641 28.2216 28.1279 28.179 28.2252 28.1986C28.3227 28.218 28.3863 28.1543 28.3669 28.0569C28.3474 27.9594 28.4111 27.8957 28.5086 27.9152C28.6059 27.9346 28.6697 27.8709 28.6503 27.7735C28.6307 27.676 28.6945 27.6123 28.792 27.6318C28.8893 27.6512 28.9515 27.5828 28.9302 27.4796C28.9088 27.3763 28.951 27.3289 29.024 27.3739C29.1951 27.4798 30.0575 26.3975 29.9217 26.2474C29.8654 26.185 29.8958 26.1779 29.9893 26.2316C30.1621 26.3306 30.5038 25.8688 30.3811 25.702C30.3449 25.6529 30.3583 25.6451 30.4109 25.6846C30.5373 25.7798 31.0281 25.026 30.9364 24.8775C30.8973 24.8143 30.9366 24.7625 31.0237 24.7625C31.1109 24.7625 31.1469 24.7054 31.1038 24.6356C31.0606 24.5658 31.1273 24.4697 31.2517 24.4218C31.3763 24.3741 31.4433 24.244 31.4006 24.1328C31.358 24.0215 31.3992 23.9034 31.4922 23.8701C31.5853 23.8366 31.6234 23.768 31.577 23.7174C31.4794 23.611 29.9614 25.0636 30.0036 25.223C30.0191 25.2815 29.9841 25.3138 29.9256 25.295C29.7465 25.2371 29.1766 25.7019 29.2888 25.8143C29.3467 25.8722 29.3304 25.8997 29.2525 25.8752C29.0488 25.8114 26.7602 27.2532 26.8781 27.3711C26.9324 27.4254 26.8676 27.4278 26.7343 27.3766C26.5793 27.3171 26.4605 27.3653 26.405 27.5101C26.3571 27.6345 26.261 27.7012 26.1912 27.658C26.1214 27.615 26.0643 27.6509 26.0643 27.7381C26.0643 27.8252 26.0006 27.8571 25.9226 27.8089C25.8447 27.7608 25.7809 27.7868 25.7809 27.867C25.7809 27.9471 25.6748 27.9719 25.5452 27.9222C25.374 27.8564 25.3411 27.883 25.4253 28.0194C25.4983 28.1372 25.4862 28.173 25.3931 28.1154C25.2348 28.0175 23.8982 28.5511 23.8234 28.7419C23.7989 28.8045 23.6956 28.8238 23.5937 28.7847C23.492 28.7457 23.3201 28.8022 23.212 28.9103C23.1039 29.0185 22.9362 29.0807 22.8395 29.0484C22.7427 29.016 22.6636 29.0569 22.6636 29.1388C22.6636 29.2208 22.568 29.2511 22.4511 29.2063C22.3342 29.1614 22.2385 29.1933 22.2385 29.2772C22.2385 29.3609 22.1429 29.3928 22.026 29.348C21.9091 29.3031 21.8134 29.335 21.8134 29.4189C21.8134 29.5026 21.7178 29.5345 21.6009 29.4897C21.484 29.4448 21.3883 29.4825 21.3883 29.5733C21.3883 29.6642 21.3291 29.702 21.2567 29.6572C21.0824 29.5495 19.8297 29.8882 19.8297 30.0429C19.8297 30.1094 19.7777 30.1315 19.7142 30.0924C19.6507 30.0531 18.9092 30.1768 18.0664 30.3674C17.2235 30.5579 16.4146 30.7137 16.2688 30.7137C16.1232 30.7137 16.0039 30.7755 16.0039 30.851C16.0039 30.9264 15.9082 30.9515 15.7913 30.9067C15.6744 30.8618 15.4673 30.873 15.3308 30.9315C15.1944 30.9899 14.9074 31.0239 14.6932 31.0067C14.4788 30.9897 14.3035 31.0383 14.3035 31.1149C14.3035 31.1914 14.177 31.2209 14.0222 31.1805C13.8675 31.1399 13.6285 31.1551 13.4909 31.2141C13.3533 31.273 13.0622 31.3069 12.844 31.2894C12.6257 31.272 12.3682 31.3232 12.2717 31.4034C12.1503 31.5041 11.9886 31.4953 11.7474 31.3749C11.4697 31.2363 11.4078 31.1109 11.4434 30.7588C11.4679 30.5156 11.4095 30.2682 11.3136 30.2089C11.2175 30.1496 10.6497 30.0813 10.0516 30.0574C9.45351 30.0333 8.85824 29.9731 8.72902 29.9235C8.52299 29.8444 8.49394 29.9637 8.49394 30.8874C8.49394 31.4674 8.53291 31.9806 8.58038 32.0282C8.62799 32.0758 8.69062 32.4168 8.71981 32.7859C8.74886 33.1552 8.82155 33.4935 8.8812 33.5379C8.941 33.5822 9.00405 33.8092 9.0212 34.0422C9.03848 34.2753 9.11854 34.488 9.19917 34.5149C9.27993 34.5418 9.31437 34.6148 9.27582 34.6771C9.17961 34.8327 9.48426 35.6731 9.63687 35.6731C9.70474 35.6731 9.72387 35.7682 9.67924 35.8845C9.63304 36.005 9.69539 36.1332 9.82462 36.1826C9.94903 36.2305 10.0158 36.3266 9.97255 36.3965C9.92947 36.4662 9.96546 36.5233 10.0526 36.5233C10.1397 36.5233 10.1716 36.587 10.1235 36.665C10.0753 36.7429 10.1072 36.8067 10.1943 36.8067C10.2814 36.8067 10.3133 36.8704 10.2652 36.9484C10.217 37.0263 10.2489 37.0901 10.336 37.0901C10.4231 37.0901 10.4621 37.1424 10.4226 37.2064C10.3262 37.3621 10.8582 38.2236 11.0507 38.2236C11.1345 38.2236 11.1693 38.2779 11.1284 38.3442C11.0293 38.5045 11.7328 39.439 11.9149 39.3891C11.9933 39.3677 12.0239 39.4045 11.9828 39.4709C11.9418 39.5372 12.3132 39.9929 12.8082 40.4834C13.4359 41.1055 13.7661 41.3396 13.8995 41.2571C14.0047 41.1921 14.2662 41.1573 14.4805 41.1797C14.7007 41.2028 14.8703 41.1507 14.8703 41.0598C14.8703 40.9714 14.9316 40.937 15.0065 40.9833C15.182 41.0919 17.1374 40.6227 17.1374 40.4721C17.1374 40.4093 17.2331 40.3947 17.35 40.4395C17.4669 40.4844 17.5625 40.4467 17.5625 40.3559C17.5625 40.2651 17.6186 40.2254 17.6872 40.2678C17.8476 40.3668 19.688 39.7924 19.688 39.6432C19.688 39.5811 19.7678 39.5333 19.8651 39.537C20.3202 39.5539 20.5474 39.4869 20.4683 39.3588C20.4204 39.2813 20.4717 39.2532 20.5834 39.2962C20.6943 39.3387 20.8736 39.285 20.9817 39.1768C21.0898 39.0687 21.2663 39.0095 21.3739 39.0453C21.504 39.0887 21.5319 39.0496 21.4571 38.9286C21.3855 38.813 21.401 38.7815 21.4996 38.8424C21.7055 38.9697 23.8047 37.9252 23.6962 37.7497C23.6497 37.6746 23.6818 37.6564 23.7674 37.7093C23.944 37.8185 25.3559 36.998 25.3559 36.7861C25.3559 36.7103 25.42 36.6879 25.4985 36.7364C25.577 36.785 25.6793 36.7253 25.726 36.6039C25.7726 36.4825 25.8613 36.4145 25.9231 36.4527C25.985 36.491 26.2332 36.3375 26.475 36.1117C26.7167 35.8858 26.9145 35.7281 26.9145 35.7612C26.9145 35.7943 27.0734 35.7173 27.2675 35.5901C27.4617 35.4628 27.5794 35.2921 27.5291 35.2106C27.4771 35.1266 27.5055 35.1045 27.5947 35.1596C27.7957 35.2839 30.7689 32.4332 30.6458 32.2341C30.5958 32.1532 30.6214 32.1281 30.7029 32.1784C30.8411 32.2637 31.3299 31.6822 31.2968 31.4718C31.2884 31.4197 31.3828 31.3203 31.5062 31.2512C31.7862 31.0946 32.913 29.4506 32.913 29.1988C32.913 29.0968 32.9652 29.0134 33.029 29.0134C33.1665 29.0134 33.9517 27.4956 34.0217 27.0951C34.0484 26.9422 34.1535 26.7291 34.2555 26.6217C34.3574 26.5143 34.4072 26.3388 34.3662 26.232C34.3253 26.1252 34.3485 26.0377 34.4179 26.0377C34.5882 26.0377 34.8926 25.0885 34.7804 24.907C34.7314 24.8275 34.7533 24.7625 34.8294 24.7625C34.9856 24.7625 35.3163 23.3859 35.2039 23.2041C35.164 23.1393 35.1944 23.0649 35.2716 23.0387C35.349 23.0126 35.4496 22.5449 35.4954 21.9994C35.5412 21.4538 35.6119 20.7435 35.6525 20.4209C35.7392 19.7336 35.6545 19.178 35.5152 19.5197ZM57.0268 21.6452C54.0332 22.1867 51.599 23.9422 50.4448 26.392C49.8415 27.6728 49.6564 28.624 49.673 30.3595C49.698 32.9662 50.4114 34.6757 52.2251 36.4753C55.4399 39.6647 61.7198 39.7914 64.7826 36.7285C65.1959 36.3153 65.6733 35.7294 65.8436 35.4263L66.1532 34.8755L63.0602 33.0965L62.3098 33.8614C61.1643 35.0288 60.451 35.3189 58.7255 35.3189C57.4604 35.3189 57.2219 35.2764 56.5004 34.9221C54.8023 34.0882 53.8152 32.4253 53.7923 30.3595C53.7668 28.0766 54.6374 26.5246 56.455 25.6127C57.3776 25.1497 57.5334 25.1167 58.7929 25.1167C60.0615 25.1167 60.1963 25.1459 61.0399 25.6033C61.5464 25.8779 62.1579 26.359 62.4436 26.7076C62.7219 27.0473 63.0217 27.3066 63.1097 27.2837C63.1975 27.2609 63.9188 26.8646 64.7124 26.403L66.1552 25.5638L65.841 25.0005C65.4039 24.2167 64.1954 23.0505 63.3353 22.5823C62.9381 22.3662 62.1847 22.0641 61.6611 21.9111C60.5684 21.5917 58.1041 21.4503 57.0268 21.6452ZM85.577 21.6449C82.0407 22.1181 79.4485 24.3654 78.5372 27.7483C78.2063 28.9767 78.2129 31.5814 78.5498 32.8279C78.9477 34.2997 79.5705 35.3662 80.6727 36.4642C82.3916 38.1763 84.1959 38.8471 87.0648 38.8408C89.6474 38.8349 91.5162 38.2241 93.2881 36.8067C94.3214 35.9802 94.3242 36.008 93.0654 34.7026L91.9413 33.537L91.5097 33.8611C89.9133 35.0603 88.7557 35.4518 87.0777 35.3604C85.7779 35.2897 84.9277 34.9734 84.112 34.2572C83.5371 33.7524 82.9454 32.8361 82.7464 32.1426L82.6212 31.7056H95.1076L95.0323 29.8281C94.9896 28.7656 94.8559 27.5838 94.7242 27.1054C93.8338 23.8702 91.6732 22.0338 88.3028 21.6477C86.9434 21.4918 86.7222 21.4917 85.577 21.6449ZM128.015 21.6555C126.51 21.908 125.168 22.5656 124.421 23.4159L123.977 23.9222V21.7868H120.009V38.7905H124.099L124.15 33.8665C124.206 28.5111 124.229 28.3433 125.073 27.1236C125.86 25.9865 127.617 25.2318 129.176 25.3611L129.928 25.4235V21.5035L129.326 21.52C128.995 21.5291 128.405 21.59 128.015 21.6555ZM139.209 21.595C135.438 22.2024 132.645 24.6488 131.844 28.0463C131.576 29.1826 131.574 31.0697 131.839 32.3199C132.526 35.5664 135.083 38.0276 138.501 38.7338C140 39.0437 142.349 38.9431 143.743 38.5092C146.507 37.6497 148.689 35.4174 149.424 32.6975C149.73 31.5649 149.77 29.1229 149.5 28.0215C148.792 25.1279 146.585 22.8494 143.602 21.9319C142.617 21.6291 140.165 21.4411 139.209 21.595ZM161.456 21.6052C160.166 21.7851 158.306 22.6481 157.699 23.3476C157.565 23.5024 157.415 23.6289 157.365 23.6289C157.316 23.6289 157.276 23.2144 157.276 22.7079V21.7868H153.308V44.8834H157.417V36.7826L158.067 37.3548C159.415 38.5411 160.977 39.0017 163.298 38.8979C164.467 38.8456 165.114 38.7382 165.886 38.4685C168.727 37.4761 170.661 35.2145 171.235 32.2128C172.216 27.0872 169.447 22.6171 164.734 21.7152C163.689 21.5152 162.408 21.4723 161.456 21.6052ZM98.4714 26.997C98.4714 31.8259 98.4928 32.2849 98.7641 33.2671C99.5991 36.2911 102.012 37.9322 105.633 37.9381C107.609 37.9414 109.27 37.3943 110.463 36.3468L110.987 35.8862L110.889 37.0595C110.659 39.824 109.474 41.1592 106.974 41.4732C104.759 41.7514 101.698 40.935 100.298 39.6932C100.093 39.5115 99.9739 39.6517 99.1432 41.0529L98.2168 42.6153L98.7555 43.0419C100.269 44.2405 102.489 44.8742 105.556 44.9827C109.03 45.1056 110.872 44.5858 112.586 42.9991C113.588 42.0706 114.22 40.9737 114.655 39.4017C114.95 38.3366 114.964 37.9808 115.016 30.0407L115.07 21.7868H110.941V25.7991C110.941 28.0882 110.874 30.1702 110.786 30.6466C110.351 33.0038 108.746 34.3267 106.336 34.3171C104.488 34.3097 103.255 33.4261 102.698 31.7106C102.594 31.3916 102.513 29.4984 102.475 26.4983L102.416 21.7868H98.4714V26.997ZM3.60541 23.4309C3.21574 23.7826 2.91449 24.1353 2.93589 24.2144C2.95729 24.2936 2.91662 24.3225 2.84563 24.2786C2.67488 24.1731 2.37335 24.5428 2.50853 24.6919C2.5662 24.7557 2.54977 24.7725 2.47183 24.7294C2.3939 24.6862 1.98935 24.9523 1.57277 25.3206C0.857765 25.9529 0.828859 26.004 1.05784 26.233C1.19118 26.3663 1.37198 26.4516 1.45969 26.4223C1.5474 26.3931 1.70766 26.4577 1.81578 26.5658C1.92389 26.6739 2.09988 26.7289 2.20672 26.688C2.31356 26.647 2.40098 26.682 2.40098 26.7658C2.40098 26.8497 2.49663 26.8815 2.61353 26.8366C2.73043 26.7918 2.82607 26.8237 2.82607 26.9075C2.82607 26.9913 2.91761 27.0248 3.02941 26.9819C3.14135 26.9389 3.25286 26.9605 3.27738 27.0296C3.33349 27.1879 5.95545 27.8761 6.74356 27.9394C7.06677 27.9654 7.40104 28.0298 7.48648 28.0827C7.78518 28.2673 9.72231 28.3671 12.7448 28.3536C16.9613 28.3348 16.9605 28.3348 17.0643 28.1667C17.1153 28.0843 17.2199 28.0558 17.297 28.1034C17.4762 28.2142 20.2548 27.73 20.2548 27.588C20.2548 27.5292 20.3823 27.5146 20.5382 27.5553C20.694 27.5961 20.8216 27.5642 20.8216 27.4845C20.8216 27.4048 20.9491 27.3729 21.1049 27.4136C21.2608 27.4544 21.3885 27.4324 21.3886 27.365C21.3889 27.2974 21.5932 27.2346 21.8429 27.2256C22.0926 27.2165 22.321 27.1364 22.3506 27.0476C22.3802 26.9588 22.4614 26.9213 22.5311 26.9644C22.7129 27.0768 23.8024 26.7275 23.7143 26.5851C23.6739 26.5196 23.7397 26.5041 23.8607 26.5504C23.9817 26.5969 24.0806 26.5714 24.0806 26.4937C24.0806 26.4161 24.1602 26.3556 24.2577 26.3592C24.743 26.3772 24.9404 26.3096 24.8465 26.1575C24.784 26.0566 24.8075 26.0323 24.9078 26.0944C24.9971 26.1495 25.1823 26.1318 25.3193 26.0549C25.5562 25.922 25.5564 25.9105 25.3204 25.8195C25.184 25.7669 24.9609 25.7729 24.8245 25.8326C24.688 25.8922 24.5308 25.9316 24.4749 25.9201C24.419 25.9085 23.8132 25.9612 23.1288 26.0372C21.5414 26.2133 19.0044 26.2123 17.2791 26.0346C16.5388 25.9584 15.8554 25.9251 15.7604 25.9606C15.6655 25.9962 15.5476 25.9602 15.4984 25.8806C15.4493 25.8011 15.24 25.7492 15.0334 25.7655C14.8268 25.7817 14.5462 25.7471 14.4098 25.6887C14.2733 25.6302 14.0662 25.619 13.9493 25.6639C13.8324 25.7087 13.7367 25.6791 13.7367 25.598C13.7367 25.517 13.5932 25.4647 13.4179 25.4819C13.2426 25.499 12.9905 25.4661 12.8579 25.4086C12.7253 25.3512 12.5499 25.3454 12.4683 25.3958C12.3866 25.4464 12.3198 25.4201 12.3198 25.3376C12.3198 25.2551 12.1973 25.1875 12.0477 25.1875C11.8981 25.1875 10.9996 24.9642 10.051 24.6912C9.10267 24.4181 8.26864 24.2307 8.19765 24.2745C8.12681 24.3182 8.06885 24.2797 8.06885 24.1889C8.06885 24.098 7.97321 24.0604 7.85631 24.1053C7.73941 24.15 7.64376 24.1182 7.64376 24.0344C7.64376 23.9505 7.54812 23.9187 7.43122 23.9636C7.31432 24.0083 7.21867 23.9895 7.21867 23.9216C7.21867 23.7624 6.37501 23.4665 6.2105 23.5681C6.14149 23.6107 6.0851 23.5728 6.0851 23.4838C6.0851 23.3947 6.00603 23.3482 5.90925 23.3805C5.81247 23.4128 5.6457 23.3514 5.53857 23.2443C5.43145 23.1371 5.27204 23.0733 5.18433 23.1026C5.09662 23.1318 4.94005 23.0709 4.83647 22.9672C4.54486 22.6757 4.36858 22.742 3.60541 23.4309ZM36.902 24.0185C36.9513 24.116 36.9343 24.1957 36.8642 24.1957C36.6244 24.1957 36.1993 26.44 36.3543 26.8879C36.6515 27.7466 36.4344 30.8574 35.9742 32.3361C35.8295 32.8009 35.7374 33.2076 35.7696 33.2396C35.8016 33.2718 35.7316 33.3943 35.614 33.5119C35.4962 33.6296 35.4336 33.8133 35.4746 33.9202C35.5155 34.027 35.4836 34.1144 35.4036 34.1144C35.3234 34.1144 35.2973 34.1782 35.3455 34.2561C35.3936 34.3341 35.3618 34.3978 35.2746 34.3978C35.1875 34.3978 35.1556 34.4616 35.2038 34.5395C35.2519 34.6175 35.2255 34.6812 35.145 34.6812C34.9749 34.6812 34.5459 35.4525 34.6427 35.5843C34.6785 35.6331 34.6684 35.6443 34.6204 35.6092C34.5116 35.5299 33.2151 37.2588 33.263 37.4194C33.2822 37.4837 33.2418 37.5016 33.1733 37.4592C33.0369 37.375 32.4631 37.9248 32.4493 38.1528C32.4445 38.2307 32.3912 38.2945 32.3309 38.2945C32.1307 38.2945 30.7403 39.3785 30.7403 39.5346C30.7403 39.6189 30.7004 39.6478 30.6515 39.5991C30.5313 39.4788 29.7485 39.8938 29.7485 40.0777C29.7485 40.1582 29.6847 40.1847 29.6068 40.1366C29.5288 40.0884 29.4651 40.1144 29.4651 40.1946C29.4651 40.2747 29.3589 40.2995 29.2293 40.2498C29.0718 40.1893 29.0272 40.2138 29.0949 40.3234C29.1593 40.4275 29.1226 40.4592 28.9948 40.4102C28.8838 40.3677 28.7051 40.4161 28.5977 40.518C28.4903 40.62 28.2458 40.7209 28.0543 40.7423C27.8629 40.7637 27.6716 40.8275 27.6292 40.884C27.5869 40.9405 27.4884 40.9889 27.4105 40.9914C27.3325 40.9938 26.7905 41.0829 26.206 41.1894C25.0163 41.4059 22.1099 41.4769 21.9958 41.2922C21.9551 41.2265 21.7699 41.2017 21.5843 41.2371C21.3985 41.2727 21.2466 41.2467 21.2466 41.1796C21.2466 41.1126 21.0872 41.0576 20.8924 41.0576C20.6976 41.0576 20.5382 41.1252 20.5382 41.2076C20.5382 41.2901 20.4818 41.3228 20.4128 41.2802C20.2483 41.1786 19.4046 41.4745 19.4046 41.6337C19.4046 41.7016 19.3089 41.7204 19.192 41.6757C19.0751 41.6307 18.9795 41.6684 18.9795 41.7593C18.9795 41.8501 18.9278 41.8926 18.8647 41.8535C18.7016 41.7527 17.5625 42.0594 17.5625 42.2039C17.5625 42.2699 17.4828 42.2946 17.3854 42.2589C17.2881 42.223 16.8307 42.3071 16.3693 42.4455L15.5303 42.6973L16.547 43.2316C17.1061 43.5254 17.6271 43.7266 17.7048 43.6787C17.7824 43.6307 17.8459 43.6542 17.8459 43.7308C17.8459 43.8919 19.2581 44.3363 19.4308 44.2296C19.4943 44.1904 19.5463 44.2331 19.5463 44.3248C19.5463 44.4216 19.665 44.4603 19.8297 44.4172C19.9855 44.3765 20.1131 44.3937 20.1131 44.4556C20.1131 44.6618 22.9684 44.9243 24.2332 44.8345C25.6099 44.7369 27.623 44.3347 27.623 44.1575C27.623 44.094 27.7186 44.0788 27.8355 44.1236C27.9524 44.1685 28.0481 44.1366 28.0481 44.0528C28.0481 43.969 28.1437 43.9371 28.2606 43.9819C28.3775 44.0268 28.4732 43.995 28.4732 43.9111C28.4732 43.8273 28.5606 43.7923 28.6674 43.8333C28.7743 43.8742 28.9581 43.8116 29.0757 43.6938C29.1933 43.5762 29.329 43.5194 29.3773 43.5676C29.4255 43.6159 29.4651 43.5829 29.4651 43.4945C29.4651 43.4061 29.5601 43.3701 29.6765 43.4147C29.7969 43.4609 29.9251 43.3986 29.9746 43.2693C30.0225 43.1449 30.1147 43.0759 30.1799 43.1162C30.3179 43.2013 31.1986 42.6966 31.094 42.5922C31.0553 42.5535 31.1046 42.5217 31.2037 42.5217C31.5238 42.5217 32.5817 41.7383 32.4865 41.5717C32.4363 41.4838 32.4452 41.4569 32.5063 41.512C32.6535 41.6446 33.5945 40.9216 33.4915 40.7549C33.4474 40.6838 33.4959 40.643 33.5992 40.6644C33.7024 40.6858 33.7709 40.6237 33.7514 40.5262C33.732 40.4289 33.7957 40.3651 33.8931 40.3845C33.9906 40.4041 34.0543 40.3403 34.0348 40.2428C34.0154 40.1455 34.0791 40.0817 34.1765 40.1011C34.274 40.1207 34.336 40.0521 34.3146 39.9489C34.2932 39.8456 34.334 39.7973 34.4055 39.8414C34.5195 39.9118 35.0563 39.2593 35.0367 39.0738C35.0326 39.0349 35.1494 38.919 35.296 38.8162C35.4427 38.7134 35.526 38.57 35.4812 38.4974C35.4363 38.4247 35.468 38.3653 35.5518 38.3653C35.7443 38.3653 36.2763 37.5038 36.1799 37.3481C36.1404 37.2841 36.1743 37.2318 36.2553 37.2318C36.4652 37.2318 37.0052 36.12 36.8876 35.9297C36.8279 35.8331 36.8535 35.8106 36.953 35.8722C37.1049 35.966 37.1725 35.7697 37.1549 35.285C37.1515 35.1884 37.1957 35.1385 37.2533 35.174C37.3916 35.2595 37.7213 34.1487 37.6108 33.9698C37.5636 33.8935 37.6 33.831 37.6917 33.831C37.787 33.831 37.8273 33.713 37.7859 33.5545C37.7461 33.4023 37.7727 33.2582 37.8449 33.2341C38.0288 33.1727 38.1644 31.7726 38.1644 29.9344C38.1644 28.0962 38.0288 26.6961 37.8449 26.6347C37.7727 26.6106 37.7461 26.4665 37.7859 26.3143C37.8257 26.1621 37.789 26.0377 37.7044 26.0377C37.6198 26.0377 37.5874 25.9421 37.6322 25.8252C37.6771 25.7083 37.6492 25.6126 37.5702 25.6126C37.4912 25.6126 37.4626 25.4752 37.5065 25.3071C37.5609 25.0993 37.5344 25.0337 37.424 25.102C37.3187 25.167 37.2913 25.1249 37.3459 24.9824C37.3924 24.8614 37.3618 24.7625 37.2779 24.7625C37.1942 24.7625 37.1569 24.681 37.195 24.5812C37.2333 24.4816 37.1629 24.2745 37.0385 24.1207C36.9141 23.9671 36.8527 23.9212 36.902 24.0185ZM88.3789 25.1204C89.8181 25.5478 90.9493 26.8604 91.1536 28.3403L91.227 28.8717H82.4825L82.6287 28.3403C83.0851 26.6805 84.1845 25.505 85.7187 25.0367C86.3206 24.8529 87.6156 24.8937 88.3789 25.1204ZM142.698 25.43C143.521 25.7974 144.434 26.6145 144.889 27.3919C145.371 28.2136 145.695 29.8498 145.574 30.845C145.349 32.6986 144.358 34.1821 142.851 34.9221C142.13 35.2764 141.891 35.3189 140.626 35.3189C139.411 35.3189 139.118 35.2713 138.572 34.9839C137.025 34.1714 136.188 33.0761 135.872 31.4506C135.322 28.627 136.662 26.041 139.072 25.2733C140.042 24.9644 141.828 25.0416 142.698 25.43ZM164.385 25.4333C166.421 26.3421 167.574 28.6909 167.184 31.1342C166.986 32.3722 166.634 33.1182 165.853 33.9529C165.009 34.8551 164.054 35.2731 162.642 35.3587C159.647 35.5401 157.417 33.352 157.417 30.2308C157.417 27.8139 158.708 25.9574 160.889 25.2359C161.717 24.962 163.563 25.0663 164.385 25.4333ZM25.6392 25.7543C25.6392 25.8323 25.703 25.896 25.7809 25.896C25.8589 25.896 25.9226 25.8323 25.9226 25.7543C25.9226 25.6764 25.8589 25.6126 25.7809 25.6126C25.703 25.6126 25.6392 25.6764 25.6392 25.7543Z"
                fill="black"></path>
            <path fill-rule="evenodd" clip-rule="evenodd"
                d="M22.3443 15.0687C22.3111 15.1017 21.9158 15.1543 21.4656 15.1856C20.5252 15.2509 18.6961 15.6953 18.6961 15.8584C18.6961 15.9189 18.6005 15.9316 18.4836 15.8869C18.3667 15.842 18.271 15.8622 18.271 15.9319C18.271 16.0016 18.1333 16.0691 17.965 16.0817C17.7966 16.0945 17.6141 16.1772 17.5594 16.2656C17.5047 16.3542 17.4034 16.4187 17.3341 16.4089C17.1205 16.379 16.1456 16.8629 16.1456 16.999C16.1456 17.0698 16.0818 17.0882 16.0039 17.04C15.926 16.9918 15.8622 17.0237 15.8622 17.1108C15.8622 17.198 15.798 17.2296 15.7195 17.1811C15.641 17.1325 15.5387 17.1922 15.4921 17.3136C15.4455 17.435 15.3498 17.4988 15.2795 17.4553C15.2093 17.4118 15.1136 17.4756 15.067 17.597C15.0204 17.7184 14.9247 17.7822 14.8545 17.7387C14.7842 17.6952 14.6884 17.7594 14.6416 17.8813C14.5949 18.003 14.4683 18.1027 14.3604 18.1027C14.2525 18.1027 14.0846 18.2303 13.9873 18.3861C13.8899 18.542 13.7437 18.6695 13.6624 18.6695C13.5093 18.6695 12.0364 20.1015 12.0364 20.2503C12.0364 20.2965 11.8156 20.5753 11.5457 20.8699C11.2758 21.1646 11.0842 21.4529 11.1197 21.5105C11.1555 21.5682 11.0802 21.6555 10.9525 21.7045C10.825 21.7534 10.7563 21.8292 10.7999 21.8728C10.8434 21.9165 10.7546 22.0767 10.6024 22.2289C10.4502 22.3811 10.3637 22.5672 10.4101 22.6421C10.4565 22.7172 10.4269 22.7787 10.3444 22.7787C10.2619 22.7787 10.1943 22.8463 10.1943 22.9288C10.1943 23.0112 10.2581 23.0394 10.336 22.9913C10.414 22.9431 10.4777 22.9625 10.4777 23.0343C10.4777 23.1063 10.8663 23.2476 11.3412 23.3483C12.0625 23.5014 12.2244 23.4998 12.3237 23.339C12.3892 23.2331 12.4113 23.0957 12.3729 23.0335C12.3345 22.9713 12.3743 22.9204 12.4614 22.9204C12.5486 22.9204 12.5805 22.8566 12.5323 22.7787C12.4841 22.7008 12.516 22.637 12.6031 22.637C12.6903 22.637 12.7222 22.5732 12.674 22.4953C12.6258 22.4174 12.6646 22.3536 12.7601 22.3536C12.8556 22.3536 12.8951 22.3149 12.8479 22.2678C12.8006 22.2204 12.8834 22.0514 13.0319 21.892C13.1803 21.7326 13.2725 21.5547 13.2367 21.4968C13.2008 21.4388 13.2708 21.3534 13.3923 21.3068C13.5137 21.2602 13.5775 21.1645 13.534 21.0942C13.4905 21.0239 13.5593 20.9263 13.687 20.8773C13.8145 20.8284 13.879 20.7483 13.8301 20.6993C13.7812 20.6504 13.8518 20.5296 13.987 20.4307C14.122 20.3319 14.2361 20.198 14.2402 20.1334C14.2501 19.9798 16.0389 18.191 16.1925 18.1811C16.2571 18.177 16.391 18.0629 16.4898 17.9279C16.5887 17.7927 16.7095 17.7221 16.7584 17.771C16.8075 17.8199 16.8875 17.7554 16.9364 17.6279C16.9854 17.5002 17.0831 17.4314 17.1533 17.4749C17.2236 17.5184 17.3193 17.4546 17.3659 17.3332C17.4125 17.2117 17.4979 17.1417 17.5559 17.1776C17.6139 17.2134 17.7917 17.1212 17.9511 16.9728C18.1105 16.8243 18.2795 16.7414 18.3269 16.7888C18.3741 16.836 18.4127 16.7966 18.4127 16.701C18.4127 16.6055 18.4765 16.5667 18.5544 16.6149C18.6323 16.6631 18.6961 16.6312 18.6961 16.544C18.6961 16.4569 18.7599 16.425 18.8378 16.4732C18.9157 16.5214 18.9795 16.5068 18.9795 16.4409C18.9795 16.3749 19.1173 16.3105 19.2856 16.2979C19.4539 16.2852 19.6293 16.2238 19.6753 16.1615C19.7213 16.0991 19.8786 16.0276 20.0248 16.0024C20.1711 15.9771 20.458 15.8876 20.6625 15.8031C20.8669 15.7187 21.0979 15.6375 21.1758 15.6225C21.2538 15.6076 21.3494 15.5804 21.3884 15.562C21.4762 15.5206 22.0399 15.4252 22.5574 15.3643C22.7716 15.3391 23.4359 15.3072 24.0334 15.2936C24.6308 15.28 25.0821 15.2311 25.0361 15.1852C24.9387 15.0877 22.4335 14.9793 22.3443 15.0687ZM69.3527 35.3189L69.7247 36.0982C70.378 37.4673 71.6019 38.4308 73.1373 38.7849C73.9676 38.9765 75.6263 38.9672 76.4976 38.7661L77.2169 38.6002V37.5815C77.2169 37.0212 77.1759 36.2637 77.1258 35.898C77.0518 35.358 76.9919 35.2519 76.8069 35.3323C76.6817 35.3868 76.1967 35.4576 75.7291 35.4899C74.6575 35.5637 74.0067 35.2476 73.6036 34.4575C73.33 33.921 73.3188 33.5798 73.28 24.5145L73.2397 15.1271H69.2746L69.3527 35.3189ZM35.2263 20.4407C35.0298 21.0252 34.9125 21.5044 34.9656 21.5056C35.0186 21.5068 34.9792 21.5604 34.8779 21.6246C34.7766 21.6889 34.6833 21.8792 34.6706 22.0476C34.658 22.2159 34.5937 22.3536 34.5276 22.3536C34.4617 22.3536 34.4437 22.412 34.4878 22.4833C34.5319 22.5546 34.5197 22.6342 34.4607 22.6604C34.2839 22.7388 33.4434 24.4427 33.5359 24.5352C33.5829 24.5822 33.5365 24.6208 33.4326 24.6208C33.3287 24.6208 33.2852 24.6623 33.336 24.713C33.3867 24.7637 33.3175 24.8961 33.1824 25.0069C33.0184 25.1415 33.0074 25.1781 33.1492 25.1167C33.327 25.0399 33.3257 25.0555 33.1417 25.2125C32.8801 25.4354 31.9354 26.7958 31.9939 26.8654C32.0162 26.892 31.9187 26.9984 31.7771 27.1019C31.6355 27.2055 31.518 27.3432 31.516 27.4078C31.514 27.4726 31.3227 27.7224 31.0909 27.9628C30.8591 28.2033 30.1753 28.9163 29.5714 29.5471C28.9674 30.1781 28.4732 30.6644 28.4732 30.628C28.4732 30.5443 26.7325 31.9825 26.6153 32.163C26.5677 32.2365 26.472 32.3037 26.4027 32.3124C26.1648 32.3423 24.9308 33.1651 24.9308 33.2937C24.9308 33.3647 24.8767 33.3892 24.8105 33.3484C24.7445 33.3075 24.5387 33.4153 24.3534 33.588C24.168 33.7606 24.0099 33.87 24.002 33.8311C23.9786 33.7159 22.947 34.3097 22.947 34.4384C22.947 34.5033 22.8833 34.5169 22.8053 34.4687C22.7274 34.4205 22.6636 34.4524 22.6636 34.5395C22.6636 34.6267 22.5999 34.6586 22.5219 34.6104C22.444 34.5622 22.3802 34.5904 22.3802 34.6729C22.3802 34.7553 22.3325 34.81 22.274 34.7942C22.0896 34.7443 21.105 35.1576 21.105 35.2849C21.105 35.3517 21.0412 35.3671 20.9633 35.3189C20.8853 35.2707 20.8216 35.2853 20.8216 35.3512C20.8216 35.4172 20.6839 35.4815 20.5155 35.4942C20.3472 35.5069 20.1718 35.5683 20.1259 35.6306C20.0798 35.693 19.9147 35.7661 19.7589 35.793C19.603 35.8201 19.2523 35.9418 18.9795 36.0636C18.7068 36.1855 18.4411 36.2909 18.3891 36.298C18.3372 36.3049 18.2512 36.3541 18.1982 36.4072C18.1451 36.4604 18.0122 36.4695 17.9029 36.4275C17.7937 36.3856 17.7043 36.4148 17.7043 36.4924C17.7043 36.5701 17.6246 36.6306 17.5271 36.6269C17.1071 36.6113 16.842 36.6726 16.9028 36.7713C16.9389 36.8296 16.7125 36.8876 16.3999 36.9001C16.0872 36.9124 15.7668 36.9871 15.6879 37.066C15.6088 37.1451 15.4629 37.1784 15.3633 37.1402C15.2638 37.102 15.142 37.1361 15.0926 37.2159C15.0433 37.2958 14.8934 37.3212 14.7595 37.2723C14.4829 37.1714 13.7757 36.6511 13.8685 36.6167C13.902 36.6043 13.7525 36.3268 13.5362 36.0002C13.1829 35.4661 13.1354 34.9806 13.4559 35.1787C13.6019 35.269 14.87 34.9789 15.0959 34.8037C15.1811 34.7376 15.291 34.7242 15.3405 34.7735C15.3898 34.8229 15.5173 34.7911 15.6239 34.7026C15.7303 34.6144 15.8506 34.5751 15.891 34.6156C15.9315 34.656 16.1488 34.6134 16.3739 34.5208C16.599 34.4282 16.863 34.3654 16.9603 34.3813C17.0578 34.3973 17.1375 34.3596 17.1376 34.2978C17.1376 34.2359 17.2811 34.1769 17.4564 34.1669C17.6317 34.1567 18.0302 34.0358 18.3419 33.8982C18.6536 33.7606 19.0334 33.6238 19.186 33.5943C19.3384 33.5647 19.4979 33.4942 19.5402 33.4379C19.5824 33.3813 19.7447 33.3133 19.9006 33.2867C20.0564 33.2602 20.2053 33.18 20.2314 33.1087C20.2576 33.0374 20.3373 33.0152 20.4085 33.0592C20.4798 33.1033 20.5382 33.0611 20.5382 32.9656C20.5382 32.8701 20.5755 32.8293 20.6211 32.8749C20.7395 32.9933 21.5301 32.6966 21.5301 32.5335C21.5301 32.4587 21.5938 32.4368 21.6717 32.4849C21.7497 32.5331 21.8134 32.5012 21.8134 32.4141C21.8134 32.3269 21.8772 32.2951 21.9551 32.3432C22.0331 32.3914 22.0968 32.3595 22.0968 32.2724C22.0968 32.1852 22.1606 32.1534 22.2385 32.2015C22.3165 32.2497 22.3802 32.2178 22.3802 32.1307C22.3802 32.0435 22.444 32.0117 22.5219 32.0598C22.5999 32.108 22.6636 32.0761 22.6636 31.989C22.6636 31.9018 22.7274 31.87 22.8053 31.9181C22.8832 31.9663 22.947 31.9344 22.947 31.8473C22.947 31.7602 23.0085 31.7269 23.0836 31.7732C23.1586 31.8197 23.3446 31.7331 23.4968 31.5809C23.649 31.4287 23.8108 31.3413 23.8563 31.3868C23.9018 31.4323 23.9389 31.3913 23.9389 31.2958C23.9389 31.2003 23.993 31.1555 24.0592 31.1964C24.1252 31.2373 24.3097 31.1492 24.4691 31.0008C24.6285 30.8523 24.796 30.768 24.8415 30.8133C24.887 30.8588 24.9642 30.7915 25.0131 30.664C25.0621 30.5363 25.1598 30.4675 25.2301 30.511C25.3003 30.5545 25.396 30.4907 25.4426 30.3693C25.4892 30.2478 25.5849 30.1841 25.6551 30.2276C25.7254 30.2711 25.8211 30.2073 25.8677 30.0859C25.9143 29.9644 26.0051 29.8977 26.0695 29.9375C26.1339 29.9775 26.2867 29.8672 26.409 29.6927C26.5311 29.5182 26.6333 29.4375 26.6358 29.5131C26.6385 29.5889 26.7731 29.4916 26.9352 29.2968C27.0973 29.1019 27.2769 28.9425 27.3342 28.9425C27.3916 28.9425 28.0262 28.3528 28.7443 27.6318C29.4624 26.9109 29.9998 26.3211 29.9385 26.3211C29.8773 26.3211 29.9699 26.2211 30.1444 26.099C30.3189 25.9767 30.4292 25.8239 30.3892 25.7594C30.3494 25.6951 30.4162 25.6043 30.5376 25.5577C30.659 25.5111 30.7228 25.4154 30.6793 25.3451C30.6358 25.2748 30.6995 25.1792 30.821 25.1326C30.9424 25.086 31.0021 24.9837 30.9535 24.9052C30.905 24.8267 30.9366 24.7625 31.0237 24.7625C31.1109 24.7625 31.1428 24.6987 31.0946 24.6208C31.0464 24.5428 31.0783 24.4791 31.1654 24.4791C31.2526 24.4791 31.2845 24.4153 31.2363 24.3374C31.1881 24.2594 31.22 24.1957 31.3071 24.1957C31.3943 24.1957 31.4296 24.1373 31.3855 24.066C31.3414 23.9948 31.3855 23.9079 31.4834 23.8729C31.5813 23.838 31.6237 23.7683 31.5776 23.7182C31.5316 23.6679 31.1286 24.0099 30.682 24.4781C30.2355 24.9462 29.8145 25.3293 29.7465 25.3293C29.6785 25.3293 29.5223 25.4727 29.3995 25.6481C29.2768 25.8235 29.1616 25.942 29.1436 25.9113C29.0984 25.8347 26.9966 27.1958 26.9379 27.3399C26.9117 27.404 26.8321 27.4204 26.7608 27.3763C26.6895 27.3323 26.6311 27.3676 26.6311 27.4547C26.6311 27.5419 26.5674 27.5737 26.4895 27.5256C26.4115 27.4774 26.3478 27.5093 26.3478 27.5964C26.3478 27.6835 26.284 27.7154 26.2061 27.6673C26.1281 27.6191 26.0643 27.6509 26.0643 27.7381C26.0643 27.8252 26.0006 27.8571 25.9226 27.8089C25.8447 27.7608 25.781 27.7927 25.781 27.8798C25.781 27.9669 25.7172 27.9988 25.6393 27.9506C25.5613 27.9025 25.4976 27.9307 25.4976 28.0131C25.4976 28.0956 25.4497 28.1492 25.3913 28.132C25.2404 28.0877 23.7972 28.6271 23.7972 28.7279C23.7972 28.7738 23.6547 28.8221 23.4805 28.8353C23.3062 28.8483 23.1427 28.9221 23.1171 28.9991C23.0914 29.0761 22.9789 29.1041 22.867 29.0611C22.7552 29.0182 22.6636 29.0574 22.6636 29.1483C22.6636 29.2391 22.6043 29.2768 22.5317 29.232C22.4592 29.1871 22.3591 29.2163 22.3094 29.2968C22.2597 29.3772 22.164 29.4091 22.0969 29.3676C22.0297 29.3261 21.9365 29.3542 21.8896 29.43C21.8426 29.5058 21.7107 29.5318 21.5964 29.4879C21.482 29.4441 21.3883 29.4825 21.3883 29.5733C21.3883 29.6642 21.332 29.7037 21.263 29.6611C21.1537 29.5935 20.7062 29.699 19.9714 29.9656C19.8545 30.0081 19.6313 30.0636 19.4755 30.0893C18.3508 30.2742 16.1473 30.8099 16.2186 30.8812C16.2666 30.9293 16.0849 30.9387 15.815 30.9023C15.5449 30.8659 15.2837 30.9015 15.2343 30.9813C15.185 31.0612 15.051 31.0905 14.9366 31.0466C14.8223 31.0028 14.6171 31.0147 14.4807 31.0732C14.3443 31.1316 14.0636 31.1662 13.857 31.15C13.6505 31.1337 13.4447 31.1798 13.3999 31.2523C13.3552 31.3249 13.1646 31.3548 12.9767 31.3189C12.7887 31.2829 12.5122 31.3192 12.3621 31.3995C11.9437 31.6236 11.3888 31.2948 11.4352 30.8505C11.4979 30.2484 11.3048 30.136 10.1034 30.0751C9.48301 30.0438 8.8672 29.9765 8.73471 29.9256C8.52146 29.8439 8.49394 29.9537 8.49394 30.8874C8.49394 31.4674 8.53322 31.9811 8.58125 32.029C8.62915 32.077 8.68752 32.3719 8.71076 32.6842C8.73414 32.9966 8.8023 33.3317 8.86238 33.4289C8.92246 33.5261 8.9926 33.7966 9.0181 34.03C9.04361 34.2634 9.13288 34.4966 9.21648 34.5482C9.29994 34.5998 9.35803 34.6838 9.34556 34.7348C9.29087 34.9571 9.52099 35.6731 9.6471 35.6731C9.72347 35.6731 9.74657 35.7369 9.69839 35.8148C9.65021 35.8927 9.68209 35.9565 9.76924 35.9565C9.85638 35.9565 9.88826 36.0203 9.84009 36.0982C9.79191 36.1761 9.82379 36.2399 9.91093 36.2399C9.99808 36.2399 10.03 36.3037 9.98178 36.3816C9.93361 36.4595 9.96546 36.5233 10.0526 36.5233C10.1397 36.5233 10.1716 36.587 10.1235 36.665C10.0753 36.7429 10.1072 36.8067 10.1943 36.8067C10.2814 36.8067 10.3133 36.8704 10.2652 36.9484C10.217 37.0263 10.2489 37.0901 10.336 37.0901C10.4231 37.0901 10.4565 37.1516 10.4101 37.2267C10.3637 37.3016 10.4502 37.4877 10.6024 37.6399C10.7546 37.792 10.8434 37.9523 10.7999 37.996C10.7563 38.0396 10.825 38.1154 10.9525 38.1643C11.0802 38.2133 11.1491 38.3109 11.1056 38.3812C11.0621 38.4515 11.1263 38.5473 11.2481 38.5941C11.3698 38.6408 11.4696 38.7673 11.4696 38.8753C11.4696 38.9832 11.5971 39.1511 11.753 39.2484C11.9089 39.3458 12.0364 39.496 12.0364 39.5822C12.0364 39.8699 13.7223 41.3666 13.9127 41.2482C14.0108 41.1871 14.2284 41.1549 14.3962 41.1766C14.5641 41.1983 14.7439 41.1474 14.7958 41.0637C14.8475 40.9798 14.947 40.9465 15.0167 40.9896C15.1666 41.0822 16.8695 40.6642 17.0485 40.4909C17.1164 40.4251 17.2599 40.4049 17.3673 40.4462C17.4747 40.4874 17.5625 40.4467 17.5625 40.3559C17.5625 40.2651 17.618 40.225 17.6858 40.2668C17.8104 40.3439 19.5571 39.809 19.688 39.6538C19.727 39.6076 19.8864 39.5475 20.0422 39.5202C20.1981 39.493 20.3575 39.4292 20.3965 39.3785C20.4355 39.3279 20.5949 39.2646 20.7507 39.2379C20.9066 39.2114 21.0555 39.1312 21.0816 39.0599C21.1078 38.9887 21.1874 38.9664 21.2587 39.0105C21.33 39.0546 21.3884 39.0336 21.3884 38.9642C21.3884 38.8946 21.4802 38.8376 21.5924 38.8376C21.9051 38.8376 23.6555 37.9414 23.6555 37.7813C23.6555 37.7036 23.7193 37.6795 23.7972 37.7277C23.8751 37.7759 23.9389 37.7477 23.9389 37.6652C23.9389 37.5828 23.9974 37.5312 24.0688 37.5506C24.2394 37.5971 25.3559 36.9155 25.3559 36.7649C25.3559 36.7007 25.42 36.6879 25.4985 36.7364C25.577 36.785 25.6793 36.7253 25.726 36.6039C25.7726 36.4825 25.8568 36.4118 25.9132 36.4466C25.9696 36.4815 26.2219 36.3217 26.4739 36.0915C26.7259 35.8614 26.9882 35.6731 27.0569 35.6731C27.1257 35.6731 27.2709 35.546 27.3797 35.3906C27.4886 35.2353 27.6141 35.1446 27.6587 35.1892C27.7032 35.2339 27.8849 35.074 28.0623 34.8341C28.2397 34.5941 28.4542 34.3978 28.5391 34.3978C28.7173 34.3978 30.5987 32.5365 30.5987 32.3601C30.5987 32.2953 30.7581 32.117 30.9529 31.9636C31.1477 31.8105 31.3071 31.6094 31.3071 31.5169C31.3071 31.4243 31.4371 31.2675 31.5961 31.1683C31.7549 31.0691 31.8469 30.9261 31.8002 30.8507C31.7536 30.7754 31.7764 30.7137 31.8508 30.7137C32.009 30.7137 32.9535 29.2825 32.9012 29.1221C32.8817 29.0623 32.9334 29.0134 33.0159 29.0134C33.0983 29.0134 33.1265 28.9496 33.0783 28.8717C33.0302 28.7937 33.0536 28.73 33.1304 28.73C33.2678 28.73 33.9461 27.4452 34.0283 27.0296C34.0514 26.9127 34.1212 26.7795 34.1836 26.7335C34.2459 26.6876 34.3073 26.5121 34.32 26.3438C34.3326 26.1755 34.3825 26.0377 34.4308 26.0377C34.5579 26.0377 34.851 25.0211 34.7643 24.8808C34.724 24.8157 34.7515 24.7625 34.8255 24.7625C34.9526 24.7625 35.1525 24.0418 35.2008 23.4093C35.213 23.2494 35.2684 23.0451 35.3241 22.9551C35.3796 22.8651 35.4556 22.3902 35.4929 21.8996C35.5301 21.4089 35.5994 20.6408 35.6469 20.1927C35.6944 19.7447 35.6996 19.378 35.6584 19.378C35.6173 19.378 35.4229 19.8562 35.2263 20.4407ZM57.0268 21.6452C54.0305 22.1871 51.6001 23.9413 50.4501 26.392C49.8404 27.6911 49.6564 28.63 49.673 30.3595C49.698 32.9662 50.4114 34.6757 52.2251 36.4753C55.4399 39.6647 61.7198 39.7914 64.7826 36.7285C65.1959 36.3153 65.6733 35.7294 65.8436 35.4263L66.1532 34.8755L63.0602 33.0965L62.3098 33.8614C61.1643 35.0288 60.451 35.3189 58.7255 35.3189C57.4604 35.3189 57.2219 35.2764 56.5004 34.9221C54.8023 34.0882 53.8152 32.4253 53.7923 30.3595C53.7668 28.0766 54.6374 26.5246 56.455 25.6127C57.3825 25.1473 57.5268 25.1171 58.7929 25.1235C60.4625 25.1319 61.212 25.4409 62.2949 26.5683C62.7029 26.9928 63.0904 27.3181 63.1562 27.2912C63.2218 27.2643 63.9235 26.8645 64.7154 26.403L66.1552 25.5638L65.841 25.0005C65.4039 24.2167 64.1954 23.0505 63.3353 22.5823C62.9381 22.3662 62.1847 22.0641 61.6611 21.9111C60.5684 21.5917 58.1041 21.4503 57.0268 21.6452ZM85.577 21.6449C82.0407 22.1181 79.4485 24.3654 78.5372 27.7483C78.2063 28.9767 78.2129 31.5814 78.5498 32.8279C78.9477 34.2997 79.5705 35.3662 80.6727 36.4642C82.3916 38.1763 84.1959 38.8471 87.0648 38.8408C89.6474 38.8349 91.5162 38.2241 93.2881 36.8067C94.3214 35.9802 94.3242 36.008 93.0654 34.7026L91.9413 33.537L91.5097 33.8611C89.9133 35.0603 88.7557 35.4518 87.0777 35.3604C85.7779 35.2897 84.9277 34.9734 84.112 34.2572C83.5371 33.7524 82.9454 32.8361 82.7464 32.1426L82.6212 31.7056H95.1076L95.0323 29.8281C94.9896 28.7656 94.8559 27.5838 94.7242 27.1054C93.8338 23.8702 91.6732 22.0338 88.3028 21.6477C86.9434 21.4918 86.7222 21.4917 85.577 21.6449ZM128.015 21.6555C126.51 21.908 125.168 22.5656 124.421 23.4159L123.977 23.9222V21.7868H120.009V38.7905H124.099L124.15 33.8665C124.206 28.5111 124.229 28.3433 125.073 27.1236C125.86 25.9865 127.617 25.2318 129.176 25.3611L129.928 25.4235V21.5035L129.326 21.52C128.995 21.5291 128.405 21.59 128.015 21.6555ZM139.209 21.595C135.438 22.2024 132.645 24.6488 131.844 28.0463C131.576 29.1826 131.574 31.0697 131.839 32.3199C132.526 35.5664 135.083 38.0276 138.501 38.7338C140.616 39.1708 143.605 38.8138 145.164 37.9381C147.413 36.6749 148.815 34.9506 149.424 32.6975C149.73 31.5649 149.77 29.1229 149.5 28.0215C148.792 25.1279 146.585 22.8494 143.602 21.9319C142.617 21.6291 140.165 21.4411 139.209 21.595ZM161.456 21.6052C160.166 21.7851 158.306 22.6481 157.699 23.3476C157.565 23.5024 157.415 23.6289 157.365 23.6289C157.316 23.6289 157.276 23.2144 157.276 22.7079V21.7868H153.308V44.8834H157.417V36.7826L158.035 37.3264C159.4 38.5275 160.986 39.0013 163.298 38.8979C164.467 38.8456 165.114 38.7382 165.886 38.4685C168.727 37.4761 170.661 35.2145 171.235 32.2128C172.216 27.0872 169.447 22.6171 164.734 21.7152C163.689 21.5152 162.408 21.4723 161.456 21.6052ZM98.4714 26.997C98.4714 31.8259 98.4928 32.2849 98.7641 33.2671C99.5991 36.2911 102.012 37.9322 105.633 37.9381C107.609 37.9414 109.27 37.3943 110.463 36.3468L110.987 35.8862L110.889 37.0595C110.659 39.824 109.474 41.1592 106.974 41.4732C104.759 41.7514 101.698 40.935 100.298 39.6932C100.093 39.5115 99.9739 39.6517 99.1432 41.0529L98.2168 42.6153L98.7555 43.0419C100.269 44.2405 102.489 44.8742 105.556 44.9827C109.03 45.1056 110.872 44.5858 112.586 42.9991C113.588 42.0706 114.22 40.9737 114.655 39.4017C114.95 38.3366 114.964 37.9808 115.016 30.0407L115.07 21.7868L110.962 21.7868L110.909 26.2857C110.846 31.5769 110.791 31.8625 109.595 33.0655C108.705 33.9613 107.757 34.3242 106.336 34.3137C104.521 34.3001 103.367 33.5223 102.781 31.9182C102.555 31.2987 102.516 30.6184 102.469 26.4983L102.416 21.7868H98.4714V26.997ZM3.34542 23.7668C2.82596 24.3126 2.40101 24.7144 2.40101 24.6599C2.40101 24.6052 2.08219 24.8746 1.69252 25.2584C0.832567 26.1053 0.777447 26.4057 1.49953 26.3091C1.54927 26.3024 1.63174 26.3645 1.68289 26.4471C1.7339 26.5297 1.93228 26.6261 2.12371 26.6612C2.31528 26.6963 2.48773 26.7379 2.50728 26.7534C2.52683 26.7689 2.60647 26.7977 2.6844 26.8171C2.76234 26.8365 2.85798 26.8685 2.89695 26.8879C2.93591 26.9073 3.01555 26.9367 3.07407 26.953C3.13259 26.9693 3.37163 27.0628 3.60543 27.1607C4.1973 27.4089 7.09089 28.0548 7.18568 27.96C7.22847 27.9172 7.33886 27.9448 7.43096 28.0212C7.52306 28.0977 8.10288 28.2077 8.71926 28.2656C10.0606 28.3917 15.1883 28.3925 16.2873 28.2669C16.7159 28.2179 17.1623 28.1691 17.2792 28.1588C17.9859 28.0956 20.0673 27.6827 20.197 27.5798C20.2821 27.5124 20.3921 27.4976 20.4416 27.547C20.4909 27.5964 20.6184 27.5645 20.7249 27.4761C20.8314 27.3878 20.9562 27.3532 21.0022 27.3993C21.0484 27.4454 21.1672 27.433 21.2662 27.3718C21.3653 27.3105 21.6373 27.2395 21.8707 27.214C22.1041 27.1885 22.3301 27.1206 22.373 27.0632C22.416 27.0057 22.5149 26.9568 22.5928 26.9544C22.9616 26.943 23.6555 26.7101 23.6555 26.5977C23.6555 26.5284 23.7512 26.5085 23.8681 26.5532C23.985 26.5981 24.0806 26.5779 24.0806 26.5082C24.0806 26.4385 24.2183 26.371 24.3867 26.3584C24.555 26.3456 24.7375 26.2629 24.7922 26.1745C24.8469 26.0859 24.9323 26.019 24.9821 26.0257C25.3831 26.0793 25.5412 26.0247 25.3985 25.882C25.3033 25.7868 25.113 25.7702 24.9097 25.8392C24.7265 25.9013 24.5377 25.9425 24.4903 25.9308C24.4428 25.919 23.837 25.9711 23.1441 26.0468C21.7555 26.1983 18.9835 26.2365 17.9876 26.1181C17.6369 26.0763 16.9037 26.002 16.3581 25.9529C14.8083 25.8134 14.6736 25.795 14.4098 25.6853C14.2734 25.6287 14.0682 25.6183 13.9538 25.6621C13.8395 25.706 13.7047 25.6754 13.6544 25.5941C13.6041 25.5128 13.4429 25.4778 13.2958 25.5162C13.1488 25.5546 12.991 25.5252 12.9449 25.4508C12.899 25.3766 12.7555 25.3285 12.626 25.3443C12.4966 25.36 12.295 25.3368 12.1781 25.2927C11.7368 25.1265 8.55419 24.298 8.31685 24.2875C8.18039 24.2816 8.06888 24.2198 8.06888 24.1502C8.06888 24.0806 7.97321 24.0604 7.85631 24.1053C7.73941 24.15 7.64376 24.1182 7.64376 24.0344C7.64376 23.9505 7.54812 23.9187 7.43122 23.9636C7.31432 24.0083 7.2187 23.9884 7.2187 23.9191C7.2187 23.8193 6.69159 23.6306 6.22682 23.5639C6.18785 23.5583 6.07634 23.5031 5.97885 23.4413C5.88151 23.3794 5.80074 23.3804 5.7996 23.4434C5.79833 23.5065 5.75058 23.4846 5.69333 23.3951C5.63609 23.3054 5.46166 23.2098 5.30579 23.1826C5.14992 23.1552 4.99052 23.0937 4.95155 23.0458C4.91258 22.9978 4.74779 22.9172 4.58526 22.8666C4.34849 22.7927 4.10236 22.9714 3.34542 23.7668ZM36.8456 23.9831C36.8636 24.0611 36.8417 24.2205 36.797 24.3374C36.4676 25.1992 36.3178 25.9072 36.3622 26.392C36.5369 28.2972 36.4394 30.5443 36.1255 31.8473C35.9471 32.5877 35.8156 33.2182 35.8334 33.2484C35.8511 33.2787 35.7933 33.3482 35.7047 33.4029C35.6163 33.4575 35.5335 33.6401 35.5208 33.8084C35.5082 33.9767 35.4438 34.1145 35.3778 34.1145C35.3119 34.1145 35.2973 34.1782 35.3455 34.2561C35.3936 34.3341 35.3618 34.3978 35.2746 34.3978C35.1875 34.3978 35.1556 34.4616 35.2038 34.5395C35.2519 34.6175 35.2341 34.6812 35.1641 34.6812C35.0274 34.6812 34.6421 35.3906 34.6831 35.5668C34.6967 35.6252 34.6581 35.6731 34.5973 35.6731C34.5365 35.6731 34.2336 36.0255 33.9243 36.4563C33.3293 37.2845 32.3761 38.3654 32.2405 38.3654C32.1284 38.3654 30.8308 39.3606 30.7245 39.5283C30.6769 39.6034 30.5992 39.6435 30.552 39.6172C30.5047 39.5912 30.3419 39.6762 30.1901 39.8061C30.0384 39.9361 29.8769 40.0052 29.8314 39.9596C29.7857 39.9141 29.7485 39.9549 29.7485 40.0504C29.7485 40.1459 29.6847 40.1847 29.6068 40.1366C29.5288 40.0884 29.4651 40.1203 29.4651 40.2074C29.4651 40.2946 29.4013 40.3264 29.3234 40.2783C29.2455 40.2301 29.1817 40.2447 29.1817 40.3106C29.1817 40.3766 29.044 40.4409 28.8756 40.4535C28.7073 40.4663 28.5248 40.549 28.4701 40.6375C28.4154 40.726 28.3281 40.786 28.2762 40.7708C28.2242 40.7556 28.04 40.7879 27.8669 40.8425C27.6939 40.8972 27.4565 40.958 27.3396 40.9778C27.2227 40.9975 26.7445 41.0985 26.2769 41.2023C25.1011 41.463 21.7491 41.4171 21.0677 41.1308C20.9201 41.0688 20.723 41.1048 20.5855 41.2188C20.4576 41.325 20.3298 41.391 20.3016 41.3656C20.1988 41.2735 19.4046 41.5086 19.4046 41.6312C19.4046 41.7005 19.3089 41.7204 19.192 41.6757C19.0751 41.6307 18.9795 41.6488 18.9794 41.7155C18.9794 41.7822 18.8358 41.8467 18.6606 41.8586C18.4853 41.8704 18.1506 41.9588 17.9168 42.0547C17.683 42.1508 17.3599 42.2471 17.1987 42.2687C16.4915 42.3636 15.6937 42.646 15.8088 42.7608C16.0446 42.9957 17.6168 43.733 17.7312 43.6623C17.7944 43.6233 17.846 43.6488 17.846 43.7191C17.846 43.8449 18.782 44.1823 19.3338 44.2554C19.4896 44.2761 19.6172 44.3064 19.6172 44.3229C19.6172 44.3393 19.7447 44.3732 19.9006 44.3981C20.0564 44.4232 20.439 44.5107 20.7507 44.5929C21.6848 44.8391 24.1874 44.8824 25.4976 44.6751C26.684 44.4874 26.8482 44.4497 27.4105 44.2361C27.5663 44.177 27.7418 44.1151 27.8001 44.0985C27.8585 44.0821 27.9383 44.0526 27.9773 44.0332C28.0162 44.0138 28.1119 43.9818 28.1898 43.9624C28.2677 43.943 28.3475 43.9142 28.3669 43.8988C28.3863 43.8832 28.5618 43.8415 28.7566 43.8061C28.9514 43.7707 29.1322 43.6793 29.1583 43.6032C29.1845 43.5269 29.2642 43.5007 29.3354 43.5448C29.4067 43.5889 29.4651 43.5536 29.4651 43.4664C29.4651 43.3793 29.5288 43.3474 29.6068 43.3956C29.6847 43.4438 29.7485 43.4119 29.7485 43.3247C29.7485 43.2376 29.8122 43.2057 29.8902 43.2539C29.9681 43.3021 30.0319 43.2702 30.0319 43.183C30.0319 43.0959 30.0956 43.064 30.1736 43.1122C30.2515 43.1604 30.3153 43.1285 30.3153 43.0413C30.3153 42.9542 30.3768 42.9209 30.4519 42.9672C30.5268 43.0137 30.7181 42.9219 30.877 42.7631C31.0357 42.6044 31.1654 42.5096 31.1654 42.5522C31.1654 42.5949 31.4524 42.4325 31.8031 42.1912C32.1538 41.9499 32.4407 41.6918 32.4407 41.6176C32.4407 41.5433 32.4919 41.4987 32.5544 41.5181C32.6912 41.5608 34.9913 39.3017 34.9913 39.1246C34.9913 39.0563 35.1212 38.9191 35.2802 38.8199C35.439 38.7207 35.5351 38.5844 35.4936 38.5173C35.4519 38.4501 35.5223 38.355 35.65 38.306C35.7775 38.2571 35.8448 38.1799 35.7994 38.1344C35.754 38.0889 35.8383 37.9214 35.9868 37.762C36.1352 37.6026 36.2233 37.4181 36.1824 37.3521C36.1415 37.2859 36.1659 37.2318 36.2366 37.2318C36.3728 37.2318 36.8567 36.2569 36.8268 36.0432C36.817 35.9739 36.8815 35.8726 36.9701 35.8179C37.0585 35.7632 37.1412 35.5807 37.154 35.4124C37.1666 35.2441 37.2221 35.1063 37.2772 35.1063C37.3621 35.1063 37.5446 34.5527 37.6277 34.0436C37.6404 33.9657 37.6679 33.8381 37.6887 33.7602C37.7096 33.6823 37.739 33.5548 37.7542 33.4768C37.7694 33.3989 37.8306 33.2226 37.8902 33.085C37.95 32.9474 37.9658 32.7083 37.9252 32.5535C37.8847 32.3986 37.9108 32.3085 37.9832 32.3533C38.1288 32.4434 38.1365 32.337 38.1525 30.0052C38.1647 28.2117 38.0399 26.9042 37.8371 26.7014C37.7648 26.6292 37.7369 26.4886 37.775 26.389C37.8133 26.2895 37.7791 26.1677 37.6994 26.1184C37.6194 26.0691 37.5901 25.935 37.634 25.8207C37.6778 25.7063 37.6452 25.6126 37.5614 25.6126C37.4776 25.6126 37.4457 25.517 37.4905 25.4001C37.5354 25.2832 37.5035 25.1876 37.4197 25.1876C37.3359 25.1876 37.304 25.0919 37.3488 24.975C37.3937 24.8581 37.3735 24.7625 37.3037 24.7625C37.234 24.7625 37.1667 24.6254 37.1541 24.458C37.1415 24.2905 37.0596 24.0832 36.972 23.9974C36.8812 23.9083 36.8271 23.9022 36.8456 23.9831ZM88.3789 25.1204C89.8181 25.5478 90.9493 26.8604 91.1536 28.3403L91.227 28.8717H82.4825L82.6287 28.3403C83.0851 26.6805 84.1845 25.505 85.7187 25.0367C86.3206 24.8529 87.6156 24.8937 88.3789 25.1204ZM142.698 25.43C143.521 25.7974 144.434 26.6145 144.889 27.3919C145.371 28.2136 145.695 29.8498 145.574 30.845C145.349 32.6986 144.358 34.1821 142.851 34.9221C142.13 35.2764 141.891 35.3189 140.626 35.3189C139.411 35.3189 139.118 35.2713 138.572 34.9839C137.025 34.1714 136.188 33.0761 135.872 31.4506C135.322 28.627 136.662 26.041 139.072 25.2733C140.042 24.9644 141.828 25.0416 142.698 25.43ZM164.385 25.4333C166.421 26.3421 167.574 28.6909 167.184 31.1342C166.986 32.3722 166.634 33.1182 165.853 33.9529C165.009 34.8551 164.054 35.2731 162.642 35.3587C159.647 35.5401 157.417 33.352 157.417 30.2308C157.417 27.8139 158.708 25.9574 160.889 25.2359C161.717 24.962 163.563 25.0663 164.385 25.4333ZM25.6393 25.7627C25.6393 25.8452 25.703 25.8734 25.781 25.8252C25.8589 25.777 25.9227 25.7096 25.9227 25.6751C25.9227 25.6407 25.8589 25.6126 25.7809 25.6126C25.703 25.6126 25.6393 25.6802 25.6393 25.7627Z"
                fill="black"></path>
            <path fill-rule="evenodd" clip-rule="evenodd"
                d="M69.3527 35.3189L69.7247 36.0982C70.378 37.4673 71.6019 38.4308 73.1373 38.7849C73.9676 38.9765 75.6263 38.9672 76.4976 38.7661L77.2169 38.6002V37.5815C77.2169 37.0212 77.1759 36.2637 77.1258 35.898C77.0518 35.358 76.9919 35.2519 76.8069 35.3323C76.6817 35.3868 76.1967 35.4576 75.7291 35.4899C74.6575 35.5637 74.0067 35.2476 73.6036 34.4575C73.33 33.921 73.3188 33.5798 73.28 24.5145L73.2397 15.1271H69.2746L69.3527 35.3189ZM57.0268 21.6452C54.0305 22.1871 51.6001 23.9413 50.4501 26.392C49.8404 27.6911 49.6564 28.63 49.673 30.3595C49.698 32.9662 50.4114 34.6757 52.2251 36.4753C55.4399 39.6647 61.7198 39.7914 64.7826 36.7285C65.1959 36.3153 65.6733 35.7294 65.8436 35.4263L66.1532 34.8755L63.0602 33.0965L62.3098 33.8614C61.1643 35.0288 60.451 35.3189 58.7255 35.3189C57.4604 35.3189 57.2219 35.2764 56.5004 34.9221C54.8023 34.0882 53.8152 32.4253 53.7923 30.3595C53.7668 28.0766 54.6374 26.5246 56.455 25.6127C57.3825 25.1473 57.5268 25.1171 58.7929 25.1235C60.4625 25.1319 61.212 25.4409 62.2949 26.5683C62.7029 26.9928 63.0904 27.3181 63.1562 27.2912C63.2218 27.2643 63.9235 26.8645 64.7154 26.403L66.1552 25.5638L65.841 25.0005C65.4039 24.2167 64.1954 23.0505 63.3353 22.5823C62.9381 22.3662 62.1847 22.0641 61.6611 21.9111C60.5684 21.5917 58.1041 21.4503 57.0268 21.6452ZM85.577 21.6449C82.0407 22.1181 79.4485 24.3654 78.5372 27.7483C78.2063 28.9767 78.2129 31.5814 78.5498 32.8279C78.9477 34.2997 79.5705 35.3662 80.6727 36.4642C82.3916 38.1763 84.1959 38.8471 87.0648 38.8408C89.6474 38.8349 91.5162 38.2241 93.2881 36.8067C94.3214 35.9802 94.3242 36.008 93.0654 34.7026L91.9413 33.537L91.5097 33.8611C89.9133 35.0603 88.7557 35.4518 87.0777 35.3604C85.7779 35.2897 84.9277 34.9734 84.112 34.2572C83.5371 33.7524 82.9454 32.8361 82.7464 32.1426L82.6212 31.7056H95.1076L95.0323 29.8281C94.9896 28.7656 94.8559 27.5838 94.7242 27.1054C93.8338 23.8702 91.6732 22.0338 88.3028 21.6477C86.9434 21.4918 86.7222 21.4917 85.577 21.6449ZM128.015 21.6555C126.51 21.908 125.168 22.5656 124.421 23.4159L123.977 23.9222V21.7868H120.009V38.7905H124.099L124.15 33.8665C124.206 28.5111 124.229 28.3433 125.073 27.1236C125.86 25.9865 127.617 25.2318 129.176 25.3611L129.928 25.4235V21.5035L129.326 21.52C128.995 21.5291 128.405 21.59 128.015 21.6555ZM139.209 21.595C135.438 22.2024 132.645 24.6488 131.844 28.0463C131.576 29.1826 131.574 31.0697 131.839 32.3199C132.526 35.5664 135.083 38.0276 138.501 38.7338C140.616 39.1708 143.605 38.8138 145.164 37.9381C147.413 36.6749 148.815 34.9506 149.424 32.6975C149.73 31.5649 149.77 29.1229 149.5 28.0215C148.792 25.1279 146.585 22.8494 143.602 21.9319C142.617 21.6291 140.165 21.4411 139.209 21.595ZM161.456 21.6052C160.166 21.7851 158.306 22.6481 157.699 23.3476C157.565 23.5024 157.415 23.6289 157.365 23.6289C157.316 23.6289 157.276 23.2144 157.276 22.7079V21.7868H153.308V44.8834H157.417V36.7826L158.035 37.3264C159.4 38.5275 160.986 39.0013 163.298 38.8979C164.467 38.8456 165.114 38.7382 165.886 38.4685C168.727 37.4761 170.661 35.2145 171.235 32.2128C172.216 27.0872 169.447 22.6171 164.734 21.7152C163.689 21.5152 162.408 21.4723 161.456 21.6052ZM98.4714 26.997C98.4714 31.8259 98.4928 32.2849 98.7641 33.2671C99.5991 36.2911 102.012 37.9322 105.633 37.9381C107.609 37.9414 109.27 37.3943 110.463 36.3468L110.987 35.8862L110.889 37.0595C110.659 39.824 109.474 41.1592 106.974 41.4732C104.759 41.7514 101.698 40.935 100.298 39.6932C100.093 39.5115 99.9739 39.6517 99.1432 41.0529L98.2168 42.6153L98.7555 43.0419C100.269 44.2405 102.489 44.8742 105.556 44.9827C109.03 45.1056 110.872 44.5858 112.586 42.9991C113.588 42.0706 114.22 40.9737 114.655 39.4017C114.95 38.3366 114.964 37.9808 115.016 30.0407L115.07 21.7868L110.962 21.7868L110.909 26.2857C110.846 31.5769 110.791 31.8625 109.595 33.0655C108.705 33.9613 107.757 34.3242 106.336 34.3137C104.521 34.3001 103.367 33.5223 102.781 31.9182C102.555 31.2987 102.516 30.6184 102.469 26.4983L102.416 21.7868H98.4714V26.997ZM88.3789 25.1204C89.8181 25.5478 90.9493 26.8604 91.1536 28.3403L91.227 28.8717H82.4825L82.6287 28.3403C83.0851 26.6805 84.1845 25.505 85.7187 25.0367C86.3206 24.8529 87.6156 24.8937 88.3789 25.1204ZM142.698 25.43C143.521 25.7974 144.434 26.6145 144.889 27.3919C145.371 28.2136 145.695 29.8498 145.574 30.845C145.349 32.6986 144.358 34.1821 142.851 34.9221C142.13 35.2764 141.891 35.3189 140.626 35.3189C139.411 35.3189 139.118 35.2713 138.572 34.9839C137.025 34.1714 136.188 33.0761 135.872 31.4506C135.322 28.627 136.662 26.041 139.072 25.2733C140.042 24.9644 141.828 25.0416 142.698 25.43ZM164.385 25.4333C166.421 26.3421 167.574 28.6909 167.184 31.1342C166.986 32.3722 166.634 33.1182 165.853 33.9529C165.009 34.8551 164.054 35.2731 162.642 35.3587C159.647 35.5401 157.417 33.352 157.417 30.2308C157.417 27.8139 158.708 25.9574 160.889 25.2359C161.717 24.962 163.563 25.0663 164.385 25.4333Z"
                fill="black"></path>
            <path fill-rule="evenodd" clip-rule="evenodd"
                d="M69.3527 35.3189L69.7247 36.0982C70.378 37.4673 71.6019 38.4308 73.1373 38.7849C73.9676 38.9765 75.6263 38.9672 76.4976 38.7661L77.2169 38.6002V37.5815C77.2169 37.0212 77.1759 36.2637 77.1258 35.898C77.0518 35.358 76.9919 35.2519 76.8069 35.3323C76.6817 35.3868 76.1967 35.4576 75.7291 35.4899C74.6575 35.5637 74.0067 35.2476 73.6036 34.4575C73.33 33.921 73.3188 33.5798 73.28 24.5145L73.2397 15.1271H69.2746L69.3527 35.3189ZM57.0268 21.6452C54.0305 22.1871 51.6001 23.9413 50.4501 26.392C49.8404 27.6911 49.6564 28.63 49.673 30.3595C49.698 32.9662 50.4114 34.6757 52.2251 36.4753C55.4399 39.6647 61.7198 39.7914 64.7826 36.7285C65.1959 36.3153 65.6733 35.7294 65.8436 35.4263L66.1532 34.8755L63.0602 33.0965L62.3098 33.8614C61.1643 35.0288 60.451 35.3189 58.7255 35.3189C57.4604 35.3189 57.2219 35.2764 56.5004 34.9221C54.8023 34.0882 53.8152 32.4253 53.7923 30.3595C53.7668 28.0766 54.6374 26.5246 56.455 25.6127C57.3825 25.1473 57.5268 25.1171 58.7929 25.1235C60.4625 25.1319 61.212 25.4409 62.2949 26.5683C62.7029 26.9928 63.0904 27.3181 63.1562 27.2912C63.2218 27.2643 63.9235 26.8645 64.7154 26.403L66.1552 25.5638L65.841 25.0005C65.4039 24.2167 64.1954 23.0505 63.3353 22.5823C62.9381 22.3662 62.1847 22.0641 61.6611 21.9111C60.5684 21.5917 58.1041 21.4503 57.0268 21.6452ZM85.577 21.6449C82.0407 22.1181 79.4485 24.3654 78.5372 27.7483C78.2063 28.9767 78.2129 31.5814 78.5498 32.8279C78.9477 34.2997 79.5705 35.3662 80.6727 36.4642C82.3916 38.1763 84.1959 38.8471 87.0648 38.8408C89.6474 38.8349 91.5162 38.2241 93.2881 36.8067C94.3214 35.9802 94.3242 36.008 93.0654 34.7026L91.9413 33.537L91.5097 33.8611C89.9133 35.0603 88.7557 35.4518 87.0777 35.3604C85.7779 35.2897 84.9277 34.9734 84.112 34.2572C83.5371 33.7524 82.9454 32.8361 82.7464 32.1426L82.6212 31.7056H95.1076L95.0323 29.8281C94.9896 28.7656 94.8559 27.5838 94.7242 27.1054C93.8338 23.8702 91.6732 22.0338 88.3028 21.6477C86.9434 21.4918 86.7222 21.4917 85.577 21.6449ZM128.015 21.6555C126.51 21.908 125.168 22.5656 124.421 23.4159L123.977 23.9222V21.7868H120.009V38.7905H124.099L124.15 33.8665C124.206 28.5111 124.229 28.3433 125.073 27.1236C125.86 25.9865 127.617 25.2318 129.176 25.3611L129.928 25.4235V21.5035L129.326 21.52C128.995 21.5291 128.405 21.59 128.015 21.6555ZM139.209 21.595C135.438 22.2024 132.645 24.6488 131.844 28.0463C131.576 29.1826 131.574 31.0697 131.839 32.3199C132.526 35.5664 135.083 38.0276 138.501 38.7338C140.616 39.1708 143.605 38.8138 145.164 37.9381C147.413 36.6749 148.815 34.9506 149.424 32.6975C149.73 31.5649 149.77 29.1229 149.5 28.0215C148.792 25.1279 146.585 22.8494 143.602 21.9319C142.617 21.6291 140.165 21.4411 139.209 21.595ZM161.456 21.6052C160.166 21.7851 158.306 22.6481 157.699 23.3476C157.565 23.5024 157.415 23.6289 157.365 23.6289C157.316 23.6289 157.276 23.2144 157.276 22.7079V21.7868H153.308V44.8834H157.417V36.7826L158.035 37.3264C159.4 38.5275 160.986 39.0013 163.298 38.8979C164.467 38.8456 165.114 38.7382 165.886 38.4685C168.727 37.4761 170.661 35.2145 171.235 32.2128C172.216 27.0872 169.447 22.6171 164.734 21.7152C163.689 21.5152 162.408 21.4723 161.456 21.6052ZM98.4714 26.997C98.4714 31.8259 98.4928 32.2849 98.7641 33.2671C99.5991 36.2911 102.012 37.9322 105.633 37.9381C107.609 37.9414 109.27 37.3943 110.463 36.3468L110.987 35.8862L110.889 37.0595C110.659 39.824 109.474 41.1592 106.974 41.4732C104.759 41.7514 101.698 40.935 100.298 39.6932C100.093 39.5115 99.9739 39.6517 99.1432 41.0529L98.2168 42.6153L98.7555 43.0419C100.269 44.2405 102.489 44.8742 105.556 44.9827C109.03 45.1056 110.872 44.5858 112.586 42.9991C113.588 42.0706 114.22 40.9737 114.655 39.4017C114.95 38.3366 114.964 37.9808 115.016 30.0407L115.07 21.7868L110.962 21.7868L110.909 26.2857C110.846 31.5769 110.791 31.8625 109.595 33.0655C108.705 33.9613 107.757 34.3242 106.336 34.3137C104.521 34.3001 103.367 33.5223 102.781 31.9182C102.555 31.2987 102.516 30.6184 102.469 26.4983L102.416 21.7868H98.4714V26.997ZM88.3789 25.1204C89.8181 25.5478 90.9493 26.8604 91.1536 28.3403L91.227 28.8717H82.4825L82.6287 28.3403C83.0851 26.6805 84.1845 25.505 85.7187 25.0367C86.3206 24.8529 87.6156 24.8937 88.3789 25.1204ZM142.698 25.43C143.521 25.7974 144.434 26.6145 144.889 27.3919C145.371 28.2136 145.695 29.8498 145.574 30.845C145.349 32.6986 144.358 34.1821 142.851 34.9221C142.13 35.2764 141.891 35.3189 140.626 35.3189C139.411 35.3189 139.118 35.2713 138.572 34.9839C137.025 34.1714 136.188 33.0761 135.872 31.4506C135.322 28.627 136.662 26.041 139.072 25.2733C140.042 24.9644 141.828 25.0416 142.698 25.43ZM164.385 25.4333C166.421 26.3421 167.574 28.6909 167.184 31.1342C166.986 32.3722 166.634 33.1182 165.853 33.9529C165.009 34.8551 164.054 35.2731 162.642 35.3587C159.647 35.5401 157.417 33.352 157.417 30.2308C157.417 27.8139 158.708 25.9574 160.889 25.2359C161.717 24.962 163.563 25.0663 164.385 25.4333Z"
                fill="black"></path>
            <path fill-rule="evenodd" clip-rule="evenodd"
                d="M69.3527 35.3189L69.7247 36.0982C70.378 37.4673 71.6019 38.4308 73.1373 38.7849C73.9676 38.9765 75.6263 38.9672 76.4976 38.7661L77.2169 38.6002V37.5815C77.2169 37.0212 77.1759 36.2637 77.1258 35.898C77.0518 35.358 76.9919 35.2519 76.8069 35.3323C76.6817 35.3868 76.1967 35.4576 75.7291 35.4899C74.6575 35.5637 74.0067 35.2476 73.6036 34.4575C73.33 33.921 73.3188 33.5798 73.28 24.5145L73.2397 15.1271H69.2746L69.3527 35.3189ZM57.0268 21.6452C54.0305 22.1871 51.6001 23.9413 50.4501 26.392C49.8404 27.6911 49.6564 28.63 49.673 30.3595C49.698 32.9662 50.4114 34.6757 52.2251 36.4753C55.4399 39.6647 61.7198 39.7914 64.7826 36.7285C65.1959 36.3153 65.6733 35.7294 65.8436 35.4263L66.1532 34.8755L63.0602 33.0965L62.3098 33.8614C61.1643 35.0288 60.451 35.3189 58.7255 35.3189C57.4604 35.3189 57.2219 35.2764 56.5004 34.9221C54.8023 34.0882 53.8152 32.4253 53.7923 30.3595C53.7668 28.0766 54.6374 26.5246 56.455 25.6127C57.3825 25.1473 57.5268 25.1171 58.7929 25.1235C60.4625 25.1319 61.212 25.4409 62.2949 26.5683C62.7029 26.9928 63.0904 27.3181 63.1562 27.2912C63.2218 27.2643 63.9235 26.8645 64.7154 26.403L66.1552 25.5638L65.841 25.0005C65.4039 24.2167 64.1954 23.0505 63.3353 22.5823C62.9381 22.3662 62.1847 22.0641 61.6611 21.9111C60.5684 21.5917 58.1041 21.4503 57.0268 21.6452ZM85.577 21.6449C82.0407 22.1181 79.4485 24.3654 78.5372 27.7483C78.2063 28.9767 78.2129 31.5814 78.5498 32.8279C78.9477 34.2997 79.5705 35.3662 80.6727 36.4642C82.3916 38.1763 84.1959 38.8471 87.0648 38.8408C89.6474 38.8349 91.5162 38.2241 93.2881 36.8067C94.3214 35.9802 94.3242 36.008 93.0654 34.7026L91.9413 33.537L91.5097 33.8611C89.9133 35.0603 88.7557 35.4518 87.0777 35.3604C85.7779 35.2897 84.9277 34.9734 84.112 34.2572C83.5371 33.7524 82.9454 32.8361 82.7464 32.1426L82.6212 31.7056H95.1076L95.0323 29.8281C94.9896 28.7656 94.8559 27.5838 94.7242 27.1054C93.8338 23.8702 91.6732 22.0338 88.3028 21.6477C86.9434 21.4918 86.7222 21.4917 85.577 21.6449ZM128.015 21.6555C126.51 21.908 125.168 22.5656 124.421 23.4159L123.977 23.9222V21.7868H120.009V38.7905H124.099L124.15 33.8665C124.206 28.5111 124.229 28.3433 125.073 27.1236C125.86 25.9865 127.617 25.2318 129.176 25.3611L129.928 25.4235V21.5035L129.326 21.52C128.995 21.5291 128.405 21.59 128.015 21.6555ZM139.209 21.595C135.438 22.2024 132.645 24.6488 131.844 28.0463C131.576 29.1826 131.574 31.0697 131.839 32.3199C132.526 35.5664 135.083 38.0276 138.501 38.7338C140.616 39.1708 143.605 38.8138 145.164 37.9381C147.413 36.6749 148.815 34.9506 149.424 32.6975C149.73 31.5649 149.77 29.1229 149.5 28.0215C148.792 25.1279 146.585 22.8494 143.602 21.9319C142.617 21.6291 140.165 21.4411 139.209 21.595ZM161.456 21.6052C160.166 21.7851 158.306 22.6481 157.699 23.3476C157.565 23.5024 157.415 23.6289 157.365 23.6289C157.316 23.6289 157.276 23.2144 157.276 22.7079V21.7868H153.308V44.8834H157.417V36.7826L158.035 37.3264C159.4 38.5275 160.986 39.0013 163.298 38.8979C164.467 38.8456 165.114 38.7382 165.886 38.4685C168.727 37.4761 170.661 35.2145 171.235 32.2128C172.216 27.0872 169.447 22.6171 164.734 21.7152C163.689 21.5152 162.408 21.4723 161.456 21.6052ZM98.4714 26.997C98.4714 31.8259 98.4928 32.2849 98.7641 33.2671C99.5991 36.2911 102.012 37.9322 105.633 37.9381C107.609 37.9414 109.27 37.3943 110.463 36.3468L110.987 35.8862L110.889 37.0595C110.659 39.824 109.474 41.1592 106.974 41.4732C104.759 41.7514 101.698 40.935 100.298 39.6932C100.093 39.5115 99.9739 39.6517 99.1432 41.0529L98.2168 42.6153L98.7555 43.0419C100.269 44.2405 102.489 44.8742 105.556 44.9827C109.03 45.1056 110.872 44.5858 112.586 42.9991C113.588 42.0706 114.22 40.9737 114.655 39.4017C114.95 38.3366 114.964 37.9808 115.016 30.0407L115.07 21.7868L110.962 21.7868L110.909 26.2857C110.846 31.5769 110.791 31.8625 109.595 33.0655C108.705 33.9613 107.757 34.3242 106.336 34.3137C104.521 34.3001 103.367 33.5223 102.781 31.9182C102.555 31.2987 102.516 30.6184 102.469 26.4983L102.416 21.7868H98.4714V26.997ZM88.3789 25.1204C89.8181 25.5478 90.9493 26.8604 91.1536 28.3403L91.227 28.8717H82.4825L82.6287 28.3403C83.0851 26.6805 84.1845 25.505 85.7187 25.0367C86.3206 24.8529 87.6156 24.8937 88.3789 25.1204ZM142.698 25.43C143.521 25.7974 144.434 26.6145 144.889 27.3919C145.371 28.2136 145.695 29.8498 145.574 30.845C145.349 32.6986 144.358 34.1821 142.851 34.9221C142.13 35.2764 141.891 35.3189 140.626 35.3189C139.411 35.3189 139.118 35.2713 138.572 34.9839C137.025 34.1714 136.188 33.0761 135.872 31.4506C135.322 28.627 136.662 26.041 139.072 25.2733C140.042 24.9644 141.828 25.0416 142.698 25.43ZM164.385 25.4333C166.421 26.3421 167.574 28.6909 167.184 31.1342C166.986 32.3722 166.634 33.1182 165.853 33.9529C165.009 34.8551 164.054 35.2731 162.642 35.3587C159.647 35.5401 157.417 33.352 157.417 30.2308C157.417 27.8139 158.708 25.9574 160.889 25.2359C161.717 24.962 163.563 25.0663 164.385 25.4333Z"
                fill="black"></path>
            <path fill-rule="evenodd" clip-rule="evenodd"
                d="M69.3527 35.3189L69.7247 36.0982C70.378 37.4673 71.6019 38.4308 73.1373 38.7849C73.9676 38.9765 75.6263 38.9672 76.4976 38.7661L77.2169 38.6002V37.5815C77.2169 37.0212 77.1759 36.2637 77.1258 35.898C77.0518 35.358 76.9919 35.2519 76.8069 35.3323C76.6817 35.3868 76.1967 35.4576 75.7291 35.4899C74.6575 35.5637 74.0067 35.2476 73.6036 34.4575C73.33 33.921 73.3188 33.5798 73.28 24.5145L73.2397 15.1271H69.2746L69.3527 35.3189ZM57.0268 21.6452C54.0305 22.1871 51.6001 23.9413 50.4501 26.392C49.8404 27.6911 49.6564 28.63 49.673 30.3595C49.698 32.9662 50.4114 34.6757 52.2251 36.4753C55.4399 39.6647 61.7198 39.7914 64.7826 36.7285C65.1959 36.3153 65.6733 35.7294 65.8436 35.4263L66.1532 34.8755L63.0602 33.0965L62.3098 33.8614C61.1643 35.0288 60.451 35.3189 58.7255 35.3189C57.4604 35.3189 57.2219 35.2764 56.5004 34.9221C54.8023 34.0882 53.8152 32.4253 53.7923 30.3595C53.7668 28.0766 54.6374 26.5246 56.455 25.6127C57.3825 25.1473 57.5268 25.1171 58.7929 25.1235C60.4625 25.1319 61.212 25.4409 62.2949 26.5683C62.7029 26.9928 63.0904 27.3181 63.1562 27.2912C63.2218 27.2643 63.9235 26.8645 64.7154 26.403L66.1552 25.5638L65.841 25.0005C65.4039 24.2167 64.1954 23.0505 63.3353 22.5823C62.9381 22.3662 62.1847 22.0641 61.6611 21.9111C60.5684 21.5917 58.1041 21.4503 57.0268 21.6452ZM85.577 21.6449C82.0407 22.1181 79.4485 24.3654 78.5372 27.7483C78.2063 28.9767 78.2129 31.5814 78.5498 32.8279C78.9477 34.2997 79.5705 35.3662 80.6727 36.4642C82.3916 38.1763 84.1959 38.8471 87.0648 38.8408C89.6474 38.8349 91.5162 38.2241 93.2881 36.8067C94.3214 35.9802 94.3242 36.008 93.0654 34.7026L91.9413 33.537L91.5097 33.8611C89.9133 35.0603 88.7557 35.4518 87.0777 35.3604C85.7779 35.2897 84.9277 34.9734 84.112 34.2572C83.5371 33.7524 82.9454 32.8361 82.7464 32.1426L82.6212 31.7056H95.1076L95.0323 29.8281C94.9896 28.7656 94.8559 27.5838 94.7242 27.1054C93.8338 23.8702 91.6732 22.0338 88.3028 21.6477C86.9434 21.4918 86.7222 21.4917 85.577 21.6449ZM128.015 21.6555C126.51 21.908 125.168 22.5656 124.421 23.4159L123.977 23.9222V21.7868H120.009V38.7905H124.099L124.15 33.8665C124.206 28.5111 124.229 28.3433 125.073 27.1236C125.86 25.9865 127.617 25.2318 129.176 25.3611L129.928 25.4235V21.5035L129.326 21.52C128.995 21.5291 128.405 21.59 128.015 21.6555ZM139.209 21.595C135.438 22.2024 132.645 24.6488 131.844 28.0463C131.576 29.1826 131.574 31.0697 131.839 32.3199C132.526 35.5664 135.083 38.0276 138.501 38.7338C140.616 39.1708 143.605 38.8138 145.164 37.9381C147.413 36.6749 148.815 34.9506 149.424 32.6975C149.73 31.5649 149.77 29.1229 149.5 28.0215C148.792 25.1279 146.585 22.8494 143.602 21.9319C142.617 21.6291 140.165 21.4411 139.209 21.595ZM161.456 21.6052C160.166 21.7851 158.306 22.6481 157.699 23.3476C157.565 23.5024 157.415 23.6289 157.365 23.6289C157.316 23.6289 157.276 23.2144 157.276 22.7079V21.7868H153.308V44.8834H157.417V36.7826L158.035 37.3264C159.4 38.5275 160.986 39.0013 163.298 38.8979C164.467 38.8456 165.114 38.7382 165.886 38.4685C168.727 37.4761 170.661 35.2145 171.235 32.2128C172.216 27.0872 169.447 22.6171 164.734 21.7152C163.689 21.5152 162.408 21.4723 161.456 21.6052ZM98.4714 26.997C98.4714 31.8259 98.4928 32.2849 98.7641 33.2671C99.5991 36.2911 102.012 37.9322 105.633 37.9381C107.609 37.9414 109.27 37.3943 110.463 36.3468L110.987 35.8862L110.889 37.0595C110.659 39.824 109.474 41.1592 106.974 41.4732C104.759 41.7514 101.698 40.935 100.298 39.6932C100.093 39.5115 99.9739 39.6517 99.1432 41.0529L98.2168 42.6153L98.7555 43.0419C100.269 44.2405 102.489 44.8742 105.556 44.9827C109.03 45.1056 110.872 44.5858 112.586 42.9991C113.588 42.0706 114.22 40.9737 114.655 39.4017C114.95 38.3366 114.964 37.9808 115.016 30.0407L115.07 21.7868L110.962 21.7868L110.909 26.2857C110.846 31.5769 110.791 31.8625 109.595 33.0655C108.705 33.9613 107.757 34.3242 106.336 34.3137C104.521 34.3001 103.367 33.5223 102.781 31.9182C102.555 31.2987 102.516 30.6184 102.469 26.4983L102.416 21.7868H98.4714V26.997ZM88.3789 25.1204C89.8181 25.5478 90.9493 26.8604 91.1536 28.3403L91.227 28.8717H82.4825L82.6287 28.3403C83.0851 26.6805 84.1845 25.505 85.7187 25.0367C86.3206 24.8529 87.6156 24.8937 88.3789 25.1204ZM142.698 25.43C143.521 25.7974 144.434 26.6145 144.889 27.3919C145.371 28.2136 145.695 29.8498 145.574 30.845C145.349 32.6986 144.358 34.1821 142.851 34.9221C142.13 35.2764 141.891 35.3189 140.626 35.3189C139.411 35.3189 139.118 35.2713 138.572 34.9839C137.025 34.1714 136.188 33.0761 135.872 31.4506C135.322 28.627 136.662 26.041 139.072 25.2733C140.042 24.9644 141.828 25.0416 142.698 25.43ZM164.385 25.4333C166.421 26.3421 167.574 28.6909 167.184 31.1342C166.986 32.3722 166.634 33.1182 165.853 33.9529C165.009 34.8551 164.054 35.2731 162.642 35.3587C159.647 35.5401 157.417 33.352 157.417 30.2308C157.417 27.8139 158.708 25.9574 160.889 25.2359C161.717 24.962 163.563 25.0663 164.385 25.4333Z"
                fill="black"></path>
            <path fill-rule="evenodd" clip-rule="evenodd"
                d="M69.3527 35.3189L69.7247 36.0982C70.378 37.4673 71.6019 38.4308 73.1373 38.7849C73.9676 38.9765 75.6263 38.9672 76.4976 38.7661L77.2169 38.6002V37.5815C77.2169 37.0212 77.1759 36.2637 77.1258 35.898C77.0518 35.358 76.9919 35.2519 76.8069 35.3323C76.6817 35.3868 76.1967 35.4576 75.7291 35.4899C74.6575 35.5637 74.0067 35.2476 73.6036 34.4575C73.33 33.921 73.3188 33.5798 73.28 24.5145L73.2397 15.1271H69.2746L69.3527 35.3189ZM57.0268 21.6452C54.0305 22.1871 51.6001 23.9413 50.4501 26.392C49.8404 27.6911 49.6564 28.63 49.673 30.3595C49.698 32.9662 50.4114 34.6757 52.2251 36.4753C55.4399 39.6647 61.7198 39.7914 64.7826 36.7285C65.1959 36.3153 65.6733 35.7294 65.8436 35.4263L66.1532 34.8755L63.0602 33.0965L62.3098 33.8614C61.1643 35.0288 60.451 35.3189 58.7255 35.3189C57.4604 35.3189 57.2219 35.2764 56.5004 34.9221C54.8023 34.0882 53.8152 32.4253 53.7923 30.3595C53.7668 28.0766 54.6374 26.5246 56.455 25.6127C57.3825 25.1473 57.5268 25.1171 58.7929 25.1235C60.4625 25.1319 61.212 25.4409 62.2949 26.5683C62.7029 26.9928 63.0904 27.3181 63.1562 27.2912C63.2218 27.2643 63.9235 26.8645 64.7154 26.403L66.1552 25.5638L65.841 25.0005C65.4039 24.2167 64.1954 23.0505 63.3353 22.5823C62.9381 22.3662 62.1847 22.0641 61.6611 21.9111C60.5684 21.5917 58.1041 21.4503 57.0268 21.6452ZM85.577 21.6449C82.0407 22.1181 79.4485 24.3654 78.5372 27.7483C78.2063 28.9767 78.2129 31.5814 78.5498 32.8279C78.9477 34.2997 79.5705 35.3662 80.6727 36.4642C82.3916 38.1763 84.1959 38.8471 87.0648 38.8408C89.6474 38.8349 91.5162 38.2241 93.2881 36.8067C94.3214 35.9802 94.3242 36.008 93.0654 34.7026L91.9413 33.537L91.5097 33.8611C89.9133 35.0603 88.7557 35.4518 87.0777 35.3604C85.7779 35.2897 84.9277 34.9734 84.112 34.2572C83.5371 33.7524 82.9454 32.8361 82.7464 32.1426L82.6212 31.7056H95.1076L95.0323 29.8281C94.9896 28.7656 94.8559 27.5838 94.7242 27.1054C93.8338 23.8702 91.6732 22.0338 88.3028 21.6477C86.9434 21.4918 86.7222 21.4917 85.577 21.6449ZM128.015 21.6555C126.51 21.908 125.168 22.5656 124.421 23.4159L123.977 23.9222V21.7868H120.009V38.7905H124.099L124.15 33.8665C124.206 28.5111 124.229 28.3433 125.073 27.1236C125.86 25.9865 127.617 25.2318 129.176 25.3611L129.928 25.4235V21.5035L129.326 21.52C128.995 21.5291 128.405 21.59 128.015 21.6555ZM139.209 21.595C135.438 22.2024 132.645 24.6488 131.844 28.0463C131.576 29.1826 131.574 31.0697 131.839 32.3199C132.526 35.5664 135.083 38.0276 138.501 38.7338C140.616 39.1708 143.605 38.8138 145.164 37.9381C147.413 36.6749 148.815 34.9506 149.424 32.6975C149.73 31.5649 149.77 29.1229 149.5 28.0215C148.792 25.1279 146.585 22.8494 143.602 21.9319C142.617 21.6291 140.165 21.4411 139.209 21.595ZM161.456 21.6052C160.166 21.7851 158.306 22.6481 157.699 23.3476C157.565 23.5024 157.415 23.6289 157.365 23.6289C157.316 23.6289 157.276 23.2144 157.276 22.7079V21.7868H153.308V44.8834H157.417V36.7826L158.035 37.3264C159.4 38.5275 160.986 39.0013 163.298 38.8979C164.467 38.8456 165.114 38.7382 165.886 38.4685C168.727 37.4761 170.661 35.2145 171.235 32.2128C172.216 27.0872 169.447 22.6171 164.734 21.7152C163.689 21.5152 162.408 21.4723 161.456 21.6052ZM98.4714 26.997C98.4714 31.8259 98.4928 32.2849 98.7641 33.2671C99.5991 36.2911 102.012 37.9322 105.633 37.9381C107.609 37.9414 109.27 37.3943 110.463 36.3468L110.987 35.8862L110.889 37.0595C110.659 39.824 109.474 41.1592 106.974 41.4732C104.759 41.7514 101.698 40.935 100.298 39.6932C100.093 39.5115 99.9739 39.6517 99.1432 41.0529L98.2168 42.6153L98.7555 43.0419C100.269 44.2405 102.489 44.8742 105.556 44.9827C109.03 45.1056 110.872 44.5858 112.586 42.9991C113.588 42.0706 114.22 40.9737 114.655 39.4017C114.95 38.3366 114.964 37.9808 115.016 30.0407L115.07 21.7868L110.962 21.7868L110.909 26.2857C110.846 31.5769 110.791 31.8625 109.595 33.0655C108.705 33.9613 107.757 34.3242 106.336 34.3137C104.521 34.3001 103.367 33.5223 102.781 31.9182C102.555 31.2987 102.516 30.6184 102.469 26.4983L102.416 21.7868H98.4714V26.997ZM88.3789 25.1204C89.8181 25.5478 90.9493 26.8604 91.1536 28.3403L91.227 28.8717H82.4825L82.6287 28.3403C83.0851 26.6805 84.1845 25.505 85.7187 25.0367C86.3206 24.8529 87.6156 24.8937 88.3789 25.1204ZM142.698 25.43C143.521 25.7974 144.434 26.6145 144.889 27.3919C145.371 28.2136 145.695 29.8498 145.574 30.845C145.349 32.6986 144.358 34.1821 142.851 34.9221C142.13 35.2764 141.891 35.3189 140.626 35.3189C139.411 35.3189 139.118 35.2713 138.572 34.9839C137.025 34.1714 136.188 33.0761 135.872 31.4506C135.322 28.627 136.662 26.041 139.072 25.2733C140.042 24.9644 141.828 25.0416 142.698 25.43ZM164.385 25.4333C166.421 26.3421 167.574 28.6909 167.184 31.1342C166.986 32.3722 166.634 33.1182 165.853 33.9529C165.009 34.8551 164.054 35.2731 162.642 35.3587C159.647 35.5401 157.417 33.352 157.417 30.2308C157.417 27.8139 158.708 25.9574 160.889 25.2359C161.717 24.962 163.563 25.0663 164.385 25.4333Z"
                fill="black"></path>
        </svg>