<svg width="157" height="60"
            viewBox="0 0 157 60" fill="none" xmlns="http://www.w3.org/2000/svg">
            <path
                d="M132.467 14.02C132.637 14.08 132.847 14.07 133.027 14.1C134.167 14.3 135.747 14.96 136.387 15.97C137.097 17.09 136.257 17.46 135.647 18.23C134.577 19.61 134.177 21.34 135.247 22.86C136.867 25.15 140.217 24.67 141.097 22C141.747 20.05 141.057 17.81 140.077 16.1C139.947 15.88 139.507 15.29 139.457 15.12C139.407 14.95 139.437 14.75 139.647 14.78C139.737 14.79 139.887 14.99 139.987 15.04L151.137 25.86C151.407 26.18 151.537 26.55 151.617 26.96C151.607 27.13 151.637 27.32 151.617 27.48C151.567 27.9 151.337 28.37 151.057 28.69C147.457 32.09 143.987 35.63 140.387 39.03C140.287 39.13 139.747 39.64 139.687 39.67C139.467 39.76 139.397 39.54 139.447 39.35C139.477 39.22 139.997 38.51 140.117 38.31C141.177 36.47 141.907 33.79 140.807 31.81C139.637 29.71 136.777 29.6 135.347 31.49C134.077 33.17 134.627 35.07 135.897 36.54C136.327 37.03 136.807 37.24 136.597 38.02C136.207 39.56 133.587 40.41 132.177 40.47C127.237 40.69 126.227 33.51 125.997 29.87C125.757 25.95 125.957 19.52 128.187 16.17C128.907 15.09 130.047 14.14 131.377 14H132.457L132.467 14.02Z"
                fill="black"></path>
            <path
                d="M13.8375 17.03C16.1475 16.92 19.0175 18.19 19.7975 20.52C20.2275 21.83 19.7175 23.62 18.0675 23.43C16.5575 23.26 16.0775 21.4 17.1275 20.4C16.3375 18.91 14.1875 18.6 12.8075 19.42C9.51749 21.37 9.57749 29.37 13.2275 30.95C14.5875 31.54 16.4575 31.15 17.2175 29.81C15.9075 28.57 17.0075 26.32 18.8175 26.81C20.3975 27.24 20.1875 29.33 19.5075 30.46C17.9575 33.04 14.2975 33.72 11.6275 32.67C4.40749 29.83 5.88749 17.43 13.8475 17.03H13.8375Z"
                fill="black"></path>
            <path
                d="M123.657 14.8001C123.657 14.8001 123.737 14.7901 123.777 14.8101C123.867 14.8901 123.927 15.0001 123.857 15.1201C120.157 19.4801 118.617 25.1301 119.667 30.8001C120.257 33.9801 121.797 36.8501 123.827 39.3401C123.977 39.6001 123.777 39.7801 123.507 39.6201C123.367 39.5301 122.947 39.0901 122.777 38.9401C119.237 35.5801 115.807 32.1001 112.257 28.7501C111.517 27.9601 111.487 26.6501 112.197 25.8301L123.187 15.1701C123.327 15.1001 123.497 14.8301 123.637 14.8101L123.657 14.8001Z"
                fill="black"></path>
            <path
                d="M94.6376 30.95C95.2176 32.25 93.6076 32.87 92.6076 33.02C91.3076 33.21 90.7176 32.8 90.4476 31.51C90.0576 31.87 89.7376 32.24 89.2676 32.51C87.6876 33.42 85.5176 33.22 84.3176 31.79C82.9376 30.13 83.5176 26.99 83.3876 24.96C83.3676 24.7 83.3176 24.32 83.1376 24.13C82.8676 23.83 82.2576 23.83 81.8976 23.91C81.4076 22.75 82.5776 22.01 83.5376 21.75C85.1276 21.32 86.2476 21.8 86.2776 23.56C86.3076 25.32 86.0976 27.05 86.3176 28.75C86.4576 29.82 86.7976 30.77 88.0376 30.81C89.5476 30.87 90.2276 29.66 90.3176 28.3C90.3776 27.32 90.3976 25.74 90.3176 24.77C90.2476 23.89 89.6276 23.8 88.8676 23.88C88.3076 22.7 89.6776 21.9 90.6476 21.69C93.6676 21.01 93.1876 23.45 93.1676 25.44C93.1576 27 93.1676 28.55 93.1776 30.11C93.2876 30.89 93.9076 31.09 94.6076 30.96L94.6376 30.95Z"
                fill="black"></path>
            <path
                d="M31.3377 30.89C31.6377 31.19 32.2277 31.25 32.6177 31.31C32.6677 33.46 29.4477 33.55 28.7277 31.83C28.4277 31.99 28.1677 32.22 27.8677 32.39C25.4977 33.72 21.9877 32.95 21.5477 29.98C20.9777 26.23 25.6477 25.24 28.3677 26.3C28.3377 25.43 28.5377 24.15 27.7877 23.52C27.3477 23.15 26.6777 23.11 26.1277 23.15C25.9877 23.16 25.2877 23.29 25.2177 23.35C25.1377 23.42 25.2577 23.78 25.2577 23.91C25.2577 26.19 21.8177 25.8 22.4177 23.48C22.9877 21.26 27.2677 21.14 28.9977 21.73C30.8577 22.36 31.0577 23.66 31.1277 25.43C31.1777 27.01 30.9877 28.79 31.1277 30.33C31.1477 30.53 31.2177 30.75 31.3677 30.89H31.3377ZM26.3077 27.54C25.4177 27.62 24.6177 28.06 24.5377 29.03C24.3277 31.33 27.1977 31.59 28.3377 30.05C28.3377 29.56 28.4077 28.99 28.3577 28.51C28.2677 27.65 26.9877 27.48 26.3077 27.54Z"
                fill="black"></path>
            <path
                d="M75.4875 21.4099H75.7775C83.0575 21.4999 83.2375 32.6199 75.9275 33.0199C68.1575 33.4399 67.8475 21.6699 75.4875 21.4099ZM75.1875 23.1599C72.6775 23.4599 72.7675 27.8499 73.5175 29.5599C74.5475 31.9199 77.1875 31.7399 77.9475 29.2999C78.5875 27.2699 78.1875 22.7999 75.1875 23.1599Z"
                fill="black"></path>
            <path
                d="M63.8373 21.7C63.7273 19.65 64.0273 17.4 66.1473 16.53C67.7873 15.86 71.1273 16.19 71.7773 18.15C72.0873 19.09 71.6073 20.25 70.5373 20.32C69.3173 20.41 68.5673 19.1 69.1773 18.06C68.5173 17.68 67.4173 17.64 66.9473 18.33C66.7973 18.56 66.6173 19.1 66.6173 19.37V21.69H69.3873C69.6073 22 69.6173 22.54 69.4573 22.88C69.0173 23.84 67.5173 23.42 66.6873 23.47V29.99C66.6873 30.11 66.7973 30.52 66.8573 30.64C66.9873 30.92 67.1973 31.04 67.4773 31.13C67.6173 31.18 68.2873 31.29 68.3273 31.33C68.3673 31.38 68.4673 31.7 68.4673 31.77C68.5273 32.61 67.2273 32.77 66.6373 32.82C65.7973 32.9 63.4773 32.94 62.8173 32.45C62.5673 32.26 62.4673 32.04 62.4973 31.73C62.5473 31.26 62.6673 31.35 62.9873 31.22C63.7773 30.89 63.7973 30.5 63.8673 29.69V23.46L63.7773 23.4L62.2573 23.36C61.9173 22.88 62.0373 22.06 62.6273 21.81C62.7073 21.78 63.0073 21.69 63.0673 21.69H63.8273L63.8373 21.7Z"
                fill="black"></path>
            <path
                d="M54.0777 27.3101C54.1577 28.4801 54.6477 29.6101 55.6877 30.2101C56.9777 30.9601 58.7777 30.8501 59.9777 29.9601L60.5477 29.4301C61.4677 30.0601 60.9577 31.2901 60.2977 31.9101C58.8977 33.2101 56.1477 33.3101 54.4677 32.5901C49.6177 30.5101 50.2077 22.8701 55.2977 21.6101C57.2277 21.1301 59.3477 21.5301 60.5677 23.1801C61.3977 24.3201 61.7077 26.0601 60.9677 27.3101H54.0777ZM54.1177 25.6701H58.3277C58.5477 25.6701 58.5377 25.2001 58.5277 25.0601C58.4677 24.0701 57.6477 23.2201 56.6577 23.1501C55.0277 23.0301 54.2277 24.1801 54.1177 25.6801V25.6701Z"
                fill="black"></path>
            <path
                d="M101.138 23.5899C100.148 23.9999 99.9277 25.3299 99.8777 26.2799C99.8277 27.3399 99.8177 28.7899 99.8777 29.8499C99.8977 30.1699 99.9677 30.6699 100.198 30.9099C100.488 31.2099 101.248 31.2399 101.368 31.3799C101.398 31.4199 101.438 31.5299 101.458 31.5899C101.658 32.2299 101.308 32.5399 100.738 32.7099C99.8277 32.9699 97.1577 32.9899 96.3277 32.5699C95.9177 32.3699 95.8077 32.0299 95.9077 31.5899C95.9977 31.2299 96.3277 31.2799 96.6277 31.1199C97.0677 30.8799 97.1877 30.5199 97.2177 30.0399C97.3477 28.2999 97.1177 26.4099 97.2177 24.6599C97.1477 23.7399 96.5577 23.7399 95.7877 23.8899L95.7477 23.8599C95.3277 22.8899 96.0277 22.2099 96.8577 21.8499C97.8877 21.3999 98.9777 21.3599 99.5477 22.4699L99.7777 23.0399C100.418 21.8599 102.048 20.8799 103.328 21.6999C104.888 22.6999 103.808 25.3399 101.988 24.5999C101.578 24.4399 101.228 24.0299 101.158 23.5899H101.138Z"
                fill="black"></path>
            <path
                d="M39.0074 23.6299C38.3474 23.7499 38.0074 24.5499 37.8674 25.1499C37.5974 26.2599 37.6274 28.6699 37.7074 29.8599C37.7374 30.3999 37.8374 30.8899 38.3774 31.1199C38.5174 31.1799 39.1674 31.3099 39.1974 31.3499C39.2474 31.3999 39.3374 31.7099 39.3474 31.7899C39.3774 32.1199 39.2774 32.3399 39.0074 32.5299C38.3474 32.9899 35.8574 32.9199 35.0274 32.8099C34.3974 32.7199 33.6074 32.5099 33.7074 31.7199C33.7674 31.2699 33.8874 31.3699 34.1974 31.2399C34.7574 31.0099 34.9474 30.7999 35.0374 30.1899C35.0374 28.4499 35.1874 26.5699 35.0774 24.8499C35.0574 24.6199 35.0074 24.2099 34.8574 24.0299C34.5874 23.7299 33.9474 23.8199 33.5974 23.8999C33.1674 22.9099 33.8274 22.2299 34.6874 21.8499C36.0074 21.2599 37.2074 21.4999 37.5874 23.0099C38.2774 21.9899 39.4974 21.0799 40.7774 21.5199C42.8274 22.2299 41.8374 25.3599 39.8574 24.6299C39.4474 24.4799 39.0574 24.0799 39.0174 23.6399L39.0074 23.6299Z"
                fill="black"></path>
            <path
                d="M48.2477 23.63C47.7277 23.72 47.3777 24.3 47.2177 24.77C46.8277 25.89 46.8777 28.54 46.9477 29.77C46.9777 30.32 47.0577 30.87 47.6177 31.1C47.7577 31.16 48.4077 31.3 48.4377 31.33C48.4677 31.37 48.5677 31.67 48.5777 31.74C48.6777 32.52 47.9477 32.7 47.3277 32.79C46.4577 32.92 44.0377 32.98 43.3177 32.51C43.0277 32.32 42.8977 32.1 42.9377 31.75C42.9477 31.65 43.0277 31.37 43.1077 31.33C43.1777 31.29 43.3377 31.28 43.4277 31.24C43.9577 31.02 44.1777 30.8201 44.2677 30.22C44.2477 28.47 44.4277 26.55 44.3077 24.8001C44.2977 24.64 44.2577 24.35 44.1977 24.21C43.9877 23.68 43.2577 23.8 42.8277 23.9C42.4277 22.94 43.0077 22.2801 43.8377 21.8901C45.1577 21.2701 46.4277 21.45 46.8177 23.01C47.5377 21.93 48.9177 20.96 50.2477 21.62C51.1577 22.07 51.3977 23.22 50.8777 24.06C50.2177 25.13 48.5077 24.8901 48.2477 23.6401V23.63Z"
                fill="black"></path>
            <path
                d="M44.2775 46.4301L44.1674 45.6101C44.0774 45.5901 44.1074 45.6301 44.0874 45.6601C43.2274 46.6101 42.1974 46.8801 40.9474 46.4901C38.7574 45.8101 38.6774 42.4101 39.4174 40.6501C40.5174 38.0701 43.4674 38.2001 45.7274 39.0101V44.9701L45.8774 46.4401H44.2775V46.4301ZM42.7174 39.8301C40.7974 39.9001 40.5874 42.6801 40.9674 44.0801C41.4174 45.7701 43.5274 45.7301 43.9074 44.1101V40.0701C43.8674 39.9801 43.3974 39.8901 43.2874 39.8701C43.1274 39.8501 42.8774 39.8301 42.7174 39.8301Z"
                fill="black"></path>
            <path
                d="M78.6475 46.4299L78.5375 45.6099C78.4475 45.5899 78.4775 45.6299 78.4575 45.6599C77.6275 46.6199 76.5375 46.8699 75.3175 46.4899C73.3575 45.8799 73.1675 43.2399 73.5175 41.5299C74.1975 38.2399 77.4275 38.0199 80.0975 39.0099V44.9699L80.2475 46.4399H78.6475V46.4299ZM77.0875 39.8299C75.1375 39.8999 74.9475 42.7699 75.3675 44.1599C75.8575 45.7799 77.9375 45.6799 78.2775 44.0999V40.0599C78.2175 39.8899 77.2675 39.8199 77.0875 39.8199V39.8299Z"
                fill="black"></path>
            <path
                d="M62.1273 38.6999V44.0599C62.1273 44.1599 62.2173 44.4899 62.2573 44.5999C62.5673 45.4099 63.6773 45.3399 64.2573 44.8599C64.4273 44.7199 64.7973 44.2399 64.7973 44.0299V38.6999H66.6573V45.1799L66.7673 46.4199H65.2073L65.0973 45.5299C65.0273 45.5099 65.0273 45.5599 64.9973 45.5899C64.4073 46.2299 63.9773 46.5799 63.0473 46.6399C61.3373 46.7499 60.3373 45.8399 60.2773 44.1299V38.6899H62.1373L62.1273 38.6999Z"
                fill="black"></path>
            <path
                d="M88.3677 46.4301H86.5477V41.2501C86.5477 41.1301 86.4777 40.8101 86.4477 40.6801C86.0577 39.2201 83.8377 40.0401 83.8377 41.3201V46.4201H82.0177V40.1301L81.8677 38.7001H83.4277L83.5977 39.6301C84.6377 38.1301 87.4477 37.9601 88.1777 39.8401C88.2377 40.0001 88.3677 40.4501 88.3677 40.6101V46.4201V46.4301Z"
                fill="black"></path>
            <path
                d="M102.058 42.2199C101.168 43.0999 99.5476 43.2899 98.3576 43.3099C98.4676 45.4999 100.758 45.6999 102.218 44.5699L102.768 45.7799L102.738 45.8399C101.048 47.0199 98.0476 47.0699 96.9776 45.0299C96.0976 43.3499 96.3976 40.5799 97.8776 39.3099C98.8876 38.4399 100.648 38.1499 101.808 38.8699C102.968 39.5899 102.958 41.3199 102.058 42.2099V42.2199ZM98.2776 42.1199C99.2576 42.0999 101.208 41.8499 101.018 40.4699C100.968 40.0999 100.618 39.8499 100.258 39.8099C98.9376 39.6899 98.3376 40.9899 98.2676 42.1099L98.2776 42.1199Z"
                fill="black"></path>
            <path
                d="M53.8975 44.5699C54.4775 44.8599 55.0575 45.1699 55.7075 45.2699C56.3575 45.3699 57.2075 45.2499 57.2775 44.4399C57.3675 43.3799 56.0275 43.2799 55.2875 43.0099C54.1675 42.6099 53.5075 41.9699 53.6075 40.6899C53.8175 38.0299 57.6875 37.9399 59.1875 39.5499C59.0875 39.6999 58.4075 40.5999 58.3275 40.6199C58.2975 40.6199 58.2675 40.6199 58.2475 40.6099C57.8675 40.2699 57.3475 39.9599 56.8375 39.8599C56.1475 39.7299 55.2975 39.9699 55.3875 40.8199C55.4675 41.5799 56.5575 41.7199 57.1375 41.9299C58.0675 42.2699 58.9975 42.7599 59.0975 43.8699C59.3475 46.6099 56.5175 47.0299 54.4675 46.3899C54.2975 46.3399 53.4075 45.9899 53.3975 45.8399L53.9075 44.5599L53.8975 44.5699Z"
                fill="black"></path>
            <path
                d="M49.6573 38.49C50.7673 38.39 51.9973 38.77 52.7773 39.57L51.9073 40.62C51.8173 40.64 51.7473 40.51 51.6673 40.46C51.2273 40.15 50.6073 39.81 50.0473 39.81C48.8373 39.81 48.5073 41.09 49.6973 41.61C50.7973 42.08 52.4673 42.24 52.6573 43.77C53.0273 46.74 49.7573 47.11 47.6573 46.25C47.5373 46.2 46.9973 45.95 46.9873 45.84L47.5273 44.56C48.0573 44.86 48.6673 45.16 49.2773 45.25C50.0973 45.38 51.0073 45.12 50.8373 44.1C50.7073 43.35 49.2273 43.15 48.6173 42.9C46.0973 41.86 47.0273 38.71 49.6473 38.47L49.6573 38.49Z"
                fill="black"></path>
            <path
                d="M93.0373 38.4901C94.2773 38.3801 95.4873 38.8901 96.1973 39.9101C96.1973 39.9601 96.1073 40.0401 96.0673 40.0701C95.9573 40.1701 95.0973 40.9001 95.0373 40.8801C94.6773 40.4601 94.1573 40.0001 93.5873 39.9601C91.7273 39.8101 91.4973 42.1501 91.7573 43.5001C92.1473 45.4701 93.9373 45.5501 95.3673 44.5301L96.0473 45.7101C96.0473 45.7101 96.0473 45.7801 96.0173 45.8101C95.9373 45.9001 95.4173 46.1901 95.2773 46.2501C93.0273 47.2701 90.4873 46.4501 89.9573 43.8901C89.4673 41.5201 90.2873 38.7301 93.0473 38.4901H93.0373Z"
                fill="black"></path>
            <path
                d="M69.9973 38.6999L70.1473 39.7799L70.6473 39.0399C71.2773 38.4599 72.1473 38.3399 72.9373 38.6399C73.0273 38.6699 73.2073 38.7399 73.2273 38.8399L72.9273 40.3399C72.3973 40.1399 71.9273 39.9299 71.3573 40.1299C70.9173 40.2799 70.4373 40.9099 70.4373 41.3699V46.4399H68.5773V39.8499L68.4673 38.7199H69.9873L69.9973 38.6999Z"
                fill="black"></path>
        </svg>