<svg width="157" height="60"
            viewBox="0 0 157 60" fill="none" xmlns="http://www.w3.org/2000/svg">
            <path d="M6.03027 19.8V26.6H12.8303V40.2001H19.6103V26.6H26.4403V19.8H6.03027Z" fill="black"></path>
            <path d="M33.2204 33.4001V26.6001H26.4404V40.2001H46.8204V33.4001H33.2204Z" fill="black"></path>
            <path d="M46.8202 19.8H33.2202V26.6H46.8202V19.8Z" fill="black"></path>
            <path d="M60.4403 27.0651V36.0951H57.1503V27.0651H53.8203V24.1851H63.7803V27.0651H60.4503H60.4403Z"
                fill="black"></path>
            <path
                d="M71.4704 32.4951H66.2204C66.3304 33.4851 66.9004 33.9151 67.7304 33.9151C68.5204 33.9151 69.1704 33.7351 70.0504 33.2851L71.2204 35.2451C70.1204 35.8951 68.9704 36.2551 67.5704 36.2551C64.8904 36.2551 63.4004 34.3451 63.4004 31.6151C63.4004 28.5251 65.1304 26.9551 67.4804 26.9551C69.8304 26.9551 71.4704 28.5751 71.4704 31.8851C71.4904 32.1551 71.4904 32.3551 71.4704 32.4951ZM67.4204 29.2551C66.7204 29.2551 66.3404 29.7251 66.2304 30.6051H68.7804C68.6404 29.7051 68.3304 29.2551 67.4304 29.2551H67.4204Z"
                fill="black"></path>
            <path
                d="M77.1705 36.2751C74.5605 36.2751 72.9805 34.6051 72.9805 31.5951C72.9805 28.8451 74.3805 26.9751 77.2405 26.9751C78.9305 26.9751 79.9005 27.7651 80.6605 29.0051L78.5405 30.6051C78.1105 29.8151 77.8205 29.4551 77.1705 29.4551C76.3805 29.4551 76.0005 30.2451 76.0005 31.6651C76.0005 33.0851 76.4305 33.8051 77.2605 33.8051C77.8505 33.8051 78.2505 33.4951 78.8105 32.6551L80.7505 34.1651C79.7105 35.6751 78.7505 36.2851 77.1705 36.2851V36.2751Z"
                fill="black"></path>
            <path
                d="M87.6002 36.0951V31.0251C87.6002 29.8751 87.2202 29.5651 86.5902 29.5651C85.9602 29.5651 85.5502 29.8551 85.5502 31.0051V36.0951H82.4902V24.9251L85.5502 23.7051V27.7851C86.1102 27.3551 86.7402 26.9951 87.8002 26.9951C89.7602 26.9951 90.6802 28.3051 90.6802 30.6451V36.0951H87.5902H87.6002Z"
                fill="black"></path>
            <path
                d="M98.0101 36.2751C94.4701 36.2751 92.5801 33.6651 92.5801 30.1451C92.5801 26.3151 94.8301 24.0151 98.0101 24.0151C100.94 24.0151 102.09 25.2751 102.92 27.5251L99.9201 28.6751C99.4901 27.5751 99.0901 26.8751 98.0101 26.8751C96.6401 26.8751 96.0501 28.2451 96.0501 30.1451C96.0501 32.0451 96.6401 33.4151 98.0501 33.4151C99.0901 33.4151 99.5401 32.8551 100.17 31.7251L102.96 33.2151C102.17 34.7651 100.84 36.2751 98.0001 36.2751H98.0101Z"
                fill="black"></path>
            <path
                d="M110.491 30.5351C110.111 30.1051 109.661 29.7951 109.071 29.7951C108.331 29.7951 107.851 30.1551 107.851 31.2351V36.1051H104.791V27.1851H107.851V27.8351C108.371 27.3151 108.981 27.0051 109.761 27.0051C110.411 27.0051 110.841 27.1651 111.201 27.3851L110.481 30.5351H110.491Z"
                fill="black"></path>
            <path
                d="M117.76 36.0951V35.5051C117.22 35.9351 116.57 36.2951 115.53 36.2951C113.57 36.2951 112.65 34.9851 112.65 32.6451V27.1951H115.74V32.2651C115.74 33.4151 116.12 33.7251 116.75 33.7251C117.38 33.7251 117.76 33.4351 117.76 32.2851V27.1951H120.85V36.1151H117.76V36.0951Z"
                fill="black"></path>
            <path
                d="M128.171 36.0951V31.0251C128.171 29.8751 127.791 29.5651 127.161 29.5651C126.531 29.5651 126.121 29.8551 126.121 31.0051V36.0951H123.061V27.1751H126.121V27.7651C126.681 27.3351 127.311 26.9751 128.371 26.9751C130.331 26.9751 131.251 28.2851 131.251 30.6251V36.0751H128.161V36.0951H128.171Z"
                fill="black"></path>
            <path
                d="M137.22 36.2751C134.61 36.2751 133.03 34.6051 133.03 31.5951C133.03 28.8451 134.43 26.9751 137.29 26.9751C138.98 26.9751 139.95 27.7651 140.71 29.0051L138.59 30.6051C138.16 29.8151 137.87 29.4551 137.22 29.4551C136.43 29.4551 136.05 30.2451 136.05 31.6651C136.05 33.0851 136.48 33.8051 137.31 33.8051C137.9 33.8051 138.3 33.4951 138.86 32.6551L140.8 34.1651C139.76 35.6751 138.8 36.2851 137.22 36.2851V36.2751Z"
                fill="black"></path>
            <path
                d="M147.651 36.0951V31.0251C147.651 29.8751 147.271 29.5651 146.641 29.5651C146.011 29.5651 145.601 29.8551 145.601 31.0051V36.0951H142.541V24.9251L145.601 23.7051V27.7851C146.161 27.3551 146.791 26.9951 147.851 26.9951C149.811 26.9951 150.731 28.3051 150.731 30.6451V36.0951H147.641H147.651Z"
                fill="black"></path>
        </svg>